<svg xmlns="http://www.w3.org/2000/svg" width="400" height="330.977" viewBox="0 0 400 330.977">
  <g id="Grupo_162830" data-name="Grupo 162830" transform="translate(-1020 -6788.023)">
    <g id="Grupo_162829" data-name="Grupo 162829" transform="translate(1014.873 6741.566)">
      <g id="Floor" transform="translate(43.127 356.198)">
        <g id="Grupo_162544" data-name="Grupo 162544">
          <path id="Trazado_155039" data-name="Trazado 155039" d="M360.749,458.788c0,.108-71.107.2-158.8.2-87.726,0-158.819-.087-158.819-.2s71.093-.2,158.819-.2C289.642,458.593,360.749,458.68,360.749,458.788Z" transform="translate(-43.127 -458.593)" fill="#263238"/>
        </g>
      </g>
      <g id="Note" transform="translate(130.195 46.458)">
        <g id="Grupo_162550" data-name="Grupo 162550">
          <g id="Grupo_162545" data-name="Grupo 162545" transform="translate(4.978 0.749)">
            <path id="Trazado_155040" data-name="Trazado 155040" d="M170.774,70.518,188.9,125.8c7.205,2.007,14.54,3.6,23.279.776l41.273-14.936L228.919,48.512Z" transform="translate(-166.888 -47.717)" fill="#e0e0e0"/>
            <path id="Trazado_155041" data-name="Trazado 155041" d="M165.6,68.434l18.13,55.279,5.847.195,17.432.581,41.273-14.935-20.938-62.1Z" transform="translate(-165.603 -47.454)" fill="#ebc9b1"/>
            <path id="Trazado_155042" data-name="Trazado 155042" d="M195.2,140.077l-5.474,6.648a25.027,25.027,0,0,0,9.842,2.782A36.143,36.143,0,0,0,213,147.5S202.481,148.13,195.2,140.077Z" transform="translate(-171.596 -70.466)" fill="#fd9827"/>
            <path id="Trazado_155043" data-name="Trazado 155043" d="M195.2,140.077c-1.664,3.364-3.343,7.305-5.474,6.648a25.027,25.027,0,0,0,9.842,2.782A36.143,36.143,0,0,0,213,147.5S202.481,148.13,195.2,140.077Z" transform="translate(-171.596 -70.466)" fill="#785549"/>
          </g>
          <path id="Trazado_155044" data-name="Trazado 155044" d="M164.349,84.872l21.058-22.658-4.733-4.455-21.7,22.523Z" transform="translate(-158.979 -49.265)" fill="#e0e0e0"/>
          <path id="Trazado_155045" data-name="Trazado 155045" d="M253.539,57.989l-28.7-11.532-2.462,6.016L251.18,64.649Z" transform="translate(-174.729 -46.458)" fill="#e0e0e0"/>
          <g id="Grupo_162546" data-name="Grupo 162546" transform="translate(19.571 22.693)">
            <path id="Trazado_155046" data-name="Trazado 155046" d="M231.953,76.655c.035.1-10.444,3.761-23.4,8.172s-23.5,7.9-23.531,7.8,10.442-3.761,23.4-8.172S231.918,76.553,231.953,76.655Z" transform="translate(-185.019 -76.653)" fill="#263238"/>
          </g>
          <g id="Grupo_162547" data-name="Grupo 162547" transform="translate(22.244 31.228)">
            <path id="Trazado_155047" data-name="Trazado 155047" d="M235.51,88.011c.035.1-10.444,3.762-23.4,8.172s-23.5,7.9-23.531,7.8,10.442-3.761,23.4-8.172S235.475,87.909,235.51,88.011Z" transform="translate(-188.576 -88.009)" fill="#263238"/>
          </g>
          <g id="Grupo_162548" data-name="Grupo 162548" transform="translate(25.061 38.642)">
            <path id="Trazado_155048" data-name="Trazado 155048" d="M239.258,97.876c.035.1-10.444,3.762-23.4,8.172s-23.5,7.9-23.531,7.8,10.442-3.76,23.4-8.172S239.223,97.774,239.258,97.876Z" transform="translate(-192.324 -97.874)" fill="#263238"/>
          </g>
          <g id="Grupo_162549" data-name="Grupo 162549" transform="translate(27.469 45.884)">
            <path id="Trazado_155049" data-name="Trazado 155049" d="M242.463,107.512c.035.1-10.444,3.761-23.4,8.172s-23.5,7.9-23.531,7.8,10.442-3.761,23.406-8.172S242.428,107.41,242.463,107.512Z" transform="translate(-195.529 -107.51)" fill="#263238"/>
          </g>
        </g>
      </g>
      <g id="Character_2" data-name="Character 2" transform="translate(183.987 127.657)">
        <g id="Grupo_162677" data-name="Grupo 162677" transform="translate(0 0)">
          <path id="Trazado_155050" data-name="Trazado 155050" d="M285.709,309.745,282.073,343.6s-7.085-10.713-11.881-5.938c-4.569,4.548-12.637,37.764-12.637,37.764s-.112,10.831,5.651,13.692c18.448,9.158,39-8.111,39-8.111L299.291,284.2h0A38.831,38.831,0,0,0,285.709,309.745Z" transform="translate(-237.262 -186.724)" fill="#fd9827"/>
          <g id="Grupo_162607" data-name="Grupo 162607" transform="translate(51.163)">
            <g id="Grupo_162606" data-name="Grupo 162606">
              <g id="Grupo_162605" data-name="Grupo 162605">
                <g id="Grupo_162601" data-name="Grupo 162601" transform="translate(9.876)">
                  <g id="Grupo_162599" data-name="Grupo 162599" transform="translate(4.347 15.879)">
                    <g id="Grupo_162559" data-name="Grupo 162559">
                      <g id="Grupo_162558" data-name="Grupo 162558">
                        <g id="Grupo_162557" data-name="Grupo 162557">
                          <g id="Grupo_162553" data-name="Grupo 162553">
                            <g id="Grupo_162552" data-name="Grupo 162552">
                              <g id="Grupo_162551" data-name="Grupo 162551">
                                <path id="Trazado_155051" data-name="Trazado 155051" d="M362.9,259.266l-31.951-2.552c-.2-3.731.068-18.163.068-18.163s-13.293-2.067-13.458-15.358,2.14-43.812,2.14-43.812h0a46.2,46.2,0,0,1,46.417,5.834l1.969,1.517Z" transform="translate(-317.554 -175.628)" fill="#b78876"/>
                              </g>
                            </g>
                          </g>
                          <g id="Grupo_162556" data-name="Grupo 162556" transform="translate(13.414 57.808)">
                            <g id="Grupo_162555" data-name="Grupo 162555">
                              <g id="Grupo_162554" data-name="Grupo 162554">
                                <path id="Trazado_155052" data-name="Trazado 155052" d="M335.433,257.47a30.91,30.91,0,0,0,17.328-4.924s-4.1,9.565-17.359,8.368Z" transform="translate(-335.402 -252.546)" fill="#aa6550"/>
                              </g>
                            </g>
                          </g>
                        </g>
                      </g>
                    </g>
                    <g id="Grupo_162567" data-name="Grupo 162567" transform="translate(48.378 24.453)">
                      <g id="Grupo_162562" data-name="Grupo 162562">
                        <g id="Grupo_162561" data-name="Grupo 162561">
                          <g id="Grupo_162560" data-name="Grupo 162560">
                            <path id="Trazado_155053" data-name="Trazado 155053" d="M382.444,208.584c.227-.1,9.133-2.7,8.842,6.386s-9.353,6.921-9.361,6.66S382.444,208.584,382.444,208.584Z" transform="translate(-381.925 -208.165)" fill="#b78876"/>
                          </g>
                        </g>
                      </g>
                      <g id="Grupo_162566" data-name="Grupo 162566" transform="translate(2.877 2.975)">
                        <g id="Grupo_162565" data-name="Grupo 162565">
                          <g id="Grupo_162564" data-name="Grupo 162564">
                            <g id="Grupo_162563" data-name="Grupo 162563">
                              <path id="Trazado_155054" data-name="Trazado 155054" d="M385.762,219.259c.041-.028.155.116.419.247a1.582,1.582,0,0,0,1.182.062c.971-.321,1.829-1.82,1.925-3.456a5.232,5.232,0,0,0-.371-2.281,1.831,1.831,0,0,0-1.152-1.253.807.807,0,0,0-.948.4c-.129.25-.077.434-.126.447-.026.023-.19-.158-.105-.531a1.013,1.013,0,0,1,.376-.558,1.194,1.194,0,0,1,.883-.2,2.226,2.226,0,0,1,1.608,1.461,5.382,5.382,0,0,1,.468,2.551c-.117,1.829-1.109,3.513-2.435,3.85a1.693,1.693,0,0,1-1.44-.287C385.771,219.479,385.73,219.275,385.762,219.259Z" transform="translate(-385.753 -212.124)" fill="#aa6550"/>
                            </g>
                          </g>
                        </g>
                      </g>
                    </g>
                    <g id="Grupo_162598" data-name="Grupo 162598" transform="translate(4.634 13.297)">
                      <g id="Grupo_162597" data-name="Grupo 162597">
                        <g id="Grupo_162590" data-name="Grupo 162590" transform="translate(0 7.159)">
                          <g id="Grupo_162589" data-name="Grupo 162589">
                            <g id="Grupo_162588" data-name="Grupo 162588">
                              <g id="Grupo_162575" data-name="Grupo 162575">
                                <g id="Grupo_162570" data-name="Grupo 162570" transform="translate(0.443 2.18)">
                                  <g id="Grupo_162569" data-name="Grupo 162569">
                                    <g id="Grupo_162568" data-name="Grupo 162568">
                                      <path id="Trazado_155055" data-name="Trazado 155055" d="M324.311,207.464a1.9,1.9,0,0,0,1.83,1.915,1.816,1.816,0,0,0,1.957-1.711,1.9,1.9,0,0,0-1.829-1.916A1.817,1.817,0,0,0,324.311,207.464Z" transform="translate(-324.31 -205.748)" fill="#263238"/>
                                    </g>
                                  </g>
                                </g>
                                <g id="Grupo_162574" data-name="Grupo 162574">
                                  <g id="Grupo_162573" data-name="Grupo 162573">
                                    <g id="Grupo_162572" data-name="Grupo 162572">
                                      <g id="Grupo_162571" data-name="Grupo 162571">
                                        <path id="Trazado_155056" data-name="Trazado 155056" d="M323.75,204.842c.235.248,1.673-.816,3.716-.811,2.04-.024,3.54,1.027,3.761.777.109-.111-.131-.558-.783-1.033a5.207,5.207,0,0,0-3.011-.927,5,5,0,0,0-2.957.954C323.847,204.283,323.634,204.731,323.75,204.842Z" transform="translate(-323.72 -202.847)" fill="#263238"/>
                                      </g>
                                    </g>
                                  </g>
                                </g>
                              </g>
                              <g id="Grupo_162583" data-name="Grupo 162583" transform="translate(20.077 0.381)">
                                <g id="Grupo_162578" data-name="Grupo 162578" transform="translate(0.369 2.512)">
                                  <g id="Grupo_162577" data-name="Grupo 162577">
                                    <g id="Grupo_162576" data-name="Grupo 162576">
                                      <path id="Trazado_155057" data-name="Trazado 155057" d="M350.927,208.412a1.9,1.9,0,0,0,1.83,1.915,1.815,1.815,0,0,0,1.956-1.711,1.9,1.9,0,0,0-1.829-1.916A1.817,1.817,0,0,0,350.927,208.412Z" transform="translate(-350.926 -206.696)" fill="#263238"/>
                                    </g>
                                  </g>
                                </g>
                                <g id="Grupo_162582" data-name="Grupo 162582">
                                  <g id="Grupo_162581" data-name="Grupo 162581">
                                    <g id="Grupo_162580" data-name="Grupo 162580">
                                      <g id="Grupo_162579" data-name="Grupo 162579">
                                        <path id="Trazado_155058" data-name="Trazado 155058" d="M350.464,205.349c.236.248,1.676-.816,3.716-.811,2.04-.023,3.54,1.027,3.762.777.108-.111-.129-.558-.785-1.033a5.2,5.2,0,0,0-3.01-.928,5,5,0,0,0-2.958.954C350.563,204.791,350.349,205.238,350.464,205.349Z" transform="translate(-350.434 -203.354)" fill="#263238"/>
                                      </g>
                                    </g>
                                  </g>
                                </g>
                              </g>
                              <g id="Grupo_162587" data-name="Grupo 162587" transform="translate(7.491 0.505)">
                                <g id="Grupo_162586" data-name="Grupo 162586">
                                  <g id="Grupo_162585" data-name="Grupo 162585">
                                    <g id="Grupo_162584" data-name="Grupo 162584">
                                      <path id="Trazado_155059" data-name="Trazado 155059" d="M338.891,220.538a13.48,13.48,0,0,0-3.317-.6c-.522-.053-1.015-.157-1.1-.513a2.655,2.655,0,0,1,.348-1.546q.736-1.893,1.543-3.971c2.142-5.655,3.692-10.3,3.464-10.389s-2.15,4.43-4.292,10.085c-.516,1.395-1.009,2.724-1.478,4a3.021,3.021,0,0,0-.271,2.046,1.309,1.309,0,0,0,.858.763,3.581,3.581,0,0,0,.886.123A13.314,13.314,0,0,0,338.891,220.538Z" transform="translate(-333.687 -203.518)" fill="#263238"/>
                                    </g>
                                  </g>
                                </g>
                              </g>
                            </g>
                          </g>
                        </g>
                        <g id="Grupo_162593" data-name="Grupo 162593" transform="translate(19.569)">
                          <g id="Grupo_162592" data-name="Grupo 162592">
                            <g id="Grupo_162591" data-name="Grupo 162591">
                              <path id="Trazado_155060" data-name="Trazado 155060" d="M349.769,194.852c.2.555,2.24.292,4.637.581,2.4.24,4.334.942,4.652.444.142-.238-.195-.761-.976-1.3A8.125,8.125,0,0,0,351,193.8C350.126,194.151,349.682,194.588,349.769,194.852Z" transform="translate(-349.759 -193.321)" fill="#263238"/>
                            </g>
                          </g>
                        </g>
                        <g id="Grupo_162596" data-name="Grupo 162596" transform="translate(0.728 1.127)">
                          <g id="Grupo_162595" data-name="Grupo 162595">
                            <g id="Grupo_162594" data-name="Grupo 162594">
                              <path id="Trazado_155061" data-name="Trazado 155061" d="M324.742,196.937c.359.464,1.766-.018,3.459-.04,1.691-.083,3.124.311,3.454-.174.145-.235-.08-.7-.707-1.139a5.008,5.008,0,0,0-5.57.173C324.779,196.232,324.583,196.71,324.742,196.937Z" transform="translate(-324.689 -194.821)" fill="#263238"/>
                            </g>
                          </g>
                        </g>
                      </g>
                    </g>
                  </g>
                  <g id="Grupo_162600" data-name="Grupo 162600">
                    <path id="Trazado_155062" data-name="Trazado 155062" d="M311.79,165.742a4.907,4.907,0,0,1,1.812-4.384,3.48,3.48,0,0,1,4.509.337,4.061,4.061,0,0,1,3.491-4.926c2.167-.138,4.016,1.5,6.111,2.074a9.87,9.87,0,0,0,6.206-.716c1.967-.792,3.805-1.885,5.8-2.612a17,17,0,0,1,21.738,9.98c2.907-.909,6.21.567,8,3.03a12.375,12.375,0,0,1,1.9,8.721,27.673,27.673,0,0,1-1.52,5.964c0,.171.017.339.014.51-.138,7.309-.963,15.892-4.082,15.94-5.435.083-4.14-10.156-4.14-10.156-6.669-2.577-4.185-12.57-5.852-14.086s-5.156-5.038-19.12,2.1c-5.422,2.771-12.632,2.685-16.568,1.792-.115-.025-.232-.042-.347-.07-.024-.007-.056-.011-.08-.017-.044-.01-.074-.034-.116-.046a12.581,12.581,0,0,1-3.581-1.52,7.079,7.079,0,0,1-2.951-3.281,3.873,3.873,0,0,1,.762-4.161A8.52,8.52,0,0,1,311.79,165.742Z" transform="translate(-311.77 -154.5)" fill="#263238"/>
                  </g>
                </g>
                <g id="Grupo_162604" data-name="Grupo 162604" transform="translate(0 91.809)">
                  <g id="Grupo_162603" data-name="Grupo 162603">
                    <g id="Grupo_162602" data-name="Grupo 162602">
                      <path id="Trazado_155063" data-name="Trazado 155063" d="M384.338,367.773l1,18.861,2.246,27.093H302.195L305.9,373.7l-7.273-63.242c.631-22.347,9.213-31.64,26.771-33.775.147-.018-1.531.191-1.383.174,2.417-.286,0,0,1.383-.174a56.528,56.528,0,0,0,34.068-.021h0c5.265.223,9.627,1.844,14.1,2.7,14.105,2.7,25.719,13.6,28.539,23.088C404.434,310.261,421.231,378,421.231,378H387.817Z" transform="translate(-298.63 -276.659)" fill="#fd9827"/>
                    </g>
                  </g>
                </g>
              </g>
            </g>
          </g>
          <path id="Trazado_155064" data-name="Trazado 155064" d="M338.211,233.767a9.12,9.12,0,0,0,1.184,2.322,3.085,3.085,0,0,0,2.192,1.272,2.767,2.767,0,0,0,2.34-1.276,4.417,4.417,0,0,0,.652-2.662c-.038-.839-.422-1.841-1.256-1.939a2.1,2.1,0,0,0-1.013.224l-4.384,1.778" transform="translate(-257.23 -173.624)" fill="#aa6550"/>
          <g id="Grupo_162608" data-name="Grupo 162608" transform="translate(79.865 57.399)">
            <path id="Trazado_155065" data-name="Trazado 155065" d="M339.686,237.224a6.356,6.356,0,0,0,2.339-.289,3.345,3.345,0,0,0,1.768-1.606,3.52,3.52,0,0,0,.057-2.868,3.155,3.155,0,0,0-.382-.655c-.174-.183-.142-.174-.331-.147-.178.049-.467.184-.7.276l-.72.293c-.939.38-1.788.712-2.506.98a7.966,7.966,0,0,1-2.388.718,8.013,8.013,0,0,1,2.17-1.227c.69-.334,1.517-.718,2.44-1.134l.709-.318a8.1,8.1,0,0,1,.8-.33,1.024,1.024,0,0,1,.651.02,1.206,1.206,0,0,1,.483.382,3.762,3.762,0,0,1,.493.831,4.109,4.109,0,0,1-.134,3.507,3.749,3.749,0,0,1-2.225,1.8,3.526,3.526,0,0,1-1.9.074C339.874,237.416,339.67,237.267,339.686,237.224Z" transform="translate(-336.82 -230.874)" fill="#263238"/>
          </g>
          <g id="Grupo_162654" data-name="Grupo 162654" transform="translate(0 78.632)">
            <g id="Grupo_162653" data-name="Grupo 162653">
              <g id="Grupo_162612" data-name="Grupo 162612" transform="translate(0.531)">
                <g id="Grupo_162611" data-name="Grupo 162611">
                  <g id="Grupo_162610" data-name="Grupo 162610">
                    <g id="Grupo_162609" data-name="Grupo 162609">
                      <path id="Trazado_155066" data-name="Trazado 155066" d="M281.749,359.643,261.637,297.9l-1.82-10.368s-5.472-23.112-5.716-25.4c-.281-2.643-1.623-3.143-2.589-2.973-1.508.265-2.382,2.25-2.211,4.525.059.787,1.491,13.157,1.491,13.157a29.284,29.284,0,0,0-2.757-3.084c-2.081-2.12-6.523-2.981-10.92-2.364s-5.574,1.178-5.414,2.9a2.2,2.2,0,0,0,1.045,1.573,4.348,4.348,0,0,0,3.018.69c7.056-.891,9.365,2.682,9.365,2.682l.238,1.356s-4.627-2.6-7.909-.941a4.174,4.174,0,0,0-1.274.989,5.563,5.563,0,0,0-3.9,8.766,2.312,2.312,0,0,0,2.371,1.148,2.957,2.957,0,0,0,1.169-.894,4.417,4.417,0,0,1,.579-.533l1.2,3.706s3.139,8.182,4.1,11.9l9.793,62.179a15.606,15.606,0,0,0,18.116,12.944h0A15.606,15.606,0,0,0,281.749,359.643Z" transform="translate(-231.259 -259.125)" fill="#b78876"/>
                    </g>
                  </g>
                </g>
              </g>
              <g id="Grupo_162622" data-name="Grupo 162622" transform="translate(13.644 23.017)">
                <g id="Grupo_162616" data-name="Grupo 162616" transform="translate(0.379 0.366)">
                  <g id="Grupo_162615" data-name="Grupo 162615">
                    <g id="Grupo_162614" data-name="Grupo 162614">
                      <g id="Grupo_162613" data-name="Grupo 162613">
                        <path id="Trazado_155067" data-name="Trazado 155067" d="M263.973,304.992c-1.26.5-2.693-.312-3.517-1.385s-1.26-2.394-2.005-3.523c-2.227-3.378-6.865-4.605-8.928-8.087-.287-.486-.49-1.175-.077-1.558.383-.356,1-.173,1.478.03l12.354,5.2" transform="translate(-249.212 -290.237)" fill="#b78876"/>
                      </g>
                    </g>
                  </g>
                </g>
                <g id="Grupo_162621" data-name="Grupo 162621">
                  <g id="Grupo_162620" data-name="Grupo 162620">
                    <g id="Grupo_162619" data-name="Grupo 162619">
                      <g id="Grupo_162618" data-name="Grupo 162618">
                        <g id="Grupo_162617" data-name="Grupo 162617">
                          <path id="Trazado_155068" data-name="Trazado 155068" d="M263.153,295.545a5.421,5.421,0,0,0-1.278-.7c-.842-.4-2.071-.966-3.6-1.644l-5.371-2.349-1.556-.669a2.658,2.658,0,0,0-1.98-.339,1.131,1.131,0,0,0-.661,1.083,2.321,2.321,0,0,0,.31,1.052,8.713,8.713,0,0,0,1.187,1.579c1.84,1.924,4.064,3.017,5.736,4.385a10.118,10.118,0,0,1,2.1,2.17c.531.778.9,1.616,1.323,2.352a4.716,4.716,0,0,0,3.019,2.617,1.7,1.7,0,0,0,1.46-.212,3.922,3.922,0,0,1-1.387-.077,4.568,4.568,0,0,1-2.616-2.585c-.379-.725-.719-1.584-1.272-2.446a10.41,10.41,0,0,0-2.186-2.365c-1.721-1.448-3.927-2.575-5.622-4.36a8.242,8.242,0,0,1-1.078-1.423c-.276-.483-.3-1-.014-1.084.3-.139.868.1,1.395.327l1.566.645,5.435,2.2c1.551.616,2.812,1.1,3.689,1.421A5.331,5.331,0,0,0,263.153,295.545Z" transform="translate(-248.708 -289.751)" fill="#aa6550"/>
                        </g>
                      </g>
                    </g>
                  </g>
                </g>
              </g>
              <g id="Grupo_162627" data-name="Grupo 162627" transform="translate(0.863 14.356)">
                <g id="Grupo_162626" data-name="Grupo 162626">
                  <g id="Grupo_162625" data-name="Grupo 162625">
                    <g id="Grupo_162624" data-name="Grupo 162624">
                      <g id="Grupo_162623" data-name="Grupo 162623">
                        <path id="Trazado_155069" data-name="Trazado 155069" d="M245.651,285.38a5.519,5.519,0,0,0-1.069-2.3,4.27,4.27,0,0,0-2.321-1.329,10.916,10.916,0,0,0-3.4-.122,17.369,17.369,0,0,1-3.528.071,5.617,5.617,0,0,1-2.74-1.018,2.192,2.192,0,0,1-.894-1.754,1.3,1.3,0,0,1,.16-.7c.047.008-.008.26.032.7a2.073,2.073,0,0,0,.914,1.486,5.574,5.574,0,0,0,2.58.844,19.2,19.2,0,0,0,3.438-.111,10.611,10.611,0,0,1,3.544.173,4.481,4.481,0,0,1,2.481,1.549,3.98,3.98,0,0,1,.8,1.8A1.378,1.378,0,0,1,245.651,285.38Z" transform="translate(-231.702 -278.227)" fill="#aa6550"/>
                      </g>
                    </g>
                  </g>
                </g>
              </g>
              <g id="Grupo_162632" data-name="Grupo 162632" transform="translate(18.449 3.677)">
                <g id="Grupo_162631" data-name="Grupo 162631">
                  <g id="Grupo_162630" data-name="Grupo 162630">
                    <g id="Grupo_162629" data-name="Grupo 162629">
                      <g id="Grupo_162628" data-name="Grupo 162628">
                        <path id="Trazado_155070" data-name="Trazado 155070" d="M255.173,264.018a14.007,14.007,0,0,1,.3,2.458c.164,1.69.358,3.7.574,5.931.249,2.223.473,4.235.663,5.922a13.955,13.955,0,0,1,.213,2.467,11.1,11.1,0,0,1-.558-2.416c-.268-1.507-.565-3.6-.808-5.922s-.383-4.431-.431-5.961A11.067,11.067,0,0,1,255.173,264.018Z" transform="translate(-255.101 -264.018)" fill="#aa6550"/>
                      </g>
                    </g>
                  </g>
                </g>
              </g>
              <g id="Grupo_162637" data-name="Grupo 162637" transform="translate(4.121 22.16)">
                <g id="Grupo_162636" data-name="Grupo 162636">
                  <g id="Grupo_162635" data-name="Grupo 162635">
                    <g id="Grupo_162634" data-name="Grupo 162634">
                      <g id="Grupo_162633" data-name="Grupo 162633">
                        <path id="Trazado_155071" data-name="Trazado 155071" d="M244.234,291.05a2.98,2.98,0,0,1-.749-.2,2.3,2.3,0,0,0-1.912.113,1.233,1.233,0,0,0-.53,1.1,6.557,6.557,0,0,0,.289,1.588,2.779,2.779,0,0,1-.085,1.969,2.364,2.364,0,0,1-1.78,1.182,2.683,2.683,0,0,1-2.028-.631,3.355,3.355,0,0,1-1.1-1.623,10.867,10.867,0,0,1-.292-3.173,6.417,6.417,0,0,1,.409-2.105c.207-.473.423-.673.439-.656.037.026-.117.256-.258.721a7.571,7.571,0,0,0-.241,2.049,11.683,11.683,0,0,0,.378,3.033,2.655,2.655,0,0,0,2.628,1.895,1.9,1.9,0,0,0,1.417-.919,2.366,2.366,0,0,0,.069-1.642,6.516,6.516,0,0,1-.254-1.7,1.6,1.6,0,0,1,.753-1.378,2.4,2.4,0,0,1,2.161,0A2,2,0,0,1,244.234,291.05Z" transform="translate(-236.037 -288.611)" fill="#aa6550"/>
                      </g>
                    </g>
                  </g>
                </g>
              </g>
              <g id="Grupo_162642" data-name="Grupo 162642" transform="translate(0 21.679)">
                <g id="Grupo_162641" data-name="Grupo 162641">
                  <g id="Grupo_162640" data-name="Grupo 162640">
                    <g id="Grupo_162639" data-name="Grupo 162639">
                      <g id="Grupo_162638" data-name="Grupo 162638">
                        <path id="Trazado_155072" data-name="Trazado 155072" d="M236.24,295.613c.023-.007.119.249.007.706a2.156,2.156,0,0,1-1.3,1.425,2.873,2.873,0,0,1-2.8-.545,4.7,4.7,0,0,1-1.56-3.127,5.686,5.686,0,0,1,.7-3.419,5.442,5.442,0,0,1,2.018-2.009,5.149,5.149,0,0,1,1.8-.636,1.48,1.48,0,0,1,.7-.006,8.935,8.935,0,0,0-2.317.939,5.365,5.365,0,0,0-1.8,1.932,5.423,5.423,0,0,0-.61,3.144,4.371,4.371,0,0,0,1.362,2.833,2.549,2.549,0,0,0,2.391.565,2.044,2.044,0,0,0,1.235-1.157C236.22,295.867,236.2,295.614,236.24,295.613Z" transform="translate(-230.553 -287.971)" fill="#aa6550"/>
                      </g>
                    </g>
                  </g>
                </g>
              </g>
              <g id="Grupo_162647" data-name="Grupo 162647" transform="translate(15.101 30.892)">
                <g id="Grupo_162646" data-name="Grupo 162646">
                  <g id="Grupo_162645" data-name="Grupo 162645">
                    <g id="Grupo_162644" data-name="Grupo 162644">
                      <g id="Grupo_162643" data-name="Grupo 162643">
                        <path id="Trazado_155073" data-name="Trazado 155073" d="M250.646,306.015a2.019,2.019,0,0,1,1.184-.11,4.667,4.667,0,0,1,2.745,1.282l-.4.165a13.9,13.9,0,0,1,.1-1.679,10.64,10.64,0,0,1,2-5.44,26.936,26.936,0,0,0-1.505,5.5c-.068.566-.1,1.116-.113,1.624l-.012.562-.391-.4a4.893,4.893,0,0,0-2.457-1.323C251.089,306.05,250.651,306.08,250.646,306.015Z" transform="translate(-250.646 -300.23)" fill="#aa6550"/>
                      </g>
                    </g>
                  </g>
                </g>
              </g>
              <g id="Grupo_162652" data-name="Grupo 162652" transform="translate(9.293 15.63)">
                <g id="Grupo_162651" data-name="Grupo 162651">
                  <g id="Grupo_162650" data-name="Grupo 162650">
                    <g id="Grupo_162649" data-name="Grupo 162649">
                      <g id="Grupo_162648" data-name="Grupo 162648">
                        <path id="Trazado_155074" data-name="Trazado 155074" d="M246.225,279.927c.122.045-.26.984-1.3,1.566s-2.034.439-2.01.31c0-.144.871-.219,1.767-.74C245.59,280.563,246.1,279.853,246.225,279.927Z" transform="translate(-242.917 -279.922)" fill="#aa6550"/>
                      </g>
                    </g>
                  </g>
                </g>
              </g>
            </g>
          </g>
          <g id="Grupo_162655" data-name="Grupo 162655" transform="translate(46.923 94.26)">
            <path id="Trazado_155075" data-name="Trazado 155075" d="M313.015,279.922c.02.021-.274.3-.779.877a9,9,0,0,0-1.744,2.8,3.674,3.674,0,0,0-.2,1.083,2.493,2.493,0,0,0,.286,1.138,4.005,4.005,0,0,0,2.168,1.61,21.411,21.411,0,0,0,6.873.97c1.3.025,2.691.074,4.121.159l2.188.256c.745.081,1.487.281,2.25.42a22.781,22.781,0,0,1,9.035,4.014,16.614,16.614,0,0,1,3.731,3.913,13.32,13.32,0,0,1,.709,1.219c.218.44.371.873.553,1.3a15.88,15.88,0,0,1,.782,2.747,17.43,17.43,0,0,1-1.768,11.55,16.838,16.838,0,0,1-8.882,7.585,17.468,17.468,0,0,1-5.533,1.1,21.33,21.33,0,0,1-5.347-.651,34.2,34.2,0,0,0-4.919-.879,8.533,8.533,0,0,0-4.465.788,11.52,11.52,0,0,0-3.344,2.712c-.936,1.052-1.733,2.158-2.522,3.207a15.949,15.949,0,0,1-5.137,4.91,6.3,6.3,0,0,1-2.864.749,6.438,6.438,0,0,1-2.442-.456,5.313,5.313,0,0,1-1.676-1.058,4.006,4.006,0,0,1-.84-1.185,2.62,2.62,0,0,1-.264-1.154,10.87,10.87,0,0,0,.406,1.085,4.059,4.059,0,0,0,.857,1.084,5.2,5.2,0,0,0,1.626.945,5.963,5.963,0,0,0,4.994-.4,15.712,15.712,0,0,0,4.9-4.853c.769-1.051,1.562-2.183,2.514-3.276a12.063,12.063,0,0,1,3.5-2.892,9.181,9.181,0,0,1,4.8-.9,34.272,34.272,0,0,1,5.029.861,20.742,20.742,0,0,0,5.172.609,16.8,16.8,0,0,0,5.285-1.069,16.122,16.122,0,0,0,8.465-7.242,16.72,16.72,0,0,0,1.7-11.03,15.258,15.258,0,0,0-.739-2.627c-.176-.42-.33-.855-.519-1.236a12.569,12.569,0,0,0-.658-1.142,15.954,15.954,0,0,0-3.547-3.753,22.288,22.288,0,0,0-8.739-3.952c-.747-.143-1.469-.346-2.2-.433l-2.148-.274c-1.416-.1-2.763-.163-4.08-.206a21.445,21.445,0,0,1-7.022-1.118,4.359,4.359,0,0,1-2.335-1.841,2.827,2.827,0,0,1-.3-1.32,3.972,3.972,0,0,1,.25-1.178,8.512,8.512,0,0,1,1.916-2.8A4.2,4.2,0,0,1,313.015,279.922Z" transform="translate(-292.987 -279.921)" fill="#fafafa"/>
          </g>
          <g id="Grupo_162656" data-name="Grupo 162656" transform="translate(123.68 122.026)">
            <path id="Trazado_155076" data-name="Trazado 155076" d="M395.56,339.211a5.591,5.591,0,0,1-.359-1.69,13.908,13.908,0,0,1,.312-4.712,18.148,18.148,0,0,1,2.918-6.376,20.958,20.958,0,0,1,6.312-5.821,26.611,26.611,0,0,1,8.024-3.03,34.862,34.862,0,0,1,6.949-.715,39.283,39.283,0,0,1,4.69.237,6.833,6.833,0,0,1,1.7.3c-.011.139-2.45-.131-6.374.02a38.2,38.2,0,0,0-6.809.867,27.154,27.154,0,0,0-7.779,3,20.973,20.973,0,0,0-6.124,5.567,18.477,18.477,0,0,0-2.966,6.089,15.566,15.566,0,0,0-.546,4.558A10.37,10.37,0,0,1,395.56,339.211Z" transform="translate(-395.119 -316.865)" fill="#fafafa"/>
          </g>
          <g id="Grupo_162657" data-name="Grupo 162657" transform="translate(129.434 157.432)">
            <path id="Trazado_155077" data-name="Trazado 155077" d="M438.529,363.98a5.4,5.4,0,0,1-.883,1.321,21.676,21.676,0,0,1-3.026,3.105A24.611,24.611,0,0,1,429.2,371.9a24.242,24.242,0,0,1-15.48,1.868,24.625,24.625,0,0,1-6.094-2.1,21.68,21.68,0,0,1-3.678-2.3,5.4,5.4,0,0,1-1.172-1.073,58.326,58.326,0,0,0,5.087,2.869,25.236,25.236,0,0,0,26.4-3.187A58.046,58.046,0,0,0,438.529,363.98Z" transform="translate(-402.776 -363.976)" fill="#fafafa"/>
          </g>
          <g id="Grupo_162658" data-name="Grupo 162658" transform="translate(83.023 155.026)">
            <path id="Trazado_155078" data-name="Trazado 155078" d="M385.44,360.781a3.709,3.709,0,0,1-.685.28,5.165,5.165,0,0,0-1.72,1.145,8.338,8.338,0,0,0-1.732,2.775,25.744,25.744,0,0,0-1.207,4.241,49.649,49.649,0,0,1-1.224,5.3,12.359,12.359,0,0,1-1.3,2.8,10.871,10.871,0,0,1-2.192,2.449,17.179,17.179,0,0,1-6.209,3.139c-2.315.685-4.768,1.063-7.228,1.544A30.358,30.358,0,0,0,349.1,389.8a21.056,21.056,0,0,0-4.282,4.316,19,19,0,0,0-2.443,4.7,16.3,16.3,0,0,0-.794,7.607c.271,1.81.68,2.762.6,2.788a2.645,2.645,0,0,1-.319-.676,6.74,6.74,0,0,1-.291-.858,9.857,9.857,0,0,1-.294-1.2,15.84,15.84,0,0,1,.569-7.832,19.165,19.165,0,0,1,2.44-4.9,21.353,21.353,0,0,1,4.373-4.513,30.528,30.528,0,0,1,13.136-5.547c2.485-.486,4.911-.855,7.164-1.512a16.648,16.648,0,0,0,5.964-2.959A10.266,10.266,0,0,0,377,376.944a11.824,11.824,0,0,0,1.262-2.632,52.874,52.874,0,0,0,1.3-5.208,24.769,24.769,0,0,1,1.345-4.293,8.331,8.331,0,0,1,1.925-2.826,4.83,4.83,0,0,1,1.876-1.072A2.133,2.133,0,0,1,385.44,360.781Z" transform="translate(-341.021 -360.774)" fill="#fafafa"/>
          </g>
          <g id="Grupo_162659" data-name="Grupo 162659" transform="translate(94.647 147.191)">
            <path id="Trazado_155079" data-name="Trazado 155079" d="M369.143,355.055a3.135,3.135,0,0,1,.391,1.538,6.6,6.6,0,0,1-1.2,4.158,6.434,6.434,0,0,1-2.264,2.055,5.991,5.991,0,0,1-1.63.592,6.576,6.576,0,0,1-1.836.076,7.19,7.19,0,0,1-3.608-1.46,6.453,6.453,0,0,1-2.328-3.485,5.654,5.654,0,0,1,1.162-5.126,12.6,12.6,0,0,1,1.65-1.8,6.186,6.186,0,0,1,.956-.715,2.551,2.551,0,0,1,1.178-.412l.1.672-.372.092-.186-.647a6.4,6.4,0,0,1,4.142.225,6.772,6.772,0,0,1,2.615,1.807,5.67,5.67,0,0,1,1.069,1.731c.152.445.19.691.16.7a10.122,10.122,0,0,0-1.515-2.16,6.7,6.7,0,0,0-2.521-1.561,5.933,5.933,0,0,0-3.748-.1l-.186-.648.369-.1.1.671a3.422,3.422,0,0,0-1.678.984,12.218,12.218,0,0,0-1.528,1.715,4.941,4.941,0,0,0-1.008,4.484,5.745,5.745,0,0,0,2.04,3.069,6.546,6.546,0,0,0,3.215,1.348,5.984,5.984,0,0,0,1.63-.035,5.423,5.423,0,0,0,1.456-.492,5.994,5.994,0,0,0,2.115-1.8,6.672,6.672,0,0,0,1.345-3.829C369.244,355.616,369.072,355.074,369.143,355.055Z" transform="translate(-356.488 -350.35)" fill="#fafafa"/>
          </g>
          <g id="Grupo_162660" data-name="Grupo 162660" transform="translate(56.733 127.349)">
            <path id="Trazado_155080" data-name="Trazado 155080" d="M308.118,323.948a.775.775,0,0,1,.007.2c-.005.156-.011.35-.019.591-.027.548-.065,1.305-.111,2.267-.118,1.967-.236,4.816-.392,8.335-.295,7.04-.582,16.77-.81,27.52s-.371,20.487-.472,27.534c-.053,3.5-.1,6.343-.127,8.345-.02.961-.037,1.72-.048,2.268-.009.24-.017.434-.023.59a.78.78,0,0,1-.02.2.768.768,0,0,1-.02-.2c0-.156-.01-.35-.017-.59-.006-.549-.014-1.308-.025-2.27,0-2,0-4.845,0-8.346.03-7.048.126-16.785.357-27.54s.56-20.484.925-27.524c.192-3.52.352-6.367.516-8.332.078-.959.14-1.716.185-2.263.023-.239.043-.432.058-.588A.779.779,0,0,1,308.118,323.948Z" transform="translate(-306.041 -323.948)" fill="#263238"/>
          </g>
          <g id="Grupo_162661" data-name="Grupo 162661" transform="translate(44.445 151.814)" opacity="0.2">
            <path id="Trazado_155081" data-name="Trazado 155081" d="M289.69,401.917c4.192,2.005,9.675-1.847,11.817-5.972a123.343,123.343,0,0,0,.964-13.735c-.289-8.6.339-17.112.05-25.711a27.053,27.053,0,0,1-6.136,13.968,9.39,9.39,0,0,0-2.306,3.551c-.615,2.478,1.279,6.941,2.5,9.184,3.725,6.869-4.433,18.762-6.614,18.539" transform="translate(-289.69 -356.5)"/>
          </g>
          <g id="Grupo_162662" data-name="Grupo 162662" transform="translate(122.927 141.128)" opacity="0.2">
            <path id="Trazado_155082" data-name="Trazado 155082" d="M394.117,342.282l4.119,51.409a15.134,15.134,0,0,0,.9,4.763,5.127,5.127,0,0,0,3.46,3.154c2.436.5,4.8-1.6,5.485-3.988s.139-4.941-.459-7.354c-1.018-4.111-2.175-8.186-3.331-12.261l-10.061-35.46" transform="translate(-394.117 -342.282)"/>
          </g>
          <g id="Grupo_162663" data-name="Grupo 162663" transform="translate(57.475 163.862)">
            <path id="Trazado_155083" data-name="Trazado 155083" d="M325.379,437.571a9.932,9.932,0,0,0,1.143-2.729,12.88,12.88,0,0,0-1.278-7.835c-.709-1.553-1.708-3.166-2.715-4.944a21.52,21.52,0,0,1-2.545-6.073,14.454,14.454,0,0,1,.532-7.273c.737-2.423,1.835-4.775,2.721-7.239a21.645,21.645,0,0,0,.375-14.373,21.145,21.145,0,0,0-2.848-5.7,22.16,22.16,0,0,0-3.8-4.076,22.514,22.514,0,0,0-7.057-3.936c-1.826-.612-2.891-.776-2.878-.849a2.975,2.975,0,0,1,.78.068,16.117,16.117,0,0,1,2.189.49,21.419,21.419,0,0,1,7.313,3.8,22.16,22.16,0,0,1,3.978,4.127,21.46,21.46,0,0,1,3.008,5.858,22.1,22.1,0,0,1-.323,14.862c-.9,2.51-2,4.849-2.724,7.2a13.824,13.824,0,0,0-.559,6.9,21.231,21.231,0,0,0,2.406,5.9c.974,1.78,1.953,3.417,2.654,5.035a12.8,12.8,0,0,1,1.069,8.13,7.138,7.138,0,0,1-.926,2.062A2.842,2.842,0,0,1,325.379,437.571Z" transform="translate(-307.028 -372.531)" fill="#fafafa"/>
          </g>
          <g id="Grupo_162664" data-name="Grupo 162664" transform="translate(117.716 94.978)">
            <path id="Trazado_155084" data-name="Trazado 155084" d="M415.844,291.161a4.223,4.223,0,0,1-.729,1.5,10.938,10.938,0,0,1-3.263,3.166,13.9,13.9,0,0,1-6.407,2.119,21.2,21.2,0,0,1-8.186-1.044,17.062,17.062,0,0,1-7.144-4.148,10.607,10.607,0,0,1-2.083-3.008,9.87,9.87,0,0,1-.809-3.081,7.831,7.831,0,0,1,.835-4.473,4.289,4.289,0,0,1,.381-.61,2.628,2.628,0,0,1,.327-.411c.193-.209.3-.307.323-.29.058.046-.334.5-.758,1.445a8.04,8.04,0,0,0-.558,4.278,9.658,9.658,0,0,0,.848,2.869,10.215,10.215,0,0,0,2.009,2.776,16.862,16.862,0,0,0,6.868,3.907,21.312,21.312,0,0,0,7.891,1.072,13.855,13.855,0,0,0,6.173-1.871,11.858,11.858,0,0,0,3.308-2.874C415.511,291.654,415.784,291.131,415.844,291.161Z" transform="translate(-387.183 -280.875)" fill="#fafafa"/>
          </g>
          <g id="Grupo_162665" data-name="Grupo 162665" transform="translate(117.872 104.328)">
            <path id="Trazado_155085" data-name="Trazado 155085" d="M405.607,375.1a.943.943,0,0,1-.08-.21c-.05-.163-.114-.371-.2-.63-.171-.582-.41-1.4-.715-2.432-.612-2.144-1.484-5.2-2.558-8.963-2.13-7.6-5.061-18.06-8.3-29.612-1.6-5.787-3.132-11.3-4.523-16.317a56.067,56.067,0,0,1-1.6-7.23,22.164,22.164,0,0,1-.02-6.457,13.9,13.9,0,0,1,4.251-8.178,10.288,10.288,0,0,1,2.11-1.418l.609-.259a.956.956,0,0,1,.212-.074,11.764,11.764,0,0,0-2.83,1.864,13.918,13.918,0,0,0-4.079,8.108,22.1,22.1,0,0,0,.068,6.369,56.923,56.923,0,0,0,1.627,7.179l4.552,16.308,8.188,29.642,2.439,9,.643,2.452c.065.264.117.474.159.64A.967.967,0,0,1,405.607,375.1Z" transform="translate(-387.391 -293.317)" fill="#263238"/>
          </g>
          <g id="Grupo_162666" data-name="Grupo 162666" transform="translate(69.727 11.998)">
            <path id="Trazado_155086" data-name="Trazado 155086" d="M359.085,178.144a7.96,7.96,0,0,0,.007-1.608,6.273,6.273,0,0,0-2.078-3.733,8.454,8.454,0,0,0-5.984-1.977,26.064,26.064,0,0,0-7.775,1.739c-1.358.447-2.7.874-4.024,1.167a20.875,20.875,0,0,1-3.887.473,21.122,21.122,0,0,1-6.547-.861,20.327,20.327,0,0,1-4.1-1.738c-.461-.255-.8-.479-1.03-.636a1.721,1.721,0,0,1-.338-.253c.022-.035.507.284,1.44.755a22.6,22.6,0,0,0,4.1,1.606,21.545,21.545,0,0,0,6.46.767,21.019,21.019,0,0,0,3.814-.486c1.3-.294,2.629-.718,3.985-1.166a25.74,25.74,0,0,1,7.894-1.727A8.657,8.657,0,0,1,357.2,172.6a6.286,6.286,0,0,1,2.041,3.919A3.656,3.656,0,0,1,359.085,178.144Z" transform="translate(-323.331 -170.464)" fill="#455a64"/>
          </g>
          <g id="Grupo_162667" data-name="Grupo 162667" transform="translate(107.541 16.213)">
            <path id="Trazado_155087" data-name="Trazado 155087" d="M381.92,202a1.049,1.049,0,0,1-.175-.28c-.106-.188-.245-.473-.413-.848a17.051,17.051,0,0,1-1.059-3.3,18.221,18.221,0,0,1-.343-5.138,45.767,45.767,0,0,1,1.186-6.175,12.09,12.09,0,0,0,.012-6.109,6.182,6.182,0,0,0-1.273-2.315,4.655,4.655,0,0,0-1.91-1.253,4.365,4.365,0,0,0-3.281.084,6.322,6.322,0,0,0-1.021.715,2.536,2.536,0,0,1,.951-.85,4.41,4.41,0,0,1,3.439-.21,4.879,4.879,0,0,1,2.062,1.3,6.44,6.44,0,0,1,1.377,2.425,12.239,12.239,0,0,1,.027,6.3,49.141,49.141,0,0,0-1.21,6.124,18.815,18.815,0,0,0,.255,5.054,19.912,19.912,0,0,0,.928,3.3A12.078,12.078,0,0,1,381.92,202Z" transform="translate(-373.645 -176.073)" fill="#455a64"/>
          </g>
          <g id="Grupo_162668" data-name="Grupo 162668" transform="translate(68.313 3.657)">
            <path id="Trazado_155088" data-name="Trazado 155088" d="M359.894,174.314a2.8,2.8,0,0,1,.005-.534c.015-.387.034-.894.057-1.524a17.665,17.665,0,0,0-.614-5.519,9.749,9.749,0,0,0-1.776-3.353A6.856,6.856,0,0,0,354,161.028a9,9,0,0,0-4.757.195,22,22,0,0,0-4.757,2.156,39.365,39.365,0,0,1-4.716,2.426,14.443,14.443,0,0,1-4.861.976,15.369,15.369,0,0,1-4.451-.546,17.214,17.214,0,0,1-3.612-1.489,14.761,14.761,0,0,1-4.276-3.65,9.286,9.286,0,0,1-.867-1.263,2.806,2.806,0,0,1-.257-.467,2.711,2.711,0,0,1,.324.425,11.546,11.546,0,0,0,.918,1.21,15.286,15.286,0,0,0,4.293,3.5,17.253,17.253,0,0,0,3.561,1.416,15.2,15.2,0,0,0,4.357.5,14.189,14.189,0,0,0,4.729-.972,39.915,39.915,0,0,0,4.666-2.411,22.053,22.053,0,0,1,4.844-2.184,9.311,9.311,0,0,1,4.954-.174,7.166,7.166,0,0,1,3.722,2.5,9.932,9.932,0,0,1,1.789,3.479,16.9,16.9,0,0,1,.5,5.606c-.039.664-.091,1.177-.131,1.524A2.658,2.658,0,0,1,359.894,174.314Z" transform="translate(-321.449 -159.366)" fill="#455a64"/>
          </g>
          <g id="Grupo_162676" data-name="Grupo 162676" transform="translate(50.385 193.145)">
            <g id="Grupo_162674" data-name="Grupo 162674">
              <g id="Grupo_162670" data-name="Grupo 162670">
                <path id="Trazado_155089" data-name="Trazado 155089" d="M345.621,424.876l56.2-8.383-.908-5h30.25l.886,7.689a23.256,23.256,0,0,1-22.6,27.646L343.9,446.1Z" transform="translate(-309.099 -411.495)" fill="#b78876"/>
                <g id="Grupo_162669" data-name="Grupo 162669" transform="translate(0 8.918)">
                  <path id="Trazado_155090" data-name="Trazado 155090" d="M338.172,428.79c-.3.1-4.086-1.6-7.478-3.166a24.46,24.46,0,0,0-11.512-2.231l-15.626.794s.965,2.579,2.622,3.495,11.372,1.113,11.372,1.113l-.5.512a11.238,11.238,0,0,1-7.778,3.4l-1.493.038a14.619,14.619,0,0,1-3.262-.637l-3.854-1.558c-1.166-.526-2.4-.44-2.905.734-.459,1.063-.122,2.526,3.06,4.128,1.778.9,8.373,3.177,8.373,3.177a15.928,15.928,0,0,0,.384,2.783c.288.96,2.879,1.919,2.879,1.919a34.174,34.174,0,0,0,2.3,4.127c.3.344,2.647,1.075,5.144,1.775a22.127,22.127,0,0,0,12.313-.093l5.955-1.778V429.186" transform="translate(-297.594 -423.361)" fill="#b78876"/>
                </g>
              </g>
              <g id="Grupo_162671" data-name="Grupo 162671" transform="translate(11.316 24.113)">
                <path id="Trazado_155091" data-name="Trazado 155091" d="M320.538,445.664a17.8,17.8,0,0,1-7.885-2.074c.044-.107,1.75.55,3.922,1.117S320.551,445.549,320.538,445.664Z" transform="translate(-312.652 -443.579)" fill="#aa6550"/>
              </g>
              <g id="Grupo_162672" data-name="Grupo 162672" transform="translate(14.476 28.707)">
                <path id="Trazado_155092" data-name="Trazado 155092" d="M321.032,450.843a5.748,5.748,0,0,1-4.174-1.134,76.374,76.374,0,0,0,4.174,1.134Z" transform="translate(-316.856 -449.693)" fill="#aa6550"/>
              </g>
              <g id="Grupo_162673" data-name="Grupo 162673" transform="translate(92.676 4.727)">
                <path id="Trazado_155093" data-name="Trazado 155093" d="M435.8,431.164c-.071.026-.444-1.087-1.346-2.733a21.785,21.785,0,0,0-1.8-2.752,21.782,21.782,0,0,0-5.959-5.35,21.856,21.856,0,0,0-2.93-1.493c-1.734-.719-2.881-.97-2.862-1.044a3.321,3.321,0,0,1,.813.135,7.872,7.872,0,0,1,.936.244c.359.113.776.224,1.215.408a19.544,19.544,0,0,1,3.013,1.441,20.51,20.51,0,0,1,6.061,5.441,19.534,19.534,0,0,1,1.756,2.84c.23.416.385.82.537,1.165a7.9,7.9,0,0,1,.343.9A3.325,3.325,0,0,1,435.8,431.164Z" transform="translate(-420.908 -417.785)" fill="#aa6550"/>
              </g>
            </g>
            <g id="Grupo_162675" data-name="Grupo 162675" transform="translate(11.146 12.939)">
              <path id="Trazado_155094" data-name="Trazado 155094" d="M322.786,428.714A6.878,6.878,0,0,1,321.579,430a19.383,19.383,0,0,1-3.4,2.578,13.534,13.534,0,0,1-3.99,1.54,5.715,5.715,0,0,1-1.759.191,22.813,22.813,0,0,0,5.553-2.069,26.582,26.582,0,0,0,3.419-2.448A9.261,9.261,0,0,1,322.786,428.714Z" transform="translate(-312.424 -428.711)" fill="#aa6550"/>
            </g>
          </g>
        </g>
      </g>
      <g id="Character_1" data-name="Character 1" transform="translate(56.664 136.165)">
        <g id="Grupo_162817" data-name="Grupo 162817" transform="translate(0 0)">
          <path id="Trazado_155095" data-name="Trazado 155095" d="M106.523,373.9c1.34,0-10.237,31.1-13.216,39.039-.33.88-.561,1.654-.561,1.654l81.035.141-.955-75.4a1.41,1.41,0,0,0-.011-.149l-6.777-53.933a1.325,1.325,0,0,0-.968-1.118c-3.209-.87-14.771-3.855-23.617-4.182-10.37-.384-25.366,1.673-25.366,1.673s-13.457,1.388-20.862,4.059a1.33,1.33,0,0,0-.868,1.438Z" transform="translate(-68.992 -194.166)" fill="#c0c942"/>
          <g id="Grupo_162678" data-name="Grupo 162678" transform="translate(53.589 146.313)">
            <path id="Trazado_155096" data-name="Trazado 155096" d="M153.809,360.5a5.552,5.552,0,0,1-.407.979,9.406,9.406,0,0,1-.569,1.106,15.839,15.839,0,0,1-.86,1.408,17.608,17.608,0,0,1-1.184,1.613c-.433.577-.969,1.13-1.52,1.725a24.3,24.3,0,0,1-8.752,5.732c-.765.266-1.487.537-2.189.7a17.552,17.552,0,0,1-1.952.44,15.627,15.627,0,0,1-1.634.225,9.47,9.47,0,0,1-1.242.08,5.462,5.462,0,0,1-1.059-.019c0-.086,1.511-.077,3.882-.558a18.71,18.71,0,0,0,1.916-.482c.688-.177,1.4-.455,2.146-.727a25.324,25.324,0,0,0,8.627-5.65c.549-.579,1.087-1.116,1.524-1.676a18.89,18.89,0,0,0,1.206-1.565C153.135,361.858,153.732,360.465,153.809,360.5Z" transform="translate(-132.444 -360.503)" fill="#263238"/>
          </g>
          <g id="Grupo_162679" data-name="Grupo 162679" transform="translate(26.506 189.738)" opacity="0.2">
            <path id="Trazado_155097" data-name="Trazado 155097" d="M96.407,441.442a23.851,23.851,0,0,0,23.248-2.908c2.922-2.122,5.374-4.895,8.527-6.655,4.373-2.44,9.586-2.671,14.58-3.027,6.686-.477,13.423-1.3,19.708-3.625a7.879,7.879,0,0,0,3.446-2.084,3.069,3.069,0,0,0,.313-3.748c-.868-1.082-2.466-1.143-3.853-1.1-20.956.619-40.1,2.3-60.5,7.145" transform="translate(-96.407 -418.283)"/>
          </g>
          <path id="Trazado_155098" data-name="Trazado 155098" d="M126.458,174.039c6.477-6.594,16.7-10.487,25.166-6.782,5.693,2.491,9.555,7.834,14.552,11.529,3.639,2.69,8.136,4.769,10.043,8.874,1.681,3.619.87,7.83.464,11.8s-.122,8.547,2.953,11.091c1.614,1.336,3.737,1.864,5.555,2.905,3.66,2.1,5.834,6.177,6.617,10.321s.361,8.41-.065,12.606L174.3,239.705l-2.865-4.819-1,7.576-22.259,2.009Z" transform="translate(-77.367 -165.821)" fill="#263238"/>
          <g id="Grupo_162746" data-name="Grupo 162746" transform="translate(44.802 13.426)">
            <g id="Grupo_162745" data-name="Grupo 162745">
              <g id="Grupo_162744" data-name="Grupo 162744">
                <g id="Grupo_162733" data-name="Grupo 162733">
                  <g id="Grupo_162732" data-name="Grupo 162732">
                    <g id="Grupo_162731" data-name="Grupo 162731">
                      <g id="Grupo_162684" data-name="Grupo 162684">
                        <g id="Grupo_162683" data-name="Grupo 162683">
                          <g id="Grupo_162682" data-name="Grupo 162682">
                            <g id="Grupo_162681" data-name="Grupo 162681">
                              <g id="Grupo_162680" data-name="Grupo 162680">
                                <path id="Trazado_155099" data-name="Trazado 155099" d="M122.163,185.677l-.038,4.854-1.372,72.753c-.12,8.433,7.949,15.613,16.98,15.673h0c9.12.059,12.84-6.793,13.1-15.309.274-8.94.727-18.346.727-18.346s11.57-1.594,14.37-16.555c1.393-7.44,1.355-19.7,1-29.736a15.873,15.873,0,0,0-17.094-15.275Z" transform="translate(-120.752 -183.686)" fill="#ffbe9d"/>
                              </g>
                            </g>
                          </g>
                        </g>
                      </g>
                      <g id="Grupo_162696" data-name="Grupo 162696" transform="translate(35.732 19.493)">
                        <g id="Grupo_162689" data-name="Grupo 162689" transform="translate(2.634 3.701)">
                          <g id="Grupo_162688" data-name="Grupo 162688">
                            <g id="Grupo_162687" data-name="Grupo 162687">
                              <g id="Grupo_162686" data-name="Grupo 162686">
                                <g id="Grupo_162685" data-name="Grupo 162685">
                                  <path id="Trazado_155100" data-name="Trazado 155100" d="M175.651,216.343a1.928,1.928,0,0,1-1.912,1.892,1.843,1.843,0,0,1-1.938-1.792,1.928,1.928,0,0,1,1.91-1.895A1.845,1.845,0,0,1,175.651,216.343Z" transform="translate(-171.801 -214.548)" fill="#263238"/>
                                </g>
                              </g>
                            </g>
                          </g>
                        </g>
                        <g id="Grupo_162695" data-name="Grupo 162695">
                          <g id="Grupo_162694" data-name="Grupo 162694">
                            <g id="Grupo_162693" data-name="Grupo 162693">
                              <g id="Grupo_162692" data-name="Grupo 162692">
                                <g id="Grupo_162691" data-name="Grupo 162691">
                                  <g id="Grupo_162690" data-name="Grupo 162690">
                                    <path id="Trazado_155101" data-name="Trazado 155101" d="M175.91,211.755c-.245.244-1.676-.876-3.749-.927-2.071-.081-3.622.943-3.84.683-.107-.116.149-.562.824-1.027a5.3,5.3,0,0,1,3.083-.858,5.079,5.079,0,0,1,2.976,1.053C175.827,211.186,176.031,211.646,175.91,211.755Z" transform="translate(-168.297 -209.624)" fill="#263238"/>
                                  </g>
                                </g>
                              </g>
                            </g>
                          </g>
                        </g>
                      </g>
                      <g id="Grupo_162708" data-name="Grupo 162708" transform="translate(15.337 19.318)">
                        <g id="Grupo_162701" data-name="Grupo 162701" transform="translate(2.601 3.876)">
                          <g id="Grupo_162700" data-name="Grupo 162700">
                            <g id="Grupo_162699" data-name="Grupo 162699">
                              <g id="Grupo_162698" data-name="Grupo 162698">
                                <g id="Grupo_162697" data-name="Grupo 162697">
                                  <path id="Trazado_155102" data-name="Trazado 155102" d="M148.471,216.343a1.928,1.928,0,0,1-1.912,1.892,1.844,1.844,0,0,1-1.939-1.792,1.929,1.929,0,0,1,1.91-1.895A1.846,1.846,0,0,1,148.471,216.343Z" transform="translate(-144.62 -214.548)" fill="#263238"/>
                                </g>
                              </g>
                            </g>
                          </g>
                        </g>
                        <g id="Grupo_162707" data-name="Grupo 162707">
                          <g id="Grupo_162706" data-name="Grupo 162706">
                            <g id="Grupo_162705" data-name="Grupo 162705">
                              <g id="Grupo_162704" data-name="Grupo 162704">
                                <g id="Grupo_162703" data-name="Grupo 162703">
                                  <g id="Grupo_162702" data-name="Grupo 162702">
                                    <path id="Trazado_155103" data-name="Trazado 155103" d="M148.774,211.522c-.247.244-1.678-.876-3.75-.927-2.071-.082-3.622.943-3.841.682-.106-.115.147-.561.825-1.026a5.289,5.289,0,0,1,3.082-.858,5.087,5.087,0,0,1,2.977,1.052C148.689,210.953,148.894,211.413,148.774,211.522Z" transform="translate(-141.159 -209.391)" fill="#263238"/>
                                  </g>
                                </g>
                              </g>
                            </g>
                          </g>
                        </g>
                      </g>
                      <g id="Grupo_162714" data-name="Grupo 162714" transform="translate(29.556 19.732)">
                        <g id="Grupo_162713" data-name="Grupo 162713">
                          <g id="Grupo_162712" data-name="Grupo 162712">
                            <g id="Grupo_162711" data-name="Grupo 162711">
                              <g id="Grupo_162710" data-name="Grupo 162710">
                                <g id="Grupo_162709" data-name="Grupo 162709">
                                  <path id="Trazado_155104" data-name="Trazado 155104" d="M160.576,227.245a13.76,13.76,0,0,1,3.385-.515c.531-.04,1.035-.132,1.135-.491a2.7,2.7,0,0,0-.31-1.579q-.694-1.942-1.455-4.075c-2.016-5.8-3.46-10.565-3.226-10.644s2.059,4.558,4.076,10.359c.484,1.43.948,2.793,1.388,4.1a3.064,3.064,0,0,1,.217,2.086,1.329,1.329,0,0,1-.892.75,3.594,3.594,0,0,1-.9.1A13.521,13.521,0,0,1,160.576,227.245Z" transform="translate(-160.079 -209.941)" fill="#263238"/>
                                </g>
                              </g>
                            </g>
                          </g>
                        </g>
                      </g>
                      <g id="Grupo_162719" data-name="Grupo 162719" transform="translate(10.833 55.692)">
                        <g id="Grupo_162718" data-name="Grupo 162718">
                          <g id="Grupo_162717" data-name="Grupo 162717">
                            <g id="Grupo_162716" data-name="Grupo 162716">
                              <g id="Grupo_162715" data-name="Grupo 162715">
                                <path id="Trazado_155105" data-name="Trazado 155105" d="M155.142,263.712a38.237,38.237,0,0,1-19.976-5.923s4.6,10.457,19.676,9.465Z" transform="translate(-135.166 -257.789)" fill="#eb996e"/>
                              </g>
                            </g>
                          </g>
                        </g>
                      </g>
                      <g id="Grupo_162724" data-name="Grupo 162724" transform="translate(22.815 40.518)">
                        <g id="Grupo_162723" data-name="Grupo 162723">
                          <g id="Grupo_162722" data-name="Grupo 162722">
                            <g id="Grupo_162721" data-name="Grupo 162721">
                              <g id="Grupo_162720" data-name="Grupo 162720">
                                <path id="Trazado_155106" data-name="Trazado 155106" d="M157.333,239.091a3.737,3.737,0,0,0-3.311-1.481,3.413,3.413,0,0,0-2.391,1.2,2.163,2.163,0,0,0-.233,2.467,2.51,2.51,0,0,0,2.7.763,7.862,7.862,0,0,0,2.694-1.509,2.292,2.292,0,0,0,.61-.6.7.7,0,0,0,.018-.773" transform="translate(-151.11 -237.598)" fill="#eb996e"/>
                              </g>
                            </g>
                          </g>
                        </g>
                      </g>
                      <g id="Grupo_162730" data-name="Grupo 162730" transform="translate(23.542 38.303)">
                        <g id="Grupo_162729" data-name="Grupo 162729">
                          <g id="Grupo_162728" data-name="Grupo 162728">
                            <g id="Grupo_162727" data-name="Grupo 162727">
                              <g id="Grupo_162726" data-name="Grupo 162726">
                                <g id="Grupo_162725" data-name="Grupo 162725">
                                  <path id="Trazado_155107" data-name="Trazado 155107" d="M152.445,234.651c.338-.011.28,2.24,2.163,3.892s4.285,1.469,4.294,1.784c.028.142-.546.422-1.56.422a5.6,5.6,0,0,1-3.588-1.362,4.883,4.883,0,0,1-1.669-3.259C152.025,235.184,152.292,234.634,152.445,234.651Z" transform="translate(-152.076 -234.65)" fill="#263238"/>
                                </g>
                              </g>
                            </g>
                          </g>
                        </g>
                      </g>
                    </g>
                  </g>
                </g>
                <g id="Grupo_162738" data-name="Grupo 162738" transform="translate(14.121 13.75)">
                  <g id="Grupo_162737" data-name="Grupo 162737">
                    <g id="Grupo_162736" data-name="Grupo 162736">
                      <g id="Grupo_162735" data-name="Grupo 162735">
                        <g id="Grupo_162734" data-name="Grupo 162734">
                          <path id="Trazado_155108" data-name="Trazado 155108" d="M149.03,203.649c-.22.558-2.283.234-4.723.46-2.446.177-4.427.835-4.736.32-.138-.246.219-.767,1.027-1.29a8.249,8.249,0,0,1,7.207-.6C148.688,202.929,149.126,203.384,149.03,203.649Z" transform="translate(-139.542 -201.981)" fill="#263238"/>
                        </g>
                      </g>
                    </g>
                  </g>
                </g>
                <g id="Grupo_162743" data-name="Grupo 162743" transform="translate(34.838 15.164)">
                  <g id="Grupo_162742" data-name="Grupo 162742">
                    <g id="Grupo_162741" data-name="Grupo 162741">
                      <g id="Grupo_162740" data-name="Grupo 162740">
                        <g id="Grupo_162739" data-name="Grupo 162739">
                          <path id="Trazado_155109" data-name="Trazado 155109" d="M175.692,206.135c-.458.458-2.182-.078-4.273-.159-2.088-.141-3.87.21-4.264-.294-.172-.244.119-.709.906-1.133a6.9,6.9,0,0,1,3.5-.676,6.768,6.768,0,0,1,3.383,1.041C175.665,205.419,175.894,205.91,175.692,206.135Z" transform="translate(-167.108 -203.863)" fill="#263238"/>
                        </g>
                      </g>
                    </g>
                  </g>
                </g>
              </g>
            </g>
          </g>
          <path id="Trazado_155110" data-name="Trazado 155110" d="M91.844,285.767s-24.168,5.671-28.856,28.591c-2.154,10.531-5.172,71,8.915,80.4,18.182,12.125,41.294,1.091,41.294,1.091L110.23,366.6H95.223L93.2,334.552C93.763,337.01,91.844,285.767,91.844,285.767Z" transform="translate(-61.139 -195.622)" fill="#c0c942"/>
          <path id="Trazado_155111" data-name="Trazado 155111" d="M209.87,386.454a18.689,18.689,0,0,0,16.765-19.4l-9.87-41.953s-6.4-36-26.645-39.249l6.9,54.887-.658,11.567s.313,7.652,1.091,21.989Z" transform="translate(-93.184 -195.642)" fill="#c0c942"/>
          <g id="Grupo_162747" data-name="Grupo 162747" transform="translate(103.593 164.459)">
            <path id="Trazado_155112" data-name="Trazado 155112" d="M214.69,384.747a25.828,25.828,0,0,0-3.644.4A14.8,14.8,0,0,0,199.432,397a25.6,25.6,0,0,0-.325,3.652,4.047,4.047,0,0,1-.115-.989,13.147,13.147,0,0,1,.168-2.711,14.55,14.55,0,0,1,11.832-12.079,13.127,13.127,0,0,1,2.708-.223A4.046,4.046,0,0,1,214.69,384.747Z" transform="translate(-198.978 -384.648)" fill="#263238"/>
          </g>
          <path id="Trazado_155113" data-name="Trazado 155113" d="M122.232,174.179c2.722,3.654,4.016,6.461,5.647,12.96.8,3.182-1.789,5.43-4.359,7.373a2.073,2.073,0,0,1-3.275-1.2h0s.893,9.957-2.708,14.422a8.613,8.613,0,0,0-1.359,7.04,11.942,11.942,0,0,0,3.216,6.09,15.03,15.03,0,0,1,2.455,16.93,44.478,44.478,0,0,0-2.288,4.088,6.161,6.161,0,0,0-.48,2.642,2.093,2.093,0,0,1-1.774,2.224,164.367,164.367,0,0,1-37.354,1.123,2.049,2.049,0,0,1-1.829-1.548c-.975-4.126.651-8.626,2.736-12.425,2.329-4.243,5.294-8.314,6.1-13.088.754-4.492-.472-9.336,1.333-13.518,2.215-5.132,8.235-7.56,11.25-12.268,2.844-4.442,2.615-10.268,5.163-14.887a14.238,14.238,0,0,1,17.531-5.96" transform="translate(-65.287 -167.637)" fill="#263238"/>
          <path id="Trazado_155114" data-name="Trazado 155114" d="M137.641,179.916c4.727,2.43,6.911,8.21,11.5,10.886,4.182,2.437,9.4,1.793,14.186,1.075q-.267-1.593-.534-3.185a8.594,8.594,0,0,0,1.774,2.579,2.915,2.915,0,0,0,2.909.688c1.606-.646,1.819-2.856,1.407-4.537a15.577,15.577,0,0,0-4.179-7.077,21.191,21.191,0,0,0-27.645-2.21" transform="translate(-80.002 -167.859)" fill="#263238"/>
          <g id="Grupo_162748" data-name="Grupo 162748" transform="translate(101.899 119.04)">
            <path id="Trazado_155115" data-name="Trazado 155115" d="M196.784,324.214a3.359,3.359,0,0,1,.045.59q.019.636.051,1.693c.029,1.47.1,3.6.216,6.223.216,5.254.706,12.5,1.3,20.5s1.04,15.265,1.185,20.526c.077,2.63.108,4.76.09,6.231-.009.706-.016,1.27-.021,1.694a3.367,3.367,0,0,1-.035.591,3.323,3.323,0,0,1-.044-.59q-.02-.636-.052-1.693c-.029-1.469-.1-3.6-.215-6.223-.216-5.253-.706-12.5-1.3-20.508s-1.039-15.261-1.184-20.523c-.077-2.63-.109-4.76-.091-6.232.009-.706.016-1.27.022-1.695A3.325,3.325,0,0,1,196.784,324.214Z" transform="translate(-196.724 -324.214)" fill="#263238"/>
          </g>
          <g id="Grupo_162749" data-name="Grupo 162749" transform="translate(31.394 129.576)">
            <path id="Trazado_155116" data-name="Trazado 155116" d="M105.6,379.63a1.736,1.736,0,0,1-.054-.42c-.02-.319-.047-.718-.078-1.206-.062-1.1-.145-2.606-.247-4.438-.213-3.746-.543-8.921-.933-14.634-.4-5.691-.754-10.839-1.018-14.633-.12-1.832-.219-3.334-.292-4.436-.025-.488-.046-.888-.062-1.208a1.747,1.747,0,0,1,0-.423,1.71,1.71,0,0,1,.074.417c.036.318.08.715.135,1.2.1,1.1.244,2.6.416,4.427.329,3.74.743,8.91,1.132,14.627s.676,10.9.819,14.648c.066,1.877.116,3.4.123,4.446,0,.489,0,.889,0,1.209A1.709,1.709,0,0,1,105.6,379.63Z" transform="translate(-102.911 -338.232)" fill="#263238"/>
          </g>
          <g id="Grupo_162750" data-name="Grupo 162750" transform="translate(25.87 170.944)">
            <path id="Trazado_155117" data-name="Trazado 155117" d="M103.776,393.306c.007.07-.785.1-1.968.5a8.747,8.747,0,0,0-5.93,7.036c-.193,1.233-.093,2.019-.163,2.024a1.393,1.393,0,0,1-.116-.544,7.172,7.172,0,0,1,.005-1.516,8.428,8.428,0,0,1,6.122-7.264,7.13,7.13,0,0,1,1.493-.262A1.405,1.405,0,0,1,103.776,393.306Z" transform="translate(-95.561 -393.276)" fill="#263238"/>
          </g>
          <g id="Grupo_162751" data-name="Grupo 162751" transform="translate(32.326 170.785)">
            <path id="Trazado_155118" data-name="Trazado 155118" d="M123.884,422.5a2.114,2.114,0,0,1-.086-.462c-.044-.346-.1-.789-.172-1.335-.138-1.211-.328-2.878-.561-4.915-.441-4.2-1.042-9.915-1.7-16.231l-.631-6.287.187.169-12.02-.07-3.489-.055-.933-.031a1.2,1.2,0,0,1-.322-.033,1.223,1.223,0,0,1,.322-.032l.933-.032,3.489-.055,12.02-.069h.17l.017.17c.2,1.97.42,4.091.646,6.285.619,6.321,1.179,12.041,1.59,16.243.182,2.043.33,3.714.437,4.928.041.549.074.994.1,1.342A2.114,2.114,0,0,1,123.884,422.5Z" transform="translate(-104.151 -393.065)" fill="#263238"/>
          </g>
          <g id="Grupo_162752" data-name="Grupo 162752" transform="translate(3.257 184.636)">
            <path id="Trazado_155119" data-name="Trazado 155119" d="M114.274,427.082a3.5,3.5,0,0,1-.567.21l-1.649.526c-1.436.444-3.517,1.08-6.117,1.774a77.013,77.013,0,0,1-9.257,1.922,32,32,0,0,1-11.548-.547,49.093,49.093,0,0,1-5.782-1.629c-.914-.325-1.807-.661-2.669-1.02-.43-.183-.858-.349-1.269-.57l-.616-.311-.573-.368a14.109,14.109,0,0,1-3.625-3.555,24.687,24.687,0,0,1-2.232-3.811,44.921,44.921,0,0,1-2.273-5.956c-.219-.72-.384-1.28-.486-1.662a3.531,3.531,0,0,1-.139-.588,3.472,3.472,0,0,1,.214.565l.555,1.638a50.633,50.633,0,0,0,2.377,5.882,25.091,25.091,0,0,0,2.245,3.74,13.9,13.9,0,0,0,3.56,3.445l.556.354.6.3c.392.211.823.377,1.25.555.857.352,1.744.682,2.652,1a49.852,49.852,0,0,0,5.737,1.609,32.1,32.1,0,0,0,11.418.572,81.452,81.452,0,0,0,9.236-1.833c2.6-.658,4.694-1.252,6.143-1.652l1.67-.455A3.556,3.556,0,0,1,114.274,427.082Z" transform="translate(-65.472 -411.495)" fill="#263238"/>
          </g>
          <path id="Trazado_155120" data-name="Trazado 155120" d="M107.421,193.811a9.608,9.608,0,0,0-2.2-10.511,10.814,10.814,0,0,0-10.642-2.3,8.2,8.2,0,0,0-4.154,2.842,7.587,7.587,0,0,0,.422,8.786,11.073,11.073,0,0,0,8.217,3.992,21.055,21.055,0,0,0,9.152-1.894" transform="translate(-68.115 -169.461)" fill="#263238"/>
          <g id="Grupo_162760" data-name="Grupo 162760" transform="translate(49.328 136.515)">
            <g id="Grupo_162755" data-name="Grupo 162755" transform="translate(11.251)">
              <path id="Trazado_155121" data-name="Trazado 155121" d="M146.357,355.19c5.256,4.337,17.626,14.6,17.626,14.6l6.926-1.233-20.983-17.652a2.788,2.788,0,0,0-3.813.211h0A2.785,2.785,0,0,0,146.357,355.19Z" transform="translate(-142.639 -348.159)" fill="#455a64"/>
              <path id="Trazado_155122" data-name="Trazado 155122" d="M144.907,352.244l-2.724-2.459a1.332,1.332,0,0,1-.126-1.846h0a1.331,1.331,0,0,1,1.916-.123l2.621,2.4Z" transform="translate(-141.744 -347.466)" fill="#455a64"/>
              <g id="Grupo_162753" data-name="Grupo 162753" transform="translate(7.604 6.094)">
                <path id="Trazado_155123" data-name="Trazado 155123" d="M155.528,355.579a18.234,18.234,0,0,1-3.66,3.867,18.186,18.186,0,0,1,3.66-3.867Z" transform="translate(-151.862 -355.575)" fill="#263238"/>
              </g>
              <g id="Grupo_162754" data-name="Grupo 162754" transform="translate(2.149 2.488)">
                <path id="Trazado_155124" data-name="Trazado 155124" d="M153.935,363.032a13.522,13.522,0,0,1-2.094-1.369c-1.253-.9-2.942-2.211-4.72-3.76a7.805,7.805,0,0,1-2.21-2.543,3.644,3.644,0,0,1-.071-2.762,3.467,3.467,0,0,1,1.112-1.493,1.393,1.393,0,0,1,.6-.325,6.281,6.281,0,0,1-.5.441,3.645,3.645,0,0,0-.95,1.472,3.441,3.441,0,0,0,.139,2.518,7.841,7.841,0,0,0,2.137,2.4c1.77,1.542,3.424,2.878,4.631,3.834A19.138,19.138,0,0,1,153.935,363.032Z" transform="translate(-144.604 -350.776)" fill="#263238"/>
              </g>
            </g>
            <g id="Grupo_162759" data-name="Grupo 162759" transform="translate(0 20.147)">
              <path id="Trazado_155125" data-name="Trazado 155125" d="M126.774,390.927c4.984-1.674,10.28-.547,15.263-2.221a13.218,13.218,0,0,0,4.709-2.322c1.583-1.406,2.388-3.472,3.65-5.172,3.773-5.08,10.82-6.133,17.114-6.777a12.736,12.736,0,0,1,4.407.063,4.317,4.317,0,0,1,3.2,2.763,2.652,2.652,0,0,1-1.986,3.343c1.379.061,2.345,1.462,2.6,2.819s.029,2.762.21,4.131c.256,1.922,1.308,3.722,1.247,5.66-.083,2.653-2.282,4.838-4.733,5.859s-5.161,1.154-7.79,1.523c-12.9,1.816-22.721,9.143-35.164,14.679" transform="translate(-126.774 -374.273)" fill="#ffbe9d"/>
              <path id="Trazado_155126" data-name="Trazado 155126" d="M190.315,385.929a1.781,1.781,0,0,0,2.543.523,2.727,2.727,0,0,0,.975-2.627,6.118,6.118,0,0,0-1.245-2.643,34.033,34.033,0,0,0-3.611-3.988l-4,3.347Z" transform="translate(-141.235 -374.999)" fill="#ffbe9d"/>
              <g id="Grupo_162756" data-name="Grupo 162756" transform="translate(36.923 6.327)">
                <path id="Trazado_155127" data-name="Trazado 155127" d="M186.587,382.925c-.007.123-2.449-.077-5.406.381-2.961.436-5.235,1.348-5.277,1.233a5.266,5.266,0,0,1,1.459-.673,20.06,20.06,0,0,1,7.632-1.153A5.306,5.306,0,0,1,186.587,382.925Z" transform="translate(-175.903 -382.691)" fill="#eb996e"/>
              </g>
              <g id="Grupo_162757" data-name="Grupo 162757" transform="translate(40.208 13.767)">
                <path id="Trazado_155128" data-name="Trazado 155128" d="M189.433,393.215c-.023.118-2.056-.3-4.587-.226-2.533.053-4.542.57-4.571.453a14.708,14.708,0,0,1,9.158-.227Z" transform="translate(-180.274 -392.591)" fill="#eb996e"/>
              </g>
              <g id="Grupo_162758" data-name="Grupo 162758" transform="translate(46.997 2.43)">
                <path id="Trazado_155129" data-name="Trazado 155129" d="M191.254,387.152c-.063-.008,0-.588-.11-1.505a7.927,7.927,0,0,0-1.211-3.338,7.65,7.65,0,0,0-.513-.7l-.113-.141.125-.122a3.621,3.621,0,0,0,1.039-2.644c-.019-.747-.225-1.176-.168-1.2a1.976,1.976,0,0,1,.42,1.182,3.652,3.652,0,0,1-1.022,2.936l.012-.263a7.308,7.308,0,0,1,.547.732,7.192,7.192,0,0,1,1.159,3.529A3.377,3.377,0,0,1,191.254,387.152Z" transform="translate(-189.307 -377.506)" fill="#eb996e"/>
              </g>
            </g>
          </g>
          <path id="Trazado_155130" data-name="Trazado 155130" d="M192.075,388.247l6.557,6.152.838,3.654-6.064-1.369A26.257,26.257,0,0,1,192.075,388.247Z" transform="translate(-93.663 -221.083)" fill="#455a64"/>
          <path id="Trazado_155131" data-name="Trazado 155131" d="M168.58,398.117c-.134.24-35.377,17.616-35.377,17.616v3.737l35.965-18.708,44.625-1.684v-2.646Z" transform="translate(-79.043 -223.116)" fill="#f5f5f5"/>
          <path id="Trazado_155132" data-name="Trazado 155132" d="M133.2,420.883c.247-.168,38.912-3.654,38.912-3.654l41.678-17.275-44.625,1.684L133.2,420.346Z" transform="translate(-79.043 -223.991)" fill="#263238"/>
          <g id="Grupo_162764" data-name="Grupo 162764" transform="translate(91.13 178.651)">
            <path id="Trazado_155133" data-name="Trazado 155133" d="M182.452,412.517c-.313-2.025,1.626-3.76,3.6-4.3s4.09-.327,6.088-.782a27.757,27.757,0,0,0,3.714-1.323c6.163-2.365,12.926-2.488,19.527-2.58a4.191,4.191,0,0,1-1.5,5.123,6.9,6.9,0,0,1-.2,4.95,15.451,15.451,0,0,1-2.754,4.23,9.605,9.605,0,0,1-3.258,2.73,10.841,10.841,0,0,1-4.181.643c-4.427.094-9.178.1-12.841-2.393-2.846-1.934-4.821-5.254-8.12-6.236l.782.032" transform="translate(-182.401 -403.531)" fill="#ffbe9d"/>
            <g id="Grupo_162761" data-name="Grupo 162761" transform="translate(11.021 2.923)">
              <path id="Trazado_155134" data-name="Trazado 155134" d="M215.627,411.027a3.573,3.573,0,0,1-.848.08l-2.313.074c-1.953.045-4.65.08-7.629.1h-4.2a5.793,5.793,0,0,1-1.858-.285,2.85,2.85,0,0,1-1.343-.979,1.783,1.783,0,0,1-.351-1.331,1.672,1.672,0,0,1,.466-.924.933.933,0,0,1,.793-.33,1.71,1.71,0,0,0-.682.434,1.54,1.54,0,0,0,0,1.986,2.618,2.618,0,0,0,1.228.838,5.637,5.637,0,0,0,1.756.23l4.2-.032c2.979-.014,5.677-.006,7.63.02l2.313.05A3.578,3.578,0,0,1,215.627,411.027Z" transform="translate(-197.06 -407.42)" fill="#eb996e"/>
            </g>
            <g id="Grupo_162762" data-name="Grupo 162762" transform="translate(0 8.563)">
              <path id="Trazado_155135" data-name="Trazado 155135" d="M209.712,416.6a5.659,5.659,0,0,1-1.064.208c-.689.106-1.688.249-2.932.368a28.453,28.453,0,0,1-4.394.105,32.355,32.355,0,0,1-5.3-.892,41.312,41.312,0,0,0-9.6-1.178c-1.242-.005-2.246.044-2.94.082a6.524,6.524,0,0,1-1.083.032,5.2,5.2,0,0,1,1.069-.184c.693-.085,1.7-.177,2.951-.207a37.4,37.4,0,0,1,9.688,1.073,34.433,34.433,0,0,0,5.244.914,31.355,31.355,0,0,0,4.348-.021c1.239-.083,2.241-.184,2.936-.243A5.878,5.878,0,0,1,209.712,416.6Z" transform="translate(-182.395 -414.925)" fill="#eb996e"/>
            </g>
            <g id="Grupo_162763" data-name="Grupo 162763" transform="translate(2.94 10.66)">
              <path id="Trazado_155136" data-name="Trazado 155136" d="M207,421.265a3.469,3.469,0,0,1-.83.155c-.537.071-1.314.167-2.28.249a27.428,27.428,0,0,1-7.576-.245c-2.967-.566-5.274-2.077-7.044-2.781a17.95,17.95,0,0,0-2.968-.912,2.614,2.614,0,0,1,.846.044,10.785,10.785,0,0,1,2.225.61c1.836.658,4.135,2.108,7.017,2.654a31.01,31.01,0,0,0,7.481.352l2.285-.125A3.525,3.525,0,0,1,207,421.265Z" transform="translate(-186.307 -417.715)" fill="#eb996e"/>
            </g>
          </g>
          <g id="Grupo_162765" data-name="Grupo 162765" transform="translate(104.772 158.149)" opacity="0.2">
            <path id="Trazado_155137" data-name="Trazado 155137" d="M200.547,390.789a25.345,25.345,0,0,1,2.2-7.944,12.261,12.261,0,0,1,5.676-5.806,8.158,8.158,0,0,1,7.9.484,4.1,4.1,0,0,1,1.574,1.88,2.3,2.3,0,0,1-.379,2.336c-.831.881-2.234.741-3.444.688a14.5,14.5,0,0,0-13.4,8.073" transform="translate(-200.547 -376.252)"/>
          </g>
          <g id="Grupo_162766" data-name="Grupo 162766" transform="translate(31.641 135.662)" opacity="0.2">
            <path id="Trazado_155138" data-name="Trazado 155138" d="M111.107,381.067c2.986-5.386,1.928-12.142-.364-17.858s-5.716-10.973-7.464-16.878a104.212,104.212,0,0,0,5.147,35.3" transform="translate(-103.24 -346.331)"/>
          </g>
          <path id="Trazado_155139" data-name="Trazado 155139" d="M118,281.985s3.645,8.591,16.793,8.045,13.575-10.749,13.575-10.749l8.8,9.353-8.357,17.226-11.226,8.38-15.295-6.285-12.6-9.776Z" transform="translate(-73.202 -194.01)" fill="#c0c942"/>
          <g id="Grupo_162767" data-name="Grupo 162767" transform="translate(5.825 124.681)" opacity="0.5">
            <path id="Trazado_155140" data-name="Trazado 155140" d="M77.07,331.734c.135.168-1.585,1.774-3.842,3.584s-4.2,3.142-4.332,2.974,1.584-1.774,3.842-3.585S76.935,331.566,77.07,331.734Z" transform="translate(-68.889 -331.72)" fill="#fafafa"/>
          </g>
          <g id="Grupo_162768" data-name="Grupo 162768" transform="translate(12.193 110.525)">
            <path id="Trazado_155141" data-name="Trazado 155141" d="M85.336,317.787c-.068.195-2.144-.391-4.391-1.777s-3.715-2.963-3.572-3.111c.151-.168,1.8,1.113,3.982,2.444S85.417,317.577,85.336,317.787Z" transform="translate(-77.363 -312.884)" fill="#fafafa"/>
          </g>
          <g id="Grupo_162769" data-name="Grupo 162769" transform="translate(24.545 116.429)">
            <path id="Trazado_155142" data-name="Trazado 155142" d="M100.715,320.744c.177.137-1.484,2.552-3.374,5.618s-3.32,5.625-3.522,5.527.931-2.837,2.857-5.939S100.552,320.615,100.715,320.744Z" transform="translate(-93.799 -320.739)" fill="#fafafa"/>
          </g>
          <g id="Grupo_162770" data-name="Grupo 162770" transform="translate(16.361 133.217)">
            <path id="Trazado_155143" data-name="Trazado 155143" d="M88.358,352.411c-.154.136-1.889-1.632-3.407-4.26s-2.205-5.006-2.01-5.071c.212-.08,1.2,2.124,2.687,4.678S88.533,352.266,88.358,352.411Z" transform="translate(-82.908 -343.077)" fill="#fafafa"/>
          </g>
          <g id="Grupo_162771" data-name="Grupo 162771" transform="translate(10.432 146.538)">
            <path id="Trazado_155144" data-name="Trazado 155144" d="M76.313,369.453c-.214.029-.652-1.884-.977-4.272s-.415-4.348-.2-4.378.652,1.883.977,4.272S76.527,369.423,76.313,369.453Z" transform="translate(-75.019 -360.803)" fill="#fafafa"/>
          </g>
          <g id="Grupo_162772" data-name="Grupo 162772" transform="translate(21.201 150.022)" opacity="0.5">
            <path id="Trazado_155145" data-name="Trazado 155145" d="M89.371,374.046c-.187-.108.779-2.122,2.156-4.5s2.647-4.214,2.834-4.106-.779,2.122-2.157,4.5S89.558,374.154,89.371,374.046Z" transform="translate(-89.348 -365.438)" fill="#fafafa"/>
          </g>
          <g id="Grupo_162773" data-name="Grupo 162773" transform="translate(4.331 163.208)">
            <path id="Trazado_155146" data-name="Trazado 155146" d="M72.76,391.491c-.156.139-1.832-1.5-3.459-3.881s-2.563-4.528-2.376-4.624,1.417,1.85,3.022,4.181S72.929,391.345,72.76,391.491Z" transform="translate(-66.902 -382.983)" fill="#fafafa"/>
          </g>
          <g id="Grupo_162774" data-name="Grupo 162774" transform="translate(16.91 169.548)">
            <path id="Trazado_155147" data-name="Trazado 155147" d="M91.911,391.428c.153.152-1.572,2.142-3.853,4.444s-4.256,4.046-4.409,3.894,1.571-2.141,3.853-4.445S91.757,391.275,91.911,391.428Z" transform="translate(-83.639 -391.419)" fill="#fafafa"/>
          </g>
          <g id="Grupo_162775" data-name="Grupo 162775" transform="translate(11.233 188.856)" opacity="0.5">
            <path id="Trazado_155148" data-name="Trazado 155148" d="M81.512,424.816c-.142.15-1.805-1.239-3.323-3.414s-2.264-4.207-2.074-4.29,1.233,1.737,2.715,3.84S81.672,424.658,81.512,424.816Z" transform="translate(-76.086 -417.109)" fill="#fafafa"/>
          </g>
          <g id="Grupo_162776" data-name="Grupo 162776" transform="translate(27.361 191.072)">
            <path id="Trazado_155149" data-name="Trazado 155149" d="M106.19,420.082c.107.188-1.741,1.444-4.126,2.8s-4.407,2.312-4.515,2.124,1.74-1.443,4.127-2.8S106.083,419.9,106.19,420.082Z" transform="translate(-97.545 -420.059)" fill="#fafafa"/>
          </g>
          <g id="Grupo_162777" data-name="Grupo 162777" transform="translate(37.891 177.164)">
            <path id="Trazado_155150" data-name="Trazado 155150" d="M117.212,409.261c-.133.156-1.892-1.181-3.479-3.366s-2.337-4.26-2.148-4.339c.206-.1,1.235,1.774,2.78,3.877S117.366,409.094,117.212,409.261Z" transform="translate(-111.556 -401.552)" fill="#fafafa"/>
          </g>
          <g id="Grupo_162778" data-name="Grupo 162778" transform="translate(47.48 141.579)">
            <path id="Trazado_155151" data-name="Trazado 155151" d="M133.679,354.217c.13.173-1.86,1.882-4.444,3.816s-4.784,3.363-4.914,3.19,1.86-1.882,4.445-3.817S133.549,354.044,133.679,354.217Z" transform="translate(-124.315 -354.203)" fill="#fafafa"/>
          </g>
          <g id="Grupo_162779" data-name="Grupo 162779" transform="translate(42.688 131.571)">
            <path id="Trazado_155152" data-name="Trazado 155152" d="M118.08,350c-.216-.022-.18-2.081.077-4.6s.642-4.542.858-4.519.18,2.08-.078,4.6S118.3,350.027,118.08,350Z" transform="translate(-117.939 -340.887)" fill="#fafafa"/>
          </g>
          <g id="Grupo_162780" data-name="Grupo 162780" transform="translate(46.544 115.225)" opacity="0.5">
            <path id="Trazado_155153" data-name="Trazado 155153" d="M132.278,326.995c-.12.172-2.449-1.263-5.006-3.448s-4.345-4.254-4.194-4.4,2.17,1.65,4.7,3.8S132.406,326.813,132.278,326.995Z" transform="translate(-123.069 -319.137)" fill="#fafafa"/>
          </g>
          <g id="Grupo_162781" data-name="Grupo 162781" transform="translate(38.098 101.116)">
            <path id="Trazado_155154" data-name="Trazado 155154" d="M119.782,300.372c.165.14-1.479,2.349-3.671,4.933s-4.1,4.566-4.269,4.427,1.479-2.348,3.672-4.933S119.618,300.232,119.782,300.372Z" transform="translate(-111.831 -300.365)" fill="#fafafa"/>
          </g>
          <g id="Grupo_162782" data-name="Grupo 162782" transform="translate(26.938 95.943)" opacity="0.5">
            <path id="Trazado_155155" data-name="Trazado 155155" d="M104.976,296.309c-.119.193-1.8-.67-3.98-1.4-2.178-.747-4.036-1.082-4.013-1.308.011-.205,1.985-.213,4.264.567S105.092,296.14,104.976,296.309Z" transform="translate(-96.983 -293.482)" fill="#fafafa"/>
          </g>
          <g id="Grupo_162783" data-name="Grupo 162783" transform="translate(63.126 100.944)">
            <path id="Trazado_155156" data-name="Trazado 155156" d="M145.192,308.086c-.207-.061.147-1.89.793-4.085s1.336-3.925,1.544-3.865-.147,1.889-.793,4.085S145.4,308.147,145.192,308.086Z" transform="translate(-145.133 -300.135)" fill="#fafafa"/>
          </g>
          <g id="Grupo_162784" data-name="Grupo 162784" transform="translate(69.713 118.243)">
            <path id="Trazado_155157" data-name="Trazado 155157" d="M154.122,331.1c-.216-.012-.288-1.8-.162-4s.4-3.965.619-3.953.288,1.8.162,4S154.338,331.116,154.122,331.1Z" transform="translate(-153.898 -323.153)" fill="#fafafa"/>
          </g>
          <g id="Grupo_162785" data-name="Grupo 162785" transform="translate(74.174 133.642)">
            <path id="Trazado_155158" data-name="Trazado 155158" d="M166.7,349.174c-.135.168-1.78-.93-3.674-2.452s-3.32-2.893-3.184-3.062,1.78.93,3.674,2.452S166.836,349.006,166.7,349.174Z" transform="translate(-159.833 -343.643)" fill="#fafafa"/>
          </g>
          <g id="Grupo_162786" data-name="Grupo 162786" transform="translate(85.785 121.034)">
            <path id="Trazado_155159" data-name="Trazado 155159" d="M182.369,326.88c.143.162-1.325,1.691-3.279,3.415s-3.654,2.99-3.8,2.827,1.325-1.69,3.279-3.414S182.226,326.719,182.369,326.88Z" transform="translate(-175.283 -326.867)" fill="#fafafa"/>
          </g>
          <g id="Grupo_162787" data-name="Grupo 162787" transform="translate(80.248 106.531)" opacity="0.5">
            <path id="Trazado_155160" data-name="Trazado 155160" d="M175.1,313.531c-.115.177-1.974-.842-3.975-2.506s-3.35-3.3-3.2-3.443,1.729,1.211,3.7,2.84S175.223,313.346,175.1,313.531Z" transform="translate(-167.915 -307.57)" fill="#fafafa"/>
          </g>
          <g id="Grupo_162788" data-name="Grupo 162788" transform="translate(95.426 97.228)">
            <path id="Trazado_155161" data-name="Trazado 155161" d="M193.786,295.2c.171.119-.74,1.674-2.348,3.179s-3.211,2.325-3.32,2.147,1.242-1.261,2.783-2.718S193.606,295.067,193.786,295.2Z" transform="translate(-188.111 -295.191)" fill="#fafafa"/>
          </g>
          <g id="Grupo_162789" data-name="Grupo 162789" transform="translate(81.422 93.17)" opacity="0.5">
            <path id="Trazado_155162" data-name="Trazado 155162" d="M179.758,292.43c-.029.208-2.428.037-5.293-.691s-5.059-1.711-4.986-1.907,2.355.439,5.177,1.149S179.791,292.21,179.758,292.43Z" transform="translate(-169.478 -289.791)" fill="#fafafa"/>
          </g>
          <g id="Grupo_162790" data-name="Grupo 162790" transform="translate(109.111 107.499)" opacity="0.5">
            <path id="Trazado_155163" data-name="Trazado 155163" d="M206.367,321.455c-.206-.044.263-2.981,1.336-6.478s2.317-6.2,2.512-6.119-.709,2.88-1.764,6.348S206.584,321.5,206.367,321.455Z" transform="translate(-206.32 -308.857)" fill="#fafafa"/>
          </g>
          <g id="Grupo_162791" data-name="Grupo 162791" transform="translate(105.294 128.486)">
            <path id="Trazado_155164" data-name="Trazado 155164" d="M208.971,344.969c-.157.149-2.013-1.562-4.144-3.82s-3.733-4.21-3.576-4.358,2.013,1.562,4.145,3.821S209.128,344.821,208.971,344.969Z" transform="translate(-201.241 -336.782)" fill="#fafafa"/>
          </g>
          <g id="Grupo_162792" data-name="Grupo 162792" transform="translate(118.705 135.077)" opacity="0.5">
            <path id="Trazado_155165" data-name="Trazado 155165" d="M219.395,356.542c-.216,0-.349-2.467-.3-5.5s.268-5.492.485-5.489.349,2.467.3,5.5S219.611,356.546,219.395,356.542Z" transform="translate(-219.086 -345.552)" fill="#fafafa"/>
          </g>
          <g id="Grupo_162793" data-name="Grupo 162793" transform="translate(107.57 151.678)">
            <path id="Trazado_155166" data-name="Trazado 155166" d="M209.634,377.493c-.169.122-1.782-1.848-3.267-4.6s-2.262-5.175-2.068-5.25,1.287,2.175,2.756,4.877S209.816,377.365,209.634,377.493Z" transform="translate(-204.269 -367.641)" fill="#fafafa"/>
          </g>
          <g id="Grupo_162794" data-name="Grupo 162794" transform="translate(123.241 164.338)">
            <path id="Trazado_155167" data-name="Trazado 155167" d="M230.339,384.5c.151.154-.891,1.417-2.328,2.821s-2.724,2.415-2.875,2.261.891-1.417,2.328-2.821S230.188,384.347,230.339,384.5Z" transform="translate(-225.121 -384.486)" fill="#fafafa"/>
          </g>
          <g id="Grupo_162795" data-name="Grupo 162795" transform="translate(90.635 137.691)" opacity="0.5">
            <path id="Trazado_155168" data-name="Trazado 155168" d="M181.768,358.067c-.192-.059.5-2.524,2.279-5.089s3.827-4.1,3.95-3.937c.154.172-1.606,1.9-3.305,4.382C182.973,355.892,181.983,358.151,181.768,358.067Z" transform="translate(-181.736 -349.03)" fill="#fafafa"/>
          </g>
          <g id="Grupo_162796" data-name="Grupo 162796" transform="translate(46.783 157.547)">
            <path id="Trazado_155169" data-name="Trazado 155169" d="M123.446,385.253c-.21-.052.16-2.288.826-4.994s1.377-4.86,1.587-4.808-.16,2.288-.826,4.995S123.655,385.3,123.446,385.253Z" transform="translate(-123.387 -375.451)" fill="#fafafa"/>
          </g>
          <g id="Grupo_162797" data-name="Grupo 162797" transform="translate(57.365 163.995)">
            <path id="Trazado_155170" data-name="Trazado 155170" d="M145.4,389.222c-.118.181-1.989-.83-4.179-2.258s-3.87-2.732-3.752-2.913,1.989.83,4.18,2.258S145.523,389.041,145.4,389.222Z" transform="translate(-137.467 -384.03)" fill="#fafafa"/>
          </g>
          <g id="Grupo_162798" data-name="Grupo 162798" transform="translate(61.065 150.953)">
            <path id="Trazado_155171" data-name="Trazado 155171" d="M145.7,371.593c-.18.12-1.06-.881-1.965-2.235s-1.493-2.551-1.314-2.671,1.059.881,1.965,2.236S145.882,371.473,145.7,371.593Z" transform="translate(-142.391 -366.677)" fill="#fafafa"/>
          </g>
          <g id="Grupo_162799" data-name="Grupo 162799" transform="translate(68.523 158.867)">
            <path id="Trazado_155172" data-name="Trazado 155172" d="M156.308,377.244c.125.177-.666.946-1.765,1.718s-2.092,1.254-2.216,1.078.666-.946,1.766-1.718S156.184,377.066,156.308,377.244Z" transform="translate(-152.314 -377.207)" fill="#fafafa"/>
          </g>
          <g id="Grupo_162800" data-name="Grupo 162800" transform="translate(51.196 205.218)" opacity="0.5">
            <path id="Trazado_155173" data-name="Trazado 155173" d="M129.325,446.6c-.213-.065.134-1.771.443-3.878s.484-3.839.706-3.839.4,1.781.068,3.955S129.524,446.663,129.325,446.6Z" transform="translate(-129.259 -438.881)" fill="#fafafa"/>
          </g>
          <g id="Grupo_162801" data-name="Grupo 162801" transform="translate(64.277 196.828)" opacity="0.5">
            <path id="Trazado_155174" data-name="Trazado 155174" d="M152.379,437.727c-.188.107-1.614-2.046-3.187-4.809s-2.7-5.09-2.507-5.2,1.614,2.046,3.187,4.809S152.567,437.62,152.379,437.727Z" transform="translate(-146.665 -427.717)" fill="#fafafa"/>
          </g>
          <g id="Grupo_162802" data-name="Grupo 162802" transform="translate(80.815 198.453)" opacity="0.5">
            <path id="Trazado_155175" data-name="Trazado 155175" d="M177.713,429.883c.172.132-1.711,2.882-4.2,6.142s-4.657,5.8-4.828,5.667,1.711-2.881,4.206-6.143S177.542,429.753,177.713,429.883Z" transform="translate(-168.669 -429.879)" fill="#fafafa"/>
          </g>
          <g id="Grupo_162803" data-name="Grupo 162803" transform="translate(84.231 214.327)" opacity="0.5">
            <path id="Trazado_155176" data-name="Trazado 155176" d="M184.44,451.088c.031.214-2.457.751-5.555,1.2s-5.638.639-5.669.425,2.457-.751,5.557-1.2S184.41,450.875,184.44,451.088Z" transform="translate(-173.216 -451)" fill="#fafafa"/>
          </g>
          <g id="Grupo_162804" data-name="Grupo 162804" transform="translate(96.217 199.137)">
            <path id="Trazado_155177" data-name="Trazado 155177" d="M189.263,438.027c-.218-.049-.022-1.653.059-3.622s.035-3.584.257-3.614c.206-.033.619,1.6.525,3.649S189.466,438.078,189.263,438.027Z" transform="translate(-189.164 -430.789)" fill="#fafafa"/>
          </g>
          <g id="Grupo_162805" data-name="Grupo 162805" transform="translate(61.999 210.351)">
            <path id="Trazado_155178" data-name="Trazado 155178" d="M151.128,451.1c-.075.192-2.106-.483-4.224-2.014s-3.414-3.231-3.256-3.363c.167-.153,1.663,1.264,3.713,2.727S151.22,450.892,151.128,451.1Z" transform="translate(-143.634 -445.71)" fill="#fafafa"/>
          </g>
          <g id="Grupo_162806" data-name="Grupo 162806" transform="translate(37.547 207.072)">
            <path id="Trazado_155179" data-name="Trazado 155179" d="M111.172,448.827c-.21-.053.042-1.77.561-3.835s1.111-3.7,1.32-3.644-.041,1.769-.561,3.834S111.381,448.88,111.172,448.827Z" transform="translate(-111.098 -441.347)" fill="#fafafa"/>
          </g>
          <g id="Grupo_162807" data-name="Grupo 162807" transform="translate(34.156 24.453)">
            <path id="Trazado_155180" data-name="Trazado 155180" d="M106.588,198.362c.049-.062.9.673,2.476,1.537a18.232,18.232,0,0,0,2.879,1.257,18.353,18.353,0,0,0,7.591.874,18.174,18.174,0,0,0,3.09-.57c1.729-.484,2.727-1.006,2.76-.934a3.056,3.056,0,0,1-.683.4,6.8,6.8,0,0,1-.843.383,11.155,11.155,0,0,1-1.155.419,16.389,16.389,0,0,1-3.132.663,17.445,17.445,0,0,1-7.745-.891,16.467,16.467,0,0,1-2.9-1.357,11.19,11.19,0,0,1-1.03-.671,6.639,6.639,0,0,1-.734-.565A3.075,3.075,0,0,1,106.588,198.362Z" transform="translate(-106.587 -198.358)" fill="#455a64"/>
          </g>
          <g id="Grupo_162808" data-name="Grupo 162808" transform="translate(34.583 27.292)">
            <path id="Trazado_155181" data-name="Trazado 155181" d="M126.145,207.945a3.539,3.539,0,0,1-.819.253c-.534.135-1.311.312-2.284.481a20.832,20.832,0,0,1-7.7.046,11.983,11.983,0,0,1-6.652-3.792,8.192,8.192,0,0,1-1.26-1.982,2.912,2.912,0,0,1-.275-.815,13.417,13.417,0,0,0,1.743,2.614,12.275,12.275,0,0,0,6.523,3.592,22.538,22.538,0,0,0,7.576.064c.97-.133,1.753-.267,2.3-.356A3.711,3.711,0,0,1,126.145,207.945Z" transform="translate(-107.154 -202.136)" fill="#455a64"/>
          </g>
          <g id="Grupo_162809" data-name="Grupo 162809" transform="translate(25.758 34.418)">
            <path id="Trazado_155182" data-name="Trazado 155182" d="M96.466,256.3c-.005,0-.038-.031-.1-.1a3.812,3.812,0,0,1-.256-.335,4.346,4.346,0,0,1-.6-1.5,6.9,6.9,0,0,1,1.652-5.583,14.166,14.166,0,0,1,3.144-2.652c1.232-.813,2.618-1.561,3.976-2.476a12.117,12.117,0,0,0,3.621-3.536,6.409,6.409,0,0,0,.9-2.483,7.757,7.757,0,0,0-.145-2.734,33.955,33.955,0,0,0-1.9-5.183,14.357,14.357,0,0,1-1.271-5.059,13.492,13.492,0,0,1,2.578-8.33,12.63,12.63,0,0,1,4.433-3.908l.842-.4.645-.226a2.919,2.919,0,0,1,.539-.16,3.126,3.126,0,0,1-.511.234l-.625.259-.816.431a12.905,12.905,0,0,0-4.28,3.933,13.341,13.341,0,0,0-2.443,8.154,14.136,14.136,0,0,0,1.266,4.931,33.475,33.475,0,0,1,1.93,5.244,8.1,8.1,0,0,1,.149,2.872,6.783,6.783,0,0,1-.958,2.629,12.383,12.383,0,0,1-3.746,3.635c-1.387.923-2.775,1.656-4,2.45a14.06,14.06,0,0,0-3.11,2.56,6.814,6.814,0,0,0-1.712,5.375A5.189,5.189,0,0,0,96.466,256.3Z" transform="translate(-95.412 -211.617)" fill="#455a64"/>
          </g>
          <g id="Grupo_162810" data-name="Grupo 162810" transform="translate(41.513 36.279)">
            <path id="Trazado_155183" data-name="Trazado 155183" d="M121.692,257.186a2.358,2.358,0,0,1-.435-.246,3.513,3.513,0,0,1-.97-1.055,5.038,5.038,0,0,1-.676-2.166,8.193,8.193,0,0,1,.328-2.987c.61-2.207,2.454-4.214,3.838-6.735a8.426,8.426,0,0,0,1.13-4.282,11.484,11.484,0,0,0-1.207-4.639c-1.427-3.022-3.622-5.424-5.138-7.939a16.367,16.367,0,0,1-1.773-3.778,9.133,9.133,0,0,1-.369-3.623,7.174,7.174,0,0,1,2.189-4.7,5.1,5.1,0,0,1,1.205-.773,2.327,2.327,0,0,1,.469-.167,7.709,7.709,0,0,0-1.571,1.053,7.147,7.147,0,0,0-2.016,4.612,8.941,8.941,0,0,0,.4,3.5,16.32,16.32,0,0,0,1.77,3.684c.768,1.229,1.679,2.456,2.6,3.748a26.62,26.62,0,0,1,2.581,4.214,11.793,11.793,0,0,1,1.237,4.8,8.747,8.747,0,0,1-1.2,4.459c-1.438,2.566-3.278,4.533-3.891,6.644a8.115,8.115,0,0,0-.374,2.89,5.007,5.007,0,0,0,.589,2.106A4.44,4.44,0,0,0,121.692,257.186Z" transform="translate(-116.376 -214.094)" fill="#455a64"/>
          </g>
          <g id="Grupo_162811" data-name="Grupo 162811" transform="translate(55.381 4.327)">
            <path id="Trazado_155184" data-name="Trazado 155184" d="M155.935,190.2a.907.907,0,0,1-.284-.119,5.658,5.658,0,0,1-.744-.474,9.061,9.061,0,0,1-2.161-2.41,26.884,26.884,0,0,1-2.081-4.316c-.346-.827-.715-1.689-1.169-2.542a15.757,15.757,0,0,0-1.659-2.479,17,17,0,0,0-8.686-5.6,23.37,23.37,0,0,0-4.322-.619,6.261,6.261,0,0,1,1.183-.067,15.613,15.613,0,0,1,3.208.418,16.682,16.682,0,0,1,8.922,5.619,15.675,15.675,0,0,1,1.694,2.546c.46.876.826,1.752,1.164,2.585a28.944,28.944,0,0,0,1.982,4.306A9.782,9.782,0,0,0,155,189.491C155.579,189.974,155.953,190.173,155.935,190.2Z" transform="translate(-134.828 -171.578)" fill="#455a64"/>
          </g>
          <g id="Grupo_162812" data-name="Grupo 162812" transform="translate(55.652 3.499)">
            <path id="Trazado_155185" data-name="Trazado 155185" d="M166.506,189.868a1.572,1.572,0,0,1-.4-.042,6.192,6.192,0,0,1-1.129-.293,9.77,9.77,0,0,1-3.583-2.328,21.617,21.617,0,0,1-3.719-5.137,39.468,39.468,0,0,0-4.086-6.508,12.837,12.837,0,0,0-6.378-3.979,24.91,24.91,0,0,0-6.2-.827c-1.792-.04-3.247.035-4.251.074l-1.158.044a1.616,1.616,0,0,1-.406-.009,1.591,1.591,0,0,1,.4-.069c.264-.032.652-.076,1.154-.117,1-.086,2.458-.2,4.264-.2a24.121,24.121,0,0,1,6.3.758,13.039,13.039,0,0,1,6.575,4.069,38.142,38.142,0,0,1,4.106,6.59,22.128,22.128,0,0,0,3.6,5.116,10.124,10.124,0,0,0,3.441,2.382C165.956,189.757,166.515,189.826,166.506,189.868Z" transform="translate(-135.189 -170.477)" fill="#455a64"/>
          </g>
          <g id="Grupo_162813" data-name="Grupo 162813" transform="translate(92.312 35.647)">
            <path id="Trazado_155186" data-name="Trazado 155186" d="M196.372,249.275c-.044-.017.192-.534.442-1.517a14.233,14.233,0,0,0-3.294-13.36c-.87-.967-1.866-1.885-2.873-2.847a26.1,26.1,0,0,1-2.785-2.99,18.533,18.533,0,0,1-2-3.244,19.043,19.043,0,0,1-1.777-6.177,17.559,17.559,0,0,1,.043-4.333,10.847,10.847,0,0,1,.207-1.16,1.657,1.657,0,0,1,.109-.4c.041.008-.075.561-.164,1.573a19.231,19.231,0,0,0,.08,4.282,19.365,19.365,0,0,0,1.826,6.052,18.558,18.558,0,0,0,1.983,3.167,26.33,26.33,0,0,0,2.753,2.942c1,.96,2.005,1.886,2.887,2.874a14.519,14.519,0,0,1,2.184,3.132,14.29,14.29,0,0,1,1.553,6.231,13.522,13.522,0,0,1-.582,4.294,9.033,9.033,0,0,1-.407,1.107A1.615,1.615,0,0,1,196.372,249.275Z" transform="translate(-183.968 -213.252)" fill="#455a64"/>
          </g>
          <g id="Grupo_162814" data-name="Grupo 162814" transform="translate(22.377 15.445)">
            <path id="Trazado_155187" data-name="Trazado 155187" d="M90.922,193.223a2.229,2.229,0,0,1,.1-.737,7.22,7.22,0,0,1,.738-1.89,8.032,8.032,0,0,1,11.676-2.793,7.209,7.209,0,0,1,1.514,1.352,2.247,2.247,0,0,1,.419.613,13.545,13.545,0,0,0-2.083-1.733A7.993,7.993,0,0,0,92,190.735,13.437,13.437,0,0,0,90.922,193.223Z" transform="translate(-90.913 -186.372)" fill="#455a64"/>
          </g>
          <g id="Grupo_162815" data-name="Grupo 162815" transform="translate(29.652 18.798)">
            <path id="Trazado_155188" data-name="Trazado 155188" d="M100.61,197.5a6.155,6.155,0,0,1,.21-1.706,7.525,7.525,0,0,1,1.776-3.768,3.982,3.982,0,0,1,3.984-1.009,2.338,2.338,0,0,1,1.065.729c.189.241.247.4.229.411a3.508,3.508,0,0,0-1.378-.876,3.863,3.863,0,0,0-3.619,1.018,8.112,8.112,0,0,0-1.787,3.559A9.568,9.568,0,0,1,100.61,197.5Z" transform="translate(-100.593 -190.834)" fill="#455a64"/>
          </g>
          <g id="Grupo_162816" data-name="Grupo 162816" transform="translate(36.154 14.449)">
            <path id="Trazado_155189" data-name="Trazado 155189" d="M112.3,185.049a33.845,33.845,0,0,0-1.974,4.094,33.855,33.855,0,0,0-1.021,4.43,11.822,11.822,0,0,1,2.994-8.523Z" transform="translate(-109.245 -185.047)" fill="#e8505b"/>
          </g>
        </g>
      </g>
      <g id="Speech_Bubble" data-name="Speech Bubble" transform="translate(181.376 141.607)">
        <g id="Grupo_162828" data-name="Grupo 162828">
          <g id="Grupo_162824" data-name="Grupo 162824" transform="translate(15.726 24.991)">
            <g id="Grupo_162819" data-name="Grupo 162819" transform="translate(19.011 0)">
              <g id="Grupo_162818" data-name="Grupo 162818">
                <path id="Trazado_155190" data-name="Trazado 155190" d="M273.3,208.655a2.339,2.339,0,1,0,2.339-2.34A2.339,2.339,0,0,0,273.3,208.655Z" transform="translate(-273.298 -206.315)" fill="#455a64"/>
              </g>
            </g>
            <g id="Grupo_162821" data-name="Grupo 162821" transform="translate(9.65 0)">
              <g id="Grupo_162820" data-name="Grupo 162820">
                <circle id="Elipse_4832" data-name="Elipse 4832" cx="2.339" cy="2.339" r="2.339" fill="#455a64"/>
              </g>
            </g>
            <g id="Grupo_162823" data-name="Grupo 162823">
              <g id="Grupo_162822" data-name="Grupo 162822">
                <path id="Trazado_155191" data-name="Trazado 155191" d="M248.316,207.484a2.339,2.339,0,1,0,3.195-.856A2.339,2.339,0,0,0,248.316,207.484Z" transform="translate(-248.002 -206.315)" fill="#455a64"/>
              </g>
            </g>
          </g>
          <g id="Grupo_162827" data-name="Grupo 162827">
            <g id="Grupo_162826" data-name="Grupo 162826">
              <g id="Grupo_162825" data-name="Grupo 162825">
                <path id="Trazado_155192" data-name="Trazado 155192" d="M254.648,173.072a2.62,2.62,0,0,0-.473-.008l-1.39.039c-.305.014-.649.014-1.024.045l-1.226.172-1.431.206-1.6.4a25.906,25.906,0,0,0-7.748,3.378A27.345,27.345,0,0,0,227.2,197.853a28.329,28.329,0,0,0-.075,3.746c.044.634.032,1.278.124,1.916l.291,1.93a27.457,27.457,0,0,0,2.6,7.624,29.369,29.369,0,0,0,4.98,6.853,28.8,28.8,0,0,0,7.174,5.154,26.066,26.066,0,0,0,8.746,2.684,17.327,17.327,0,0,0,2.332.2,20.9,20.9,0,0,0,2.358.043,28.01,28.01,0,0,0,4.723-.6,27.6,27.6,0,0,0,9.4-3.957l-.285.029,9.577,3.844.567.228-.162-.589q-1.45-5.271-2.815-10.238l-.048.253a27.476,27.476,0,0,0,5.111-11.7,24.858,24.858,0,0,0,.372-5.994,19.2,19.2,0,0,0-.271-2.878q-.109-.706-.218-1.4c-.086-.461-.225-.907-.334-1.357a27.389,27.389,0,0,0-10.686-15.577,26.191,26.191,0,0,0-6.359-3.355l-1.432-.513-1.36-.345-1.244-.309c-.4-.077-.785-.117-1.145-.173-.724-.092-1.36-.217-1.917-.244l-1.408-.047-.86-.02a1.281,1.281,0,0,0-.291.011,1.333,1.333,0,0,0,.291.04l.855.068,1.4.095c.553.043,1.183.183,1.9.289a27.236,27.236,0,0,1,21.777,20.2c.1.442.24.88.322,1.333s.137.915.207,1.377a18.83,18.83,0,0,1,.253,2.827,24.431,24.431,0,0,1-.388,5.876,26.984,26.984,0,0,1-5.041,11.445l-.086.115.038.138,2.794,10.244.406-.361L269.8,222.9l-.15-.061-.136.089a27.039,27.039,0,0,1-9.192,3.864,27.444,27.444,0,0,1-4.617.584,20.492,20.492,0,0,1-2.3-.041,16.939,16.939,0,0,1-2.281-.192,25.53,25.53,0,0,1-8.553-2.615,28.267,28.267,0,0,1-7.028-5.03,28.874,28.874,0,0,1-4.891-6.7,27.031,27.031,0,0,1-2.575-7.461q-.147-.951-.292-1.89c-.094-.626-.083-1.258-.129-1.879a26.64,26.64,0,0,1,4.456-16.227,27.626,27.626,0,0,1,7.836-7.756,26.06,26.06,0,0,1,7.622-3.437l1.578-.42,1.416-.232,1.215-.2c.373-.041.713-.051,1.017-.075l1.382-.1A2.652,2.652,0,0,0,254.648,173.072Z" transform="translate(-227.078 -173.062)" fill="#455a64"/>
              </g>
            </g>
          </g>
        </g>
      </g>
    </g>
    <rect id="Rectngulo_35587" data-name="Rectngulo 35587" width="400" height="328" transform="translate(1020 6791)" fill="none"/>
  </g>
</svg>
