<svg xmlns="http://www.w3.org/2000/svg" width="152" height="137.661" viewBox="0 0 152 137.661">
  <g id="_x31_5_Scanner" transform="translate(-4.003 -27.775)">
    <g id="Grupo_162833" data-name="Grupo 162833" transform="translate(4.003 27.775)">
      <path id="Trazado_155193" data-name="Trazado 155193" d="M9.956,392.659v16.264a9.528,9.528,0,0,0,9.5,9.557H148.867a9.528,9.528,0,0,0,9.5-9.557V392.659Z" transform="translate(-8.161 -282.613)" fill="#785549"/>
      <path id="Trazado_155194" data-name="Trazado 155194" d="M439.865,392.619V408.9a9.516,9.516,0,0,1-9.479,9.551H413.032a9.521,9.521,0,0,0,9.5-9.551V392.619Z" transform="translate(-289.673 -282.585)" opacity="0.15"/>
      <path id="Trazado_155195" data-name="Trazado 155195" d="M158.366,50.555V43.287a9.527,9.527,0,0,0-9.5-9.557H19.456a9.527,9.527,0,0,0-9.5,9.557v7.268Z" transform="translate(-8.162 -31.934)" fill="#fd9827"/>
      <path id="Trazado_155196" data-name="Trazado 155196" d="M425.121,43.263V50.54h-23.7V43.263a9.537,9.537,0,0,0-9.5-9.551h23.721a9.516,9.516,0,0,1,9.479,9.551Z" transform="translate(-274.928 -31.921)" opacity="0.15"/>
      <path id="Trazado_155197" data-name="Trazado 155197" d="M134.62,257.667H33.7L9.956,298.34H158.365Z" transform="translate(-8.161 -188.334)" fill="#fefefe"/>
      <path id="Trazado_155198" data-name="Trazado 155198" d="M65.251,310.939l12.567-21.525H167.74l12.567,21.525Z" transform="translate(-46.779 -210.506)" fill="#c0c942"/>
      <path id="Trazado_155199" data-name="Trazado 155199" d="M385.567,310.959H371.708L359.141,289.44H373Z" transform="translate(-252.035 -210.524)" opacity="0.15"/>
      <path id="Trazado_155200" data-name="Trazado 155200" d="M134.62,140.231H33.7L9.956,89.519H158.365Z" transform="translate(-8.161 -70.898)" fill="#e6e8e7"/>
      <path id="Trazado_155201" data-name="Trazado 155201" d="M395.188,89.509l-23.745,50.722H349.061l23.745-50.722Z" transform="translate(-244.995 -70.891)" opacity="0.15"/>
      <g id="Grupo_162832" data-name="Grupo 162832" transform="translate(100.384 118.754)">
        <path id="Trazado_155202" data-name="Trazado 155202" d="M345.277,425.724a4.213,4.213,0,1,1-4.213-4.192A4.219,4.219,0,0,1,345.277,425.724Z" transform="translate(-336.851 -421.532)" fill="#facb00"/>
        <path id="Trazado_155203" data-name="Trazado 155203" d="M396.157,425.724a4.213,4.213,0,1,1-4.213-4.192A4.219,4.219,0,0,1,396.157,425.724Z" transform="translate(-372.386 -421.532)" fill="#facb00"/>
        <path id="Trazado_155204" data-name="Trazado 155204" d="M447.037,425.724a4.213,4.213,0,1,1-4.213-4.192A4.219,4.219,0,0,1,447.037,425.724Z" transform="translate(-407.921 -421.532)" fill="#facb00"/>
      </g>
      <path id="Trazado_155205" data-name="Trazado 155205" d="M144.71,27.775H15.3A11.336,11.336,0,0,0,4,39.129V46.4a1.776,1.776,0,0,0,.162.73C4.424,47.7,27.4,96.775,27.518,97.018L4.248,136.878A3.543,3.543,0,0,0,4,137.82v16.265A11.334,11.334,0,0,0,15.3,165.436H144.71A11.334,11.334,0,0,0,156,154.085c0-1.666,0,6.034-.005-16.29a3.981,3.981,0,0,0-.24-.917l-23.27-39.859,23.346-49.86A2.019,2.019,0,0,0,156,46.4v-7.27A11.334,11.334,0,0,0,144.71,27.775ZM7.594,39.129a7.742,7.742,0,0,1,7.7-7.763H144.71a7.74,7.74,0,0,1,7.7,7.761V44.6H7.594ZM139.2,115.643h-6.93l-5.759-9.865a1.792,1.792,0,0,0-1.55-.891H35.042a1.792,1.792,0,0,0-1.55.891l-5.759,9.865H20.8L30.575,98.9h98.857Zm-107.314,0,4.183-7.165h87.861l4.183,7.165Zm98.323,3.591,4.191,7.179H25.6l4.191-7.179Zm22.2,34.851a7.74,7.74,0,0,1-7.7,7.761H15.3a7.74,7.74,0,0,1-7.7-7.761v-14.47H152.413v14.47ZM8.926,135.987l9.78-16.754h6.93L20.925,127.3a1.8,1.8,0,0,0,1.55,2.7H137.531a1.8,1.8,0,0,0,1.55-2.7l-4.711-8.069h6.93l9.78,16.754Zm120.4-40.674H30.684L8.622,48.191H151.384Z" transform="translate(-4.003 -27.775)"/>
      <path id="Trazado_155206" data-name="Trazado 155206" d="M450.641,55.671h-3.228a1.8,1.8,0,0,0,0,3.591h3.228a1.8,1.8,0,1,0,0-3.591Z" transform="translate(-312.43 -47.258)"/>
      <path id="Trazado_155207" data-name="Trazado 155207" d="M410.22,55.671h-3.228a1.8,1.8,0,1,0,0,3.591h3.228a1.8,1.8,0,0,0,0-3.591Z" transform="translate(-284.2 -47.258)"/>
      <path id="Trazado_155208" data-name="Trazado 155208" d="M369.8,55.671h-3.226a1.8,1.8,0,0,0,0,3.591H369.8a1.8,1.8,0,0,0,0-3.591Z" transform="translate(-255.97 -47.258)"/>
      <path id="Trazado_155209" data-name="Trazado 155209" d="M336.9,427.572a6,6,0,1,0-6.008-6.008A6.015,6.015,0,0,0,336.9,427.572Zm0-8.406a2.408,2.408,0,1,1-2.417,2.4A2.411,2.411,0,0,1,336.9,419.165Z" transform="translate(-232.309 -298.618)"/>
      <path id="Trazado_155210" data-name="Trazado 155210" d="M387.789,427.572a6,6,0,1,0-6.008-6.008A6.015,6.015,0,0,0,387.789,427.572Zm0-8.406a2.408,2.408,0,1,1-2.417,2.4A2.41,2.41,0,0,1,387.789,419.165Z" transform="translate(-267.847 -298.618)"/>
      <path id="Trazado_155211" data-name="Trazado 155211" d="M438.666,427.572a6,6,0,1,0-6.008-6.008A6.015,6.015,0,0,0,438.666,427.572Zm0-8.406a2.408,2.408,0,1,1-2.417,2.4A2.411,2.411,0,0,1,438.666,419.165Z" transform="translate(-303.379 -298.618)"/>
    </g>
  </g>
</svg>
