<svg xmlns="http://www.w3.org/2000/svg" width="129.869" height="89.285" viewBox="0 0 129.869 89.285">
  <g id="tipo" transform="translate(-2 -25.551)">
    <g id="Grupo_162838" data-name="Grupo 162838" transform="translate(21.277 42.799)">
      <path id="Trazado_155218" data-name="Trazado 155218" d="M89.947,80.243H14.867A8.115,8.115,0,0,1,6.75,72.126V11.25H98.064V72.126A8.115,8.115,0,0,1,89.947,80.243Z" transform="translate(-6.75 -11.25)" fill="#f3f3f1"/>
    </g>
    <g id="Grupo_162839" data-name="Grupo 162839" transform="translate(21.277 28.594)">
      <path id="Trazado_155219" data-name="Trazado 155219" d="M98.064,21.954H6.75V15.867A8.115,8.115,0,0,1,14.867,7.75h75.08a8.115,8.115,0,0,1,8.117,8.117Z" transform="translate(-6.75 -7.75)" fill="#fd9827"/>
    </g>
    <g id="Grupo_162840" data-name="Grupo 162840" transform="translate(33.453 69.178)">
      <path id="Trazado_155220" data-name="Trazado 155220" d="M13.808,17.75A4.06,4.06,0,0,0,9.75,21.808V31.954a4.06,4.06,0,0,0,4.058,4.058H72.655a4.06,4.06,0,0,0,4.058-4.058V21.808a4.06,4.06,0,0,0-4.058-4.058Z" transform="translate(-9.75 -17.75)" fill="#c0c942"/>
    </g>
    <g id="Grupo_162841" data-name="Grupo 162841" transform="translate(33.453 69.178)">
      <path id="Trazado_155221" data-name="Trazado 155221" d="M18.881,31.954V21.808A4.06,4.06,0,0,1,22.94,17.75H13.808A4.06,4.06,0,0,0,9.75,21.808V31.954a4.06,4.06,0,0,0,4.058,4.058H22.94A4.06,4.06,0,0,1,18.881,31.954Z" transform="translate(-9.75 -17.75)" fill="#fd9827"/>
    </g>
    <g id="Grupo_162842" data-name="Grupo 162842" transform="translate(21.277 42.799)">
      <path id="Trazado_155222" data-name="Trazado 155222" d="M16.9,72.126V11.25H6.75V72.126a8.115,8.115,0,0,0,8.117,8.117H25.013A8.115,8.115,0,0,1,16.9,72.126Z" transform="translate(-6.75 -11.25)" fill="#d5dbe1"/>
    </g>
    <g id="Grupo_162843" data-name="Grupo 162843" transform="translate(21.277 28.594)">
      <path id="Trazado_155223" data-name="Trazado 155223" d="M24,7.75H14.867A8.115,8.115,0,0,0,6.75,15.867v6.088h9.131V15.867A8.115,8.115,0,0,1,24,7.75Z" transform="translate(-6.75 -7.75)" fill="#ebc9b1"/>
    </g>
    <g id="Grupo_162844" data-name="Grupo 162844" transform="translate(64.905 66.134)">
      <path id="Trazado_155224" data-name="Trazado 155224" d="M48.953,41.35H17.5V35.263H48.953a1.015,1.015,0,0,0,1.015-1.015V24.1a1.015,1.015,0,0,0-1.015-1.015H17.5V17H48.953a7.11,7.11,0,0,1,7.1,7.1V34.248A7.11,7.11,0,0,1,48.953,41.35Z" transform="translate(-17.5 -17)"/>
    </g>
    <g id="Grupo_162845" data-name="Grupo 162845" transform="translate(30.409 66.134)">
      <path id="Trazado_155225" data-name="Trazado 155225" d="M21.175,41.35H16.1a7.11,7.11,0,0,1-7.1-7.1V24.1A7.11,7.11,0,0,1,16.1,17h5.073v6.088H16.1A1.015,1.015,0,0,0,15.088,24.1V34.248A1.015,1.015,0,0,0,16.1,35.263h5.073Z" transform="translate(-9 -17)"/>
    </g>
    <g id="Grupo_162846" data-name="Grupo 162846" transform="translate(41.569 53.959)">
      <path id="Trazado_155226" data-name="Trazado 155226" d="M26.969,31.248H20.881V21.1a1.015,1.015,0,0,0-1.015-1.015H11.75V14h8.117a7.11,7.11,0,0,1,7.1,7.1Z" transform="translate(-11.75 -14)"/>
    </g>
    <g id="Grupo_162847" data-name="Grupo 162847" transform="translate(41.569 85.412)">
      <path id="Trazado_155227" data-name="Trazado 155227" d="M19.867,39H11.75V32.911h8.117A1.015,1.015,0,0,0,20.881,31.9V21.75h6.088V31.9A7.11,7.11,0,0,1,19.867,39Z" transform="translate(-11.75 -21.75)"/>
    </g>
    <g id="Grupo_162848" data-name="Grupo 162848" transform="translate(50.701 53.959)">
      <path id="Trazado_155228" data-name="Trazado 155228" d="M29.219,62.7H21.1A7.11,7.11,0,0,1,14,55.6V21.1A7.11,7.11,0,0,1,21.1,14h8.117v6.088H21.1A1.015,1.015,0,0,0,20.088,21.1V55.6A1.015,1.015,0,0,0,21.1,56.613h8.117Z" transform="translate(-14 -14)"/>
    </g>
    <g id="Grupo_162849" data-name="Grupo 162849" transform="translate(18.234 25.551)">
      <path id="Trazado_155229" data-name="Trazado 155229" d="M92.241,96.285H17.161A11.17,11.17,0,0,1,6,85.124V18.161A11.17,11.17,0,0,1,17.161,7h75.08A11.17,11.17,0,0,1,103.4,18.161V85.124A11.17,11.17,0,0,1,92.241,96.285Zm-75.08-83.2a5.08,5.08,0,0,0-5.073,5.073V85.124A5.08,5.08,0,0,0,17.161,90.2h75.08a5.08,5.08,0,0,0,5.073-5.073V18.161a5.08,5.08,0,0,0-5.073-5.073Z" transform="translate(-6 -7)"/>
    </g>
    <g id="Grupo_162850" data-name="Grupo 162850" transform="translate(21.277 39.755)">
      <path id="Trazado_155230" data-name="Trazado 155230" d="M6.75,10.5H98.064v6.088H6.75Z" transform="translate(-6.75 -10.5)"/>
    </g>
    <g id="Grupo_162851" data-name="Grupo 162851" transform="translate(2 108.748)">
      <path id="Trazado_155231" data-name="Trazado 155231" d="M2,27.5H131.869v6.088H2Z" transform="translate(-2 -27.5)"/>
    </g>
  </g>
</svg>
