<svg id="mensaje-de-voz" xmlns="http://www.w3.org/2000/svg" width="153" height="153" viewBox="0 0 153 153">
  <path id="Trazado_155275" data-name="Trazado 155275" d="M260.215,8.535h51a12.749,12.749,0,0,1,12.749,12.749v35.7a12.749,12.749,0,0,1-12.749,12.749h-51a12.75,12.75,0,0,1-12.75-12.749v-35.7A12.75,12.75,0,0,1,260.215,8.535Zm0,0" transform="translate(-173.515 -5.985)" fill="#f4d4b0"/>
  <path id="Trazado_155276" data-name="Trazado 155276" d="M260.215,8.535h43.35a12.75,12.75,0,0,1,12.75,12.749v35.7a12.75,12.75,0,0,1-12.75,12.749h-43.35a12.75,12.75,0,0,1-12.75-12.749v-35.7A12.75,12.75,0,0,1,260.215,8.535Zm0,0" transform="translate(-173.515 -5.985)" fill="#fd9827"/>
  <path id="Trazado_155277" data-name="Trazado 155277" d="M309.75,204.8,307.2,225.2l28.05-20.4" transform="translate(-215.399 -143.601)" fill="#fd9827"/>
  <g id="Grupo_162852" data-name="Grupo 162852" transform="translate(86.7 28.05)">
    <path id="Trazado_155278" data-name="Trazado 155278" d="M300.333,98.967a5.1,5.1,0,1,1-5.1-5.1A5.1,5.1,0,0,1,300.333,98.967Zm0,0" transform="translate(-290.133 -93.867)" fill="#ffeb3a"/>
    <path id="Trazado_155279" data-name="Trazado 155279" d="M368.6,98.967a5.1,5.1,0,1,1-5.1-5.1A5.1,5.1,0,0,1,368.6,98.967Zm0,0" transform="translate(-337.999 -93.867)" fill="#ffeb3a"/>
    <path id="Trazado_155280" data-name="Trazado 155280" d="M436.868,98.967a5.1,5.1,0,1,1-5.1-5.1A5.1,5.1,0,0,1,436.868,98.967Zm0,0" transform="translate(-385.867 -93.867)" fill="#ffeb3a"/>
  </g>
  <path id="Trazado_155281" data-name="Trazado 155281" d="M2.551,377.133A2.55,2.55,0,0,1,0,374.584v-5.1a2.55,2.55,0,0,1,5.1,0v5.1A2.55,2.55,0,0,1,2.551,377.133Zm0,0" transform="translate(0 -257.284)" fill="#785549"/>
  <path id="Trazado_155282" data-name="Trazado 155282" d="M28.151,373.7a2.55,2.55,0,0,1-2.549-2.551v-10.2a2.55,2.55,0,1,1,5.1,0v10.2A2.55,2.55,0,0,1,28.151,373.7Zm0,0" transform="translate(-17.951 -251.299)" fill="#785549"/>
  <path id="Trazado_155283" data-name="Trazado 155283" d="M130.551,373.7A2.55,2.55,0,0,1,128,371.149v-10.2a2.55,2.55,0,1,1,5.1,0v10.2A2.55,2.55,0,0,1,130.551,373.7Zm0,0" transform="translate(-89.75 -251.299)" fill="#785549"/>
  <path id="Trazado_155284" data-name="Trazado 155284" d="M62.284,366.833a2.55,2.55,0,0,1-2.549-2.551v-20.4a2.55,2.55,0,1,1,5.1,0v20.4A2.55,2.55,0,0,1,62.284,366.833Zm0,0" transform="translate(-41.884 -239.332)" fill="#785549"/>
  <path id="Trazado_155285" data-name="Trazado 155285" d="M96.417,366.833a2.55,2.55,0,0,1-2.549-2.551v-20.4a2.55,2.55,0,1,1,5.1,0v20.4A2.55,2.55,0,0,1,96.417,366.833Zm0,0" transform="translate(-65.817 -239.332)" fill="#785549"/>
  <path id="Trazado_155286" data-name="Trazado 155286" d="M164.683,359.966a2.55,2.55,0,0,1-2.551-2.551v-30.6a2.55,2.55,0,1,1,5.1,0v30.6A2.55,2.55,0,0,1,164.683,359.966Zm0,0" transform="translate(-113.683 -227.366)" fill="#785549"/>
  <path id="Trazado_155287" data-name="Trazado 155287" d="M198.816,353.1a2.55,2.55,0,0,1-2.551-2.551v-40.8a2.55,2.55,0,1,1,5.1,0v40.8A2.55,2.55,0,0,1,198.816,353.1Zm0,0" transform="translate(-137.616 -215.399)" fill="#785549"/>
  <path id="Trazado_155288" data-name="Trazado 155288" d="M232.949,332.5a2.55,2.55,0,0,1-2.551-2.551v-71.4a2.55,2.55,0,1,1,5.1,0v71.4A2.55,2.55,0,0,1,232.949,332.5Zm0,0" transform="translate(-161.549 -179.5)" fill="#785549"/>
  <path id="Trazado_155289" data-name="Trazado 155289" d="M497.483,377.133a2.55,2.55,0,0,1-2.549-2.549v-5.1a2.55,2.55,0,0,1,5.1,0v5.1A2.55,2.55,0,0,1,497.483,377.133Zm0,0" transform="translate(-347.034 -257.284)" fill="#785549"/>
  <path id="Trazado_155290" data-name="Trazado 155290" d="M471.883,373.7a2.55,2.55,0,0,1-2.551-2.551v-10.2a2.55,2.55,0,1,1,5.1,0v10.2A2.55,2.55,0,0,1,471.883,373.7Zm0,0" transform="translate(-329.082 -251.299)" fill="#785549"/>
  <path id="Trazado_155291" data-name="Trazado 155291" d="M369.483,373.7a2.55,2.55,0,0,1-2.549-2.551v-10.2a2.55,2.55,0,1,1,5.1,0v10.2A2.55,2.55,0,0,1,369.483,373.7Zm0,0" transform="translate(-257.284 -251.299)" fill="#785549"/>
  <path id="Trazado_155292" data-name="Trazado 155292" d="M437.75,366.833a2.55,2.55,0,0,1-2.551-2.551v-20.4a2.55,2.55,0,1,1,5.1,0v20.4A2.55,2.55,0,0,1,437.75,366.833Zm0,0" transform="translate(-305.149 -239.332)" fill="#785549"/>
  <path id="Trazado_155293" data-name="Trazado 155293" d="M403.617,366.833a2.55,2.55,0,0,1-2.551-2.551v-20.4a2.55,2.55,0,1,1,5.1,0v20.4A2.55,2.55,0,0,1,403.617,366.833Zm0,0" transform="translate(-281.216 -239.332)" fill="#785549"/>
  <path id="Trazado_155294" data-name="Trazado 155294" d="M335.35,359.966a2.55,2.55,0,0,1-2.549-2.551v-30.6a2.55,2.55,0,1,1,5.1,0v30.6A2.55,2.55,0,0,1,335.35,359.966Zm0,0" transform="translate(-233.351 -227.366)" fill="#785549"/>
  <path id="Trazado_155295" data-name="Trazado 155295" d="M301.217,353.1a2.55,2.55,0,0,1-2.549-2.551v-40.8a2.55,2.55,0,1,1,5.1,0v40.8A2.55,2.55,0,0,1,301.217,353.1Zm0,0" transform="translate(-209.418 -215.399)" fill="#785549"/>
  <path id="Trazado_155296" data-name="Trazado 155296" d="M267.085,332.5a2.55,2.55,0,0,1-2.549-2.551v-71.4a2.55,2.55,0,1,1,5.1,0v71.4A2.55,2.55,0,0,1,267.085,332.5Zm0,0" transform="translate(-185.485 -179.5)" fill="#785549"/>
  <path id="Trazado_155297" data-name="Trazado 155297" d="M305.234,66.3H283.89a2.55,2.55,0,0,1,0-5.1h21.344a10.21,10.21,0,0,0,10.2-10.2V15.3a10.21,10.21,0,0,0-10.2-10.2h-51a10.21,10.21,0,0,0-10.2,10.2V51a10.21,10.21,0,0,0,10.2,10.2h7.345a2.55,2.55,0,0,1,0,5.1h-7.345a15.317,15.317,0,0,1-15.3-15.3V15.3A15.317,15.317,0,0,1,254.233,0h51a15.317,15.317,0,0,1,15.3,15.3V51A15.317,15.317,0,0,1,305.234,66.3Zm0,0" transform="translate(-167.534)"/>
  <path id="Trazado_155298" data-name="Trazado 155298" d="M301.217,221.691a2.55,2.55,0,0,1-2.53-2.867l2.549-20.4a2.55,2.55,0,1,1,5.06.633l-1.819,14.56,23.289-16.939a2.55,2.55,0,0,1,3,4.124l-28.049,20.4A2.56,2.56,0,0,1,301.217,221.691Zm0,0" transform="translate(-209.418 -137.541)"/>
  <path id="Trazado_155299" data-name="Trazado 155299" d="M289.251,100.633a7.65,7.65,0,1,1,7.65-7.65A7.65,7.65,0,0,1,289.251,100.633Zm0-10.2a2.55,2.55,0,1,0,2.551,2.551A2.55,2.55,0,0,0,289.251,90.432Zm0,0" transform="translate(-197.451 -59.832)"/>
  <path id="Trazado_155300" data-name="Trazado 155300" d="M357.516,100.633a7.65,7.65,0,1,1,7.65-7.65A7.65,7.65,0,0,1,357.516,100.633Zm0-10.2a2.55,2.55,0,1,0,2.551,2.551A2.55,2.55,0,0,0,357.516,90.432Zm0,0" transform="translate(-245.317 -59.832)"/>
  <path id="Trazado_155301" data-name="Trazado 155301" d="M425.783,100.633a7.65,7.65,0,1,1,7.649-7.65A7.651,7.651,0,0,1,425.783,100.633Zm0-10.2a2.55,2.55,0,1,0,2.549,2.551A2.55,2.55,0,0,0,425.783,90.432Zm0,0" transform="translate(-293.183 -59.832)"/>
</svg>
