<svg xmlns="http://www.w3.org/2000/svg" width="505" height="246.099" viewBox="0 0 505 246.099">
  <g id="Grupo_163253" data-name="Grupo 163253" transform="translate(-810 -7545.543)">
    <g id="candado" transform="translate(1094.884 7553.94)">
      <path id="Trazado_155319" data-name="Trazado 155319" d="M129.106,20.44v-4.6a8.234,8.234,0,1,0-16.468,0v4.6m2.969,0v-4.6a5.265,5.265,0,1,1,10.529,0v4.6" transform="translate(-51.896 -7.166)" fill="#d3dae0"/>
      <g id="Grupo_162856" data-name="Grupo 162856" transform="translate(60.742 0.437)">
        <path id="Trazado_155320" data-name="Trazado 155320" d="M121.353,7.617c-.159-.009-.319-.014-.48-.014a8.234,8.234,0,0,0-8.234,8.234v4.6h.961v-4.6A8.234,8.234,0,0,1,121.353,7.617Z" transform="translate(-112.638 -7.603)" fill="#899ea8"/>
        <path id="Trazado_155321" data-name="Trazado 155321" d="M264.846,59.3c-.162,0-.322.008-.48.022a5.271,5.271,0,0,1,4.784,5.243v4.6h.961v-4.6A5.27,5.27,0,0,0,264.846,59.3Z" transform="translate(-255.651 -56.331)" fill="#899ea8"/>
      </g>
      <rect id="Rect치ngulo_35598" data-name="Rect치ngulo 35598" width="21.919" height="15.697" transform="translate(58.017 13.274)" fill="#f79f00"/>
      <rect id="Rect치ngulo_35599" data-name="Rect치ngulo 35599" width="1.921" height="15.697" transform="translate(58.017 13.274)" fill="#e48900"/>
      <path id="Trazado_155322" data-name="Trazado 155322" d="M219.665,303.409a2.358,2.358,0,1,0-3.478,2.075l-.379,2.9h3l-.379-2.9A2.357,2.357,0,0,0,219.665,303.409Z" transform="translate(-148.33 -283.76)" fill="#3e3d4c"/>
      <path id="Trazado_155323" data-name="Trazado 155323" d="M79.936,12.838H77.647V11.178a.437.437,0,0,0-.437-.437h0a.437.437,0,0,0-.437.437v1.659h-2.1V8.743a5.7,5.7,0,1,0-11.4-.072v4.166h-2.1V8.757a7.8,7.8,0,1,1,15.595-.086v.469a.437.437,0,0,0,.437.437h0a.437.437,0,0,0,.437-.437V8.755a8.671,8.671,0,1,0-17.341-.083v4.166H58.017a.437.437,0,0,0-.437.437V24.686a.437.437,0,0,0,.437.437h0a.437.437,0,0,0,.437-.437V13.711H79.5V28.534H58.453v-1.81a.437.437,0,0,0-.437-.437h0a.437.437,0,0,0-.437.437v2.247a.437.437,0,0,0,.437.437H79.936a.437.437,0,0,0,.437-.437v-15.7A.437.437,0,0,0,79.936,12.838ZM64.148,8.671a4.828,4.828,0,1,1,9.656,0v4.166H64.148Z" transform="translate(0)"/>
      <path id="Trazado_155324" data-name="Trazado 155324" d="M212.935,296.242a2.795,2.795,0,1,0-4.384,2.3l-.343,2.622a.437.437,0,0,0,.433.493h3a.437.437,0,0,0,.433-.493l-.343-2.622A2.793,2.793,0,0,0,212.935,296.242Zm-1.883,1.691a.437.437,0,0,0-.225.441l.315,2.409h-2l.315-2.409a.437.437,0,0,0-.225-.441,1.921,1.921,0,1,1,1.824,0Z" transform="translate(-141.164 -276.592)"/>
    </g>
    <g id="Grupo_163121" data-name="Grupo 163121" transform="translate(0 -1161.457)">
      <g id="Grupo_163120" data-name="Grupo 163120" transform="translate(815.228 8559.47)">
        <g id="Chair" transform="translate(41.772 263.317)">
          <g id="Grupo_162870" data-name="Grupo 162870">
            <g id="Grupo_162857" data-name="Grupo 162857" transform="translate(0.181 0.188)">
              <path id="Trazado_155325" data-name="Trazado 155325" d="M133.11,324.185c-2.976-5.1-6.155-10.222-10.842-14.446C110.391,299.037,90,295.855,72.674,299.7c-13.373,2.966-26,10.491-29.511,21.126-1.583,4.8-1.229,9.852-.731,14.8,3.257,32.341,19.445,91.028,20.077,92.387l109.136-.445A316.775,316.775,0,0,0,133.11,324.185Z" transform="translate(-42.011 -298.131)" fill="#455a64"/>
            </g>
            <g id="Grupo_162859" data-name="Grupo 162859">
              <g id="Grupo_162858" data-name="Grupo 162858">
                <path id="Trazado_155326" data-name="Trazado 155326" d="M171.588,427.5s-.067-.28-.179-.83l-.488-2.443c-.218-1.073-.461-2.406-.795-3.972l-1.181-5.4a315.449,315.449,0,0,0-9.741-33.826,328.284,328.284,0,0,0-21.187-47.673l-1.773-3.256-1.857-3.26c-1.24-2.19-2.505-4.4-3.872-6.574a44.491,44.491,0,0,0-10.143-11.859,16.667,16.667,0,0,0-1.6-1.193c-.553-.376-1.091-.776-1.658-1.134-1.169-.658-2.292-1.415-3.529-1.975l-1.827-.9-1.889-.782-.947-.392-.971-.335-1.95-.666a64.84,64.84,0,0,0-16.481-2.724,69.828,69.828,0,0,0-16.654,1.478,56.412,56.412,0,0,0-15.2,5.63,38.248,38.248,0,0,0-6.526,4.458,29.155,29.155,0,0,0-5.216,5.7c-.336.542-.7,1.065-1.013,1.618q-.433.847-.866,1.689-.343.882-.686,1.758a18.1,18.1,0,0,0-.528,1.8,28.4,28.4,0,0,0-.677,7.365c.069,2.447.29,4.866.582,7.241s.525,4.726.9,7.025c.649,4.611,1.423,9.066,2.2,13.367,1.564,8.6,3.291,16.565,4.9,23.824,3.256,14.511,6.229,26.177,8.328,34.224,1.048,4.025,1.9,7.14,2.476,9.251.3,1.048.522,1.849.676,2.4s.243.813.243.813-.1-.268-.281-.8c-.163-.546-.4-1.343-.714-2.387-.6-2.105-1.477-5.215-2.548-9.234-2.146-8.036-5.161-19.694-8.453-34.2-1.63-7.257-3.374-15.219-4.952-23.826-.785-4.3-1.566-8.761-2.222-13.377-.375-2.3-.611-4.656-.906-7.036s-.519-4.8-.592-7.271a28.726,28.726,0,0,1,.68-7.462A18.337,18.337,0,0,1,43,320.521q.348-.894.7-1.792l.88-1.72c.314-.563.686-1.094,1.028-1.645a29.517,29.517,0,0,1,5.28-5.777,38.656,38.656,0,0,1,6.585-4.5,56.769,56.769,0,0,1,15.305-5.676,70.145,70.145,0,0,1,16.752-1.489,65.123,65.123,0,0,1,16.585,2.744l1.964.671.979.338.955.395,1.9.788,1.842.906c1.247.565,2.381,1.328,3.561,1.994.573.362,1.117.766,1.674,1.147a16.794,16.794,0,0,1,1.62,1.206,44.844,44.844,0,0,1,10.222,11.961c1.372,2.185,2.635,4.4,3.875,6.59l1.857,3.266,1.772,3.262a325.691,325.691,0,0,1,21.13,47.755,307.139,307.139,0,0,1,9.628,33.884c.43,2.034.814,3.841,1.146,5.409s.551,2.905.757,3.98.347,1.891.449,2.451S171.588,427.5,171.588,427.5Z" transform="translate(-41.772 -297.884)" fill="#263238"/>
              </g>
            </g>
            <g id="Grupo_162861" data-name="Grupo 162861" transform="translate(5.022 15.283)">
              <g id="Grupo_162860" data-name="Grupo 162860">
                <path id="Trazado_155327" data-name="Trazado 155327" d="M49.1,317.985a1.735,1.735,0,0,1-.029.306l-.124.89c-.109.781-.234,1.939-.326,3.434a59.382,59.382,0,0,0,.917,12.627c1.838,10.568,4.089,25.226,7.383,41.257,1.654,8.016,3.465,15.6,5.381,22.429s3.927,12.889,5.757,17.927c1.888,5.018,3.565,9.022,4.791,11.757l1.427,3.145.363.823a1.823,1.823,0,0,1,.111.286,152.978,152.978,0,0,1-6.955-15.913c-1.867-5.033-3.917-11.094-5.846-17.927s-3.762-14.424-5.418-22.447c-3.3-16.047-5.5-30.711-7.272-41.295a57.4,57.4,0,0,1-.795-12.68A30.64,30.64,0,0,1,49.1,317.985Z" transform="translate(-48.377 -317.985)" fill="#263238"/>
              </g>
            </g>
            <g id="Grupo_162863" data-name="Grupo 162863" transform="translate(8.795 41.077)">
              <g id="Grupo_162862" data-name="Grupo 162862">
                <path id="Trazado_155328" data-name="Trazado 155328" d="M64.42,351.922c.013.065-.757.232-1.941.659a18.247,18.247,0,0,0-4.332,2.271,22.543,22.543,0,0,0-4.8,4.988,6.745,6.745,0,0,1,1.029-1.792,15.579,15.579,0,0,1,8.019-5.732A6.71,6.71,0,0,1,64.42,351.922Z" transform="translate(-53.339 -351.911)" fill="#263238"/>
              </g>
            </g>
            <g id="Grupo_162865" data-name="Grupo 162865" transform="translate(9.395 48.217)">
              <g id="Grupo_162864" data-name="Grupo 162864">
                <path id="Trazado_155329" data-name="Trazado 155329" d="M60.313,361.456c-.005.119-1.443.071-3.145.469-1.707.382-2.98,1.05-3.037.945a6.333,6.333,0,0,1,2.949-1.331A6.326,6.326,0,0,1,60.313,361.456Z" transform="translate(-54.128 -361.302)" fill="#263238"/>
              </g>
            </g>
            <g id="Grupo_162867" data-name="Grupo 162867" transform="translate(12.451 83.906)">
              <g id="Grupo_162866" data-name="Grupo 162866">
                <path id="Trazado_155330" data-name="Trazado 155330" d="M58.169,409.531c-.046-.019-.027-.211.137-.467a1.923,1.923,0,0,1,2.092-.748c.29.094.426.231.4.274-.046.1-.691-.141-1.434.139C58.614,408.983,58.269,409.579,58.169,409.531Z" transform="translate(-58.148 -408.242)" fill="#263238"/>
              </g>
            </g>
            <g id="Grupo_162869" data-name="Grupo 162869" transform="translate(13.903 86.527)">
              <g id="Grupo_162868" data-name="Grupo 162868">
                <path id="Trazado_155331" data-name="Trazado 155331" d="M60.1,413.463c-.109,0-.045-.781.658-1.338s1.477-.456,1.451-.35c0,.113-.63.186-1.2.658C60.421,412.889,60.211,413.49,60.1,413.463Z" transform="translate(-60.058 -411.689)" fill="#263238"/>
              </g>
            </g>
          </g>
        </g>
        <g id="Character" transform="translate(60.745 153.667)">
          <g id="Grupo_163112" data-name="Grupo 163112">
            <g id="Grupo_162887" data-name="Grupo 162887" transform="translate(112.999 118.679)">
              <path id="Trazado_155332" data-name="Trazado 155332" d="M238.2,400.87s-2.435-59.671-4.68-70.011c-2.858-13.154-13.933-21.1-13.933-21.1l-4.243,102.621,4.411,2.639,2.6,1.368c1.168,4.363-1.243,5.429,10.692,8.5.958.246,20.019,3.257,20.019,3.257l1.87-19.364Z" transform="translate(-215.348 -309.76)" fill="#b78876"/>
              <g id="Grupo_162886" data-name="Grupo 162886" transform="translate(20.018 91.11)">
                <g id="Grupo_162873" data-name="Grupo 162873" transform="translate(0 6.083)">
                  <g id="Grupo_162872" data-name="Grupo 162872">
                    <g id="Grupo_162871" data-name="Grupo 162871">
                      <path id="Trazado_155333" data-name="Trazado 155333" d="M277.049,458.1s-6.891.471-9.7,1.608a10.7,10.7,0,0,1-9.378-1.14,26.585,26.585,0,0,1-4.062-3.171l-9.394.049a11.276,11.276,0,0,1-2.076-11.6,12.6,12.6,0,0,1,2.075-3.71c1.09-1.229,1.587-1.959,4.62-2.549l12.452,1.89s17.259-1.6,20.361-.209c0,0,3.91,2.209,5.126,3.145.458.352,1.918,4.722-.845,7.067,0,0,2.488,1.9,1.2,3.669l-.619.788s1.691,2.1.866,3.04-8.131,5.435-10.8,4.457-.807-3.174.347-3.647" transform="translate(-241.676 -437.593)" fill="#b78876"/>
                    </g>
                  </g>
                </g>
                <g id="Grupo_162875" data-name="Grupo 162875" transform="translate(32.834 14.213)">
                  <g id="Grupo_162874" data-name="Grupo 162874">
                    <path id="Trazado_155334" data-name="Trazado 155334" d="M294.645,448.288a6.789,6.789,0,0,0-.908.345c-.579.234-1.417.567-2.472.928-.527.18-1.109.364-1.737.544s-1.313.335-2.023.582a4.36,4.36,0,0,0-2,1.265,2.5,2.5,0,0,0-.49,2.479,1.947,1.947,0,0,0,.934.963,3.424,3.424,0,0,0,1.236.316,10.128,10.128,0,0,0,2.343-.173,20.629,20.629,0,0,0,3.793-1.074c1.049-.4,1.876-.766,2.445-1.024a5.765,5.765,0,0,0,.87-.434,6.03,6.03,0,0,0-.916.324c-.583.224-1.421.563-2.473.93a21.993,21.993,0,0,1-3.766,1,10.2,10.2,0,0,1-2.271.153,3.155,3.155,0,0,1-1.125-.29,1.645,1.645,0,0,1-.789-.811,2.217,2.217,0,0,1,.442-2.169,4.13,4.13,0,0,1,1.862-1.187c.684-.246,1.37-.407,2-.605s1.213-.389,1.738-.584c1.051-.389,1.883-.753,2.447-1.023A5.15,5.15,0,0,0,294.645,448.288Z" transform="translate(-284.861 -448.286)" fill="#aa6550"/>
                  </g>
                </g>
                <g id="Grupo_162877" data-name="Grupo 162877" transform="translate(31.967 8.905)">
                  <g id="Grupo_162876" data-name="Grupo 162876">
                    <path id="Trazado_155335" data-name="Trazado 155335" d="M293.6,441.307a6.389,6.389,0,0,0-.9.349c-.576.235-1.408.575-2.454.948s-2.3.78-3.722,1.152a5.133,5.133,0,0,0-2.165.929,1.86,1.86,0,0,0-.617,1.143,2.346,2.346,0,0,0,.218,1.309,3.161,3.161,0,0,0,1.96,1.6,5.09,5.09,0,0,0,2.351.137,22.54,22.54,0,0,0,3.75-1.172l2.469-.923a5.885,5.885,0,0,0,.891-.378,5.85,5.85,0,0,0-.931.265l-2.5.831a24.518,24.518,0,0,1-3.719,1.1,4.863,4.863,0,0,1-2.217-.144,2.879,2.879,0,0,1-1.774-1.443,1.738,1.738,0,0,1,.323-2.1,4.95,4.95,0,0,1,2.035-.878,38.92,38.92,0,0,0,3.724-1.222c1.042-.4,1.864-.773,2.427-1.043A5.329,5.329,0,0,0,293.6,441.307Z" transform="translate(-283.721 -441.305)" fill="#aa6550"/>
                  </g>
                </g>
                <g id="Grupo_162879" data-name="Grupo 162879" transform="translate(38.227 7.536)">
                  <g id="Grupo_162878" data-name="Grupo 162878">
                    <path id="Trazado_155336" data-name="Trazado 155336" d="M292.056,442.47a9,9,0,0,0,.3-1.486,8.884,8.884,0,0,0,.344-1.477,3.671,3.671,0,0,0-.647,2.964Z" transform="translate(-291.954 -439.505)" fill="#aa6550"/>
                  </g>
                </g>
                <g id="Grupo_162883" data-name="Grupo 162883" transform="translate(12.358)">
                  <g id="Grupo_162880" data-name="Grupo 162880" transform="translate(0 0.152)">
                    <path id="Trazado_155337" data-name="Trazado 155337" d="M257.93,440.908l6.509-2.666s18.044-8.887,18.361-8.433,1.3.383,1.135,2.609-10.695,6.928-11.014,7.705.322,4.656-3.542,7.526-6.692,2.99-6.692,2.99" transform="translate(-257.93 -429.792)" fill="#b78876"/>
                  </g>
                  <g id="Grupo_162882" data-name="Grupo 162882">
                    <g id="Grupo_162881" data-name="Grupo 162881">
                      <path id="Trazado_155338" data-name="Trazado 155338" d="M262.687,450.59a.5.5,0,0,0,.156,0,4.458,4.458,0,0,0,.453-.054,10.164,10.164,0,0,0,1.7-.445,16.518,16.518,0,0,0,5.5-3.319,7.9,7.9,0,0,0,2.156-3.883,17.844,17.844,0,0,0,.336-2.458,1.4,1.4,0,0,1,.059-.284.538.538,0,0,1,.168-.179,5.994,5.994,0,0,1,.526-.356c.368-.228.752-.446,1.142-.666,1.562-.875,3.227-1.762,4.9-2.772.838-.506,1.68-1.041,2.5-1.648a9.623,9.623,0,0,0,1.166-1.017,3.232,3.232,0,0,0,.487-.643,1.372,1.372,0,0,0,.143-.412,3.319,3.319,0,0,0,.03-.4,2.883,2.883,0,0,0-.315-1.579,1.866,1.866,0,0,0-.591-.569,1.105,1.105,0,0,1-.256-.212c-.02-.018.015.006-.065-.062a.2.2,0,0,0-.129-.038.679.679,0,0,0-.128.013c-.069.015-.135.032-.2.051-.981.325-1.876.741-2.774,1.132-1.785.8-3.489,1.6-5.111,2.37-3.24,1.543-6.143,2.964-8.575,4.167-.609.295-1.185.6-1.736.849l-1.592.665-2.547,1.072-1.606.689-.414.186a.581.581,0,0,0-.137.073.6.6,0,0,0,.149-.044l.427-.158,1.628-.636L262.7,439l1.6-.644c.567-.246,1.137-.541,1.751-.832l8.6-4.106c1.623-.762,3.329-1.559,5.112-2.351.89-.386,1.8-.806,2.739-1.114.058-.018.115-.032.169-.044a.362.362,0,0,1,.059-.007c0-.011,0,.022.009-.025s-.005-.048.01-.075a.059.059,0,0,1,.021-.022c-.2.144-.052.046-.094.082l.018.023a1.413,1.413,0,0,0,.323.275,1.569,1.569,0,0,1,.5.479,2.611,2.611,0,0,1,.268,1.408,1.357,1.357,0,0,1-.138.681,3,3,0,0,1-.439.579,9.439,9.439,0,0,1-1.128.981c-.8.6-1.635,1.131-2.468,1.635-1.665,1.009-3.323,1.9-4.887,2.784-.391.223-.776.443-1.15.677a6.151,6.151,0,0,0-.55.377.762.762,0,0,0-.251.3,1.59,1.59,0,0,0-.072.341,17.956,17.956,0,0,1-.316,2.438,7.71,7.71,0,0,1-2.063,3.788,15.149,15.149,0,0,1-2.91,2.163,15.746,15.746,0,0,1-2.474,1.2,11.642,11.642,0,0,1-1.667.5c-.195.043-.344.067-.445.084A.768.768,0,0,0,262.687,450.59Z" transform="translate(-257.93 -429.593)" fill="#aa6550"/>
                    </g>
                  </g>
                </g>
                <g id="Grupo_162885" data-name="Grupo 162885" transform="translate(33.352 21.43)">
                  <g id="Grupo_162884" data-name="Grupo 162884">
                    <path id="Trazado_155339" data-name="Trazado 155339" d="M289.42,457.781a2.289,2.289,0,0,0-.693.218,6.9,6.9,0,0,0-1.7,1.029,6.254,6.254,0,0,0-.972.985,2.088,2.088,0,0,0-.5,1.545,1.7,1.7,0,0,0,1.242,1.287,3.285,3.285,0,0,0,1.908-.1,35.107,35.107,0,0,0,5.99-2.552,19.48,19.48,0,0,0,1.678-1.04,3,3,0,0,0,.569-.449,3.607,3.607,0,0,0-.634.347c-.4.236-.98.57-1.716.95a42.019,42.019,0,0,1-5.976,2.45,3.027,3.027,0,0,1-1.731.106,1.421,1.421,0,0,1-1.052-1.045,1.854,1.854,0,0,1,.423-1.348,6.316,6.316,0,0,1,.908-.969A10.37,10.37,0,0,1,289.42,457.781Z" transform="translate(-285.542 -457.778)" fill="#aa6550"/>
                  </g>
                </g>
              </g>
            </g>
            <g id="Grupo_163075" data-name="Grupo 163075" transform="translate(30.568)">
              <g id="Grupo_162890" data-name="Grupo 162890">
                <g id="Grupo_162888" data-name="Grupo 162888" transform="translate(1.282)">
                  <path id="Trazado_155340" data-name="Trazado 155340" d="M112.412,209.834a2.428,2.428,0,0,1-.977-4.027c-1.232-.676-.883-2.622.081-3.644s2.343-1.65,3.094-2.837a2.884,2.884,0,0,1-3.445-2.492,2.353,2.353,0,0,1-1.49-4.315c-1.316-.112-1.2-2.288-.1-3.02s2.549-.678,3.745-1.241a15.546,15.546,0,0,1,8.255-4.842l-5.388-4.013a3.113,3.113,0,0,1-1.085-1.144c-.469-1.07.37-2.251,1.257-3.012a12.61,12.61,0,0,1,6.7-2.926c.788-.092,1.8.028,2.048.78a11.3,11.3,0,0,1,5.458-.608,4.365,4.365,0,0,1,2.91.881,8.641,8.641,0,0,0-1.921-2.407,3.694,3.694,0,0,1-1.249-2.732c.1-1.028,1.345-1.918,2.2-1.337-.956-.451-.83-1.987-.016-2.663a4.791,4.791,0,0,1,3.017-.754c.738-.017,1.676.106,1.877.815.336-1.651,3.155-1.88,3.753-.306a2.55,2.55,0,0,1,3.677.288,3.281,3.281,0,0,1,4.643,1.727l-2.863-4.8c-.541-.907-.634-2.606.416-2.5-1.508.005-2.369-2.054-1.635-3.37a3.921,3.921,0,0,1,3.936-1.63l1.309,1.894a2.982,2.982,0,0,1,4.56,3.321,1.535,1.535,0,0,1,2.264.452,4.437,4.437,0,0,1,.434,2.584,2.55,2.55,0,0,1,3.955,2.1,8.314,8.314,0,0,1,4.328-.9A2.932,2.932,0,0,1,169.966,159a2.892,2.892,0,0,1,3.732-2.351c.467-1.749,2.761-3.044,4.157-1.889,1.442,1.192.665,3.505-.218,5.154l-2.876,5.366,9.363-5.02a1.635,1.635,0,0,1,.937-.278c.452.055.768.467,1.176.671.565.282,1.252.141,1.857.326,1.653.506,1.625,3.03.493,4.336s-2.863,1.93-4.144,3.091l4.161.786a4.255,4.255,0,0,1,5.489-2.878c.566-1.536,2.625-1.732,4.261-1.664,1.466.062,3.078.184,4.116,1.22,1.327,1.325,1.077,3.653-.04,5.159a11.918,11.918,0,0,1-4.547,3.217c.28,1.245,1.9,1.629,3.159,1.442s2.576-.68,3.77-.231c1.622.61,2.31,2.708,3.939,3.3a6.929,6.929,0,0,1,1.487.494,2.952,2.952,0,0,1,1,1.936l.609,2.7a3.279,3.279,0,0,1,.111,1.356c-.3,1.469-2.346,1.787-3.734,1.221s-2.575-1.662-4.058-1.881c1.954.975,4.017,2.051,5.11,3.941s.644,4.828-1.412,5.565c-2.081.746-4.13-1.053-5.645-2.663s-3.691-3.324-5.7-2.4" transform="translate(-108.616 -153.667)" fill="#263238"/>
                </g>
                <g id="Grupo_162889" data-name="Grupo 162889" transform="translate(0 26.468)">
                  <path id="Trazado_155341" data-name="Trazado 155341" d="M115.016,216.888a2.672,2.672,0,0,0-4.027,2.329,5.574,5.574,0,0,0-2.086,9.627c1.229,1.037,3.672,1.076,3.93-.512A4.338,4.338,0,0,0,115.911,231a4.2,4.2,0,0,0,1.695,5.956c-2.5,1.72-2.029,6.256.776,7.422a3.43,3.43,0,1,0,6.264,2.8,7.285,7.285,0,0,0,2.284,3.424c1.152.782,3.034.645,3.617-.62a4.711,4.711,0,0,0,6.707,2.828,3.048,3.048,0,0,0,5.991,1.054l7.847.6a28.065,28.065,0,0,0,5.215.074,14.092,14.092,0,0,0,6.213-2.251,4.785,4.785,0,0,1,1.905-.945,4.893,4.893,0,0,1,2.365.576,12.738,12.738,0,0,0,12.3-1.811,6.365,6.365,0,0,1,1.7-1.131,5.723,5.723,0,0,1,2.341-.121,23,23,0,0,0,5.77-.33c1.63-.3,3.37-.885,4.247-2.292s.191-3.754-1.462-3.869a3.559,3.559,0,0,1,1.131-2.9,2.142,2.142,0,0,1,2.906.128,1.541,1.541,0,0,1-.921,2.442c1.669,1.375,4.571-.1,4.8-2.254s-1.756-4.122-3.91-4.322a9.772,9.772,0,0,0,.531-4.731,3.5,3.5,0,0,0,4.7.948,6.034,6.034,0,0,0,3.649,3.131,3.613,3.613,0,0,0,4.162-1.829c.64-1.521-.526-3.6-2.175-3.551a3.11,3.11,0,0,0-2.367-4.718,4.839,4.839,0,0,0-2.5-5.37,2.545,2.545,0,0,0,3.728-1.083c.864,1.661,3.327,1.484,5.017.68,1.325-.631,2.625-1.583,2.417-3.5a3.842,3.842,0,0,0-1.2-2.353c-1.552-1.466-3.712-1.735-5.763-1.964a25.116,25.116,0,0,1-1.738-8.025A4.84,4.84,0,0,0,209.4,199.6l-11.363-7.063s-26.3-4.062-27.249-4.062-55.92,28.314-55.92,28.314c-1.271,1.33-3.755.729-4.689-.856a5.1,5.1,0,0,1,.442-5.221,15.011,15.011,0,0,1,4.02-3.735c-1.759-.122-3.637-.285-4.94-1.563a2.8,2.8,0,0,1-.753-3.041c.635-1.515,2.387-1.411,3.512-2.274a6.345,6.345,0,0,0,1.445-2" transform="translate(-106.93 -188.479)" fill="#263238"/>
                </g>
              </g>
              <g id="Grupo_163010" data-name="Grupo 163010" transform="translate(27.367 29.002)">
                <g id="Grupo_163009" data-name="Grupo 163009">
                  <g id="Grupo_163008" data-name="Grupo 163008">
                    <g id="Grupo_162893" data-name="Grupo 162893">
                      <g id="Grupo_162892" data-name="Grupo 162892">
                        <g id="Grupo_162891" data-name="Grupo 162891">
                          <path id="Trazado_155342" data-name="Trazado 155342" d="M197.118,211.7c-.656-9.393-6.96-20.879-16.316-19.824l-29.184,7.589a5.509,5.509,0,0,0-4.891,5.621l3.229,63.055-7.031,3.362c-.069.016,7.279,4.087,7.209,4.1,0,0,6.751,19.853,26.044,13.689,3.826-1.222,5.556-5.421,6.3-9.735l.2.024c.005-.512,6.382-5.394,6.386-5.883,0,.489-6.286-3.563-6.286-3.563l-.015-1.711c.028-5.692.011-8.026.015-7.973,0,0,11.991-2.075,14.371-17.754C198.326,234.906,197.847,222.139,197.118,211.7Z" transform="translate(-142.924 -191.812)" fill="#b78876"/>
                        </g>
                      </g>
                    </g>
                    <g id="Grupo_163007" data-name="Grupo 163007" transform="translate(18.832 18.09)">
                      <g id="Grupo_163006" data-name="Grupo 163006">
                        <g id="Grupo_163005" data-name="Grupo 163005">
                          <g id="Grupo_163004" data-name="Grupo 163004">
                            <g id="Grupo_163003" data-name="Grupo 163003">
                              <g id="Grupo_162982" data-name="Grupo 162982" transform="translate(0 6.379)">
                                <g id="Grupo_162981" data-name="Grupo 162981">
                                  <g id="Grupo_162980" data-name="Grupo 162980">
                                    <g id="Grupo_162915" data-name="Grupo 162915" transform="translate(24.697)">
                                      <g id="Grupo_162903" data-name="Grupo 162903" transform="translate(2.718 4.933)">
                                        <g id="Grupo_162902" data-name="Grupo 162902">
                                          <g id="Grupo_162901" data-name="Grupo 162901">
                                            <g id="Grupo_162900" data-name="Grupo 162900">
                                              <g id="Grupo_162899" data-name="Grupo 162899">
                                                <g id="Grupo_162898" data-name="Grupo 162898">
                                                  <g id="Grupo_162897" data-name="Grupo 162897">
                                                    <g id="Grupo_162896" data-name="Grupo 162896">
                                                      <g id="Grupo_162895" data-name="Grupo 162895">
                                                        <g id="Grupo_162894" data-name="Grupo 162894">
                                                          <path id="Trazado_155343" data-name="Trazado 155343" d="M207.759,232.284a2.009,2.009,0,0,1-1.923,2.04,1.921,1.921,0,0,1-2.083-1.8,2.009,2.009,0,0,1,1.921-2.041A1.922,1.922,0,0,1,207.759,232.284Z" transform="translate(-203.751 -230.483)" fill="#263238"/>
                                                        </g>
                                                      </g>
                                                    </g>
                                                  </g>
                                                </g>
                                              </g>
                                            </g>
                                          </g>
                                        </g>
                                      </g>
                                      <g id="Grupo_162914" data-name="Grupo 162914">
                                        <g id="Grupo_162913" data-name="Grupo 162913">
                                          <g id="Grupo_162912" data-name="Grupo 162912">
                                            <g id="Grupo_162911" data-name="Grupo 162911">
                                              <g id="Grupo_162910" data-name="Grupo 162910">
                                                <g id="Grupo_162909" data-name="Grupo 162909">
                                                  <g id="Grupo_162908" data-name="Grupo 162908">
                                                    <g id="Grupo_162907" data-name="Grupo 162907">
                                                      <g id="Grupo_162906" data-name="Grupo 162906">
                                                        <g id="Grupo_162905" data-name="Grupo 162905">
                                                          <g id="Grupo_162904" data-name="Grupo 162904">
                                                            <path id="Trazado_155344" data-name="Trazado 155344" d="M208.115,226.08c-.247.264-1.776-.852-3.938-.832-2.159-.011-3.738,1.112-3.975.849-.116-.116.135-.591.822-1.1a5.519,5.519,0,0,1,3.18-1,5.3,5.3,0,0,1,3.137.989C208.009,225.49,208.237,225.962,208.115,226.08Z" transform="translate(-200.175 -223.995)" fill="#263238"/>
                                                          </g>
                                                        </g>
                                                      </g>
                                                    </g>
                                                  </g>
                                                </g>
                                              </g>
                                            </g>
                                          </g>
                                        </g>
                                      </g>
                                    </g>
                                    <g id="Grupo_162937" data-name="Grupo 162937" transform="translate(3.453 0.548)">
                                      <g id="Grupo_162925" data-name="Grupo 162925" transform="translate(3.32 4.47)">
                                        <g id="Grupo_162924" data-name="Grupo 162924">
                                          <g id="Grupo_162923" data-name="Grupo 162923">
                                            <g id="Grupo_162922" data-name="Grupo 162922">
                                              <g id="Grupo_162921" data-name="Grupo 162921">
                                                <g id="Grupo_162920" data-name="Grupo 162920">
                                                  <g id="Grupo_162919" data-name="Grupo 162919">
                                                    <g id="Grupo_162918" data-name="Grupo 162918">
                                                      <g id="Grupo_162917" data-name="Grupo 162917">
                                                        <g id="Grupo_162916" data-name="Grupo 162916">
                                                          <path id="Trazado_155345" data-name="Trazado 155345" d="M180.609,232.4a2.009,2.009,0,0,1-1.923,2.04,1.922,1.922,0,0,1-2.083-1.8,2.01,2.01,0,0,1,1.921-2.041A1.923,1.923,0,0,1,180.609,232.4Z" transform="translate(-176.601 -230.595)" fill="#263238"/>
                                                        </g>
                                                      </g>
                                                    </g>
                                                  </g>
                                                </g>
                                              </g>
                                            </g>
                                          </g>
                                        </g>
                                      </g>
                                      <g id="Grupo_162936" data-name="Grupo 162936">
                                        <g id="Grupo_162935" data-name="Grupo 162935">
                                          <g id="Grupo_162934" data-name="Grupo 162934">
                                            <g id="Grupo_162933" data-name="Grupo 162933">
                                              <g id="Grupo_162932" data-name="Grupo 162932">
                                                <g id="Grupo_162931" data-name="Grupo 162931">
                                                  <g id="Grupo_162930" data-name="Grupo 162930">
                                                    <g id="Grupo_162929" data-name="Grupo 162929">
                                                      <g id="Grupo_162928" data-name="Grupo 162928">
                                                        <g id="Grupo_162927" data-name="Grupo 162927">
                                                          <g id="Grupo_162926" data-name="Grupo 162926">
                                                            <path id="Trazado_155346" data-name="Trazado 155346" d="M180.175,226.8c-.248.264-1.779-.852-3.939-.831-2.159-.011-3.738,1.112-3.974.849-.116-.116.132-.591.822-1.1a5.508,5.508,0,0,1,3.18-1,5.3,5.3,0,0,1,3.137.989C180.066,226.211,180.3,226.683,180.175,226.8Z" transform="translate(-172.234 -224.716)" fill="#263238"/>
                                                          </g>
                                                        </g>
                                                      </g>
                                                    </g>
                                                  </g>
                                                </g>
                                              </g>
                                            </g>
                                          </g>
                                        </g>
                                      </g>
                                    </g>
                                    <g id="Grupo_162948" data-name="Grupo 162948" transform="translate(18.212 0.606)">
                                      <g id="Grupo_162947" data-name="Grupo 162947">
                                        <g id="Grupo_162946" data-name="Grupo 162946">
                                          <g id="Grupo_162945" data-name="Grupo 162945">
                                            <g id="Grupo_162944" data-name="Grupo 162944">
                                              <g id="Grupo_162943" data-name="Grupo 162943">
                                                <g id="Grupo_162942" data-name="Grupo 162942">
                                                  <g id="Grupo_162941" data-name="Grupo 162941">
                                                    <g id="Grupo_162940" data-name="Grupo 162940">
                                                      <g id="Grupo_162939" data-name="Grupo 162939">
                                                        <g id="Grupo_162938" data-name="Grupo 162938">
                                                          <path id="Trazado_155347" data-name="Trazado 155347" d="M192.781,242.8a14.274,14.274,0,0,1,3.506-.658c.552-.061,1.074-.174,1.164-.551a2.814,2.814,0,0,0-.379-1.633q-.793-2-1.661-4.192c-2.308-5.968-3.982-10.878-3.741-10.968s2.308,4.673,4.615,10.641q.833,2.208,1.592,4.217a3.191,3.191,0,0,1,.3,2.164,1.387,1.387,0,0,1-.9.814,3.719,3.719,0,0,1-.937.136A14.086,14.086,0,0,1,192.781,242.8Z" transform="translate(-191.647 -224.792)" fill="#263238"/>
                                                        </g>
                                                      </g>
                                                    </g>
                                                  </g>
                                                </g>
                                              </g>
                                            </g>
                                          </g>
                                        </g>
                                      </g>
                                    </g>
                                    <g id="Grupo_162958" data-name="Grupo 162958" transform="translate(0 38.725)">
                                      <g id="Grupo_162957" data-name="Grupo 162957">
                                        <g id="Grupo_162956" data-name="Grupo 162956">
                                          <g id="Grupo_162955" data-name="Grupo 162955">
                                            <g id="Grupo_162954" data-name="Grupo 162954">
                                              <g id="Grupo_162953" data-name="Grupo 162953">
                                                <g id="Grupo_162952" data-name="Grupo 162952">
                                                  <g id="Grupo_162951" data-name="Grupo 162951">
                                                    <g id="Grupo_162950" data-name="Grupo 162950">
                                                      <g id="Grupo_162949" data-name="Grupo 162949">
                                                        <path id="Trazado_155348" data-name="Trazado 155348" d="M188.707,280.38a39.849,39.849,0,0,1-21.014-5.452s5.163,10.724,20.828,9.152Z" transform="translate(-167.693 -274.928)" fill="#aa6550"/>
                                                      </g>
                                                    </g>
                                                  </g>
                                                </g>
                                              </g>
                                            </g>
                                          </g>
                                        </g>
                                      </g>
                                    </g>
                                    <g id="Grupo_162968" data-name="Grupo 162968" transform="translate(11.78 21.097)">
                                      <g id="Grupo_162967" data-name="Grupo 162967">
                                        <g id="Grupo_162966" data-name="Grupo 162966">
                                          <g id="Grupo_162965" data-name="Grupo 162965">
                                            <g id="Grupo_162964" data-name="Grupo 162964">
                                              <g id="Grupo_162963" data-name="Grupo 162963">
                                                <g id="Grupo_162962" data-name="Grupo 162962">
                                                  <g id="Grupo_162961" data-name="Grupo 162961">
                                                    <g id="Grupo_162960" data-name="Grupo 162960">
                                                      <g id="Grupo_162959" data-name="Grupo 162959">
                                                        <path id="Trazado_155349" data-name="Trazado 155349" d="M191.007,254.128a5.477,5.477,0,0,0-4.49-2.382,3.31,3.31,0,0,0-2.777,5.181,3.39,3.39,0,0,0,3.589,1.293,7.9,7.9,0,0,0,3.216-2.025,2.5,2.5,0,0,0,.686-.832,1.145,1.145,0,0,0-.1-1.127" transform="translate(-183.186 -251.743)" fill="#aa6550"/>
                                                      </g>
                                                    </g>
                                                  </g>
                                                </g>
                                              </g>
                                            </g>
                                          </g>
                                        </g>
                                      </g>
                                    </g>
                                    <g id="Grupo_162979" data-name="Grupo 162979" transform="translate(12.653 20.147)">
                                      <g id="Grupo_162978" data-name="Grupo 162978">
                                        <g id="Grupo_162977" data-name="Grupo 162977">
                                          <g id="Grupo_162976" data-name="Grupo 162976">
                                            <g id="Grupo_162975" data-name="Grupo 162975">
                                              <g id="Grupo_162974" data-name="Grupo 162974">
                                                <g id="Grupo_162973" data-name="Grupo 162973">
                                                  <g id="Grupo_162972" data-name="Grupo 162972">
                                                    <g id="Grupo_162971" data-name="Grupo 162971">
                                                      <g id="Grupo_162970" data-name="Grupo 162970">
                                                        <g id="Grupo_162969" data-name="Grupo 162969">
                                                          <path id="Trazado_155350" data-name="Trazado 155350" d="M184.678,250.494c.351-.023.372,2.324,2.391,3.975s4.516,1.377,4.535,1.7c.034.147-.554.46-1.609.5a5.844,5.844,0,0,1-3.786-1.29,5.09,5.09,0,0,1-1.854-3.334C184.26,251.065,184.517,250.482,184.678,250.494Z" transform="translate(-184.335 -250.494)" fill="#263238"/>
                                                        </g>
                                                      </g>
                                                    </g>
                                                  </g>
                                                </g>
                                              </g>
                                            </g>
                                          </g>
                                        </g>
                                      </g>
                                    </g>
                                  </g>
                                </g>
                              </g>
                              <g id="Grupo_162992" data-name="Grupo 162992" transform="translate(2.482 2.431)">
                                <g id="Grupo_162991" data-name="Grupo 162991">
                                  <g id="Grupo_162990" data-name="Grupo 162990">
                                    <g id="Grupo_162989" data-name="Grupo 162989">
                                      <g id="Grupo_162988" data-name="Grupo 162988">
                                        <g id="Grupo_162987" data-name="Grupo 162987">
                                          <g id="Grupo_162986" data-name="Grupo 162986">
                                            <g id="Grupo_162985" data-name="Grupo 162985">
                                              <g id="Grupo_162984" data-name="Grupo 162984">
                                                <g id="Grupo_162983" data-name="Grupo 162983">
                                                  <path id="Trazado_155351" data-name="Trazado 155351" d="M180.815,220.395c-.209.589-2.369.325-4.9.648-2.54.272-4.58,1.029-4.92.5-.152-.251.2-.806,1.023-1.381a8.6,8.6,0,0,1,7.484-.877C180.433,219.657,180.905,220.115,180.815,220.395Z" transform="translate(-170.958 -218.802)" fill="#263238"/>
                                                </g>
                                              </g>
                                            </g>
                                          </g>
                                        </g>
                                      </g>
                                    </g>
                                  </g>
                                </g>
                              </g>
                              <g id="Grupo_163002" data-name="Grupo 163002" transform="translate(24.437)">
                                <g id="Grupo_163001" data-name="Grupo 163001">
                                  <g id="Grupo_163000" data-name="Grupo 163000">
                                    <g id="Grupo_162999" data-name="Grupo 162999">
                                      <g id="Grupo_162998" data-name="Grupo 162998">
                                        <g id="Grupo_162997" data-name="Grupo 162997">
                                          <g id="Grupo_162996" data-name="Grupo 162996">
                                            <g id="Grupo_162995" data-name="Grupo 162995">
                                              <g id="Grupo_162994" data-name="Grupo 162994">
                                                <g id="Grupo_162993" data-name="Grupo 162993">
                                                  <path id="Trazado_155352" data-name="Trazado 155352" d="M207.2,217.819c-.376.493-1.869-.006-3.66-.018-1.79-.074-3.3.353-3.657-.158-.154-.249.081-.742.741-1.211a5.3,5.3,0,0,1,5.9.142C207.151,217.074,207.362,217.578,207.2,217.819Z" transform="translate(-199.833 -215.605)" fill="#263238"/>
                                                </g>
                                              </g>
                                            </g>
                                          </g>
                                        </g>
                                      </g>
                                    </g>
                                  </g>
                                </g>
                              </g>
                            </g>
                          </g>
                        </g>
                      </g>
                    </g>
                  </g>
                </g>
              </g>
              <g id="Grupo_163011" data-name="Grupo 163011" transform="translate(20.038 19.848)">
                <path id="Trazado_155353" data-name="Trazado 155353" d="M144.348,218.264a2.619,2.619,0,0,0,.747,3,1.806,1.806,0,0,0,2.567-.71c.682.921,2.254-.014,2.039-1.214.847.476,1.959-.661,1.689-1.726.983.38,1.57-1.208,2.088-2.271a16.946,16.946,0,0,1,1.01-1.616,11,11,0,0,0,1.629-5.908c1.283-1.454,1.613-3.7,1.873-5.784l.488-3.9.729-.9a2.12,2.12,0,0,0,1.4,2.029,4.531,4.531,0,0,0,2.365-.029l2.331-.446,1.452.428a5.9,5.9,0,0,0,.417,3.8,3.662,3.662,0,0,0,1.339,2.124,1.1,1.1,0,0,0,1.54-1.174,1.221,1.221,0,0,0,1.892-.291,4.017,4.017,0,0,0,.535-2.4,10.266,10.266,0,0,0-1.847-5.661l4.033,3.812a1.89,1.89,0,0,0,.989.611,1.071,1.071,0,0,0,1.134,1.187,2.782,2.782,0,0,0,1.5-1.009c.991-1.033,2.042-2.79,1.169-3.961a.877.877,0,0,0,.395-1.282l4.581,3.516c-.457-.268-.968.443-.869,1.037a2.443,2.443,0,0,0,.952,1.366,3.6,3.6,0,0,0-.538,2.178c-.823-.747-2.071.624-1.81,1.814a2.6,2.6,0,0,0,2.422,1.907,1.809,1.809,0,0,0,2.054-1.331c1.007.218,1.986-1.166,1.63-2.306.727.491,1.373-.817,1.419-1.808a14.264,14.264,0,0,0-.779-5.343c-.03.255.254.47.436.331a.392.392,0,0,0-.07-.61q1.285,3.165,2.569,6.33a14.734,14.734,0,0,1,1.4,5.264c.011.753.094,1.788.726,1.859a.932.932,0,0,0,.5-.129,9.45,9.45,0,0,0,4.163-4.8,7.154,7.154,0,0,0,.644-2.219c.15-1.617-.519-3.18-.629-4.8a15.874,15.874,0,0,0-.132-2.141,6.44,6.44,0,0,0-1.651-2.8c-2.466-2.876-5.071-5.851-8.384-7.018-2.025-.712-4.19-.7-6.22-1.391a36.5,36.5,0,0,1-3.646-1.692c-5-2.362-10.535-2.682-15.906-2.238a25.5,25.5,0,0,0-8.825,2.046,30.906,30.906,0,0,0-8.3,6.339,47.087,47.087,0,0,0-9.765,13.067,23.036,23.036,0,0,0-2.356,12.931c.646,4.432,3.382,8.594,7.091,9.519l1.464-1.672" transform="translate(-133.285 -179.772)" fill="#263238"/>
              </g>
              <g id="Grupo_163033" data-name="Grupo 163033" transform="translate(26.741 60.871)">
                <g id="Grupo_163021" data-name="Grupo 163021">
                  <g id="Grupo_163020" data-name="Grupo 163020">
                    <g id="Grupo_163019" data-name="Grupo 163019">
                      <g id="Grupo_163018" data-name="Grupo 163018">
                        <g id="Grupo_163017" data-name="Grupo 163017">
                          <g id="Grupo_163016" data-name="Grupo 163016">
                            <g id="Grupo_163015" data-name="Grupo 163015">
                              <g id="Grupo_163014" data-name="Grupo 163014">
                                <g id="Grupo_163013" data-name="Grupo 163013">
                                  <g id="Grupo_163012" data-name="Grupo 163012">
                                    <path id="Trazado_155354" data-name="Trazado 155354" d="M150.745,234.2c-.216-.1-8.72-2.8-8.643,5.943s8.839,6.861,8.852,6.611S150.745,234.2,150.745,234.2Z" transform="translate(-142.101 -233.728)" fill="#b78876"/>
                                  </g>
                                </g>
                              </g>
                            </g>
                          </g>
                        </g>
                      </g>
                    </g>
                  </g>
                </g>
                <g id="Grupo_163032" data-name="Grupo 163032" transform="translate(2.22 2.833)">
                  <g id="Grupo_163031" data-name="Grupo 163031">
                    <g id="Grupo_163030" data-name="Grupo 163030">
                      <g id="Grupo_163029" data-name="Grupo 163029">
                        <g id="Grupo_163028" data-name="Grupo 163028">
                          <g id="Grupo_163027" data-name="Grupo 163027">
                            <g id="Grupo_163026" data-name="Grupo 163026">
                              <g id="Grupo_163025" data-name="Grupo 163025">
                                <g id="Grupo_163024" data-name="Grupo 163024">
                                  <g id="Grupo_163023" data-name="Grupo 163023">
                                    <g id="Grupo_163022" data-name="Grupo 163022">
                                      <path id="Trazado_155355" data-name="Trazado 155355" d="M148.953,244.356c-.039-.027-.151.108-.408.228a1.52,1.52,0,0,1-1.138.033c-.927-.331-1.718-1.79-1.774-3.365a5.03,5.03,0,0,1,.408-2.184,1.757,1.757,0,0,1,1.135-1.179.776.776,0,0,1,.9.409c.119.244.065.419.112.433.024.021.186-.148.113-.509a.966.966,0,0,0-.348-.544,1.148,1.148,0,0,0-.845-.215,2.141,2.141,0,0,0-1.579,1.369,5.176,5.176,0,0,0-.506,2.441c.071,1.761.988,3.4,2.255,3.756a1.63,1.63,0,0,0,1.391-.244C148.94,244.568,148.984,244.372,148.953,244.356Z" transform="translate(-145.021 -237.454)" fill="#aa6550"/>
                                    </g>
                                  </g>
                                </g>
                              </g>
                            </g>
                          </g>
                        </g>
                      </g>
                    </g>
                  </g>
                </g>
              </g>
              <g id="Grupo_163046" data-name="Grupo 163046" transform="translate(34.317 48.149)">
                <g id="Grupo_163035" data-name="Grupo 163035" transform="translate(8.738)">
                  <g id="Grupo_163034" data-name="Grupo 163034">
                    <path id="Trazado_155356" data-name="Trazado 155356" d="M184.48,227.516a18.574,18.574,0,0,0-.4-2.511,10.322,10.322,0,0,0-3.779-5.614,10.189,10.189,0,0,0-9.652-1.435,10.219,10.219,0,0,0-4.721,3.551,10.129,10.129,0,0,0,0,12.019,10.2,10.2,0,0,0,4.721,3.551,10.27,10.27,0,0,0,13.431-7.05,18.574,18.574,0,0,0,.4-2.511,4.144,4.144,0,0,1,.006.662,4.709,4.709,0,0,1-.062.8,7.247,7.247,0,0,1-.193,1.083,10.434,10.434,0,0,1-8.17,7.791,10.531,10.531,0,0,1-5.535-.436,10.533,10.533,0,0,1-4.91-3.665,10.484,10.484,0,0,1,0-12.478,10.541,10.541,0,0,1,4.909-3.664,10.535,10.535,0,0,1,5.534-.436,10.433,10.433,0,0,1,8.17,7.791,7.246,7.246,0,0,1,.193,1.083,4.709,4.709,0,0,1,.062.8A4.151,4.151,0,0,1,184.48,227.516Z" transform="translate(-163.558 -216.995)" fill="#455a64"/>
                  </g>
                </g>
                <g id="Grupo_163037" data-name="Grupo 163037" transform="translate(33.403)">
                  <g id="Grupo_163036" data-name="Grupo 163036">
                    <path id="Trazado_155357" data-name="Trazado 155357" d="M216.921,227.516a18.574,18.574,0,0,0-.4-2.511,10.322,10.322,0,0,0-3.779-5.614,10.19,10.19,0,0,0-9.652-1.435,10.218,10.218,0,0,0-4.721,3.551,10.131,10.131,0,0,0,0,12.019,10.21,10.21,0,0,0,4.722,3.551,10.27,10.27,0,0,0,13.431-7.05,18.574,18.574,0,0,0,.4-2.511,4.139,4.139,0,0,1,.006.662,4.709,4.709,0,0,1-.062.8,7.243,7.243,0,0,1-.193,1.083,10.434,10.434,0,0,1-8.17,7.791,10.531,10.531,0,0,1-5.535-.436,10.533,10.533,0,0,1-4.91-3.665,10.484,10.484,0,0,1,0-12.478,10.541,10.541,0,0,1,4.909-3.664,10.535,10.535,0,0,1,5.534-.436,10.436,10.436,0,0,1,8.17,7.791,7.243,7.243,0,0,1,.193,1.083,4.709,4.709,0,0,1,.062.8A4.147,4.147,0,0,1,216.921,227.516Z" transform="translate(-195.999 -216.995)" fill="#455a64"/>
                  </g>
                </g>
                <g id="Grupo_163039" data-name="Grupo 163039" transform="translate(29.349 7.353)">
                  <g id="Grupo_163038" data-name="Grupo 163038">
                    <path id="Trazado_155358" data-name="Trazado 155358" d="M195.37,227.4c-.047.109-1.046-.3-2.342-.336-1.3-.054-2.32.285-2.36.174a4.572,4.572,0,0,1,4.7.162Z" transform="translate(-190.667 -226.666)" fill="#455a64"/>
                  </g>
                </g>
                <g id="Grupo_163041" data-name="Grupo 163041" transform="translate(0 11.532)">
                  <g id="Grupo_163040" data-name="Grupo 163040">
                    <path id="Trazado_155359" data-name="Trazado 155359" d="M160.924,232.179a25.419,25.419,0,0,1-8.858,1.428c-.007-.115,1.991-.314,4.43-.711S160.9,232.068,160.924,232.179Z" transform="translate(-152.066 -232.162)" fill="#455a64"/>
                  </g>
                </g>
                <g id="Grupo_163043" data-name="Grupo 163043" transform="translate(21.533 8.89)">
                  <g id="Grupo_163042" data-name="Grupo 163042">
                    <path id="Trazado_155360" data-name="Trazado 155360" d="M187.421,228.688a5.578,5.578,0,0,1-.1,1.955,12.291,12.291,0,0,1-1.718,4.4,10.594,10.594,0,0,1-3.3,3.391,2.468,2.468,0,0,1-1.91.42,4.639,4.639,0,0,0,1.765-.66,11.749,11.749,0,0,0,3.111-3.364,14.013,14.013,0,0,0,1.779-4.248C187.312,229.429,187.355,228.684,187.421,228.688Z" transform="translate(-180.387 -228.688)" fill="#fff"/>
                  </g>
                </g>
                <g id="Grupo_163045" data-name="Grupo 163045" transform="translate(50.437 4.06)">
                  <g id="Grupo_163044" data-name="Grupo 163044">
                    <path id="Trazado_155361" data-name="Trazado 155361" d="M219.09,233.82a13.183,13.183,0,0,1,.838-1.632,8.007,8.007,0,0,0,.688-1.82,6.324,6.324,0,0,0,.039-2.357,12.461,12.461,0,0,0-1.234-4.167c-.531-.984-1.066-1.456-1.015-1.507.016-.018.167.079.4.3a5.3,5.3,0,0,1,.855,1.066,10.963,10.963,0,0,1,1.385,4.254,6.294,6.294,0,0,1-.076,2.5,7.306,7.306,0,0,1-.8,1.869A6.274,6.274,0,0,1,219.09,233.82Z" transform="translate(-218.403 -222.334)" fill="#fff"/>
                  </g>
                </g>
              </g>
              <g id="Grupo_163048" data-name="Grupo 163048" transform="translate(27.211 72.394)">
                <g id="Grupo_163047" data-name="Grupo 163047">
                  <path id="Trazado_155362" data-name="Trazado 155362" d="M144.724,250.087c.012.035-.227.109-.573.366a2.837,2.837,0,0,0-1,1.464,2.479,2.479,0,0,0,.525,2.436,2.945,2.945,0,0,0,2.91.853,3.144,3.144,0,0,0,1.578-4.785,3.867,3.867,0,0,0-1.331-1.218,5.923,5.923,0,0,1-.608-.312,1.5,1.5,0,0,1,.677.173,3.66,3.66,0,0,1,1.491,1.2,3.37,3.37,0,0,1,.614,2.763,3.476,3.476,0,0,1-2.308,2.563,3.271,3.271,0,0,1-3.294-.99,2.709,2.709,0,0,1-.661-1.417,2.918,2.918,0,0,1,.141-1.347,2.822,2.822,0,0,1,1.179-1.506A1.275,1.275,0,0,1,144.724,250.087Z" transform="translate(-142.719 -248.884)" fill="#455a64"/>
                </g>
              </g>
              <g id="Grupo_163050" data-name="Grupo 163050" transform="translate(52.687 25.577)">
                <g id="Grupo_163049" data-name="Grupo 163049">
                  <path id="Trazado_155363" data-name="Trazado 155363" d="M189.018,195.324a2.2,2.2,0,0,0,.588-1.125,1.545,1.545,0,0,0-.394-1.316,1.649,1.649,0,0,0-1.672-.431l-.363.122.157-.351a1.726,1.726,0,0,0-.459-1.937,1.692,1.692,0,0,0-2.173.076l-.288-.271a.741.741,0,0,0,.12-.219.976.976,0,0,0-.14-.823,1.117,1.117,0,0,0-.71-.45,1.862,1.862,0,0,0-.875.039,2.369,2.369,0,0,1-.981.217c-.418-.075-.6-.385-.818-.525a3.232,3.232,0,0,0-.677-.42,3.72,3.72,0,0,0-1.4-.322,3.823,3.823,0,0,0-2.038.489c-.438.252-.638.462-.665.435a1.756,1.756,0,0,1,.583-.566,3.731,3.731,0,0,1,2.124-.639,3.923,3.923,0,0,1,1.531.3,3.543,3.543,0,0,1,.76.447c.254.182.443.42.655.437a2.32,2.32,0,0,0,.823-.219,2.227,2.227,0,0,1,1.06-.055,1.508,1.508,0,0,1,.957.61,1.363,1.363,0,0,1,.189,1.167,1.175,1.175,0,0,1-.193.35l-.289-.271a2.007,2.007,0,0,1,3.213,2.287l-.207-.23a1.93,1.93,0,0,1,1.981.565,1.8,1.8,0,0,1-.1,2.43C189.143,195.287,189.025,195.334,189.018,195.324Z" transform="translate(-176.227 -187.307)" fill="#455a64"/>
                </g>
              </g>
              <g id="Grupo_163052" data-name="Grupo 163052" transform="translate(60.016 22.521)">
                <g id="Grupo_163051" data-name="Grupo 163051">
                  <path id="Trazado_155364" data-name="Trazado 155364" d="M201.091,196.894a2.682,2.682,0,0,0,.745-1.094,1.961,1.961,0,0,0-.089-1.48,2.043,2.043,0,0,0-1.537-1.118l-.281-.037.191-.214a2.445,2.445,0,0,0,.67-2.136,1.311,1.311,0,0,0-.786-.883,1.04,1.04,0,0,0-1.159.154l-1.115,1.184.814-1.411a2.028,2.028,0,0,0,.109-1.706,1.867,1.867,0,0,0-1.351-1.159,1.988,1.988,0,0,0-1.308.13l-.458.224.189-.474c.267-.672-.417-1.453-1.1-1.543a3.332,3.332,0,0,0-2.072.517l-.376.2.119-.408a1.441,1.441,0,0,0-.471-1.4,2.678,2.678,0,0,0-1.34-.6,6.8,6.8,0,0,0-2.512.059,10.911,10.911,0,0,0-2.108.756,1.859,1.859,0,0,1,.492-.341,6.425,6.425,0,0,1,1.568-.622,6.727,6.727,0,0,1,2.609-.142,2.942,2.942,0,0,1,1.512.646,1.771,1.771,0,0,1,.593,1.738l-.258-.205a3.647,3.647,0,0,1,2.308-.58,1.839,1.839,0,0,1,1.146.687,1.4,1.4,0,0,1,.252,1.381l-.269-.252a2.368,2.368,0,0,1,1.572-.162,2.261,2.261,0,0,1,1.627,1.4,2.4,2.4,0,0,1-.148,2.038l-.3-.227a1.409,1.409,0,0,1,1.578-.227,1.668,1.668,0,0,1,.979,1.133,2.735,2.735,0,0,1-.786,2.426l-.09-.251a2.286,2.286,0,0,1,1.714,1.315,2.166,2.166,0,0,1-.566,2.488C201.215,196.856,201.1,196.9,201.091,196.894Z" transform="translate(-185.867 -183.288)" fill="#455a64"/>
                </g>
              </g>
              <g id="Grupo_163054" data-name="Grupo 163054" transform="translate(77.561 24.728)">
                <g id="Grupo_163053" data-name="Grupo 163053">
                  <path id="Trazado_155365" data-name="Trazado 155365" d="M227.674,199.416a1.475,1.475,0,0,0-.506-1.075,1.881,1.881,0,0,0-1.3-.469,5.6,5.6,0,0,0-1.869.442l-.217.08.03-.232a1.7,1.7,0,0,0-1.376-1.65,4.917,4.917,0,0,0-2.782.446l-1.222.455,1.047-.778a1.392,1.392,0,0,0-.106-2,3.159,3.159,0,0,0-2.443-.579l-.118.011-.772.071.643-.433a1.493,1.493,0,0,0-.166-2.361,2.261,2.261,0,0,0-2.514.243l-.805.636.538-.874a3.388,3.388,0,0,0-.008-3.441,3.159,3.159,0,0,0-2.319-1.48,3.573,3.573,0,0,0-1.848.238c-.406.173-.6.324-.615.3-.006-.008.037-.05.128-.125a2.306,2.306,0,0,1,.437-.281,3.478,3.478,0,0,1,1.922-.351,3.363,3.363,0,0,1,2.552,1.54,3.683,3.683,0,0,1,.058,3.792l-.268-.239a2.619,2.619,0,0,1,2.95-.284,1.9,1.9,0,0,1,.849,1.432,1.673,1.673,0,0,1-.674,1.585l-.128-.363.124-.011a3.508,3.508,0,0,1,2.747.693,2.017,2.017,0,0,1,.592,1.295,1.456,1.456,0,0,1-.531,1.283l-.176-.323a5.165,5.165,0,0,1,2.994-.419,1.986,1.986,0,0,1,1.571,2.009l-.187-.152a5.641,5.641,0,0,1,1.966-.4,2.023,2.023,0,0,1,1.406.581,1.409,1.409,0,0,1,.435.856A.588.588,0,0,1,227.674,199.416Z" transform="translate(-208.942 -186.191)" fill="#455a64"/>
                </g>
              </g>
              <g id="Grupo_163056" data-name="Grupo 163056" transform="translate(67.809 17.903)">
                <g id="Grupo_163055" data-name="Grupo 163055">
                  <path id="Trazado_155366" data-name="Trazado 155366" d="M213.572,177.221a1.17,1.17,0,0,1-.519.186,6.728,6.728,0,0,1-1.53.08,4.536,4.536,0,0,0-2.2.329,1.4,1.4,0,0,0-.769.956,1.013,1.013,0,0,0,.4,1.153l-.27.192c-.081-.506-.706-.826-1.27-1.16a6.574,6.574,0,0,0-1.844-.793,2.376,2.376,0,0,0-1.874.287,1.578,1.578,0,0,0-.81,1.453l.062.484-.368-.323a4.374,4.374,0,0,0-2.57-1.059,4.928,4.928,0,0,0-2.2.316,6.28,6.28,0,0,0-1.689,1.079,1.544,1.544,0,0,1,.335-.43,4.219,4.219,0,0,1,1.267-.858,4.96,4.96,0,0,1,2.311-.418,4.623,4.623,0,0,1,2.795,1.094l-.306.161a1.944,1.944,0,0,1,.966-1.826,2.758,2.758,0,0,1,2.169-.348,6.8,6.8,0,0,1,1.956.844,8.349,8.349,0,0,1,.855.55,1.437,1.437,0,0,1,.586.89l.054.372-.324-.181a1.36,1.36,0,0,1-.563-1.561,1.72,1.72,0,0,1,.962-1.153,4.583,4.583,0,0,1,2.354-.279,8.5,8.5,0,0,0,1.5.027A4.593,4.593,0,0,1,213.572,177.221Z" transform="translate(-196.116 -177.215)" fill="#455a64"/>
                </g>
              </g>
              <g id="Grupo_163058" data-name="Grupo 163058" transform="translate(57.172 10.232)">
                <g id="Grupo_163057" data-name="Grupo 163057">
                  <path id="Trazado_155367" data-name="Trazado 155367" d="M190.687,167.234a4.075,4.075,0,0,0-1.033.144,2.5,2.5,0,0,0-.987.624,2.156,2.156,0,0,0-.63,1.325l-.017.213-.2-.069a1.3,1.3,0,0,0-1.441.809,3.953,3.953,0,0,0-.076,2.174l.119.772-.48-.634-.075-.1a1.674,1.674,0,0,0-1.353-.561,1.87,1.87,0,0,0-1.289.56,2.98,2.98,0,0,0-.792,2.327,5.516,5.516,0,0,0,.44,1.7,2.992,2.992,0,0,1,.243.617c-.021.013-.173-.173-.382-.551a4.851,4.851,0,0,1-.58-1.743,3.212,3.212,0,0,1,.813-2.611,2.2,2.2,0,0,1,3.209.008l.1.13-.36.138a4.186,4.186,0,0,1,.125-2.394,1.634,1.634,0,0,1,1.89-.963l-.22.144a2.393,2.393,0,0,1,.772-1.491,2.559,2.559,0,0,1,1.121-.615,2.077,2.077,0,0,1,.814-.047C190.6,167.182,190.691,167.219,190.687,167.234Z" transform="translate(-182.125 -167.125)" fill="#455a64"/>
                </g>
              </g>
              <g id="Grupo_163060" data-name="Grupo 163060" transform="translate(43.166 11.593)">
                <g id="Grupo_163059" data-name="Grupo 163059">
                  <path id="Trazado_155368" data-name="Trazado 155368" d="M169.048,179.626c-.005.021-.2.006-.519-.117a3.3,3.3,0,0,1-1.188-.842,3.5,3.5,0,0,1-.9-1.978,1.8,1.8,0,0,0-.259-1.074c-.224-.277-.706-.452-1-.909a1.979,1.979,0,0,1,.509-2.661l-.017.289a6.323,6.323,0,0,1-1.682-2.341,2.56,2.56,0,0,1-.276-1.077,10.926,10.926,0,0,1,.474.985,6.922,6.922,0,0,0,1.718,2.157l.186.156-.2.133a1.631,1.631,0,0,0-.377,2.141c.2.339.63.493.967.877a2.059,2.059,0,0,1,.327,1.293,3.363,3.363,0,0,0,.749,1.827A5,5,0,0,0,169.048,179.626Z" transform="translate(-163.704 -168.916)" fill="#455a64"/>
                </g>
              </g>
              <g id="Grupo_163062" data-name="Grupo 163062" transform="translate(27.09 19.222)">
                <g id="Grupo_163061" data-name="Grupo 163061">
                  <path id="Trazado_155369" data-name="Trazado 155369" d="M158.907,185.5c0,.016-.113.036-.329.046a4.433,4.433,0,0,1-.936-.081,5.259,5.259,0,0,1-2.912-1.654l.255,0a3.385,3.385,0,0,1-2.318,1.224,3.5,3.5,0,0,1-1.471-.174,2.153,2.153,0,0,1-1.255-.984,4.427,4.427,0,0,1-.156-.568.786.786,0,0,0-.247-.366,2.464,2.464,0,0,0-.909-.4,3.151,3.151,0,0,1-1.015-.415,1.125,1.125,0,0,1-.56-.972l.25.174a3.485,3.485,0,0,1-2.408.056,3.777,3.777,0,0,1-1.581-.992,3.115,3.115,0,0,1-.652-1.014,1.043,1.043,0,0,1-.1-.417,4.919,4.919,0,0,0,.9,1.279,3.7,3.7,0,0,0,1.517.859,3.228,3.228,0,0,0,2.178-.1l.265-.111-.015.285a.767.767,0,0,0,.411.643,2.842,2.842,0,0,0,.909.354,2.753,2.753,0,0,1,1.061.477,1.17,1.17,0,0,1,.37.547,5.139,5.139,0,0,0,.141.525,1.816,1.816,0,0,0,1.026.776,3.178,3.178,0,0,0,1.3.166,3.084,3.084,0,0,0,2.093-1.055l.128-.155.128.151a5.344,5.344,0,0,0,2.7,1.685C158.447,185.471,158.908,185.451,158.907,185.5Z" transform="translate(-142.56 -178.95)" fill="#455a64"/>
                </g>
              </g>
              <g id="Grupo_163064" data-name="Grupo 163064" transform="translate(12.161 26.757)">
                <g id="Grupo_163063" data-name="Grupo 163063">
                  <path id="Trazado_155370" data-name="Trazado 155370" d="M123.047,200c-.008,0-.024-.044-.046-.136a2.186,2.186,0,0,1-.065-.411,4.173,4.173,0,0,1,.189-1.568,9.305,9.305,0,0,1,1.061-2.215,8.691,8.691,0,0,1,.877-1.249,2.339,2.339,0,0,1,.687-.529,1.042,1.042,0,0,1,.967,0l-.248.161a2.624,2.624,0,0,1,4.278-2.282l-.318.155a1.813,1.813,0,0,1,.734-1.479,1.739,1.739,0,0,1,1.684-.205,1.785,1.785,0,0,1,.775.588l-.357.132a1.126,1.126,0,0,1,.416-.928,1.548,1.548,0,0,1,.892-.372,3.559,3.559,0,0,1,1.687.433l-.24.075a2.818,2.818,0,0,1,1.708-1.193,3.957,3.957,0,0,1,1.935,0,9.961,9.961,0,0,1,2.974,1.483l-.208.177a.694.694,0,0,1,.079-.687,1.2,1.2,0,0,1,.488-.371,2.038,2.038,0,0,1,1.052-.159,5.723,5.723,0,0,1,1.571.476,5.143,5.143,0,0,1,.889.525c.189.141.277.23.269.24-.021.033-.409-.284-1.221-.62a5.944,5.944,0,0,0-1.534-.4,1.809,1.809,0,0,0-.918.167c-.3.134-.557.417-.414.71l.214.435-.423-.258a9.956,9.956,0,0,0-2.9-1.388,3.62,3.62,0,0,0-1.762.017,2.455,2.455,0,0,0-1.477,1.039l-.087.143-.154-.068a3.253,3.253,0,0,0-1.5-.393c-.47.027-.983.429-.944.879l.062.694-.418-.562a1.385,1.385,0,0,0-.6-.453,1.344,1.344,0,0,0-1.3.153,1.429,1.429,0,0,0-.58,1.152l.013.427-.331-.271a2.319,2.319,0,0,0-2.6-.195,2.347,2.347,0,0,0-1.1,2.146l.029.326-.278-.164c-.422-.25-.936.094-1.269.446a8.739,8.739,0,0,0-.869,1.185,9.773,9.773,0,0,0-1.107,2.128A5.285,5.285,0,0,0,123.047,200Z" transform="translate(-122.925 -188.859)" fill="#455a64"/>
                </g>
              </g>
              <g id="Grupo_163066" data-name="Grupo 163066" transform="translate(13.505 34.543)">
                <g id="Grupo_163065" data-name="Grupo 163065">
                  <path id="Trazado_155371" data-name="Trazado 155371" d="M125.675,214.014c-.011.007-.08-.078-.2-.25a6.2,6.2,0,0,1-.463-.793,2.816,2.816,0,0,1-.314-1.446,2.044,2.044,0,0,1,.3-.9,1.477,1.477,0,0,1,.866-.664l-.082.213a1.842,1.842,0,0,1,1.969-2.826l-.183.279a1.484,1.484,0,0,1,.059-1.756,2.2,2.2,0,0,1,1.684-.785,8.462,8.462,0,0,0,.882,0,.759.759,0,0,0,.547-.473,3.18,3.18,0,0,1,.51-.852,1.7,1.7,0,0,1,.93-.512,9.77,9.77,0,0,1,2.1-.051,2.276,2.276,0,0,0,1.7-.493,8.706,8.706,0,0,0,.542-.755,1.982,1.982,0,0,1,.8-.615,2.08,2.08,0,0,1,1.848.1l-.232.244a1.568,1.568,0,0,1,.215-1.818,2.215,2.215,0,0,1,1.479-.732,7.04,7.04,0,0,1,2.581.322,8.586,8.586,0,0,1,1.546.619,2.021,2.021,0,0,1,.5.313,19.87,19.87,0,0,0-2.1-.736,7.153,7.153,0,0,0-2.491-.236,1.928,1.928,0,0,0-1.27.65,1.247,1.247,0,0,0-.173,1.426l.419.62-.651-.375a1.73,1.73,0,0,0-1.527-.061,1.6,1.6,0,0,0-.644.5,8.067,8.067,0,0,1-.565.792,2.059,2.059,0,0,1-.938.521,4.6,4.6,0,0,1-1.044.1,9.77,9.77,0,0,0-2.013.044,1.313,1.313,0,0,0-.729.4,2.936,2.936,0,0,0-.453.769,1.15,1.15,0,0,1-.825.671,7.4,7.4,0,0,1-.935,0,1.835,1.835,0,0,0-1.4.623,1.128,1.128,0,0,0-.077,1.318l.311.4-.494-.125a1.561,1.561,0,0,0-1.682.688,1.6,1.6,0,0,0,.03,1.64l.109.166-.191.047a1.5,1.5,0,0,0-1.013,1.321,2.755,2.755,0,0,0,.236,1.36C125.465,213.625,125.709,214,125.675,214.014Z" transform="translate(-124.692 -199.1)" fill="#455a64"/>
                </g>
              </g>
              <g id="Grupo_163068" data-name="Grupo 163068" transform="translate(12.919 55.257)">
                <g id="Grupo_163067" data-name="Grupo 163067">
                  <path id="Trazado_155372" data-name="Trazado 155372" d="M126.156,244.578a.885.885,0,0,1-.383-.125,2.713,2.713,0,0,1-.9-.71,2.819,2.819,0,0,1-.665-1.673,3,3,0,0,1,.81-2.2l-.017.211a5.463,5.463,0,0,1-1.026-1.964,2.228,2.228,0,0,1,.091-1.264,1.624,1.624,0,0,1,.936-.977l-.039.347a2.29,2.29,0,0,1-.985-2.06,2.562,2.562,0,0,1,.407-1.288,2.159,2.159,0,0,1,1.023-.816c.377-.166.55-.342.562-.724a3.13,3.13,0,0,1,.265-1.156,3.991,3.991,0,0,1,1.472-1.575c.531-.384,1.021-.747,1.486-1.064a6.583,6.583,0,0,1,2.412-1.131,3.09,3.09,0,0,1,.727-.06c.166.014.252.028.251.042,0,.04-.35.005-.944.168a7.08,7.08,0,0,0-2.285,1.211l-1.452,1.1a3.71,3.71,0,0,0-1.334,1.46,2.769,2.769,0,0,0-.223,1.041,1.132,1.132,0,0,1-.219.651,1.518,1.518,0,0,1-.552.39,2.044,2.044,0,0,0-.4,3.485l.337.211-.376.138a1.57,1.57,0,0,0-.8,1.8,5.277,5.277,0,0,0,.937,1.848l.078.114-.1.1a2.748,2.748,0,0,0-.779,1.963,2.683,2.683,0,0,0,.545,1.563A3.93,3.93,0,0,0,126.156,244.578Z" transform="translate(-123.922 -226.344)" fill="#455a64"/>
                </g>
              </g>
              <g id="Grupo_163070" data-name="Grupo 163070" transform="translate(23.687 46.398)">
                <g id="Grupo_163069" data-name="Grupo 163069">
                  <path id="Trazado_155373" data-name="Trazado 155373" d="M141.907,231.516a1.56,1.56,0,0,1-.541-.115,4.957,4.957,0,0,1-1.386-.722,5.266,5.266,0,0,1-1.575-1.844,2.113,2.113,0,0,1-.267-1.52,1.043,1.043,0,0,1,.605-.673.833.833,0,0,1,.962.163l-.3.179a2.667,2.667,0,0,1-.271-1.519,1.268,1.268,0,0,1,.474-.744,1.056,1.056,0,0,1,.906-.128,1.566,1.566,0,0,0,.681.093c.142-.044.174-.227.157-.522a2.412,2.412,0,0,1,.669-1.671,2.6,2.6,0,0,1,2.682-.766l-.252.232a2.236,2.236,0,0,1,.41-2.177,1.361,1.361,0,0,1,1.071-.338,1.013,1.013,0,0,1,.879.644l-.335.069a5.343,5.343,0,0,1,.674-2.879,5.556,5.556,0,0,1,1.475-1.735,4.906,4.906,0,0,1,1.274-.718,1.629,1.629,0,0,1,.5-.128,7.961,7.961,0,0,0-1.648,1,5.581,5.581,0,0,0-1.353,1.711,5.152,5.152,0,0,0-.58,2.722l.1,1.433-.43-1.365c-.148-.47-.973-.542-1.368-.151a1.889,1.889,0,0,0-.29,1.811l.1.352-.347-.12a2.221,2.221,0,0,0-2.264.669,2.026,2.026,0,0,0-.566,1.4,1.688,1.688,0,0,1-.033.467.626.626,0,0,1-.382.427,1.7,1.7,0,0,1-.9-.084.672.672,0,0,0-.6.062.9.9,0,0,0-.332.52,2.387,2.387,0,0,0,.237,1.309l.366.961-.662-.782c-.262-.309-.909-.031-.991.374a1.848,1.848,0,0,0,.217,1.3,5.235,5.235,0,0,0,1.442,1.807A7.576,7.576,0,0,0,141.907,231.516Z" transform="translate(-138.084 -214.693)" fill="#455a64"/>
                </g>
              </g>
              <g id="Grupo_163072" data-name="Grupo 163072" transform="translate(43.921 32.377)">
                <g id="Grupo_163071" data-name="Grupo 163071">
                  <path id="Trazado_155374" data-name="Trazado 155374" d="M168.071,202.745a2.988,2.988,0,0,1-1.169-.468,3.31,3.31,0,0,1-1.061-.922,2.174,2.174,0,0,1-.385-1.715,1.633,1.633,0,0,1,.161-.412l.083.272a1.884,1.884,0,0,1-.971-1.3,1.721,1.721,0,0,1,.253-1.282c.432-.63.943-.692.938-.653.033.056-.4.212-.708.789a1.519,1.519,0,0,0-.138,1.071,1.583,1.583,0,0,0,.8,1.027l.175.088-.091.185a1.334,1.334,0,0,0-.12.313,1.892,1.892,0,0,0,.3,1.417,3.433,3.433,0,0,0,.909.89C167.673,202.463,168.1,202.689,168.071,202.745Z" transform="translate(-164.697 -196.251)" fill="#455a64"/>
                </g>
              </g>
              <g id="Grupo_163074" data-name="Grupo 163074" transform="translate(46.228 28.496)">
                <g id="Grupo_163073" data-name="Grupo 163073">
                  <path id="Trazado_155375" data-name="Trazado 155375" d="M177.985,197.27a2.324,2.324,0,0,0,.278-1.444,1.638,1.638,0,0,0-.929-1.238,1.772,1.772,0,0,0-1.887.293l-.247.233-.065-.335a3.244,3.244,0,0,0-.449-1.164,1.489,1.489,0,0,0-.986-.7c-.63-.087-1.338.5-1.166,1.021l-.373.075a3.013,3.013,0,0,0-1.082-1.968,2.941,2.941,0,0,0-1.692-.649,4.558,4.558,0,0,0-1.655.3c-.01-.016.114-.127.389-.26a2.974,2.974,0,0,1,1.273-.279,3.094,3.094,0,0,1,1.889.633,3.292,3.292,0,0,1,1.258,2.183l-.373.075a1.11,1.11,0,0,1,.392-1.146,1.576,1.576,0,0,1,1.187-.376,1.855,1.855,0,0,1,1.266.885,3.532,3.532,0,0,1,.49,1.311l-.312-.1a2.081,2.081,0,0,1,2.277-.308,1.866,1.866,0,0,1,1.024,1.492,1.911,1.911,0,0,1-.23,1.159C178.12,197.191,178,197.28,177.985,197.27Z" transform="translate(-167.731 -191.147)" fill="#455a64"/>
                </g>
              </g>
            </g>
            <g id="Grupo_163101" data-name="Grupo 163101" transform="translate(2.978 105.64)">
              <g id="Grupo_163076" data-name="Grupo 163076" transform="translate(29.662)">
                <path id="Trazado_155376" data-name="Trazado 155376" d="M202.754,356.917l11.52-4.763a155.2,155.2,0,0,0-6.9-28.385c-4.144-11.45-10.946-16.6-13.077-17.984l-.041-.136-3.435-2.079-14.8-9.525c2.6,11.832-18.576,23.973-36.591-1.435l-29.776,12.04,7.791,84.323-7.384,37.3,74.493-.217.011.717,15.849-.151-3.392-16.554c1.477-15.918,6.215-35.247,5.664-48.018C202.767,360.445,202.783,358.722,202.754,356.917Z" transform="translate(-109.656 -292.611)" fill="#fd9827"/>
              </g>
              <g id="Grupo_163087" data-name="Grupo 163087" transform="translate(117.03 36.573)">
                <g id="Grupo_163083" data-name="Grupo 163083" transform="translate(2.276)">
                  <g id="Grupo_163082" data-name="Grupo 163082">
                    <g id="Grupo_163081" data-name="Grupo 163081">
                      <g id="Grupo_163080" data-name="Grupo 163080">
                        <g id="Grupo_163079" data-name="Grupo 163079">
                          <g id="Grupo_163078" data-name="Grupo 163078">
                            <g id="Grupo_163077" data-name="Grupo 163077">
                              <path id="Trazado_155377" data-name="Trazado 155377" d="M227.677,401.6a3.72,3.72,0,0,0,.178-.6q.163-.649.436-1.739c.19-.755.41-1.682.622-2.767s.5-2.314.714-3.689c.241-1.371.5-2.875.7-4.5.246-1.619.414-3.361.611-5.192.331-3.668.553-7.714.557-11.965-.02-4.252-.257-8.3-.6-11.965-.2-1.83-.378-3.572-.63-5.191-.213-1.623-.475-3.126-.722-4.5-.223-1.375-.5-2.6-.727-3.686s-.439-2.01-.633-2.764q-.277-1.089-.442-1.737a3.634,3.634,0,0,0-.181-.6,3.808,3.808,0,0,0,.1.618l.369,1.752c.17.759.37,1.688.566,2.775s.463,2.314.668,3.689c.228,1.371.474,2.872.672,4.493.238,1.616.4,3.354.592,5.181.324,3.658.55,7.692.569,11.931,0,4.238-.214,8.272-.525,11.931-.186,1.826-.341,3.564-.573,5.182-.192,1.622-.432,3.125-.655,4.5-.2,1.375-.458,2.606-.655,3.692s-.389,2.018-.555,2.777q-.227,1.1-.363,1.753A3.63,3.63,0,0,0,227.677,401.6Z" transform="translate(-227.561 -340.714)" fill="#263238"/>
                            </g>
                          </g>
                        </g>
                      </g>
                    </g>
                  </g>
                </g>
                <g id="Grupo_163086" data-name="Grupo 163086" transform="translate(0 60.289)">
                  <g id="Grupo_163085" data-name="Grupo 163085">
                    <g id="Grupo_163084" data-name="Grupo 163084">
                      <path id="Trazado_155378" data-name="Trazado 155378" d="M227.138,420.009a1.41,1.41,0,0,1-.042.384c-.053.292-.118.65-.2,1.083-.185.937-.432,2.3-.721,3.978a81.657,81.657,0,0,0-1.216,13.247,61.534,61.534,0,0,0,.446,7.306,57.1,57.1,0,0,0,1.08,5.883c.176.834.4,1.572.575,2.227s.342,1.213.486,1.668l.313,1.054a1.409,1.409,0,0,1,.084.377,1.462,1.462,0,0,1-.159-.35l-.385-1.033c-.167-.449-.363-1-.551-1.654s-.44-1.388-.634-2.222a51.584,51.584,0,0,1-1.17-5.9,57.529,57.529,0,0,1-.48-7.354,73.121,73.121,0,0,1,1.337-13.3c.325-1.679.614-3.033.845-3.96l.268-1.068A1.418,1.418,0,0,1,227.138,420.009Z" transform="translate(-224.567 -420.009)" fill="#263238"/>
                    </g>
                  </g>
                </g>
              </g>
              <g id="Grupo_163088" data-name="Grupo 163088" transform="translate(0 11.396)">
                <path id="Trazado_155379" data-name="Trazado 155379" d="M70.643,367.361l15.272-43.706s4.036-12.876,16.138-16.056l8.657,43.714L106.7,375.22Z" transform="translate(-70.643 -307.599)" fill="#fd9827"/>
              </g>
              <g id="Grupo_163090" data-name="Grupo 163090" transform="translate(36.046 43.651)">
                <g id="Grupo_163089" data-name="Grupo 163089">
                  <path id="Trazado_155380" data-name="Trazado 155380" d="M125.054,350.023a1.3,1.3,0,0,1-.009.368c-.029.285-.063.631-.1,1.047-.1.908-.271,2.219-.529,3.831-.5,3.229-1.4,7.652-2.5,12.508s-2.076,9.255-2.737,12.449c-.321,1.55-.585,2.828-.782,3.783l-.226,1.026a1.318,1.318,0,0,1-.1.354,1.29,1.29,0,0,1,.027-.367c.042-.284.092-.627.153-1.041.136-.9.365-2.2.659-3.809.591-3.211,1.531-7.624,2.625-12.481s2.042-9.258,2.612-12.468c.293-1.6.509-2.9.653-3.805.071-.411.129-.753.178-1.036A1.345,1.345,0,0,1,125.054,350.023Z" transform="translate(-118.053 -350.023)" fill="#263238"/>
                </g>
              </g>
              <g id="Grupo_163092" data-name="Grupo 163092" transform="translate(54.956 1.875)">
                <g id="Grupo_163091" data-name="Grupo 163091">
                  <path id="Trazado_155381" data-name="Trazado 155381" d="M187.244,297.289a3.146,3.146,0,0,1-.017.579c-.017.189-.019.427-.06.7s-.1.6-.165.949c-.086.351-.2.74-.321,1.164a12.378,12.378,0,0,1-.552,1.327,11.667,11.667,0,0,1-1.968,2.891,20.247,20.247,0,0,1-7.583,4.924A21.652,21.652,0,0,1,165.6,311.1a26.418,26.418,0,0,1-10.424-3.758,37.619,37.619,0,0,1-6.952-5.82,57.83,57.83,0,0,1-3.985-4.631c-.44-.571-.776-1.019-.994-1.33a3.122,3.122,0,0,1-.32-.483,3.146,3.146,0,0,1,.383.434l1.051,1.283c.92,1.105,2.26,2.7,4.065,4.531a38.567,38.567,0,0,0,6.945,5.706,26.391,26.391,0,0,0,10.282,3.675,21.5,21.5,0,0,0,10.793-1.219,20.292,20.292,0,0,0,7.511-4.774,11.684,11.684,0,0,0,1.977-2.8,12.771,12.771,0,0,0,.572-1.291c.132-.414.252-.793.349-1.137.074-.344.139-.655.2-.931s.068-.5.1-.691A3.225,3.225,0,0,1,187.244,297.289Z" transform="translate(-142.924 -295.077)" fill="#fafafa"/>
                </g>
              </g>
              <g id="Grupo_163094" data-name="Grupo 163094" transform="translate(35.117 54.553)" opacity="0.3">
                <g id="Grupo_163093" data-name="Grupo 163093">
                  <path id="Trazado_155382" data-name="Trazado 155382" d="M117.386,412.269c4.517-5.356,4.947-12.944,5.163-19.948.274-8.864.082-19.1.356-27.96-1.642,7.856-4.122,19.921-5.347,24.464,0,0,.595,4.633.628,6.447.03,1.657-.115,3.468.04,5.115.4,4.262,1.069,8.972-1.4,12.471" transform="translate(-116.831 -364.362)"/>
                </g>
              </g>
              <g id="Grupo_163096" data-name="Grupo 163096" transform="translate(42.09 45.589)">
                <g id="Grupo_163095" data-name="Grupo 163095">
                  <path id="Trazado_155383" data-name="Trazado 155383" d="M204.7,352.574a.8.8,0,0,1-.192.078l-.573.188-2.218.686c-.962.3-2.143.653-3.53,1.01s-2.953.817-4.714,1.2c-1.754.414-3.677.866-5.761,1.258-2.073.443-4.311.8-6.663,1.191-4.714.713-9.926,1.313-15.42,1.636-5.5.293-10.746.278-15.511.091-2.381-.131-4.644-.237-6.754-.452-2.115-.161-4.075-.4-5.864-.625-1.792-.193-3.4-.479-4.815-.69s-2.629-.433-3.618-.63l-2.277-.449-.59-.126a.781.781,0,0,1-.2-.056.808.808,0,0,1,.206.017l.6.087,2.289.375c.991.173,2.206.379,3.624.563s3.024.456,4.816.631c1.787.2,3.746.429,5.857.575,2.107.2,4.366.294,6.742.415,4.754.167,9.989.17,15.473-.122,5.481-.322,10.682-.91,15.388-1.6,2.347-.382,4.582-.725,6.654-1.153,2.083-.377,4.005-.812,5.761-1.209,1.762-.369,3.332-.8,4.72-1.144s2.577-.668,3.545-.944l2.237-.614.585-.15A.844.844,0,0,1,204.7,352.574Z" transform="translate(-126.002 -352.572)" fill="#fafafa"/>
                </g>
              </g>
              <g id="Grupo_163098" data-name="Grupo 163098" transform="translate(120.724 36.14)">
                <g id="Grupo_163097" data-name="Grupo 163097">
                  <path id="Trazado_155384" data-name="Trazado 155384" d="M237.751,340.149a60.559,60.559,0,0,1-8.325,5.14,60.483,60.483,0,0,1,8.325-5.14Z" transform="translate(-229.425 -340.144)" fill="#fafafa"/>
                </g>
              </g>
              <g id="Grupo_163100" data-name="Grupo 163100" transform="translate(11.105 39.654)">
                <g id="Grupo_163099" data-name="Grupo 163099">
                  <path id="Trazado_155385" data-name="Trazado 155385" d="M116.388,352.943a7.91,7.91,0,0,1-1.27-.07c-.816-.066-1.994-.2-3.444-.4a96.027,96.027,0,0,1-22.089-5.8c-1.36-.541-2.451-1-3.195-1.346a7.748,7.748,0,0,1-1.14-.563,7.845,7.845,0,0,1,1.2.421c.76.3,1.866.721,3.235,1.226,2.739,1.013,6.565,2.3,10.874,3.437s8.274,1.883,11.158,2.346c1.442.233,2.611.408,3.421.522A7.715,7.715,0,0,1,116.388,352.943Z" transform="translate(-85.249 -344.766)" fill="#fafafa"/>
                </g>
              </g>
            </g>
            <g id="Grupo_163111" data-name="Grupo 163111" transform="translate(0 177.763)">
              <g id="Grupo_163110" data-name="Grupo 163110" transform="translate(61.767 30.034)">
                <g id="Grupo_163103" data-name="Grupo 163103">
                  <g id="Grupo_163102" data-name="Grupo 163102">
                    <path id="Trazado_155386" data-name="Trazado 155386" d="M153.074,432.448l11.582.24s17.368-6.276,20.939-5.676c3.216.54,14.991,8.363,17.3,9.911a1.463,1.463,0,0,1,.558.712h0a2.524,2.524,0,0,1-1.4,3.209l-.243.1.106.351a4.191,4.191,0,0,1,.176,1.405,1.7,1.7,0,0,1-3.155.733l.444.789a1.927,1.927,0,0,1,.246,1.055l-.04.716a1.932,1.932,0,0,1-1.331,1.73h0a1.923,1.923,0,0,1-2.022-.531c-1.493-1.642-4.719-4.933-6.9-5.3a51.135,51.135,0,0,0-7.128-.357,2.417,2.417,0,0,0-2.241,1.543h0c1.3.093,10.319,4.8,13.513,6.483a3.418,3.418,0,0,1,1.857,2.57c.116,1-.389,2.047-2.365,1.585-4.243-.991-11.879-4.5-11.879-4.5s-3.938-1.125-6.49.675c-3.589,2.532-5.234,3.461-8.316,2.438a26.1,26.1,0,0,1-5.355-2.488l-11.136.649S143.992,440.4,153.074,432.448Z" transform="translate(-147.965 -426.972)" fill="#b78876"/>
                  </g>
                </g>
                <g id="Grupo_163106" data-name="Grupo 163106" transform="translate(31.928 7.898)">
                  <g id="Grupo_163105" data-name="Grupo 163105">
                    <g id="Grupo_163104" data-name="Grupo 163104">
                      <path id="Trazado_155387" data-name="Trazado 155387" d="M189.958,438.11c.014.066,1.232-.324,3.262-.452a16.845,16.845,0,0,1,14.038,5.99c1.312,1.555,1.873,2.7,1.93,2.669a4,4,0,0,0-.386-.8,14.728,14.728,0,0,0-1.366-2.013,16.332,16.332,0,0,0-14.233-6.074,14.673,14.673,0,0,0-2.4.408A3.96,3.96,0,0,0,189.958,438.11Z" transform="translate(-189.958 -437.36)" fill="#aa6550"/>
                    </g>
                  </g>
                </g>
                <g id="Grupo_163109" data-name="Grupo 163109" transform="translate(33.767 3.584)">
                  <g id="Grupo_163108" data-name="Grupo 163108">
                    <g id="Grupo_163107" data-name="Grupo 163107">
                      <path id="Trazado_155388" data-name="Trazado 155388" d="M192.377,432.532a14.232,14.232,0,0,1,3.4-.592,14.809,14.809,0,0,1,7.9,2.237,31.76,31.76,0,0,1,6.365,5.385l1.745,1.854a5.22,5.22,0,0,0,.666.658,5.1,5.1,0,0,0-.571-.743c-.384-.464-.948-1.127-1.67-1.927a29.22,29.22,0,0,0-6.366-5.508,14.446,14.446,0,0,0-8.077-2.187,9.619,9.619,0,0,0-2.521.462,5.767,5.767,0,0,0-.65.249C192.447,432.484,192.372,432.522,192.377,432.532Z" transform="translate(-192.377 -431.686)" fill="#aa6550"/>
                    </g>
                  </g>
                </g>
              </g>
              <path id="Trazado_155389" data-name="Trazado 155389" d="M74.131,387.47c0-.075-6.025,27.092-6.809,31.868-.917,5.585-2.443,19.166,10.007,21.813s64.121-.776,64.121-.776l3.733-17.156L97.843,416.5l5.171-22.73Z" transform="translate(-66.726 -387.47)" fill="#b78876"/>
            </g>
          </g>
        </g>
        <g id="Device" transform="translate(129.582 314.375)">
          <g id="Grupo_163119" data-name="Grupo 163119">
            <g id="Grupo_163115" data-name="Grupo 163115" transform="translate(0 0.042)">
              <g id="Grupo_163113" data-name="Grupo 163113" transform="translate(40.213)">
                <path id="Trazado_155390" data-name="Trazado 155390" d="M316.176,444.058H210.154l13.68-74.408a5.561,5.561,0,0,1,5.47-4.556h95.264a5.561,5.561,0,0,1,5.462,6.607Z" transform="translate(-210.154 -365.094)" fill="#31313c"/>
              </g>
              <g id="Grupo_163114" data-name="Grupo 163114" transform="translate(0 73.658)">
                <path id="Trazado_155391" data-name="Trazado 155391" d="M197.477,467.278H157.264l.161-.121a21.744,21.744,0,0,1,12.4-4.339l28.757-.845Z" transform="translate(-157.264 -461.973)" fill="#31313c"/>
              </g>
            </g>
            <g id="Grupo_163117" data-name="Grupo 163117" transform="translate(44.054)">
              <g id="Grupo_163116" data-name="Grupo 163116">
                <path id="Trazado_155392" data-name="Trazado 155392" d="M236.83,365.182c0,.027-.295-.055-.858-.059a5.278,5.278,0,0,0-2.355.584,7.256,7.256,0,0,0-2.825,2.571,13.653,13.653,0,0,0-1.732,4.81c-.346,1.882-.65,3.972-1.026,6.2s-.792,4.611-1.261,7.11c-.923,5-2.018,10.484-3.209,16.23-2.394,11.491-4.61,21.881-6.059,29.432-.729,3.774-1.292,6.834-1.673,8.95l-.443,2.436-.125.632a.914.914,0,0,1-.056.214.887.887,0,0,1,.016-.22c.023-.166.051-.376.087-.639.089-.588.212-1.407.37-2.449.335-2.124.855-5.193,1.55-8.976,1.379-7.568,3.553-17.971,5.946-29.461,1.19-5.744,2.3-11.222,3.237-16.216.479-2.5.9-4.874,1.3-7.1s.708-4.3,1.075-6.2a13.764,13.764,0,0,1,1.82-4.876,7.343,7.343,0,0,1,2.945-2.589,5.159,5.159,0,0,1,2.424-.525A3.11,3.11,0,0,1,236.83,365.182Z" transform="translate(-215.206 -365.038)" fill="#263238"/>
              </g>
            </g>
            <g id="Grupo_163118" data-name="Grupo 163118" transform="translate(100.201 32.724)">
              <path id="Trazado_155393" data-name="Trazado 155393" d="M299.306,413.2a5.126,5.126,0,1,1-5.126-5.126A5.126,5.126,0,0,1,299.306,413.2Z" transform="translate(-289.054 -408.078)" fill="#f5f5f5"/>
            </g>
          </g>
        </g>
      </g>
      <g id="Lineal_Color" data-name="Lineal Color" transform="translate(1124.744 8870.407)">
        <rect id="Rect치ngulo_35595" data-name="Rect치ngulo 35595" width="74" height="20" rx="2" transform="translate(4 3.536)" fill="#c0c942"/>
        <rect id="Rect치ngulo_35596" data-name="Rect치ngulo 35596" width="74" height="20" rx="2" transform="translate(4 30.536)" fill="#fd9827"/>
        <rect id="Rect치ngulo_35597" data-name="Rect치ngulo 35597" width="74" height="20" rx="2" transform="translate(4 57.536)" fill="#f5f7d6"/>
        <path id="Trazado_155302" data-name="Trazado 155302" d="M6,15H70.052v6.742H6Z" transform="translate(2.742 8.912)" fill="#ebc9b1"/>
        <path id="Trazado_155303" data-name="Trazado 155303" d="M6,31H70.052v6.742H6Z" transform="translate(2.742 19.882)" fill="#ebc9b1"/>
        <g id="Grupo_162855" data-name="Grupo 162855" transform="translate(10.428 10.428)">
          <circle id="Elipse_4850" data-name="Elipse 4850" cx="3.5" cy="3.5" r="3.5" transform="translate(-0.428 0.109)" fill="#e8ebf7"/>
          <ellipse id="Elipse_4851" data-name="Elipse 4851" cx="3" cy="3.5" rx="3" ry="3.5" transform="translate(15.572 0.109)" fill="#e8ebf7"/>
          <circle id="Elipse_4852" data-name="Elipse 4852" cx="3.5" cy="3.5" r="3.5" transform="translate(-0.428 27.109)" fill="#e8ebf7"/>
          <ellipse id="Elipse_4853" data-name="Elipse 4853" cx="3" cy="3.5" rx="3" ry="3.5" transform="translate(15.572 27.109)" fill="#e8ebf7"/>
          <circle id="Elipse_4854" data-name="Elipse 4854" cx="3.5" cy="3.5" r="3.5" transform="translate(-0.428 54.109)" fill="#e8ebf7"/>
          <ellipse id="Elipse_4855" data-name="Elipse 4855" cx="3" cy="3.5" rx="3" ry="3.5" transform="translate(15.572 54.109)" fill="#e8ebf7"/>
        </g>
        <path id="Trazado_155304" data-name="Trazado 155304" d="M79.536,20.541V7.057A5.062,5.062,0,0,0,74.48,2H7.057A5.062,5.062,0,0,0,2,7.057V20.541A5.062,5.062,0,0,0,7.057,25.6v3.371A5.062,5.062,0,0,0,2,34.026V47.51a5.062,5.062,0,0,0,5.057,5.057v3.371A5.062,5.062,0,0,0,2,61V74.48a5.062,5.062,0,0,0,5.057,5.057H74.48a5.062,5.062,0,0,0,5.057-5.057V61a5.062,5.062,0,0,0-5.057-5.057V52.567a5.062,5.062,0,0,0,5.057-5.057V34.026a5.062,5.062,0,0,0-5.057-5.057V25.6A5.062,5.062,0,0,0,79.536,20.541Zm-74.165,0V7.057A1.687,1.687,0,0,1,7.057,5.371H74.48a1.687,1.687,0,0,1,1.686,1.686V20.541a1.687,1.687,0,0,1-1.686,1.686H7.057a1.687,1.687,0,0,1-1.686-1.686ZM76.165,61V74.48a1.687,1.687,0,0,1-1.686,1.686H7.057A1.687,1.687,0,0,1,5.371,74.48V61a1.687,1.687,0,0,1,1.686-1.686H74.48A1.687,1.687,0,0,1,76.165,61Zm-5.057-5.057H10.428V52.567H71.109Zm5.057-21.912V47.51A1.687,1.687,0,0,1,74.48,49.2H7.057A1.687,1.687,0,0,1,5.371,47.51V34.026A1.687,1.687,0,0,1,7.057,32.34H74.48a1.687,1.687,0,0,1,1.686,1.686Zm-5.057-5.057H10.428V25.6H71.109Z"/>
        <path id="Trazado_155305" data-name="Trazado 155305" d="M11.057,16.113A5.057,5.057,0,1,0,6,11.057,5.057,5.057,0,0,0,11.057,16.113Zm0-6.742a1.686,1.686,0,1,1-1.686,1.686A1.686,1.686,0,0,1,11.057,9.371Z" transform="translate(2.742 2.742)"/>
        <path id="Trazado_155306" data-name="Trazado 155306" d="M20.057,16.113A5.057,5.057,0,1,0,15,11.057,5.057,5.057,0,0,0,20.057,16.113Zm0-6.742a1.686,1.686,0,1,1-1.686,1.686,1.686,1.686,0,0,1,1.686-1.686Z" transform="translate(8.912 2.742)"/>
        <path id="Trazado_155307" data-name="Trazado 155307" d="M29.686,11.371h23.6a1.686,1.686,0,0,0,0-3.371h-23.6a1.686,1.686,0,1,0,0,3.371Z" transform="translate(17.825 4.113)"/>
        <path id="Trazado_155308" data-name="Trazado 155308" d="M11.057,22a5.057,5.057,0,1,0,5.057,5.057A5.057,5.057,0,0,0,11.057,22Zm0,6.742a1.686,1.686,0,1,1,1.686-1.686,1.686,1.686,0,0,1-1.686,1.686Z" transform="translate(2.742 13.711)"/>
        <path id="Trazado_155309" data-name="Trazado 155309" d="M20.057,22a5.057,5.057,0,1,0,5.057,5.057A5.057,5.057,0,0,0,20.057,22Zm0,6.742a1.686,1.686,0,1,1,1.686-1.686A1.686,1.686,0,0,1,20.057,28.742Z" transform="translate(8.912 13.711)"/>
        <path id="Trazado_155310" data-name="Trazado 155310" d="M53.284,24h-23.6a1.686,1.686,0,0,0,0,3.371h23.6a1.686,1.686,0,0,0,0-3.371Z" transform="translate(17.825 15.083)"/>
        <path id="Trazado_155311" data-name="Trazado 155311" d="M11.057,38a5.057,5.057,0,1,0,5.057,5.057A5.057,5.057,0,0,0,11.057,38Zm0,6.742a1.686,1.686,0,1,1,1.686-1.686,1.686,1.686,0,0,1-1.686,1.686Z" transform="translate(2.742 24.681)"/>
        <path id="Trazado_155312" data-name="Trazado 155312" d="M20.057,38a5.057,5.057,0,1,0,5.057,5.057A5.057,5.057,0,0,0,20.057,38Zm0,6.742a1.686,1.686,0,1,1,1.686-1.686A1.686,1.686,0,0,1,20.057,44.742Z" transform="translate(8.912 24.681)"/>
        <path id="Trazado_155313" data-name="Trazado 155313" d="M53.284,40h-23.6a1.686,1.686,0,1,0,0,3.371h23.6a1.686,1.686,0,0,0,0-3.371Z" transform="translate(17.825 26.052)"/>
      </g>
      <g id="carga-en-la-nube" transform="translate(1120.039 8756.54)">
        <path id="Trazado_155314" data-name="Trazado 155314" d="M71.05,63.28a23.47,23.47,0,0,0-5.93-46.14,15.121,15.121,0,0,0-2.14.1,22.43,22.43,0,0,0-43.66,7.37c0,.54.05,1.06.08,1.58a19.38,19.38,0,0,0,2.42,38.6" fill="#dff0f7"/>
        <path id="Trazado_155315" data-name="Trazado 155315" d="M71.05,63.28a23.47,23.47,0,0,0-5.93-46.14,15.121,15.121,0,0,0-2.14.1,22.43,22.43,0,0,0-43.66,7.37,10.326,10.326,0,0,0,.08,1.58s7.71-14.45,20.57-12.14A16.58,16.58,0,0,1,54.21,29.67s12.4-5.33,21.06,7.25-4.22,26.36-4.22,26.36Z" fill="#99bed9"/>
        <path id="Trazado_155316" data-name="Trazado 155316" d="M21.82,66a20.79,20.79,0,0,1-4-41.2q0-.15,0-.3A23.94,23.94,0,0,1,64,15.6h1.13a24.85,24.85,0,0,1,6.31,48.88,1.5,1.5,0,0,1-.76-2.9,21.85,21.85,0,0,0-5.55-43,14.224,14.224,0,0,0-2,.1,1.51,1.51,0,0,1-1.56-1,20.94,20.94,0,0,0-40.74,6.84,8.722,8.722,0,0,0,.06,1.25v.22a1.51,1.51,0,0,1-1.31,1.59A17.79,17.79,0,0,0,21.82,63a1.5,1.5,0,0,1,0,3Z" fill="#464c54"/>
        <path id="Trazado_155317" data-name="Trazado 155317" d="M50.53,88.96H40.03V57.29H30.8L45.28,42.2,59.76,57.29H50.53V82.84" fill="#99bed9"/>
        <path id="Trazado_155318" data-name="Trazado 155318" d="M50.53,90.46H40a1.5,1.5,0,0,1-1.5-1.5V58.79H30.81a1.49,1.49,0,0,1-1.38-.91,1.51,1.51,0,0,1,.29-1.63L44.2,41.16a1.54,1.54,0,0,1,2.16,0L60.84,56.25a1.5,1.5,0,0,1-1.08,2.54H52V82.84a1.5,1.5,0,0,1-3,0V57.29a1.5,1.5,0,0,1,1.5-1.5h5.71l-11-11.42-11,11.42H40a1.5,1.5,0,0,1,1.5,1.5V87.46h9a1.5,1.5,0,0,1,0,3Z" fill="#464c54"/>
      </g>
      <rect id="Rect치ngulo_35600" data-name="Rect치ngulo 35600" width="505" height="246" transform="translate(810 8707)" fill="none"/>
    </g>
  </g>
</svg>
