<svg xmlns="http://www.w3.org/2000/svg" width="92" height="92" viewBox="0 0 92 92">
  <g id="Grupo_163139" data-name="Grupo 163139" transform="translate(888 2427.816)">
    <rect id="Rectángulo_35602" data-name="Rectángulo 35602" width="92" height="92" transform="translate(-888 -2427.816)" fill="none"/>
    <g id="archivo-de-respaldo" transform="translate(-873.25 -2413.066)">
      <g id="Grupo_163138" data-name="Grupo 163138" transform="translate(0 0)">
        <path id="Trazado_155412" data-name="Trazado 155412" d="M162.637,41.419h.809a1.011,1.011,0,1,0,0-2.023h-.809a1.011,1.011,0,1,0,0,2.023Z" transform="translate(-139.833 -34.084)" fill="#fd9827"/>
        <path id="Trazado_155413" data-name="Trazado 155413" d="M236.779,41.419h1.345a1.011,1.011,0,1,0,0-2.023h-1.345a1.011,1.011,0,1,0,0,2.023Z" transform="translate(-203.978 -34.084)" fill="#fd9827"/>
        <path id="Trazado_155414" data-name="Trazado 155414" d="M197.722,41.419h1.345a1.011,1.011,0,0,0,0-2.023h-1.345a1.011,1.011,0,1,0,0,2.023Z" transform="translate(-170.188 -34.084)" fill="#fd9827"/>
        <path id="Trazado_155415" data-name="Trazado 155415" d="M275.836,41.419h.809a1.011,1.011,0,1,0,0-2.023h-.809a1.011,1.011,0,1,0,0,2.023Z" transform="translate(-237.769 -34.084)" fill="#fd9827"/>
        <path id="Trazado_155416" data-name="Trazado 155416" d="M275.836,73.745h.809a1.011,1.011,0,1,0,0-2.023h-.809a1.011,1.011,0,1,0,0,2.023Z" transform="translate(-237.769 -62.051)" fill="#fd9827"/>
        <path id="Trazado_155417" data-name="Trazado 155417" d="M236.779,73.745h1.345a1.011,1.011,0,1,0,0-2.023h-1.345a1.011,1.011,0,1,0,0,2.023Z" transform="translate(-203.978 -62.051)" fill="#fd9827"/>
        <path id="Trazado_155418" data-name="Trazado 155418" d="M197.722,73.745h1.345a1.011,1.011,0,0,0,0-2.023h-1.345a1.011,1.011,0,1,0,0,2.023Z" transform="translate(-170.188 -62.051)" fill="#fd9827"/>
        <path id="Trazado_155419" data-name="Trazado 155419" d="M162.637,73.745h.809a1.011,1.011,0,1,0,0-2.023h-.809a1.011,1.011,0,1,0,0,2.023Z" transform="translate(-139.833 -62.051)" fill="#fd9827"/>
        <path id="Trazado_155420" data-name="Trazado 155420" d="M32.325,42.587a3.191,3.191,0,1,0,3.19-3.19A3.194,3.194,0,0,0,32.325,42.587Zm3.191-1.168a1.168,1.168,0,1,1-1.168,1.168A1.169,1.169,0,0,1,35.516,41.419Z" transform="translate(-27.966 -34.085)" fill="#fd9827"/>
        <path id="Trazado_155421" data-name="Trazado 155421" d="M103.357,42.587a3.191,3.191,0,1,0-3.19,3.191A3.194,3.194,0,0,0,103.357,42.587Zm-4.359,0a1.168,1.168,0,1,1,1.168,1.168A1.169,1.169,0,0,1,99,42.587Z" transform="translate(-83.9 -34.085)" fill="#fd9827"/>
        <path id="Trazado_155422" data-name="Trazado 155422" d="M35.516,189.221a3.191,3.191,0,1,0-3.191-3.191A3.194,3.194,0,0,0,35.516,189.221Zm0-4.359a1.168,1.168,0,1,1-1.168,1.168A1.169,1.169,0,0,1,35.516,184.863Z" transform="translate(-27.966 -158.187)" fill="#fd9827"/>
        <path id="Trazado_155423" data-name="Trazado 155423" d="M100.166,189.221a3.191,3.191,0,1,0-3.191-3.191A3.194,3.194,0,0,0,100.166,189.221Zm0-4.359A1.168,1.168,0,1,1,99,186.03,1.169,1.169,0,0,1,100.166,184.863Z" transform="translate(-83.899 -158.187)" fill="#fd9827"/>
        <path id="Trazado_155424" data-name="Trazado 155424" d="M35.516,326.282a3.191,3.191,0,1,0,3.191,3.191A3.194,3.194,0,0,0,35.516,326.282Zm0,4.358a1.168,1.168,0,1,1,1.168-1.168A1.169,1.169,0,0,1,35.516,330.641Z" transform="translate(-27.966 -282.288)" fill="#fd9827"/>
        <path id="Trazado_155425" data-name="Trazado 155425" d="M100.166,326.282a3.191,3.191,0,1,0,3.191,3.191A3.194,3.194,0,0,0,100.166,326.282Zm0,4.358a1.168,1.168,0,1,1,1.168-1.168A1.169,1.169,0,0,1,100.166,330.641Z" transform="translate(-83.899 -282.288)" fill="#fd9827"/>
        <path id="Trazado_155426" data-name="Trazado 155426" d="M66.662,27.513h-.35V25.528a2.376,2.376,0,0,0-2.373-2.373H61.6a1.011,1.011,0,1,0,0,2.023h2.334a.351.351,0,0,1,.351.351v1.985H44.8l-.73-2.336h12.82a1.011,1.011,0,1,0,0-2.023H44.246v-.624a3.2,3.2,0,0,0-2.86-3.173v-2.37a3.2,3.2,0,0,0,2.86-3.173V3.19A3.194,3.194,0,0,0,41.056,0H11.079a1.011,1.011,0,0,0,0,2.023H41.056A1.169,1.169,0,0,1,42.223,3.19V13.815a1.169,1.169,0,0,1-1.168,1.168H3.19a1.169,1.169,0,0,1-1.168-1.168V3.19A1.169,1.169,0,0,1,3.19,2.022H6.36A1.011,1.011,0,1,0,6.36,0H3.19A3.194,3.194,0,0,0,0,3.19V13.815a3.2,3.2,0,0,0,2.86,3.173v2.37A3.2,3.2,0,0,0,0,22.531V33.155a3.2,3.2,0,0,0,2.86,3.173V38.7A3.2,3.2,0,0,0,0,41.873V52.5a3.194,3.194,0,0,0,3.191,3.19H21.526q0,.175,0,.351a12.984,12.984,0,0,0,.2,2.273,1.011,1.011,0,0,0,1.991-.355,10.974,10.974,0,1,1,1.565,4,1.011,1.011,0,0,0-1.7,1.092,13,13,0,0,0,23.94-7.013q0-.176,0-.351H66.662a2.376,2.376,0,0,0,2.373-2.373V29.886a2.376,2.376,0,0,0-2.373-2.373ZM4.883,19.341V17.005h34.48v2.336ZM2.023,33.155V22.531a1.169,1.169,0,0,1,1.168-1.168H41.056a1.169,1.169,0,0,1,1.168,1.168v.624H32.795A2.36,2.36,0,0,0,30.53,24.82l-.842,2.693h-.619A2.376,2.376,0,0,0,26.7,29.887v4.437H3.191a1.169,1.169,0,0,1-1.168-1.168ZM26.7,36.346v2.336H4.883V36.346ZM21.739,53.664H3.191A1.169,1.169,0,0,1,2.023,52.5V41.873A1.169,1.169,0,0,1,3.191,40.7H26.7v4.96A13.015,13.015,0,0,0,21.739,53.664Zm45.274-.351a.351.351,0,0,1-.351.351H47.3a12.992,12.992,0,0,0-18.578-9.256V29.886a.351.351,0,0,1,.351-.351h1.362a1.011,1.011,0,0,0,.965-.709l1.064-3.4a.348.348,0,0,1,.334-.245h8.9a.348.348,0,0,1,.329.246l1.064,3.4a1.011,1.011,0,0,0,.965.709h22.61a.351.351,0,0,1,.351.351V53.314Z" transform="translate(0 0)" fill="#fd9827"/>
        <path id="Trazado_155427" data-name="Trazado 155427" d="M249.511,418.951a1.011,1.011,0,1,0,0,2.022,6.888,6.888,0,0,0,6.357-4.255,1.01,1.01,0,0,0,1.67-1.136l-1.31-2.034a1.012,1.012,0,0,0-1.4-.3l-2.034,1.31a1.011,1.011,0,0,0,1.048,1.728A4.86,4.86,0,0,1,249.511,418.951Z" transform="translate(-214.994 -357.387)" fill="#fd9827"/>
        <path id="Trazado_155428" data-name="Trazado 155428" d="M203.459,359.618a6.888,6.888,0,0,0-6.357,4.254,1.011,1.011,0,0,0-1.671,1.137l1.31,2.034a1.012,1.012,0,0,0,1.4.3l2.034-1.31a1.011,1.011,0,0,0-1.048-1.728,4.86,4.86,0,0,1,4.332-2.667,1.011,1.011,0,1,0,0-2.023Z" transform="translate(-168.942 -311.129)" fill="#fd9827"/>
      </g>
    </g>
  </g>
</svg>
