<svg xmlns="http://www.w3.org/2000/svg" width="387" height="170" viewBox="0 0 387 170">
  <g id="Grupo_163243" data-name="Grupo 163243" transform="translate(243 9694)">
    <path id="Trazado_155589" data-name="Trazado 155589" d="M0,0H174V41H0Z" transform="translate(-243 -9694)" fill="#c0c942"/>
    <path id="Trazado_155590" data-name="Trazado 155590" d="M0,0H211V41H0Z" transform="translate(-67 -9694)" fill="#ebc9b1"/>
    <path id="Trazado_155585" data-name="Trazado 155585" d="M0,0H174V41H0Z" transform="translate(-243 -9651)" fill="#d1d59a"/>
    <path id="Trazado_155586" data-name="Trazado 155586" d="M0,0H211V41H0Z" transform="translate(-67 -9651)" fill="#f5dece"/>
    <path id="Trazado_155591" data-name="Trazado 155591" d="M10.18,0H8.2L3.133-8.07V0H1.156V-11.375H3.133l5.086,8.1v-8.1H10.18Zm4.172,0h-1.9V-8.453h1.9ZM12.336-10.648a1.008,1.008,0,0,1,.277-.727,1.048,1.048,0,0,1,.793-.289,1.061,1.061,0,0,1,.8.289,1,1,0,0,1,.281.727.977.977,0,0,1-.281.715,1.069,1.069,0,0,1-.8.285,1.056,1.056,0,0,1-.793-.285A.984.984,0,0,1,12.336-10.648ZM19.4-2.406l1.789-6.047h1.961L20.219,0H18.57L15.617-8.453h1.969ZM27.953.156A3.928,3.928,0,0,1,25.027-.98a4.124,4.124,0,0,1-1.121-3.027v-.234A5.072,5.072,0,0,1,24.395-6.5a3.716,3.716,0,0,1,1.371-1.551,3.625,3.625,0,0,1,1.969-.555,3.318,3.318,0,0,1,2.668,1.1,4.658,4.658,0,0,1,.941,3.117v.766H25.82a2.539,2.539,0,0,0,.7,1.656,2.1,2.1,0,0,0,1.543.609,2.571,2.571,0,0,0,2.125-1.055l1.023.977A3.418,3.418,0,0,1,29.855-.262,4.244,4.244,0,0,1,27.953.156Zm-.227-7.242a1.6,1.6,0,0,0-1.262.547,2.835,2.835,0,0,0-.613,1.523h3.617v-.141A2.307,2.307,0,0,0,28.961-6.6,1.586,1.586,0,0,0,27.727-7.086ZM34.836,0h-1.9V-12h1.9Zm5.7-4.289a5.026,5.026,0,0,1,.906-3.137,2.9,2.9,0,0,1,2.43-1.184,2.759,2.759,0,0,1,2.172.938V-12h1.9V0H46.219l-.094-.875A2.8,2.8,0,0,1,43.852.156a2.887,2.887,0,0,1-2.4-1.2A5.21,5.21,0,0,1,40.531-4.289Zm1.9.164a3.519,3.519,0,0,0,.5,2.012,1.61,1.61,0,0,0,1.41.723,1.793,1.793,0,0,0,1.7-1.039V-6.039a1.766,1.766,0,0,0-1.687-1.016,1.622,1.622,0,0,0-1.422.73A3.919,3.919,0,0,0,42.43-4.125ZM53.641.156A3.928,3.928,0,0,1,50.715-.98a4.124,4.124,0,0,1-1.121-3.027v-.234A5.072,5.072,0,0,1,50.082-6.5a3.716,3.716,0,0,1,1.371-1.551,3.625,3.625,0,0,1,1.969-.555,3.318,3.318,0,0,1,2.668,1.1,4.658,4.658,0,0,1,.941,3.117v.766H51.508a2.539,2.539,0,0,0,.7,1.656,2.1,2.1,0,0,0,1.543.609,2.571,2.571,0,0,0,2.125-1.055l1.023.977A3.418,3.418,0,0,1,55.543-.262,4.244,4.244,0,0,1,53.641.156Zm-.227-7.242a1.6,1.6,0,0,0-1.262.547,2.835,2.835,0,0,0-.613,1.523h3.617v-.141A2.307,2.307,0,0,0,54.648-6.6,1.586,1.586,0,0,0,53.414-7.086ZM65.961-1.359a1.716,1.716,0,0,0,1.18-.414,1.415,1.415,0,0,0,.5-1.023H69.43a2.789,2.789,0,0,1-.492,1.473,3.228,3.228,0,0,1-1.25,1.082,3.725,3.725,0,0,1-1.7.4A3.6,3.6,0,0,1,63.172-.992a4.555,4.555,0,0,1-1.039-3.172v-.2a4.479,4.479,0,0,1,1.031-3.09,3.571,3.571,0,0,1,2.813-1.16,3.473,3.473,0,0,1,2.457.879,3.148,3.148,0,0,1,1,2.309H67.641a1.738,1.738,0,0,0-.5-1.2,1.6,1.6,0,0,0-1.184-.469,1.671,1.671,0,0,0-1.422.668,3.408,3.408,0,0,0-.508,2.027v.3a3.465,3.465,0,0,0,.5,2.051A1.669,1.669,0,0,0,65.961-1.359ZM70.508-4.3A4.984,4.984,0,0,1,71-6.543a3.6,3.6,0,0,1,1.383-1.531,3.9,3.9,0,0,1,2.047-.535,3.692,3.692,0,0,1,2.777,1.1,4.333,4.333,0,0,1,1.152,2.922l.008.445a5.029,5.029,0,0,1-.48,2.234A3.551,3.551,0,0,1,76.512-.383a3.925,3.925,0,0,1-2.066.539,3.667,3.667,0,0,1-2.863-1.191,4.563,4.563,0,0,1-1.074-3.176Zm1.9.164A3.406,3.406,0,0,0,72.945-2.1a1.752,1.752,0,0,0,1.5.738,1.733,1.733,0,0,0,1.5-.75,3.762,3.762,0,0,0,.535-2.2,3.362,3.362,0,0,0-.551-2.031,1.759,1.759,0,0,0-1.5-.75,1.743,1.743,0,0,0-1.477.738A3.691,3.691,0,0,0,72.406-4.141Zm9.328-4.312.055.977A3.039,3.039,0,0,1,84.25-8.609q2.641,0,2.688,3.023V0h-1.9V-5.477a1.741,1.741,0,0,0-.348-1.191,1.462,1.462,0,0,0-1.137-.387,1.829,1.829,0,0,0-1.711,1.039V0h-1.9V-8.453ZM89.375,0V-7.047H88.086V-8.453h1.289v-.578a3.382,3.382,0,0,1,.422-1.7,2.624,2.624,0,0,1,1.172-1.07,4.218,4.218,0,0,1,1.82-.359,5.306,5.306,0,0,1,1.2.133q.574.133,1.191.336l-.289,1.57a6.043,6.043,0,0,0-1.969-.375,1.759,1.759,0,0,0-1.258.379,1.516,1.516,0,0,0-.391,1.137v.531h1.664v1.406H91.273V0Zm6.7,0h-1.9V-8.453h1.9Zm7.156,0a2.93,2.93,0,0,1-.219-.789A2.955,2.955,0,0,1,100.8.156,2.982,2.982,0,0,1,98.719-.57a2.325,2.325,0,0,1-.8-1.8,2.4,2.4,0,0,1,1-2.074,4.865,4.865,0,0,1,2.871-.723h1.164v-.555a1.481,1.481,0,0,0-.367-1.051,1.456,1.456,0,0,0-1.117-.395,1.672,1.672,0,0,0-1.062.324,1,1,0,0,0-.414.824h-1.9a2.107,2.107,0,0,1,.461-1.3,3.071,3.071,0,0,1,1.254-.949,4.4,4.4,0,0,1,1.77-.344,3.547,3.547,0,0,1,2.367.746,2.661,2.661,0,0,1,.906,2.1v3.813a4.321,4.321,0,0,0,.32,1.82V0Zm-2.086-1.367a2.159,2.159,0,0,0,1.059-.273,1.827,1.827,0,0,0,.746-.734V-3.969H101.93a2.8,2.8,0,0,0-1.586.367,1.189,1.189,0,0,0-.531,1.039,1.109,1.109,0,0,0,.363.871A1.407,1.407,0,0,0,101.148-1.367ZM108.6-8.453l.055.977a3.039,3.039,0,0,1,2.461-1.133q2.641,0,2.688,3.023V0h-1.9V-5.477a1.741,1.741,0,0,0-.348-1.191,1.462,1.462,0,0,0-1.137-.387,1.829,1.829,0,0,0-1.711,1.039V0h-1.9V-8.453Zm9.164,6.938h4.5V0h-6.859V-1.242l4.289-5.68h-4.211V-8.453H122.1v1.2ZM128.836,0a2.93,2.93,0,0,1-.219-.789A2.955,2.955,0,0,1,126.4.156,2.982,2.982,0,0,1,124.32-.57a2.325,2.325,0,0,1-.8-1.8,2.4,2.4,0,0,1,1-2.074,4.865,4.865,0,0,1,2.871-.723h1.164v-.555a1.481,1.481,0,0,0-.367-1.051,1.456,1.456,0,0,0-1.117-.395,1.672,1.672,0,0,0-1.062.324,1,1,0,0,0-.414.824h-1.9a2.107,2.107,0,0,1,.461-1.3,3.071,3.071,0,0,1,1.254-.949,4.4,4.4,0,0,1,1.77-.344,3.547,3.547,0,0,1,2.367.746,2.661,2.661,0,0,1,.906,2.1v3.813a4.321,4.321,0,0,0,.32,1.82V0ZM126.75-1.367a2.159,2.159,0,0,0,1.059-.273,1.827,1.827,0,0,0,.746-.734V-3.969h-1.023a2.8,2.8,0,0,0-1.586.367,1.189,1.189,0,0,0-.531,1.039,1.109,1.109,0,0,0,.363.871A1.407,1.407,0,0,0,126.75-1.367Z" transform="translate(-228 -9668)" fill="#12263f"/>
    <path id="Trazado_155592" data-name="Trazado 155592" d="M3.133-4.227V0H1.156V-11.375H5.508a4.4,4.4,0,0,1,3.027.992A3.334,3.334,0,0,1,9.656-7.758a3.224,3.224,0,0,1-1.1,2.6,4.617,4.617,0,0,1-3.074.93Zm0-1.586H5.508a2.339,2.339,0,0,0,1.609-.5,1.823,1.823,0,0,0,.555-1.434,1.967,1.967,0,0,0-.562-1.473,2.168,2.168,0,0,0-1.547-.566H3.133ZM16.32-.828a2.944,2.944,0,0,1-2.375.984,2.624,2.624,0,0,1-2.082-.8,3.423,3.423,0,0,1-.707-2.328V-8.453h1.9V-3q0,1.609,1.336,1.609a1.876,1.876,0,0,0,1.867-.992v-6.07h1.9V0H16.367Zm5.531-7.625.055.977a3.039,3.039,0,0,1,2.461-1.133q2.641,0,2.688,3.023V0h-1.9V-5.477a1.741,1.741,0,0,0-.348-1.191,1.462,1.462,0,0,0-1.137-.387,1.829,1.829,0,0,0-1.711,1.039V0h-1.9V-8.453Zm9.516-2.055v2.055h1.492v1.406H31.367v4.719a1.039,1.039,0,0,0,.191.7.888.888,0,0,0,.684.215,2.924,2.924,0,0,0,.664-.078V-.023a4.676,4.676,0,0,1-1.25.18q-2.188,0-2.187-2.414V-7.047H28.078V-8.453h1.391v-2.055ZM39.43-.828a2.944,2.944,0,0,1-2.375.984,2.624,2.624,0,0,1-2.082-.8,3.423,3.423,0,0,1-.707-2.328V-8.453h1.9V-3q0,1.609,1.336,1.609a1.876,1.876,0,0,0,1.867-.992v-6.07h1.9V0H39.477ZM48.25,0a2.93,2.93,0,0,1-.219-.789,2.955,2.955,0,0,1-2.219.945A2.982,2.982,0,0,1,43.734-.57a2.325,2.325,0,0,1-.8-1.8,2.4,2.4,0,0,1,1-2.074A4.865,4.865,0,0,1,46.8-5.164h1.164v-.555A1.481,1.481,0,0,0,47.6-6.77a1.456,1.456,0,0,0-1.117-.395,1.672,1.672,0,0,0-1.062.324,1,1,0,0,0-.414.824h-1.9a2.107,2.107,0,0,1,.461-1.3,3.071,3.071,0,0,1,1.254-.949,4.4,4.4,0,0,1,1.77-.344,3.547,3.547,0,0,1,2.367.746,2.661,2.661,0,0,1,.906,2.1v3.813a4.321,4.321,0,0,0,.32,1.82V0ZM46.164-1.367a2.16,2.16,0,0,0,1.059-.273,1.827,1.827,0,0,0,.746-.734V-3.969H46.945a2.8,2.8,0,0,0-1.586.367,1.189,1.189,0,0,0-.531,1.039,1.109,1.109,0,0,0,.363.871A1.407,1.407,0,0,0,46.164-1.367Zm9.164.008a1.716,1.716,0,0,0,1.18-.414,1.415,1.415,0,0,0,.5-1.023H58.8A2.789,2.789,0,0,1,58.3-1.324a3.228,3.228,0,0,1-1.25,1.082,3.725,3.725,0,0,1-1.7.4A3.6,3.6,0,0,1,52.539-.992,4.555,4.555,0,0,1,51.5-4.164v-.2a4.479,4.479,0,0,1,1.031-3.09,3.571,3.571,0,0,1,2.813-1.16A3.473,3.473,0,0,1,57.8-7.73a3.148,3.148,0,0,1,1,2.309H57.008a1.738,1.738,0,0,0-.5-1.2,1.6,1.6,0,0,0-1.184-.469,1.671,1.671,0,0,0-1.422.668A3.408,3.408,0,0,0,53.4-4.391v.3a3.465,3.465,0,0,0,.5,2.051A1.669,1.669,0,0,0,55.328-1.359ZM62.25,0h-1.9V-8.453h1.9ZM60.234-10.648a1.008,1.008,0,0,1,.277-.727,1.048,1.048,0,0,1,.793-.289,1.061,1.061,0,0,1,.8.289,1,1,0,0,1,.281.727.977.977,0,0,1-.281.715,1.069,1.069,0,0,1-.8.285,1.056,1.056,0,0,1-.793-.285A.984.984,0,0,1,60.234-10.648ZM63.961-4.3a4.984,4.984,0,0,1,.492-2.238,3.6,3.6,0,0,1,1.383-1.531,3.9,3.9,0,0,1,2.047-.535,3.692,3.692,0,0,1,2.777,1.1,4.333,4.333,0,0,1,1.152,2.922l.008.445a5.029,5.029,0,0,1-.48,2.234A3.551,3.551,0,0,1,69.965-.383,3.925,3.925,0,0,1,67.9.156a3.667,3.667,0,0,1-2.863-1.191,4.563,4.563,0,0,1-1.074-3.176Zm1.9.164A3.406,3.406,0,0,0,66.4-2.1a1.752,1.752,0,0,0,1.5.738,1.733,1.733,0,0,0,1.5-.75,3.762,3.762,0,0,0,.535-2.2,3.362,3.362,0,0,0-.551-2.031,1.759,1.759,0,0,0-1.5-.75,1.743,1.743,0,0,0-1.477.738A3.691,3.691,0,0,0,65.859-4.141ZM68.406-12H70.57L68.406-9.633H66.883Zm6.781,3.547.055.977A3.039,3.039,0,0,1,77.7-8.609q2.641,0,2.688,3.023V0h-1.9V-5.477a1.741,1.741,0,0,0-.348-1.191,1.462,1.462,0,0,0-1.137-.387A1.829,1.829,0,0,0,75.3-6.016V0H73.4V-8.453ZM93.141-5.078H88.469v3.5H93.93V0H86.492V-11.375h7.383v1.594H88.469v3.141h4.672ZM100.094-2.3a.861.861,0,0,0-.418-.773,4.445,4.445,0,0,0-1.387-.469,7.129,7.129,0,0,1-1.617-.516A2.158,2.158,0,0,1,95.25-6.047a2.25,2.25,0,0,1,.922-1.828,3.644,3.644,0,0,1,2.344-.734,3.792,3.792,0,0,1,2.449.75,2.38,2.38,0,0,1,.934,1.945H100a1.17,1.17,0,0,0-.406-.91,1.557,1.557,0,0,0-1.078-.363A1.682,1.682,0,0,0,97.5-6.9a.911.911,0,0,0-.395.773.769.769,0,0,0,.367.68,5.049,5.049,0,0,0,1.484.488,7.027,7.027,0,0,1,1.754.586,2.484,2.484,0,0,1,.945.816,2.082,2.082,0,0,1,.309,1.156,2.2,2.2,0,0,1-.945,1.848,4.031,4.031,0,0,1-2.477.707,4.371,4.371,0,0,1-1.852-.375A3.047,3.047,0,0,1,95.422-1.25a2.441,2.441,0,0,1-.453-1.414h1.844a1.338,1.338,0,0,0,.508,1.035,1.973,1.973,0,0,0,1.242.363A1.92,1.92,0,0,0,99.7-1.551.883.883,0,0,0,100.094-2.3Zm5.9-8.211v2.055h1.492v1.406h-1.492v4.719a1.039,1.039,0,0,0,.191.7.888.888,0,0,0,.684.215,2.924,2.924,0,0,0,.664-.078V-.023a4.676,4.676,0,0,1-1.25.18q-2.188,0-2.187-2.414V-7.047H102.7V-8.453h1.391v-2.055ZM113.984,0a2.93,2.93,0,0,1-.219-.789,2.955,2.955,0,0,1-2.219.945,2.982,2.982,0,0,1-2.078-.727,2.325,2.325,0,0,1-.8-1.8,2.4,2.4,0,0,1,1-2.074,4.865,4.865,0,0,1,2.871-.723H113.7v-.555a1.481,1.481,0,0,0-.367-1.051,1.456,1.456,0,0,0-1.117-.395,1.672,1.672,0,0,0-1.062.324,1,1,0,0,0-.414.824h-1.9a2.107,2.107,0,0,1,.461-1.3,3.071,3.071,0,0,1,1.254-.949,4.4,4.4,0,0,1,1.77-.344,3.547,3.547,0,0,1,2.367.746,2.661,2.661,0,0,1,.906,2.1v3.813a4.321,4.321,0,0,0,.32,1.82V0ZM111.9-1.367a2.159,2.159,0,0,0,1.059-.273,1.827,1.827,0,0,0,.746-.734V-3.969H112.68a2.8,2.8,0,0,0-1.586.367,1.189,1.189,0,0,0-.531,1.039,1.109,1.109,0,0,0,.363.871A1.407,1.407,0,0,0,111.9-1.367ZM112.953-12h2.164l-2.164,2.367H111.43Zm6.4,3.547.055.977a3.039,3.039,0,0,1,2.461-1.133q2.641,0,2.688,3.023V0h-1.9V-5.477a1.741,1.741,0,0,0-.348-1.191,1.462,1.462,0,0,0-1.137-.387,1.829,1.829,0,0,0-1.711,1.039V0h-1.9V-8.453Zm6.781,4.164a5.026,5.026,0,0,1,.906-3.137,2.9,2.9,0,0,1,2.43-1.184,2.759,2.759,0,0,1,2.172.938V-12h1.9V0H131.82l-.094-.875A2.8,2.8,0,0,1,129.453.156a2.887,2.887,0,0,1-2.4-1.2A5.21,5.21,0,0,1,126.133-4.289Zm1.9.164a3.519,3.519,0,0,0,.5,2.012,1.61,1.61,0,0,0,1.41.723,1.793,1.793,0,0,0,1.7-1.039V-6.039a1.766,1.766,0,0,0-1.687-1.016,1.622,1.622,0,0,0-1.422.73A3.919,3.919,0,0,0,128.031-4.125ZM140.57,0a2.93,2.93,0,0,1-.219-.789,2.955,2.955,0,0,1-2.219.945,2.982,2.982,0,0,1-2.078-.727,2.325,2.325,0,0,1-.8-1.8,2.4,2.4,0,0,1,1-2.074,4.865,4.865,0,0,1,2.871-.723h1.164v-.555a1.481,1.481,0,0,0-.367-1.051,1.456,1.456,0,0,0-1.117-.395,1.672,1.672,0,0,0-1.062.324,1,1,0,0,0-.414.824h-1.9a2.107,2.107,0,0,1,.461-1.3,3.071,3.071,0,0,1,1.254-.949,4.4,4.4,0,0,1,1.77-.344,3.547,3.547,0,0,1,2.367.746,2.661,2.661,0,0,1,.906,2.1v3.813a4.321,4.321,0,0,0,.32,1.82V0Zm-2.086-1.367a2.16,2.16,0,0,0,1.059-.273,1.827,1.827,0,0,0,.746-.734V-3.969h-1.023a2.8,2.8,0,0,0-1.586.367,1.189,1.189,0,0,0-.531,1.039,1.109,1.109,0,0,0,.363.871A1.407,1.407,0,0,0,138.484-1.367ZM148.6-6.719a4.7,4.7,0,0,0-.773-.062,1.741,1.741,0,0,0-1.758,1V0h-1.9V-8.453h1.813l.047.945a2.139,2.139,0,0,1,1.906-1.1,1.777,1.777,0,0,1,.672.109Zm5.211,2.094a11.9,11.9,0,0,1,.484-3.426,9.4,9.4,0,0,1,1.422-2.9,5.646,5.646,0,0,1,1.984-1.793l.375,1.109a5.8,5.8,0,0,0-1.785,2.551,11.424,11.424,0,0,0-.746,3.926l-.008.672a12.42,12.42,0,0,0,.668,4.223,6.224,6.224,0,0,0,1.871,2.824L157.7,3.617a5.655,5.655,0,0,1-1.988-1.8,9.4,9.4,0,0,1-1.422-2.9A12.374,12.374,0,0,1,153.813-4.625Zm7.594,3.047h6.078V0h-8.469V-1.281l5.883-8.5h-5.844v-1.594H167.3v1.25ZM172.656-4.5a11.755,11.755,0,0,1-.477,3.348,9.485,9.485,0,0,1-1.445,2.938,5.66,5.66,0,0,1-2.023,1.832l-.375-1.055a6,6,0,0,0,1.855-2.77,12.3,12.3,0,0,0,.684-4.254v-.18a12.484,12.484,0,0,0-.594-3.957,6.98,6.98,0,0,0-1.7-2.863l-.242-.219.375-1.062a5.6,5.6,0,0,1,1.938,1.719,9.326,9.326,0,0,1,1.438,2.762,11.5,11.5,0,0,1,.563,3.152Z" transform="translate(-48 -9668)" fill="#12263f"/>
    <path id="Trazado_155587" data-name="Trazado 155587" d="M6.234-4.758A2.973,2.973,0,0,1,4.008-3.75,2.974,2.974,0,0,1,1.617-4.8,4.126,4.126,0,0,1,.727-7.562,4.528,4.528,0,0,1,1.18-9.6a3.379,3.379,0,0,1,1.289-1.422,3.657,3.657,0,0,1,1.938-.508A3.286,3.286,0,0,1,7.133-10.25,5.4,5.4,0,0,1,8.141-6.82v.531a7.009,7.009,0,0,1-1.391,4.7A5.235,5.235,0,0,1,2.6.047H2.375v-1.57h.273a3.887,3.887,0,0,0,2.578-.809A3.371,3.371,0,0,0,6.234-4.758ZM4.406-5.234a1.916,1.916,0,0,0,1.07-.328,2.162,2.162,0,0,0,.773-.906v-.742a3.564,3.564,0,0,0-.516-2.023A1.553,1.553,0,0,0,4.4-10a1.535,1.535,0,0,0-1.309.676A2.841,2.841,0,0,0,2.6-7.617a2.806,2.806,0,0,0,.492,1.727A1.559,1.559,0,0,0,4.406-5.234Zm12.953.445a6.2,6.2,0,0,1-.918,3.7A3.242,3.242,0,0,1,13.648.156a3.285,3.285,0,0,1-2.777-1.215,5.94,5.94,0,0,1-.957-3.6V-6.625a6.11,6.11,0,0,1,.918-3.68,3.272,3.272,0,0,1,2.8-1.227,3.291,3.291,0,0,1,2.785,1.2,5.924,5.924,0,0,1,.941,3.578Zm-1.9-2.125a4.813,4.813,0,0,0-.437-2.348,1.493,1.493,0,0,0-1.391-.746,1.492,1.492,0,0,0-1.367.707A4.448,4.448,0,0,0,11.8-7.094v2.578a4.937,4.937,0,0,0,.445,2.375,1.5,1.5,0,0,0,1.4.781A1.469,1.469,0,0,0,15-2.082a4.645,4.645,0,0,0,.461-2.262Zm7.484-2.273a2.283,2.283,0,0,1,.664-1.691,2.363,2.363,0,0,1,1.742-.66,2.371,2.371,0,0,1,1.754.66,2.34,2.34,0,0,1,.66,1.73v.563a2.267,2.267,0,0,1-.66,1.68,2.358,2.358,0,0,1-1.738.656,2.433,2.433,0,0,1-1.738-.645,2.275,2.275,0,0,1-.684-1.738Zm1.328.6a1.248,1.248,0,0,0,.3.871,1.019,1.019,0,0,0,.793.332,1,1,0,0,0,.781-.332,1.3,1.3,0,0,0,.3-.9v-.57a1.262,1.262,0,0,0-.3-.875,1.013,1.013,0,0,0-.793-.336.984.984,0,0,0-.785.34,1.322,1.322,0,0,0-.293.895Zm4.141,5.8a2.236,2.236,0,0,1,.68-1.7,2.411,2.411,0,0,1,1.734-.648,2.407,2.407,0,0,1,1.738.648,2.312,2.312,0,0,1,.676,1.75v.555A2.285,2.285,0,0,1,32.59-.5a2.344,2.344,0,0,1-1.746.66A2.413,2.413,0,0,1,29.082-.5a2.3,2.3,0,0,1-.668-1.723Zm1.328.609a1.246,1.246,0,0,0,.309.871,1.023,1.023,0,0,0,.793.34.991.991,0,0,0,.785-.324,1.333,1.333,0,0,0,.285-.91v-.586a1.235,1.235,0,0,0-.3-.875,1.019,1.019,0,0,0-.781-.328,1.015,1.015,0,0,0-.785.328,1.291,1.291,0,0,0-.3.906ZM25.758-.852l-.977-.562L30.336-10.3l.977.563Z" transform="translate(-173 -9624)" fill="#12263f"/>
    <path id="Trazado_155581" data-name="Trazado 155581" d="M0,0H174V41H0Z" transform="translate(-243 -9608)" fill="#e8eac6"/>
    <path id="Trazado_155582" data-name="Trazado 155582" d="M0,0H211V41H0Z" transform="translate(-67 -9608)" fill="#e2cbbc"/>
    <path id="Trazado_155583" data-name="Trazado 155583" d="M6.234-4.758A2.973,2.973,0,0,1,4.008-3.75,2.974,2.974,0,0,1,1.617-4.8,4.126,4.126,0,0,1,.727-7.562,4.528,4.528,0,0,1,1.18-9.6a3.379,3.379,0,0,1,1.289-1.422,3.657,3.657,0,0,1,1.938-.508A3.286,3.286,0,0,1,7.133-10.25,5.4,5.4,0,0,1,8.141-6.82v.531a7.009,7.009,0,0,1-1.391,4.7A5.235,5.235,0,0,1,2.6.047H2.375v-1.57h.273a3.887,3.887,0,0,0,2.578-.809A3.371,3.371,0,0,0,6.234-4.758ZM4.406-5.234a1.916,1.916,0,0,0,1.07-.328,2.162,2.162,0,0,0,.773-.906v-.742a3.564,3.564,0,0,0-.516-2.023A1.553,1.553,0,0,0,4.4-10a1.535,1.535,0,0,0-1.309.676A2.841,2.841,0,0,0,2.6-7.617a2.806,2.806,0,0,0,.492,1.727A1.559,1.559,0,0,0,4.406-5.234Zm6.047-.406.617-5.734H17.18v1.641H12.648l-.312,2.719a3.512,3.512,0,0,1,1.781-.453A3.169,3.169,0,0,1,16.645-6.43a4.118,4.118,0,0,1,.9,2.8,3.79,3.79,0,0,1-1,2.762A3.65,3.65,0,0,1,13.8.156a3.822,3.822,0,0,1-2.59-.887A3.206,3.206,0,0,1,10.1-3.07h1.836a2,2,0,0,0,.594,1.27,1.806,1.806,0,0,0,1.266.441,1.632,1.632,0,0,0,1.363-.625,2.7,2.7,0,0,0,.488-1.7,2.384,2.384,0,0,0-.539-1.645,1.885,1.885,0,0,0-1.484-.605,2.469,2.469,0,0,0-.875.137,2.478,2.478,0,0,0-.781.535Zm8.508-3.547a2.283,2.283,0,0,1,.664-1.691,2.363,2.363,0,0,1,1.742-.66,2.371,2.371,0,0,1,1.754.66,2.34,2.34,0,0,1,.66,1.73v.563a2.267,2.267,0,0,1-.66,1.68,2.358,2.358,0,0,1-1.738.656,2.433,2.433,0,0,1-1.738-.645,2.275,2.275,0,0,1-.684-1.738Zm1.328.6a1.248,1.248,0,0,0,.3.871,1.019,1.019,0,0,0,.793.332,1,1,0,0,0,.781-.332,1.3,1.3,0,0,0,.3-.9v-.57a1.262,1.262,0,0,0-.3-.875,1.013,1.013,0,0,0-.793-.336.984.984,0,0,0-.785.34,1.322,1.322,0,0,0-.293.895Zm4.141,5.8a2.236,2.236,0,0,1,.68-1.7,2.411,2.411,0,0,1,1.734-.648,2.407,2.407,0,0,1,1.738.648,2.312,2.312,0,0,1,.676,1.75v.555A2.285,2.285,0,0,1,28.605-.5a2.344,2.344,0,0,1-1.746.66A2.413,2.413,0,0,1,25.1-.5a2.3,2.3,0,0,1-.668-1.723Zm1.328.609a1.246,1.246,0,0,0,.309.871,1.023,1.023,0,0,0,.793.34.991.991,0,0,0,.785-.324,1.333,1.333,0,0,0,.285-.91v-.586a1.235,1.235,0,0,0-.3-.875,1.019,1.019,0,0,0-.781-.328,1.015,1.015,0,0,0-.785.328,1.291,1.291,0,0,0-.3.906ZM21.773-.852,20.8-1.414,26.352-10.3l.977.563Z" transform="translate(-173 -9584)" fill="#12263f"/>
    <path id="Trazado_155577" data-name="Trazado 155577" d="M0,0H174V41H0Z" transform="translate(-243 -9565)" fill="#d1d59a"/>
    <path id="Trazado_155578" data-name="Trazado 155578" d="M0,0H211V41H0Z" transform="translate(-67 -9565)" fill="#f5dece"/>
    <path id="Trazado_155579" data-name="Trazado 155579" d="M6.234-4.758A2.973,2.973,0,0,1,4.008-3.75,2.974,2.974,0,0,1,1.617-4.8,4.126,4.126,0,0,1,.727-7.562,4.528,4.528,0,0,1,1.18-9.6a3.379,3.379,0,0,1,1.289-1.422,3.657,3.657,0,0,1,1.938-.508A3.286,3.286,0,0,1,7.133-10.25,5.4,5.4,0,0,1,8.141-6.82v.531a7.009,7.009,0,0,1-1.391,4.7A5.235,5.235,0,0,1,2.6.047H2.375v-1.57h.273a3.887,3.887,0,0,0,2.578-.809A3.371,3.371,0,0,0,6.234-4.758ZM4.406-5.234a1.916,1.916,0,0,0,1.07-.328,2.162,2.162,0,0,0,.773-.906v-.742a3.564,3.564,0,0,0-.516-2.023A1.553,1.553,0,0,0,4.4-10a1.535,1.535,0,0,0-1.309.676A2.841,2.841,0,0,0,2.6-7.617a2.806,2.806,0,0,0,.492,1.727A1.559,1.559,0,0,0,4.406-5.234Zm10.922.477A2.973,2.973,0,0,1,13.1-3.75,2.974,2.974,0,0,1,10.711-4.8,4.126,4.126,0,0,1,9.82-7.562,4.528,4.528,0,0,1,10.273-9.6a3.379,3.379,0,0,1,1.289-1.422,3.657,3.657,0,0,1,1.938-.508,3.286,3.286,0,0,1,2.727,1.281,5.4,5.4,0,0,1,1.008,3.43v.531a7.009,7.009,0,0,1-1.391,4.7A5.235,5.235,0,0,1,11.7.047h-.227v-1.57h.273a3.887,3.887,0,0,0,2.578-.809A3.371,3.371,0,0,0,15.328-4.758ZM13.5-5.234a1.916,1.916,0,0,0,1.07-.328,2.162,2.162,0,0,0,.773-.906v-.742a3.564,3.564,0,0,0-.516-2.023A1.553,1.553,0,0,0,13.492-10a1.535,1.535,0,0,0-1.309.676A2.841,2.841,0,0,0,11.7-7.617a2.806,2.806,0,0,0,.492,1.727A1.559,1.559,0,0,0,13.5-5.234Zm5.461-3.953a2.283,2.283,0,0,1,.664-1.691,2.363,2.363,0,0,1,1.742-.66,2.371,2.371,0,0,1,1.754.66,2.34,2.34,0,0,1,.66,1.73v.563a2.267,2.267,0,0,1-.66,1.68,2.358,2.358,0,0,1-1.738.656,2.433,2.433,0,0,1-1.738-.645,2.275,2.275,0,0,1-.684-1.738Zm1.328.6a1.248,1.248,0,0,0,.3.871,1.019,1.019,0,0,0,.793.332,1,1,0,0,0,.781-.332,1.3,1.3,0,0,0,.3-.9v-.57a1.262,1.262,0,0,0-.3-.875,1.013,1.013,0,0,0-.793-.336.984.984,0,0,0-.785.34,1.322,1.322,0,0,0-.293.895Zm4.141,5.8a2.236,2.236,0,0,1,.68-1.7,2.411,2.411,0,0,1,1.734-.648,2.407,2.407,0,0,1,1.738.648,2.312,2.312,0,0,1,.676,1.75v.555A2.285,2.285,0,0,1,28.605-.5a2.344,2.344,0,0,1-1.746.66A2.413,2.413,0,0,1,25.1-.5a2.3,2.3,0,0,1-.668-1.723Zm1.328.609a1.246,1.246,0,0,0,.309.871,1.023,1.023,0,0,0,.793.34.991.991,0,0,0,.785-.324,1.333,1.333,0,0,0,.285-.91v-.586a1.235,1.235,0,0,0-.3-.875,1.019,1.019,0,0,0-.781-.328,1.015,1.015,0,0,0-.785.328,1.291,1.291,0,0,0-.3.906ZM21.773-.852,20.8-1.414,26.352-10.3l.977.563Z" transform="translate(-173 -9540)" fill="#12263f"/>
    <path id="Trazado_155588" data-name="Trazado 155588" d="M5.992,0H4.1V-9.133L1.313-8.18v-1.6L5.75-11.414h.242ZM11.25-2a1.084,1.084,0,0,1,.82.3,1.045,1.045,0,0,1,.289.754,1.008,1.008,0,0,1-.289.738,1.1,1.1,0,0,1-.82.293,1.1,1.1,0,0,1-.8-.289.991.991,0,0,1-.3-.742,1.045,1.045,0,0,1,.289-.754A1.074,1.074,0,0,1,11.25-2Zm9.07-9.43v1.57h-.234a3.768,3.768,0,0,0-2.547.875A3.661,3.661,0,0,0,16.406-6.57a3.083,3.083,0,0,1,2.336-.961,2.912,2.912,0,0,1,2.379,1.063,4.185,4.185,0,0,1,.871,2.742,3.912,3.912,0,0,1-1.02,2.809A3.519,3.519,0,0,1,18.3.156,3.438,3.438,0,0,1,15.535-1.1a4.948,4.948,0,0,1-1.059-3.3v-.648a6.962,6.962,0,0,1,1.457-4.687,5.224,5.224,0,0,1,4.191-1.7ZM18.281-6a2,2,0,0,0-1.145.352,2.055,2.055,0,0,0-.762.938v.578a3.405,3.405,0,0,0,.531,2.012,1.62,1.62,0,0,0,1.375.746,1.6,1.6,0,0,0,1.336-.633,2.635,2.635,0,0,0,.492-1.664,2.673,2.673,0,0,0-.5-1.68A1.594,1.594,0,0,0,18.281-6ZM29.93-4.055h1.414v1.523H29.93V0h-1.9V-2.531H23.117l-.055-1.156,4.906-7.687H29.93Zm-4.875,0h2.977V-8.8l-.141.25Zm8.055-1.586.617-5.734h6.109v1.641H35.3l-.312,2.719a3.512,3.512,0,0,1,1.781-.453A3.169,3.169,0,0,1,39.3-6.43a4.118,4.118,0,0,1,.9,2.8,3.79,3.79,0,0,1-1,2.762A3.65,3.65,0,0,1,36.461.156a3.822,3.822,0,0,1-2.59-.887,3.206,3.206,0,0,1-1.113-2.34h1.836a2,2,0,0,0,.594,1.27,1.806,1.806,0,0,0,1.266.441,1.632,1.632,0,0,0,1.363-.625,2.7,2.7,0,0,0,.488-1.7,2.384,2.384,0,0,0-.539-1.645,1.885,1.885,0,0,0-1.484-.605,2.469,2.469,0,0,0-.875.137,2.478,2.478,0,0,0-.781.535Z" transform="translate(22 -9624)" fill="#12263f"/>
    <path id="Trazado_155584" data-name="Trazado 155584" d="M5.992,0H4.1V-9.133L1.313-8.18v-1.6L5.75-11.414h.242ZM11.25-2a1.084,1.084,0,0,1,.82.3,1.045,1.045,0,0,1,.289.754,1.008,1.008,0,0,1-.289.738,1.1,1.1,0,0,1-.82.293,1.1,1.1,0,0,1-.8-.289.991.991,0,0,1-.3-.742,1.045,1.045,0,0,1,.289-.754A1.074,1.074,0,0,1,11.25-2ZM19.8-4.758A2.973,2.973,0,0,1,17.57-3.75,2.974,2.974,0,0,1,15.18-4.8a4.126,4.126,0,0,1-.891-2.762A4.528,4.528,0,0,1,14.742-9.6a3.379,3.379,0,0,1,1.289-1.422,3.657,3.657,0,0,1,1.938-.508A3.286,3.286,0,0,1,20.7-10.25,5.4,5.4,0,0,1,21.7-6.82v.531a7.009,7.009,0,0,1-1.391,4.7A5.235,5.235,0,0,1,16.164.047h-.227v-1.57h.273a3.887,3.887,0,0,0,2.578-.809A3.371,3.371,0,0,0,19.8-4.758Zm-1.828-.477a1.916,1.916,0,0,0,1.07-.328,2.162,2.162,0,0,0,.773-.906v-.742A3.564,3.564,0,0,0,19.3-9.234,1.553,1.553,0,0,0,17.961-10a1.535,1.535,0,0,0-1.309.676,2.841,2.841,0,0,0-.488,1.707,2.806,2.806,0,0,0,.492,1.727A1.559,1.559,0,0,0,17.969-5.234Zm11.445-6.2v1.57H29.18a3.768,3.768,0,0,0-2.547.875A3.661,3.661,0,0,0,25.5-6.57a3.083,3.083,0,0,1,2.336-.961,2.912,2.912,0,0,1,2.379,1.063,4.185,4.185,0,0,1,.871,2.742,3.912,3.912,0,0,1-1.02,2.809A3.519,3.519,0,0,1,27.391.156,3.438,3.438,0,0,1,24.629-1.1,4.948,4.948,0,0,1,23.57-4.4v-.648a6.962,6.962,0,0,1,1.457-4.687,5.224,5.224,0,0,1,4.191-1.7ZM27.375-6a2,2,0,0,0-1.145.352,2.055,2.055,0,0,0-.762.938v.578A3.405,3.405,0,0,0,26-2.121a1.62,1.62,0,0,0,1.375.746,1.6,1.6,0,0,0,1.336-.633A2.635,2.635,0,0,0,29.2-3.672a2.673,2.673,0,0,0-.5-1.68A1.594,1.594,0,0,0,27.375-6Z" transform="translate(22 -9584)" fill="#12263f"/>
    <path id="Trazado_155580" data-name="Trazado 155580" d="M8.5,0H.852V-1.3L4.641-5.437A9.436,9.436,0,0,0,5.809-6.965,2.475,2.475,0,0,0,6.156-8.2,1.87,1.87,0,0,0,5.7-9.508a1.585,1.585,0,0,0-1.23-.5,1.827,1.827,0,0,0-1.43.563,2.212,2.212,0,0,0-.508,1.539H.633a3.721,3.721,0,0,1,.473-1.871A3.255,3.255,0,0,1,2.457-11.07a4.3,4.3,0,0,1,2.027-.461A3.848,3.848,0,0,1,7.1-10.7a2.888,2.888,0,0,1,.957,2.3,3.9,3.9,0,0,1-.48,1.785A10.151,10.151,0,0,1,6-4.492L3.219-1.516H8.5Zm2.75-2a1.084,1.084,0,0,1,.82.3,1.045,1.045,0,0,1,.289.754,1.008,1.008,0,0,1-.289.738,1.1,1.1,0,0,1-.82.293,1.1,1.1,0,0,1-.8-.289.991.991,0,0,1-.3-.742,1.045,1.045,0,0,1,.289-.754A1.074,1.074,0,0,1,11.25-2Zm3.672-3.641.617-5.734h6.109v1.641H17.117L16.8-7.016a3.512,3.512,0,0,1,1.781-.453A3.169,3.169,0,0,1,21.113-6.43a4.118,4.118,0,0,1,.9,2.8,3.79,3.79,0,0,1-1,2.762A3.65,3.65,0,0,1,18.273.156a3.822,3.822,0,0,1-2.59-.887A3.206,3.206,0,0,1,14.57-3.07h1.836A2,2,0,0,0,17-1.8a1.806,1.806,0,0,0,1.266.441,1.632,1.632,0,0,0,1.363-.625,2.7,2.7,0,0,0,.488-1.7,2.384,2.384,0,0,0-.539-1.645,1.885,1.885,0,0,0-1.484-.605,2.469,2.469,0,0,0-.875.137,2.478,2.478,0,0,0-.781.535Zm16.156-4.68L26.531,0H24.539l4.539-9.852H23.2v-1.523h7.883Zm7.43-1.109v1.57h-.234a3.768,3.768,0,0,0-2.547.875A3.661,3.661,0,0,0,34.594-6.57a3.083,3.083,0,0,1,2.336-.961,2.912,2.912,0,0,1,2.379,1.063,4.185,4.185,0,0,1,.871,2.742A3.912,3.912,0,0,1,39.16-.918,3.519,3.519,0,0,1,36.484.156,3.438,3.438,0,0,1,33.723-1.1a4.948,4.948,0,0,1-1.059-3.3v-.648a6.962,6.962,0,0,1,1.457-4.687,5.224,5.224,0,0,1,4.191-1.7ZM36.469-6a2,2,0,0,0-1.145.352,2.055,2.055,0,0,0-.762.938v.578a3.405,3.405,0,0,0,.531,2.012,1.62,1.62,0,0,0,1.375.746A1.6,1.6,0,0,0,37.8-2.008,2.635,2.635,0,0,0,38.3-3.672a2.673,2.673,0,0,0-.5-1.68A1.594,1.594,0,0,0,36.469-6Z" transform="translate(22 -9540)" fill="#12263f"/>
  </g>
</svg>
