<svg xmlns="http://www.w3.org/2000/svg" width="92" height="92" viewBox="0 0 92 92">
  <g id="Grupo_163126" data-name="Grupo 163126" transform="translate(-746.912 -4110.184)">
    <rect id="Rectángulo_35525" data-name="Rectángulo 35525" width="92" height="92" transform="translate(746.912 4110.184)" fill="none"/>
    <g id="apoyo" transform="translate(764.826 4125.813)">
      <g id="Grupo_162497" data-name="Grupo 162497" transform="translate(5.034)">
        <g id="Grupo_162496" data-name="Grupo 162496">
          <path id="Trazado_154937" data-name="Trazado 154937" d="M55.1,0A15.1,15.1,0,0,0,40,15.1V26.175a7.055,7.055,0,0,0,7.047,7.047h1.007V31.208H47.047a5.04,5.04,0,0,1-5.034-5.034V15.1a13.087,13.087,0,1,1,26.175,0V26.175a5.04,5.04,0,0,1-5.034,5.034H62.148v2.013h1.007A7.055,7.055,0,0,0,70.2,26.175V15.1A15.1,15.1,0,0,0,55.1,0Z" transform="translate(-40)" fill="#fd9827"/>
        </g>
      </g>
      <g id="Grupo_162499" data-name="Grupo 162499" transform="translate(5.034 45.208)">
        <g id="Grupo_162498" data-name="Grupo 162498">
          <path id="Trazado_154938" data-name="Trazado 154938" d="M43.265,361.486,44,360.327l-1.7-1.079-.736,1.16a10.035,10.035,0,0,0,.416,11.359v2.677h2.013v-3.02a1.007,1.007,0,0,0-.22-.629A8.02,8.02,0,0,1,43.265,361.486Z" transform="translate(-40.003 -359.248)" fill="#fd9827"/>
        </g>
      </g>
      <g id="Grupo_162501" data-name="Grupo 162501" transform="translate(37.249)">
        <g id="Grupo_162500" data-name="Grupo 162500">
          <path id="Trazado_154939" data-name="Trazado 154939" d="M314.121,0H301.034A5.04,5.04,0,0,0,296,5.034V15.1a5.04,5.04,0,0,0,5.034,5.034h2.013v4.027a1.007,1.007,0,0,0,.621.93.994.994,0,0,0,.386.077,1.007,1.007,0,0,0,.712-.295l4.739-4.739h4.617a5.04,5.04,0,0,0,5.034-5.034V5.034A5.04,5.04,0,0,0,314.121,0Zm3.02,15.1a3.02,3.02,0,0,1-3.02,3.02h-5.034a1.007,1.007,0,0,0-.712.295l-3.315,3.315v-2.6a1.007,1.007,0,0,0-1.007-1.007h-3.02a3.02,3.02,0,0,1-3.02-3.02V5.034a3.02,3.02,0,0,1,3.02-3.02h13.087a3.02,3.02,0,0,1,3.02,3.02Z" transform="translate(-296)" fill="#fd9827"/>
        </g>
      </g>
      <g id="Grupo_162503" data-name="Grupo 162503" transform="translate(42.427 4.64)">
        <g id="Grupo_162502" data-name="Grupo 162502" transform="translate(0 0)">
          <rect id="Rectángulo_35526" data-name="Rectángulo 35526" width="6.668" height="2.223" fill="#fd9827"/>
        </g>
      </g>
      <g id="Grupo_162505" data-name="Grupo 162505" transform="translate(51.318 4.64)">
        <g id="Grupo_162504" data-name="Grupo 162504" transform="translate(0 0)">
          <rect id="Rectángulo_35527" data-name="Rectángulo 35527" width="4.446" height="2.223" fill="#fd9827"/>
        </g>
      </g>
      <g id="Grupo_162507" data-name="Grupo 162507" transform="translate(42.427 9.085)">
        <g id="Grupo_162506" data-name="Grupo 162506" transform="translate(0 0)">
          <rect id="Rectángulo_35528" data-name="Rectángulo 35528" width="13.337" height="2.223" fill="#fd9827"/>
        </g>
      </g>
      <g id="Grupo_162509" data-name="Grupo 162509" transform="translate(42.427 13.531)">
        <g id="Grupo_162508" data-name="Grupo 162508" transform="translate(0 0)">
          <rect id="Rectángulo_35529" data-name="Rectángulo 35529" width="6.668" height="1.111" fill="#fd9827"/>
        </g>
      </g>
      <g id="Grupo_162511" data-name="Grupo 162511" transform="translate(31.237 45.208)">
        <g id="Grupo_162510" data-name="Grupo 162510">
          <path id="Trazado_154940" data-name="Trazado 154940" d="M250.66,360.408l-.736-1.16-1.7,1.079.736,1.16a8.018,8.018,0,0,1-.508,9.307,1.007,1.007,0,0,0-.22.629v3.02h2.013v-2.677A10.035,10.035,0,0,0,250.66,360.408Z" transform="translate(-248.224 -359.248)" fill="#fd9827"/>
        </g>
      </g>
      <g id="Grupo_162513" data-name="Grupo 162513" transform="translate(0 8.79)">
        <g id="Grupo_162512" data-name="Grupo 162512">
          <path id="Trazado_154941" data-name="Trazado 154941" d="M59.4,95.286h-9.06a7.047,7.047,0,0,0-7.033,6.76l-3.034,5.462v-4.169a7.055,7.055,0,0,0-7.047-7.047h-3.68l-.027-.021-.018.021H27.181a2.013,2.013,0,0,1-2.013-2.013V91.91A10.067,10.067,0,0,0,30.2,83.2V75.151a10.088,10.088,0,0,0-1.208-4.778,1.007,1.007,0,0,0-1.309-.433l-17.04,8.018a1.007,1.007,0,0,0-.578.911V83.2A10.067,10.067,0,0,0,15.1,91.91v2.369a2.013,2.013,0,0,1-2.013,2.013H7.047A7.055,7.055,0,0,0,0,103.339V121.46H2.013V103.339a5.04,5.04,0,0,1,5.034-5.034h3.2l9.066,12.667a1.007,1.007,0,0,0,.805.421h.013a1.007,1.007,0,0,0,.805-.4L30.5,98.306h2.718a5.04,5.04,0,0,1,5.034,5.034v8.054a1.007,1.007,0,0,0,1.887.488l4.746-8.542h5.772L40.844,121.46h2.29l9.82-18.121h.4A7.055,7.055,0,0,0,60.4,96.292,1.007,1.007,0,0,0,59.4,95.286ZM12.081,83.2v-3.7l15.545-7.315a8.054,8.054,0,0,1,.563,2.958V83.2a8.054,8.054,0,0,1-16.108,0Zm8.075,25.482-3.107-4.341h6.379Zm4.8-6.354H15.6l-2.882-4.027h.365a4.027,4.027,0,0,0,4.027-4.027V92.808a10.06,10.06,0,0,0,6.04,0v1.471a4.027,4.027,0,0,0,4.027,4.027h.805Zm28.406-1.007H45.4A5.042,5.042,0,0,1,50.336,97.3h7.953A5.042,5.042,0,0,1,53.356,101.326Z" transform="translate(0 -69.847)" fill="#fd9827"/>
        </g>
      </g>
    </g>
  </g>
</svg>
