<svg xmlns="http://www.w3.org/2000/svg" width="92" height="92" viewBox="0 0 92 92">
  <g id="Grupo_163127" data-name="Grupo 163127" transform="translate(-1118 -4110.184)">
    <rect id="Rectángulo_35530" data-name="Rectángulo 35530" width="92" height="92" transform="translate(1118 4110.184)" fill="none"/>
    <g id="cheque" transform="translate(1137 4121.273)">
      <path id="Trazado_154942" data-name="Trazado 154942" d="M2.986,49.308a.986.986,0,0,0,.986-.986V14.813a2.957,2.957,0,0,1,2.957-2.957h5.144l-.186.747a.986.986,0,0,0,.956,1.224H32.553a.986.986,0,0,0,.956-1.224l-.186-.747h5.144a2.957,2.957,0,0,1,2.957,2.957v9.856a.986.986,0,0,0,1.971,0V14.813a4.934,4.934,0,0,0-4.928-4.928H32.831L32.286,7.7a4.928,4.928,0,0,0-4.779-3.73H25.473a2.939,2.939,0,0,0-5.551,0H17.888A4.928,4.928,0,0,0,13.108,7.7l-.544,2.181H6.928A4.934,4.934,0,0,0,2,14.813v33.51A.986.986,0,0,0,2.986,49.308ZM22.7,3.971a.986.986,0,1,1-.986.986A.986.986,0,0,1,22.7,3.971Zm-4.81,1.971h2.034a2.939,2.939,0,0,0,5.551,0h2.034a2.957,2.957,0,0,1,2.867,2.239l.917,3.674H14.1l.916-3.671a2.957,2.957,0,0,1,2.868-2.242Z" transform="translate(0)" fill="#fd9827"/>
      <path id="Trazado_154943" data-name="Trazado 154943" d="M21.48,20.289a.986.986,0,0,0-1.394,0l-2.037,2.037a6.912,6.912,0,1,0,1.1,1.682l2.326-2.326A.986.986,0,0,0,21.48,20.289ZM17.827,26.9a4.988,4.988,0,1,1-1.183-3.167L12.9,27.478,11.624,26.2A.986.986,0,1,0,10.231,27.6L12.2,29.568a.986.986,0,0,0,1.394,0l4.019-4.019a4.866,4.866,0,0,1,.212,1.35Z" transform="translate(-0.057 -0.259)" fill="#fd9827"/>
      <path id="Trazado_154944" data-name="Trazado 154944" d="M21.48,36.289a.986.986,0,0,0-1.394,0l-2.037,2.037a6.912,6.912,0,1,0,1.1,1.682l2.326-2.326A.986.986,0,0,0,21.48,36.289ZM17.827,42.9a4.988,4.988,0,1,1-1.183-3.167L12.9,43.478,11.624,42.2A.986.986,0,1,0,10.231,43.6L12.2,45.568a.986.986,0,0,0,1.394,0l4.019-4.019A4.866,4.866,0,0,1,17.827,42.9Z" transform="translate(-0.057 -0.49)" fill="#fd9827"/>
      <path id="Trazado_154945" data-name="Trazado 154945" d="M30.9,24H24.986a.986.986,0,1,0,0,1.971H30.9A.986.986,0,1,0,30.9,24Z" transform="translate(-0.317 -0.317)" fill="#fd9827"/>
      <path id="Trazado_154946" data-name="Trazado 154946" d="M30.9,28H24.986a.986.986,0,1,0,0,1.971H30.9A.986.986,0,1,0,30.9,28Z" transform="translate(-0.317 -0.375)" fill="#fd9827"/>
      <path id="Trazado_154947" data-name="Trazado 154947" d="M30.9,40H24.986a.986.986,0,1,0,0,1.971H30.9A.986.986,0,1,0,30.9,40Z" transform="translate(-0.317 -0.548)" fill="#fd9827"/>
      <path id="Trazado_154948" data-name="Trazado 154948" d="M30.9,44H24.986a.986.986,0,1,0,0,1.971H30.9A.986.986,0,1,0,30.9,44Z" transform="translate(-0.317 -0.605)" fill="#fd9827"/>
      <path id="Trazado_154949" data-name="Trazado 154949" d="M60.461,29.994,48.634,26.051a.977.977,0,0,0-.623,0L36.184,29.994a.986.986,0,0,0-.674.934V39.8A16.844,16.844,0,0,0,41.424,52.57v3.983a2.957,2.957,0,0,1-2.957,2.957H6.928a2.957,2.957,0,0,1-2.957-2.957V52.611a.986.986,0,1,0-1.971,0v3.942a4.934,4.934,0,0,0,4.928,4.928H38.467a4.934,4.934,0,0,0,4.928-4.928V54.089l4.337,3.252a.986.986,0,0,0,1.183,0L54.433,53.2a16.835,16.835,0,0,0,6.7-13.4v-8.87A.986.986,0,0,0,60.461,29.994Zm-1.3,9.8a14.854,14.854,0,0,1-5.914,11.827l-4.928,3.7-4.928-3.7A14.854,14.854,0,0,1,37.481,39.8v-8.16l10.841-3.614,10.841,3.614Z" transform="translate(0 -0.346)" fill="#fd9827"/>
      <path id="Trazado_154950" data-name="Trazado 154950" d="M48.559,30.268,40.674,32.9A.986.986,0,0,0,40,33.83v6.029a12.871,12.871,0,0,0,5.125,10.25l3.154,2.365a.986.986,0,0,0,1.183,0l3.154-2.365a12.871,12.871,0,0,0,5.125-10.25V33.83a.986.986,0,0,0-.674-.934l-7.885-2.628A.977.977,0,0,0,48.559,30.268Zm7.211,4.269v5.322a10.9,10.9,0,0,1-4.337,8.673L48.87,50.454l-2.563-1.922h0a10.9,10.9,0,0,1-4.337-8.673V34.537l6.9-2.3Z" transform="translate(-0.548 -0.407)" fill="#fd9827"/>
      <path id="Trazado_154951" data-name="Trazado 154951" d="M45.682,40.246a.986.986,0,1,0-1.394,1.394L46.26,43.61a.986.986,0,0,0,1.329.061L53.5,38.743a.987.987,0,1,0-1.264-1.516L47.015,41.58Z" transform="translate(-0.605 -0.504)" fill="#fd9827"/>
    </g>
  </g>
</svg>
