<svg xmlns="http://www.w3.org/2000/svg" width="101" height="101" viewBox="0 0 101 101">
  <g id="Grupo_163143" data-name="Grupo 163143" transform="translate(-540 -892)">
    <g id="Elipse_4856" data-name="Elipse 4856" transform="translate(540 892)" fill="#fff" stroke="#785549" stroke-width="2">
      <circle cx="50.5" cy="50.5" r="50.5" stroke="none"/>
      <circle cx="50.5" cy="50.5" r="49.5" fill="none"/>
    </g>
    <g id="XMLID_2341_" transform="translate(558.086 893.852)">
      <g id="XMLID_1325_" transform="translate(0.92 19.426)">
        <g id="XMLID_2619_">
          <circle id="XMLID_2783_" cx="15.066" cy="15.066" r="15.066" transform="translate(1.972)" fill="#c0c942"/>
          <g id="XMLID_1353_" transform="translate(0 16.915)">
            <g id="XMLID_1385_">
              <g id="XMLID_1419_">
                <circle id="XMLID_1420_" cx="1.972" cy="1.972" r="1.972" fill="#f9b767"/>
              </g>
            </g>
          </g>
          <g id="XMLID_1387_" transform="translate(9.501 7.414)">
            <g id="XMLID_1391_">
              <g id="XMLID_2785_">
                <circle id="XMLID_2786_" cx="1.972" cy="1.972" r="1.972" fill="#f9b767"/>
              </g>
            </g>
          </g>
          <g id="XMLID_1393_" transform="translate(19.578 17.491)">
            <g id="XMLID_1397_">
              <g id="XMLID_2798_">
                <circle id="XMLID_2799_" cx="1.972" cy="1.972" r="1.972" fill="#f9b767"/>
              </g>
            </g>
          </g>
          <g id="XMLID_1399_" transform="translate(32.664 4.405)">
            <g id="XMLID_1403_">
              <g id="XMLID_2801_">
                <circle id="XMLID_2802_" cx="1.972" cy="1.972" r="1.972" fill="#f9b767"/>
              </g>
            </g>
          </g>
          <g id="XMLID_1405_" transform="translate(41.353 13.094)">
            <g id="XMLID_1409_">
              <g id="XMLID_2803_">
                <circle id="XMLID_2804_" cx="1.972" cy="1.972" r="1.972" fill="#f9b767"/>
              </g>
            </g>
          </g>
        </g>
        <g id="XMLID_1352_" transform="translate(8.832 15.066)">
          <rect id="XMLID_2771_" width="5.394" height="15.174" transform="translate(0 26.206)" fill="#fd9827"/>
          <rect id="XMLID_2770_" width="5.394" height="15.174" transform="translate(9.087 26.206)" fill="#ff6a66"/>
          <rect id="XMLID_2769_" width="5.394" height="19.664" transform="translate(18.175 21.716)" fill="#f9b767"/>
          <rect id="XMLID_2768_" width="5.394" height="26.355" transform="translate(27.262 15.025)" fill="#72f2eb"/>
          <rect id="XMLID_2767_" width="5.394" height="33.275" transform="translate(36.349 8.105)" fill="#c0c942"/>
          <rect id="XMLID_2766_" width="5.394" height="41.38" transform="translate(45.437)" fill="#fd9827"/>
        </g>
      </g>
      <g id="XMLID_1496_" transform="translate(0 18.506)">
        <path id="XMLID_1515_" d="M3.425,41.156a15.922,15.922,0,0,0,3.354,4.762A.92.92,0,0,0,8.066,44.6a14.1,14.1,0,0,1-3.03-4.349,2.885,2.885,0,0,0,.444-3.23L11.1,31.4a2.884,2.884,0,0,0,2.508.035L19.8,37.619c.017.017.035.033.053.048a2.892,2.892,0,1,0,5.312.165l6.569-6.569A14.149,14.149,0,0,1,10.9,46.755a.92.92,0,0,0-.919,1.595A15.99,15.99,0,0,0,33.23,29.764l1.27-1.27a2.886,2.886,0,0,0,2.436-.15L41.7,33.113a2.9,2.9,0,1,0,1.349-1.255L38.19,27a2.892,2.892,0,1,0-5.1.309l-.575.575A15.985,15.985,0,0,0,1.972,34.492c0,.356.013.713.037,1.068a2.892,2.892,0,0,0,1.416,5.6Zm40.82-7.716a1.052,1.052,0,1,1-1.052,1.052A1.053,1.053,0,0,1,44.245,33.44Zm-8.689-8.689A1.052,1.052,0,1,1,34.5,25.8,1.053,1.053,0,0,1,35.557,24.752ZM11.342,28.812a1.052,1.052,0,1,1,1.052,1.052A1.053,1.053,0,0,1,11.342,28.812ZM22.471,39.941a1.052,1.052,0,1,1,1.052-1.052A1.053,1.053,0,0,1,22.471,39.941ZM17.958,20.347a14.168,14.168,0,0,1,13.151,8.935l-7.136,7.136a2.886,2.886,0,0,0-2.859-.083l-.016-.018-6.15-6.15A2.892,2.892,0,1,0,9.8,30.1L4.177,35.723a2.876,2.876,0,0,0-.322-.137c-.028-.363-.042-.73-.042-1.094A14.161,14.161,0,0,1,17.958,20.347ZM1.841,38.314a1.052,1.052,0,1,1,1.052,1.052A1.053,1.053,0,0,1,1.841,38.314Z" transform="translate(0 -18.506)"/>
        <path id="XMLID_1506_" d="M68.057,184.5a.92.92,0,0,0,0-1.841h-.4V162.512a.92.92,0,0,0-1.841,0v20.147H62.258V143.12h3.554v15.635a.92.92,0,1,0,1.841,0V142.2a.92.92,0,0,0-.92-.92H61.338a.92.92,0,0,0-.92.92v40.46H58.565V150.3a.92.92,0,0,0-.92-.92H52.251a.92.92,0,0,0-.92.92v32.355H49.478V157.225a.92.92,0,0,0-.92-.92H43.163a.92.92,0,0,0-.92.92v25.434H40.39V163.916a.92.92,0,0,0-.92-.92H34.076a.92.92,0,0,0-.92.92v18.743H31.3V168.4a.92.92,0,0,0-.92-.92H24.988a.92.92,0,0,0-.92.92v5.32a.92.92,0,0,0,1.841,0v-4.4h3.554v13.334H25.909v-5.177a.92.92,0,0,0-1.841,0v5.177H22.216V168.4a.92.92,0,0,0-.92-.92H15.9a.92.92,0,0,0-.92.92v14.254H7.929a.92.92,0,1,0,0,1.841H68.057ZM53.171,151.225h3.553v31.434H53.171Zm-9.087,6.92h3.554v24.514H44.084ZM35,164.836H38.55v17.823H35Zm-18.175,4.489h3.553v13.334H16.822Z" transform="translate(-6.149 -126.213)"/>
        <path id="XMLID_1505_" d="M487.125,32.816a.92.92,0,0,0,.92-.92v-.2a.92.92,0,1,0-1.841,0v.2A.92.92,0,0,0,487.125,32.816Z" transform="translate(-426.542 -29.268)"/>
        <path id="XMLID_1501_" d="M461.589,32.816a.92.92,0,0,0,.92-.92v-.2a.92.92,0,0,0-1.841,0v.2A.92.92,0,0,0,461.589,32.816Z" transform="translate(-404.14 -29.268)"/>
        <path id="XMLID_1500_" d="M461.589,64.18H464.7a.92.92,0,1,0,0-1.841h-3.111a.92.92,0,1,0,0,1.841Z" transform="translate(-404.14 -56.96)"/>
        <path id="XMLID_1497_" d="M419.336,88.383h8.3a.92.92,0,1,0,0-1.841h-8.3a.92.92,0,0,0,0,1.841Z" transform="translate(-367.072 -78.193)"/>
      </g>
    </g>
  </g>
</svg>
