<svg xmlns="http://www.w3.org/2000/svg" width="101" height="101" viewBox="0 0 101 101">
  <g id="Grupo_163145" data-name="Grupo 163145" transform="translate(-960 -892)">
    <g id="Elipse_4857" data-name="Elipse 4857" transform="translate(960 892)" fill="#fff" stroke="#785549" stroke-width="2">
      <circle cx="50.5" cy="50.5" r="50.5" stroke="none"/>
      <circle cx="50.5" cy="50.5" r="49.5" fill="none"/>
    </g>
    <g id="negocios" transform="translate(979 911)">
      <path id="Trazado_155429" data-name="Trazado 155429" d="M20,2H44V42H10V12Z" fill="#e6e9ed"/>
      <path id="Trazado_155430" data-name="Trazado 155430" d="M20,10v2H10L20,2Z" fill="#c0c942"/>
      <g id="Grupo_163144" data-name="Grupo 163144">
        <path id="Trazado_155431" data-name="Trazado 155431" d="M40,14V30.83A2.834,2.834,0,0,0,37.17,28a2.741,2.741,0,0,0-1.17.26V14Z" fill="#fcd770"/>
        <path id="Trazado_155432" data-name="Trazado 155432" d="M28,22h4V32H28Z" fill="#fcd770"/>
        <path id="Trazado_155433" data-name="Trazado 155433" d="M24,16V32H21.32A6.814,6.814,0,0,0,20,30.1V16Z" fill="#fcd770"/>
      </g>
      <path id="Trazado_155434" data-name="Trazado 155434" d="M7,62H2V52a10.006,10.006,0,0,1,9-9.95A4,4,0,0,0,19,42c0-.15-.01-.3-.02-.44A14,14,0,0,0,26.3,37.7L32,32l3.17-3.17a2.791,2.791,0,0,1,.83-.57A2.741,2.741,0,0,1,37.17,28a2.828,2.828,0,0,1,2,4.83L30,42l-6.17,6.17a2.831,2.831,0,0,0-.83,2V62Z" fill="#fd9827"/>
      <path id="Trazado_155435" data-name="Trazado 155435" d="M15,42a6.883,6.883,0,0,0,1.88-.26l1.5-.08c.2-.03.4-.06.6-.1.01.14.02.29.02.44a4,4,0,0,1-8,.05c.33-.03.66-.05,1-.05l1.87-.1A5.939,5.939,0,0,0,15,42Z" fill="#f0d0b4"/>
      <path id="Trazado_155436" data-name="Trazado 155436" d="M21.32,32A6.844,6.844,0,0,1,22,35a6.986,6.986,0,0,1-5.12,6.74l-3.01.16A7,7,0,1,1,20,30.1,6.814,6.814,0,0,1,21.32,32Z" fill="#f0d0b4"/>
      <path id="Trazado_155437" data-name="Trazado 155437" d="M62,32v8H52V32Z" fill="#fcd770"/>
      <path id="Trazado_155438" data-name="Trazado 155438" d="M62,18v8H52V18Z" fill="#fcd770"/>
      <path id="Trazado_155439" data-name="Trazado 155439" d="M62,4v8H52V4Z" fill="#fcd770"/>
      <path id="Trazado_155440" data-name="Trazado 155440" d="M63,13V3H51V7H47V21H45V1H19.586L9,11.586v18.14A7.972,7.972,0,0,0,9.951,41.2,11.012,11.012,0,0,0,1,52V63H24V50.171a1.816,1.816,0,0,1,.536-1.293L30.414,43H45V23h2V37h4v4H63V31H51v4H49V23h2v4H63V17H51v4H49V9h2v4ZM53,5h8v6H53ZM19,4.414V11H12.414ZM9,35a6,6,0,1,1,6,6A6.006,6.006,0,0,1,9,35Zm8.957,7.427a2.986,2.986,0,0,1-5.914,0,7.916,7.916,0,0,0,5.914,0Zm5.165,5.037A3.8,3.8,0,0,0,22,50.171V61H8V49H6V61H3V52a9.014,9.014,0,0,1,7.159-8.809,4.977,4.977,0,0,0,9.8-.83,15.1,15.1,0,0,0,7.043-3.954L32.414,33,33,32.414l2.878-2.878a1.829,1.829,0,1,1,2.586,2.586ZM31,31H29V23h2Zm6-3.983V15h2V27.486A3.781,3.781,0,0,0,37.171,27C37.113,27,37.057,27.014,37,27.017ZM43,41H32.414l7.464-7.464A3.8,3.8,0,0,0,41,30.829V13H35V27.681a3.93,3.93,0,0,0-.536.44L33,29.586V21H27V33h2.586l-3.993,3.993a13.049,13.049,0,0,1-4.206,2.8,7.882,7.882,0,0,0,1.35-6.8H25V15H19V28.082a7.935,7.935,0,0,0-8,0V13H21V3H43ZM21,29.726V17h2V31H21.918A8.08,8.08,0,0,0,21,29.726ZM53,33h8v6H53Zm0-14h8v6H53Z"/>
      <path id="Trazado_155441" data-name="Trazado 155441" d="M55,7h4V9H55Z"/>
      <path id="Trazado_155442" data-name="Trazado 155442" d="M55,21h4v2H55Z"/>
      <path id="Trazado_155443" data-name="Trazado 155443" d="M55,35h4v2H55Z"/>
      <path id="Trazado_155444" data-name="Trazado 155444" d="M39,5h2V7H39Z"/>
      <path id="Trazado_155445" data-name="Trazado 155445" d="M35,5h2V7H35Z"/>
      <path id="Trazado_155446" data-name="Trazado 155446" d="M23,5H33V7H23Z"/>
      <path id="Trazado_155447" data-name="Trazado 155447" d="M23,9H41v2H23Z"/>
      <path id="Trazado_155448" data-name="Trazado 155448" d="M13,15h2v2H13Z"/>
      <path id="Trazado_155449" data-name="Trazado 155449" d="M13,19h2v2H13Z"/>
      <path id="Trazado_155450" data-name="Trazado 155450" d="M13,23h2v2H13Z"/>
    </g>
  </g>
</svg>
