<svg xmlns="http://www.w3.org/2000/svg" width="156.784" height="151.198" viewBox="0 0 156.784 151.198">
  <g id="variabilidad" transform="translate(0 -9.121)">
    <g id="Grupo_163150" data-name="Grupo 163150" transform="translate(20.394 64.11)">
      <path id="Trazado_155485" data-name="Trazado 155485" d="M81.227,188.685,66.594,205.914H95.857Z" transform="translate(-66.594 -188.685)" fill="#fff"/>
    </g>
    <g id="Grupo_163151" data-name="Grupo 163151" transform="translate(136.798 81.339)">
      <path id="Trazado_155486" data-name="Trazado 155486" d="M463.572,264.8l-16.866-19.859h16.866Z" transform="translate(-446.706 -244.945)" fill="#98eaf9"/>
    </g>
    <g id="Grupo_163152" data-name="Grupo 163152" transform="translate(35.026 39.359)">
      <path id="Trazado_155487" data-name="Trazado 155487" d="M233.014,107.861H114.376l35.651,41.98H178.42l18.863-22.214,18.865,22.214h16.866Z" transform="translate(-114.376 -107.861)" fill="#fff"/>
    </g>
    <g id="Grupo_163153" data-name="Grupo 163153" transform="translate(70.677 81.339)">
      <path id="Trazado_155488" data-name="Trazado 155488" d="M230.793,244.945l14.2,16.716,14.2-16.716Z" transform="translate(-230.793 -244.945)" fill="#98eaf9"/>
    </g>
    <g id="Grupo_163154" data-name="Grupo 163154" transform="translate(15.353 81.339)">
      <path id="Trazado_155489" data-name="Trazado 155489" d="M188.446,289.558l-35.731-42.073-33.059,38.93-35.217-41.47H55.175l-5.04,5.936v38.677Z" transform="translate(-50.135 -244.945)" fill="#fd9827"/>
    </g>
    <g id="Grupo_163155" data-name="Grupo 163155" transform="translate(15.353 39.359)">
      <path id="Trazado_155490" data-name="Trazado 155490" d="M50.135,107.861v23.158l19.673-23.158Z" transform="translate(-50.135 -107.861)" fill="#fff"/>
    </g>
    <g id="Grupo_163156" data-name="Grupo 163156" transform="translate(15.353 39.359)">
      <path id="Trazado_155491" data-name="Trazado 155491" d="M188.446,194.454l-35.731-42.073-33.059,38.93-49.848-58.7L50.135,155.777V131.019l19.673-23.158,49.848,58.7,33.059-38.93L188.446,169.7Z" transform="translate(-50.135 -107.861)" fill="#c0c942"/>
    </g>
    <g id="Grupo_163157" data-name="Grupo 163157" transform="translate(0 9.121)">
      <path id="Trazado_155492" data-name="Trazado 155492" d="M150.2,382.078a3.061,3.061,0,1,0-.53,4A3.087,3.087,0,0,0,150.2,382.078Z" transform="translate(-100.309 -266.946)"/>
      <path id="Trazado_155493" data-name="Trazado 155493" d="M156.157,145.713a3.087,3.087,0,0,0-.086-3.841l-6.753-7.994a3.062,3.062,0,1,0-4.679,3.952l2.5,2.956H18.416V129.015H33.9a3.062,3.062,0,0,0,0-6.125H18.416V88.4l3.4-4H48.24L80.925,122.89H60.807a3.062,3.062,0,0,0,0,6.125H153.66A3.089,3.089,0,0,0,156,123.97L120.267,81.9a3.094,3.094,0,0,0-4.669,0L84.874,118.078,37.36,62.128a3.093,3.093,0,0,0-4.669,0L18.416,78.938v-15.3l16.61-19.553L68.31,83.282l.011.013.015.018.006.008,14.2,16.716a3.093,3.093,0,0,0,4.668,0l14.2-16.716h0l16.528-19.464,16.531,19.465,0,0,16.862,19.855A3.062,3.062,0,0,0,156,99.215L143.416,84.4h10.247a3.062,3.062,0,1,0,0-6.125H138.215L120.267,57.142a3.094,3.094,0,0,0-4.669,0L97.652,78.276H72.094L41.644,42.42H153.663a3.062,3.062,0,1,0,0-6.125H18.416V18.769l2.956,2.5a3.063,3.063,0,0,0,3.952-4.679L17.329,9.834a3.1,3.1,0,0,0-3.952,0L5.383,16.587a3.063,3.063,0,0,0,3.952,4.679l2.956-2.5V140.786H3.062a3.062,3.062,0,1,0,0,6.125h9.228v10.347a3.062,3.062,0,0,0,6.125,0V146.91h128.72l-2.5,2.955a3.062,3.062,0,1,0,4.679,3.952l6.753-7.994.086-.111Zm-9.111-22.823H88.824L117.933,88.61ZM35.026,68.841l8.013,9.436H27.013ZM92.451,84.4l-7.577,8.923L77.3,84.4ZM28.406,42.422l-9.991,11.76V42.422Z" transform="translate(0 -9.121)"/>
    </g>
  </g>
</svg>
