<svg xmlns="http://www.w3.org/2000/svg" width="92" height="92" viewBox="0 0 92 92">
  <g id="Grupo_163125" data-name="Grupo 163125" transform="translate(-390 -4110.184)">
    <rect id="Rectángulo_35282" data-name="Rectángulo 35282" width="92" height="92" transform="translate(390 4110.184)" fill="none"/>
    <g id="database" transform="translate(404.813 4124.813)">
      <path id="Trazado_154920" data-name="Trazado 154920" d="M19.865,36H15.973a.973.973,0,0,0-.973.973v3.892a.973.973,0,0,0,.973.973h3.892a.973.973,0,0,0,.973-.973V36.973A.973.973,0,0,0,19.865,36Zm-.973,3.892H16.946V37.946h1.946Z" transform="translate(-0.352 -0.921)" fill="#fd9827"/>
      <path id="Trazado_154921" data-name="Trazado 154921" d="M27.865,36H23.973a.973.973,0,0,0-.973.973v3.892a.973.973,0,0,0,.973.973h3.892a.973.973,0,0,0,.973-.973V36.973A.973.973,0,0,0,27.865,36Zm-.973,3.892H24.946V37.946h1.946Z" transform="translate(-0.569 -0.921)" fill="#fd9827"/>
      <path id="Trazado_154922" data-name="Trazado 154922" d="M31,36H44.621v1.946H31Z" transform="translate(-0.785 -0.921)" fill="#fd9827"/>
      <path id="Trazado_154923" data-name="Trazado 154923" d="M47,36h1.946v1.946H47Z" transform="translate(-1.219 -0.921)" fill="#fd9827"/>
      <path id="Trazado_154924" data-name="Trazado 154924" d="M31,40H44.621v1.946H31Z" transform="translate(-0.785 -1.029)" fill="#fd9827"/>
      <path id="Trazado_154925" data-name="Trazado 154925" d="M47,40h1.946v1.946H47Z" transform="translate(-1.219 -1.029)" fill="#fd9827"/>
      <path id="Trazado_154926" data-name="Trazado 154926" d="M15.973,57.837h3.892a.973.973,0,0,0,.973-.973V52.973A.973.973,0,0,0,19.865,52H15.973a.973.973,0,0,0-.973.973v3.892A.973.973,0,0,0,15.973,57.837Zm.973-3.892h1.946v1.946H16.946Z" transform="translate(-0.352 -1.354)" fill="#fd9827"/>
      <path id="Trazado_154927" data-name="Trazado 154927" d="M23.973,57.837h3.892a.973.973,0,0,0,.973-.973V52.973A.973.973,0,0,0,27.865,52H23.973a.973.973,0,0,0-.973.973v3.892A.973.973,0,0,0,23.973,57.837Zm.973-3.892h1.946v1.946H24.946Z" transform="translate(-0.569 -1.354)" fill="#fd9827"/>
      <path id="Trazado_154928" data-name="Trazado 154928" d="M31,52H44.621v1.946H31Z" transform="translate(-0.785 -1.354)" fill="#fd9827"/>
      <path id="Trazado_154929" data-name="Trazado 154929" d="M47,52h1.946v1.946H47Z" transform="translate(-1.219 -1.354)" fill="#fd9827"/>
      <path id="Trazado_154930" data-name="Trazado 154930" d="M31,56H44.621v1.946H31Z" transform="translate(-0.785 -1.462)" fill="#fd9827"/>
      <path id="Trazado_154931" data-name="Trazado 154931" d="M47,56h1.946v1.946H47Z" transform="translate(-1.219 -1.462)" fill="#fd9827"/>
      <path id="Trazado_154932" data-name="Trazado 154932" d="M59.558,28.278l-3.853-.642a11.142,11.142,0,0,0-.564-1.362l2.267-3.181a.973.973,0,0,0-.1-1.255l-4.125-4.125a.973.973,0,0,0-1.255-.1l-3.181,2.267a13.842,13.842,0,0,0-1.362-.564l-.642-3.853a.973.973,0,0,0-.963-.817H39.944a.973.973,0,0,0-.963.817l-.01.078V7.838C38.971,4,29.67,2,20.485,2S2,4,2,7.838V37.025c0,2.948,5.176,4.388,8.776,5.04a2.91,2.91,0,0,0,2.9,2.744h.973v1.946h-.973a2.928,2.928,0,0,0-2.919,2.919v7.783a2.928,2.928,0,0,0,2.919,2.919H48.7a2.928,2.928,0,0,0,2.919-2.919V49.673A2.928,2.928,0,0,0,48.7,46.754h-.973V44.808H48.7a2.66,2.66,0,0,0,.486-.049l2.744,1.956a1.014,1.014,0,0,0,.564.175,1,1,0,0,0,.691-.282l4.125-4.125a.973.973,0,0,0,.1-1.255l-2.267-3.181a11.141,11.141,0,0,0,.564-1.362l3.853-.642a.973.973,0,0,0,.817-.963V29.242a.973.973,0,0,0-.817-.963ZM38.971,26.605a6.771,6.771,0,0,1,10.653,4.748,2.931,2.931,0,0,0-.924-.165H38.971ZM20.485,3.946c10.7,0,16.54,2.569,16.54,3.892s-5.838,3.892-16.54,3.892S3.946,9.161,3.946,7.838,9.783,3.946,20.485,3.946ZM3.946,10.581c3.2,2.033,9.885,3.094,16.54,3.094s13.339-1.06,16.54-3.094v6.986c0,1.323-5.838,3.892-16.54,3.892S3.946,18.89,3.946,17.567Zm6.81,23.525V40.08c-4.933-.934-6.81-2.345-6.81-3.055V30.039A20.9,20.9,0,0,0,11.3,32.413a2.9,2.9,0,0,0-.545,1.693ZM3.946,27.3V20.31c3.2,2.033,9.885,3.094,16.54,3.094s13.339-1.06,16.54-3.094V27.3c0,1.323-5.838,3.892-16.54,3.892S3.946,28.619,3.946,27.3Zm33.079,2.744v1.148H34.612a12.131,12.131,0,0,0,2.413-1.148ZM48.7,48.7a.973.973,0,0,1,.973.973v7.783a.973.973,0,0,1-.973.973H13.675a.973.973,0,0,1-.973-.973V49.673a.973.973,0,0,1,.973-.973ZM16.594,46.754V44.808h3.892v1.946Zm5.837,0V44.808H39.944v1.946Zm19.458,0V44.808h3.892v1.946Zm7.783-4.865a.973.973,0,0,1-.973.973H13.675a.973.973,0,0,1-.973-.973V34.106a.973.973,0,0,1,.973-.973H48.7a.973.973,0,0,1,.973.973Zm8.756-7.637-3.619.6a1,1,0,0,0-.778.681,11.489,11.489,0,0,1-.876,2.14.95.95,0,0,0,.068,1.022l2.121,2.987-2.958,2.958-1.382-.983a2.892,2.892,0,0,0,.613-1.771V34.106a2.767,2.767,0,0,0-.1-.7,9.065,9.065,0,0,0,.1-1.245,8.737,8.737,0,0,0-12.648-7.832V21.176a4.8,4.8,0,0,1,.525-.185,1,1,0,0,0,.671-.778l.6-3.619h4.184l.6,3.619a1,1,0,0,0,.681.778,11.772,11.772,0,0,1,2.14.876A.973.973,0,0,0,49.4,21.8l2.987-2.121,2.958,2.958-2.121,2.987a.95.95,0,0,0-.068,1.022,11.49,11.49,0,0,1,.876,2.14,1,1,0,0,0,.778.681l3.619.6Z" transform="translate(0 0)" fill="#fd9827"/>
      <path id="Trazado_154933" data-name="Trazado 154933" d="M5.946,48H4v7.783a.973.973,0,0,0,.973.973H8.865V54.81H5.946Z" transform="translate(-0.054 -1.246)" fill="#fd9827"/>
      <path id="Trazado_154934" data-name="Trazado 154934" d="M60.567,4H45V5.946H59.594v9.326L56.96,17.906l1.376,1.376,2.919-2.919a.973.973,0,0,0,.285-.688V4.973A.973.973,0,0,0,60.567,4Z" transform="translate(-1.165 -0.054)" fill="#fd9827"/>
      <path id="Trazado_154935" data-name="Trazado 154935" d="M41,4h1.946V5.946H41Z" transform="translate(-1.056 -0.054)" fill="#fd9827"/>
      <path id="Trazado_154936" data-name="Trazado 154936" d="M4,44H5.946v1.946H4Z" transform="translate(-0.054 -1.137)" fill="#fd9827"/>
    </g>
  </g>
</svg>
