<svg xmlns="http://www.w3.org/2000/svg" width="135.38" height="135.38" viewBox="0 0 135.38 135.38">
  <g id="codigo-qr" transform="translate(-16 -16)">
    <path id="Trazado_155234" data-name="Trazado 155234" d="M18.256,34.051a2.256,2.256,0,0,0,2.256-2.256V20.513H31.794a2.256,2.256,0,1,0,0-4.513H18.256A2.256,2.256,0,0,0,16,18.256V31.794A2.256,2.256,0,0,0,18.256,34.051Z"/>
    <path id="Trazado_155235" data-name="Trazado 155235" d="M447.794,16H434.256a2.256,2.256,0,1,0,0,4.513h11.282V31.794a2.256,2.256,0,1,0,4.513,0V18.256A2.256,2.256,0,0,0,447.794,16Z" transform="translate(-298.671)"/>
    <path id="Trazado_155236" data-name="Trazado 155236" d="M31.794,445.538H20.513V434.256a2.256,2.256,0,1,0-4.513,0v13.538a2.256,2.256,0,0,0,2.256,2.256H31.794a2.256,2.256,0,1,0,0-4.513Z" transform="translate(0 -298.671)"/>
    <path id="Trazado_155237" data-name="Trazado 155237" d="M447.794,432a2.256,2.256,0,0,0-2.256,2.256v11.282H434.256a2.256,2.256,0,1,0,0,4.513h13.538a2.256,2.256,0,0,0,2.256-2.256V434.256A2.256,2.256,0,0,0,447.794,432Z" transform="translate(-298.671 -298.671)"/>
    <path id="Trazado_155238" data-name="Trazado 155238" d="M79.589,77.332V50.256A2.256,2.256,0,0,0,77.332,48H50.256A2.256,2.256,0,0,0,48,50.256V77.332a2.256,2.256,0,0,0,2.256,2.256H77.332A2.256,2.256,0,0,0,79.589,77.332Zm-4.513-2.256H52.513V52.513H75.076Z" transform="translate(-22.975 -22.975)"/>
    <path id="Trazado_155239" data-name="Trazado 155239" d="M82.256,93.538h9.025a2.256,2.256,0,0,0,2.256-2.256V82.256A2.256,2.256,0,0,0,91.282,80H82.256A2.256,2.256,0,0,0,80,82.256v9.025A2.256,2.256,0,0,0,82.256,93.538Zm2.256-9.025h4.513v4.513H84.513Z" transform="translate(-45.949 -45.949)"/>
    <path id="Trazado_155240" data-name="Trazado 155240" d="M383.589,50.256A2.256,2.256,0,0,0,381.332,48H354.256A2.256,2.256,0,0,0,352,50.256V77.332a2.256,2.256,0,0,0,2.256,2.256h27.076a2.256,2.256,0,0,0,2.256-2.256Zm-4.513,24.82H356.513V52.513h22.563Z" transform="translate(-241.234 -22.975)"/>
    <path id="Trazado_155241" data-name="Trazado 155241" d="M386.256,93.538h9.025a2.256,2.256,0,0,0,2.256-2.256V82.256A2.256,2.256,0,0,0,395.282,80h-9.025A2.256,2.256,0,0,0,384,82.256v9.025A2.256,2.256,0,0,0,386.256,93.538Zm2.256-9.025h4.513v4.513h-4.513Z" transform="translate(-264.209 -45.949)"/>
    <path id="Trazado_155242" data-name="Trazado 155242" d="M77.332,352H50.256A2.256,2.256,0,0,0,48,354.256v27.076a2.256,2.256,0,0,0,2.256,2.256H77.332a2.256,2.256,0,0,0,2.256-2.256V354.256A2.256,2.256,0,0,0,77.332,352Zm-2.256,27.076H52.513V356.513H75.076Z" transform="translate(-22.975 -241.234)"/>
    <path id="Trazado_155243" data-name="Trazado 155243" d="M82.256,397.538h9.025a2.256,2.256,0,0,0,2.256-2.256v-9.025A2.256,2.256,0,0,0,91.282,384H82.256A2.256,2.256,0,0,0,80,386.256v9.025A2.256,2.256,0,0,0,82.256,397.538Zm2.256-9.025h4.513v4.513H84.513Z" transform="translate(-45.949 -264.209)"/>
    <path id="Trazado_155244" data-name="Trazado 155244" d="M187.282,59.282a2.256,2.256,0,0,0,2.256-2.256V50.256A2.256,2.256,0,0,0,187.282,48h-9.025a2.256,2.256,0,1,0,0,4.513h6.769v4.513A2.256,2.256,0,0,0,187.282,59.282Z" transform="translate(-114.873 -22.975)"/>
    <path id="Trazado_155245" data-name="Trazado 155245" d="M185.025,100.307h11.282a2.256,2.256,0,1,0,0-4.513h-9.025V89.025a2.256,2.256,0,0,0-2.256-2.256h-4.513V82.256a2.256,2.256,0,0,0-4.513,0v6.769a2.256,2.256,0,0,0,2.256,2.256h4.513v6.769A2.256,2.256,0,0,0,185.025,100.307Z" transform="translate(-114.873 -45.949)"/>
    <path id="Trazado_155246" data-name="Trazado 155246" d="M246.769,48h-4.513a2.256,2.256,0,0,0,0,4.513h4.513a2.256,2.256,0,0,0,0-4.513Z" transform="translate(-160.823 -22.975)"/>
    <path id="Trazado_155247" data-name="Trazado 155247" d="M274.051,48h-6.769a2.256,2.256,0,0,0-2.256,2.256v6.769h-6.769a2.256,2.256,0,1,0,0,4.513h9.025a2.256,2.256,0,0,0,2.256-2.256V52.513h4.513a2.256,2.256,0,1,0,0-4.513Z" transform="translate(-172.31 -22.975)"/>
    <path id="Trazado_155248" data-name="Trazado 155248" d="M274.256,112A2.256,2.256,0,0,0,272,114.256v6.769a2.256,2.256,0,0,0,4.513,0v-6.769A2.256,2.256,0,0,0,274.256,112Z" transform="translate(-183.797 -68.924)"/>
    <path id="Trazado_155249" data-name="Trazado 155249" d="M308.513,82.256v6.769h-2.256a2.256,2.256,0,0,0,0,4.513h4.513a2.256,2.256,0,0,0,2.256-2.256V82.256a2.256,2.256,0,1,0-4.513,0Z" transform="translate(-206.772 -45.949)"/>
    <path id="Trazado_155250" data-name="Trazado 155250" d="M232,106.256a2.256,2.256,0,0,0,2.256,2.256h2.256a2.256,2.256,0,0,0,0-4.513h-2.256A2.256,2.256,0,0,0,232,106.256Z" transform="translate(-155.079 -63.18)"/>
    <path id="Trazado_155251" data-name="Trazado 155251" d="M279.177,244.921a2.256,2.256,0,1,0,0-4.513h-9.025V235.9h4.513a2.256,2.256,0,0,0,2.256-2.256V220.1a2.256,2.256,0,0,0-4.513,0v11.282H252.1V213.332a2.256,2.256,0,0,0-2.256-2.256h-6.769V208.82a2.256,2.256,0,0,0-2.256-2.256H229.538V195.282a2.256,2.256,0,0,0-4.513,0v2.256h-4.513V186.256a2.256,2.256,0,0,0-4.513,0v13.538a2.256,2.256,0,0,0,2.256,2.256h6.769v6.769a2.256,2.256,0,0,0,2.256,2.256h11.282v2.256a2.256,2.256,0,0,0,2.256,2.256h6.769V220.1h-4.513a2.256,2.256,0,0,0,0,4.513h4.513v33.845a2.256,2.256,0,1,0,4.513,0v-4.513h4.513v4.513a2.256,2.256,0,1,0,4.513,0v-4.513h4.513v6.769a2.256,2.256,0,0,0,4.513,0V244.921ZM252.1,235.9h13.538v13.538H252.1Z" transform="translate(-143.592 -120.617)"/>
    <path id="Trazado_155252" data-name="Trazado 155252" d="M187.282,315.9v-6.769a2.256,2.256,0,0,0-2.256-2.256h-2.256v-9.025h13.538a2.256,2.256,0,0,0,2.256-2.256v-9.025a2.256,2.256,0,0,0-2.256-2.256h-2.256v-6.769a2.256,2.256,0,0,0-2.256-2.256h-4.513v-9.025a2.256,2.256,0,1,0-4.513,0v9.025h-4.513A2.256,2.256,0,0,0,176,277.538v9.025a2.256,2.256,0,0,0,4.513,0v-6.769h9.025v4.513h-2.256a2.256,2.256,0,0,0-2.256,2.256v6.769h-4.513a2.256,2.256,0,0,0-2.256,2.256V306.87a2.256,2.256,0,1,0,0,4.513h4.513V315.9h-4.513a2.256,2.256,0,0,0,0,4.513h9.025a2.256,2.256,0,0,0,0-4.513Zm2.256-27.076h4.513v4.513h-4.513Z" transform="translate(-114.873 -178.054)"/>
    <path id="Trazado_155253" data-name="Trazado 155253" d="M258.051,400h-9.025a2.256,2.256,0,0,0-2.256,2.256v11.282h-4.513a2.256,2.256,0,0,0,0,4.513h11.282a2.256,2.256,0,0,0,0-4.513h-2.256v-9.025h4.513v2.256a2.256,2.256,0,1,0,4.513,0v-4.513A2.256,2.256,0,0,0,258.051,400Z" transform="translate(-160.823 -275.696)"/>
    <path id="Trazado_155254" data-name="Trazado 155254" d="M236.513,406.769v-4.513a2.256,2.256,0,0,0-4.513,0v4.513a2.256,2.256,0,1,0,4.513,0Z" transform="translate(-155.079 -275.696)"/>
    <path id="Trazado_155255" data-name="Trazado 155255" d="M281.025,352h-6.769a2.256,2.256,0,1,0,0,4.513h6.769a2.256,2.256,0,0,0,0-4.513Z" transform="translate(-183.797 -241.234)"/>
    <path id="Trazado_155256" data-name="Trazado 155256" d="M257.025,307.282a2.256,2.256,0,0,0,2.256-2.256v-6.769A2.256,2.256,0,0,0,257.025,296h-6.769a2.256,2.256,0,0,0,0,4.513h4.513v4.513A2.256,2.256,0,0,0,257.025,307.282Z" transform="translate(-166.566 -201.028)"/>
    <path id="Trazado_155257" data-name="Trazado 155257" d="M452.513,274.256a2.256,2.256,0,1,0-4.513,0v6.769a2.256,2.256,0,0,0,4.513,0Z" transform="translate(-310.158 -183.797)"/>
    <path id="Trazado_155258" data-name="Trazado 155258" d="M450.256,328A2.256,2.256,0,0,0,448,330.256v9.025a2.256,2.256,0,0,0,4.513,0v-9.025A2.256,2.256,0,0,0,450.256,328Z" transform="translate(-310.158 -224.003)"/>
    <path id="Trazado_155259" data-name="Trazado 155259" d="M362.256,307.282h6.769a2.256,2.256,0,0,0,0-4.513h-4.513v-4.513a2.256,2.256,0,0,0-4.513,0v6.769A2.256,2.256,0,0,0,362.256,307.282Z" transform="translate(-246.978 -201.028)"/>
    <path id="Trazado_155260" data-name="Trazado 155260" d="M68.307,187.282a2.256,2.256,0,0,0-2.256-2.256H61.538v-6.769A2.256,2.256,0,0,0,59.282,176H50.256a2.256,2.256,0,0,0,0,4.513h6.769v6.769a2.256,2.256,0,0,0,2.256,2.256h6.769A2.256,2.256,0,0,0,68.307,187.282Z" transform="translate(-22.975 -114.873)"/>
    <path id="Trazado_155261" data-name="Trazado 155261" d="M130.256,151.794h11.282a2.256,2.256,0,0,0,2.256-2.256V138.256a2.256,2.256,0,1,0-4.513,0v9.025h-9.025a2.256,2.256,0,1,0,0,4.513Z" transform="translate(-80.411 -86.155)"/>
    <path id="Trazado_155262" data-name="Trazado 155262" d="M48,226.256v9.025a2.256,2.256,0,0,0,4.513,0v-9.025a2.256,2.256,0,0,0-4.513,0Z" transform="translate(-22.975 -149.335)"/>
    <path id="Trazado_155263" data-name="Trazado 155263" d="M82.256,240a2.256,2.256,0,1,0,0,4.513h4.513a2.256,2.256,0,1,0,0-4.513Z" transform="translate(-45.949 -160.823)"/>
    <path id="Trazado_155264" data-name="Trazado 155264" d="M86.358,226.051v-4.513h2.256a2.256,2.256,0,1,0,0-4.513H86.358v-6.769A2.256,2.256,0,0,0,84.1,208H75.076a2.256,2.256,0,0,0,0,4.513h6.769v4.513H72.82a2.256,2.256,0,0,0-2.256,2.256v6.769H68.307a2.256,2.256,0,0,0-2.256,2.256v11.282H61.538V232.82a2.256,2.256,0,0,0-2.256-2.256H50.256a2.256,2.256,0,0,0,0,4.513h6.769v4.513H50.256a2.256,2.256,0,1,0,0,4.513H77.332a2.256,2.256,0,1,0,0-4.513H70.563v-9.025h4.513v2.256a2.256,2.256,0,0,0,4.513,0v-4.513a2.256,2.256,0,0,0-2.256-2.256H75.076v-4.513h6.769v4.513a2.256,2.256,0,0,0,4.513,0Z" transform="translate(-22.975 -137.848)"/>
    <path id="Trazado_155265" data-name="Trazado 155265" d="M258.256,172.513h4.513a2.256,2.256,0,0,0,0-4.513h-4.513a2.256,2.256,0,1,0,0,4.513Z" transform="translate(-172.31 -109.13)"/>
    <path id="Trazado_155266" data-name="Trazado 155266" d="M290.256,204.513h4.513a2.256,2.256,0,1,0,0-4.513h-4.513a2.256,2.256,0,0,0,0,4.513Z" transform="translate(-195.285 -132.104)"/>
    <path id="Trazado_155267" data-name="Trazado 155267" d="M317.538,151.794v9.025a2.256,2.256,0,0,0,2.256,2.256h4.513a2.256,2.256,0,0,0,0-4.513h-2.256v-6.769h9.025a2.256,2.256,0,1,0,0-4.513H315.282v-2.256a2.256,2.256,0,0,0-2.256-2.256h-4.513v-4.513a2.256,2.256,0,1,0-4.513,0v6.769a2.256,2.256,0,0,0,2.256,2.256h4.513v2.256a2.256,2.256,0,0,0,2.256,2.256Z" transform="translate(-206.772 -86.155)"/>
    <path id="Trazado_155268" data-name="Trazado 155268" d="M282.256,236.513h11.282a2.256,2.256,0,1,0,0-4.513H282.256a2.256,2.256,0,1,0,0,4.513Z" transform="translate(-189.541 -155.079)"/>
    <path id="Trazado_155269" data-name="Trazado 155269" d="M423.794,178.256A2.256,2.256,0,0,0,421.538,176h-6.769a2.256,2.256,0,0,0,0,4.513h4.513v4.513h-6.769a2.256,2.256,0,0,0,0,4.513h6.769v4.513h-9.025a2.256,2.256,0,1,0,0,4.513h11.282a2.256,2.256,0,0,0,2.256-2.256Z" transform="translate(-281.44 -114.873)"/>
    <path id="Trazado_155270" data-name="Trazado 155270" d="M346.256,252.513h2.256v2.256a2.256,2.256,0,0,0,4.513,0v-4.513A2.256,2.256,0,0,0,350.769,248h-4.513a2.256,2.256,0,1,0,0,4.513Z" transform="translate(-235.49 -166.566)"/>
    <path id="Trazado_155271" data-name="Trazado 155271" d="M396.513,278.769v-2.256h4.513a2.256,2.256,0,0,0,0-4.513h-6.769A2.256,2.256,0,0,0,392,274.256v4.513a2.256,2.256,0,1,0,4.513,0Z" transform="translate(-269.952 -183.797)"/>
    <path id="Trazado_155272" data-name="Trazado 155272" d="M428.513,427.282v-6.769h4.513a2.256,2.256,0,1,0,0-4.513h-6.769A2.256,2.256,0,0,0,424,418.256v9.025a2.256,2.256,0,1,0,4.513,0Z" transform="translate(-292.927 -287.183)"/>
    <circle id="Elipse_4845" data-name="Elipse 4845" cx="2.5" cy="2.5" r="2.5" transform="translate(112.734 119.734)"/>
  </g>
</svg>
