<svg xmlns="http://www.w3.org/2000/svg" width="92" height="92" viewBox="0 0 92 92">
  <g id="Grupo_163142" data-name="Grupo 163142" transform="translate(-393 -9150.184)">
    <rect id="Rectángulo_35282" data-name="Rectángulo 35282" width="92" height="92" transform="translate(393 9150.184)" fill="none"/>
    <path id="archivo-de-base-de-datos" d="M34.294,9.213v19.8h2.841a.936.936,0,1,1,0,1.872H34.294v19.8h2.841a.936.936,0,1,1,0,1.872H33.358a.936.936,0,0,1-.936-.936V30.882H29.8a.936.936,0,1,1,0-1.872h2.626V8.277a.936.936,0,0,1,.936-.936h3.777a.936.936,0,0,1,0,1.872ZM59.893,50v7.44a2.452,2.452,0,0,1-2.449,2.449H43.011a2.451,2.451,0,0,1-2.449-2.449V45.787a2.451,2.451,0,0,1,2.449-2.449h4.428a2.628,2.628,0,0,1,2.3,1.326l1.672,2.892h6.035A2.451,2.451,0,0,1,59.893,50ZM42.434,45.787v1.769h6.813L48.117,45.6a.747.747,0,0,0-.678-.391H43.011a.578.578,0,0,0-.577.577ZM58.021,50a.578.578,0,0,0-.577-.577H42.434v8.017a.578.578,0,0,0,.577.577H57.444a.578.578,0,0,0,.577-.577V50ZM59.893,6.666v7.44a2.452,2.452,0,0,1-2.449,2.449H43.011a2.451,2.451,0,0,1-2.449-2.449V2.449A2.451,2.451,0,0,1,43.011,0h4.428a2.628,2.628,0,0,1,2.3,1.326l1.672,2.892h6.035a2.451,2.451,0,0,1,2.448,2.448ZM42.434,2.449V4.218h6.813L48.117,2.263a.746.746,0,0,0-.678-.391H43.011a.578.578,0,0,0-.577.577ZM58.021,6.666a.578.578,0,0,0-.577-.577H42.434v8.017a.578.578,0,0,0,.577.577H57.444a.578.578,0,0,0,.577-.577V6.666Zm1.872,21.669v7.44a2.452,2.452,0,0,1-2.449,2.449H43.011a2.451,2.451,0,0,1-2.449-2.449V24.118a2.451,2.451,0,0,1,2.449-2.449h4.428a2.628,2.628,0,0,1,2.3,1.326l1.672,2.892h6.035a2.451,2.451,0,0,1,2.448,2.449ZM42.434,24.118v1.769h6.813l-1.131-1.955a.747.747,0,0,0-.678-.391H43.011A.578.578,0,0,0,42.434,24.118Zm15.587,4.218a.578.578,0,0,0-.577-.577H42.434v8.017a.578.578,0,0,0,.577.577H57.444a.578.578,0,0,0,.577-.577v-7.44ZM26.368,15.657V44.3c0,1.689-1.517,2.974-4.509,3.819a33.393,33.393,0,0,1-8.675,1.008,33.4,33.4,0,0,1-8.675-1.008C1.517,47.278,0,45.994,0,44.3V15.657H0c0-3.214,6.633-4.9,13.184-4.9S26.368,12.443,26.368,15.657Zm-24.5,0h0c0,.661,1.656,1.722,4.785,2.4a36.067,36.067,0,0,0,6.528.558,36.072,36.072,0,0,0,6.527-.558c3.129-.674,4.785-1.736,4.785-2.4h0c0-1.026-3.993-3.024-11.312-3.024s-11.312,2-11.312,3.024ZM24.5,44.3V39.89a11.016,11.016,0,0,1-2.637,1.072,33.393,33.393,0,0,1-8.675,1.008,33.4,33.4,0,0,1-8.675-1.008A11.023,11.023,0,0,1,1.872,39.89V44.3c0,.7,1.206,1.47,3.146,2.017a31.976,31.976,0,0,0,8.167.938,31.979,31.979,0,0,0,8.166-.937C23.291,45.774,24.5,45,24.5,44.3Zm0-7.162V32.728A11.017,11.017,0,0,1,21.859,33.8a33.391,33.391,0,0,1-8.675,1.008A33.4,33.4,0,0,1,4.509,33.8a11.021,11.021,0,0,1-2.637-1.072v4.415c0,.7,1.206,1.47,3.146,2.017a31.976,31.976,0,0,0,8.167.938,31.979,31.979,0,0,0,8.166-.937C23.291,38.612,24.5,37.839,24.5,37.143Zm0-7.162V25.566a11.017,11.017,0,0,1-2.637,1.072,33.391,33.391,0,0,1-8.675,1.008,33.4,33.4,0,0,1-8.675-1.008,11.017,11.017,0,0,1-2.637-1.072v4.415c0,.7,1.206,1.47,3.146,2.018a31.982,31.982,0,0,0,8.167.937A31.981,31.981,0,0,0,21.351,32C23.291,31.45,24.5,30.677,24.5,29.981Zm0-7.162V18.4a11.017,11.017,0,0,1-2.637,1.072c-.628.177-1.315.332-2.047.465a34.434,34.434,0,0,1-6.627.613,34.428,34.428,0,0,1-6.628-.613c-.732-.133-1.42-.287-2.047-.464A11.017,11.017,0,0,1,1.872,18.4v4.415c0,.7,1.206,1.47,3.146,2.018a31.982,31.982,0,0,0,8.167.937,31.981,31.981,0,0,0,8.166-.937c1.94-.548,3.146-1.321,3.146-2.018Z" transform="translate(408.348 9164.237)" fill="#fd9827"/>
  </g>
</svg>
