<svg xmlns="http://www.w3.org/2000/svg" width="92" height="92" viewBox="0 0 92 92">
  <g id="Grupo_163141" data-name="Grupo 163141" transform="translate(-749 -9150.184)">
    <rect id="Rectángulo_35525" data-name="Rectángulo 35525" width="92" height="92" transform="translate(749 9150.184)" fill="none"/>
    <g id="red" transform="translate(761.203 9163.314)">
      <g id="Grupo_163130" data-name="Grupo 163130" transform="translate(0.024 0.001)">
        <g id="Grupo_163129" data-name="Grupo 163129" transform="translate(0 0)">
          <path id="Trazado_155394" data-name="Trazado 155394" d="M56.285,46.737a9.449,9.449,0,0,0-5.744,1.94L40.479,38.616a9.472,9.472,0,0,0,1.469-8.7L52.3,24.9a7.433,7.433,0,1,0-1.123-2.309L40.826,27.612A9.511,9.511,0,0,0,34.2,23.461V20.047a4.365,4.365,0,1,0-2.568,0v3.413a9.45,9.45,0,0,0-4.461,1.851l-8.3-8.3A10.565,10.565,0,0,0,20.738,7.76a1.284,1.284,0,0,0-2.477.674,7.986,7.986,0,0,1-2.028,7.7l-.025.023-.02.022a7.959,7.959,0,1,1-3.778-13.4A1.284,1.284,0,1,0,13,.285a10.525,10.525,0,1,0,4.063,18.542l8.3,8.3a9.494,9.494,0,0,0,13.3,13.3L48.725,50.493a9.5,9.5,0,1,0,7.56-3.755Zm2.054-31.069a4.879,4.879,0,1,1-4.879,4.879A4.884,4.884,0,0,1,58.339,15.668Zm-27.217.207a1.8,1.8,0,1,1,1.8,1.8A1.8,1.8,0,0,1,31.122,15.875Zm1.8,23.929a6.933,6.933,0,1,1,6.933-6.933A6.94,6.94,0,0,1,32.919,39.8ZM56.285,63.17a6.933,6.933,0,1,1,6.933-6.933A6.94,6.94,0,0,1,56.285,63.17Z" transform="translate(-0.058 -0.001)" fill="#fd9827"/>
        </g>
      </g>
      <g id="Grupo_163132" data-name="Grupo 163132" transform="translate(15.799 2.713)">
        <g id="Grupo_163131" data-name="Grupo 163131">
          <path id="Trazado_155395" data-name="Trazado 155395" d="M125.156,21.541l-.046-.046a1.284,1.284,0,0,0-1.811,1.82l.033.034a1.284,1.284,0,0,0,1.824-1.807Z" transform="translate(-122.921 -21.121)" fill="#fd9827"/>
        </g>
      </g>
      <g id="Grupo_163134" data-name="Grupo 163134" transform="translate(0.019 44.073)">
        <g id="Grupo_163133" data-name="Grupo 163133">
          <path id="Trazado_155396" data-name="Trazado 155396" d="M21.308,343.634a1.284,1.284,0,0,0-1.816,0l-7.752,7.752a7.458,7.458,0,1,0,1.816,1.816l7.752-7.752A1.284,1.284,0,0,0,21.308,343.634ZM7.465,362.356a4.879,4.879,0,1,1,4.879-4.879A4.884,4.884,0,0,1,7.465,362.356Z" transform="translate(-0.019 -343.258)" fill="#fd9827"/>
        </g>
      </g>
      <g id="Grupo_163136" data-name="Grupo 163136" transform="translate(22.165 41.024)">
        <g id="Grupo_163135" data-name="Grupo 163135">
          <path id="Trazado_155397" data-name="Trazado 155397" d="M174.7,319.886a1.283,1.283,0,1,0,.376.908A1.294,1.294,0,0,0,174.7,319.886Z" transform="translate(-172.507 -319.51)" fill="#fd9827"/>
        </g>
      </g>
    </g>
  </g>
</svg>
