<svg xmlns="http://www.w3.org/2000/svg" width="92" height="92" viewBox="0 0 92 92">
  <g id="Grupo_163140" data-name="Grupo 163140" transform="translate(-1105 -9150.184)">
    <rect id="Rectángulo_35530" data-name="Rectángulo 35530" width="92" height="92" transform="translate(1105 9150.184)" fill="none"/>
    <g id="multimedia" transform="translate(1120.526 9163.656)">
      <path id="Trazado_155398" data-name="Trazado 155398" d="M112,146.011v8.044h2.011v-8.044h4.022V144h-4.022A2.013,2.013,0,0,0,112,146.011Zm0,0" transform="translate(-97.922 -125.9)" fill="#fd9827"/>
      <path id="Trazado_155399" data-name="Trazado 155399" d="M112,240h2.011v2.011H112Zm0,0" transform="translate(-97.922 -209.834)" fill="#fd9827"/>
      <path id="Trazado_155400" data-name="Trazado 155400" d="M112,272h2.011v2.011H112Zm0,0" transform="translate(-97.922 -237.812)" fill="#fd9827"/>
      <path id="Trazado_155401" data-name="Trazado 155401" d="M352,288h2.011v2.011H352Zm0,0" transform="translate(-307.756 -251.8)" fill="#fd9827"/>
      <path id="Trazado_155402" data-name="Trazado 155402" d="M352,320h2.011v2.011H352Zm0,0" transform="translate(-307.756 -279.778)" fill="#fd9827"/>
      <path id="Trazado_155403" data-name="Trazado 155403" d="M352,256h2.011v2.011H352Zm0,0" transform="translate(-307.756 -223.823)" fill="#fd9827"/>
      <path id="Trazado_155404" data-name="Trazado 155404" d="M32,272h2.011v2.011H32Zm0,0" transform="translate(-27.978 -237.812)" fill="#fd9827"/>
      <path id="Trazado_155405" data-name="Trazado 155405" d="M32,336h2.011v2.011H32Zm0,0" transform="translate(-27.978 -293.767)" fill="#fd9827"/>
      <path id="Trazado_155406" data-name="Trazado 155406" d="M32,304h2.011v2.011H32Zm0,0" transform="translate(-27.978 -265.789)" fill="#fd9827"/>
      <path id="Trazado_155407" data-name="Trazado 155407" d="M57.316,0H27.15a5.034,5.034,0,0,0-5.028,5.028v9.05H15.083a5.034,5.034,0,0,0-5.028,5.028v9.05H5.028A5.034,5.034,0,0,0,0,33.183V57.316a5.034,5.034,0,0,0,5.028,5.028H35.194a5.034,5.034,0,0,0,5.028-5.028v-9.05h5.028a5.034,5.034,0,0,0,5.028-5.028v-9.05h7.039a5.034,5.034,0,0,0,5.028-5.028V5.028A5.034,5.034,0,0,0,57.316,0ZM38.211,57.316a3.021,3.021,0,0,1-3.017,3.017H5.028a3.021,3.021,0,0,1-3.017-3.017V33.183a3.021,3.021,0,0,1,3.017-3.017h5.028V43.238a5.034,5.034,0,0,0,5.028,5.028H38.211ZM48.266,43.238a3.021,3.021,0,0,1-3.017,3.017H15.083a3.021,3.021,0,0,1-3.017-3.017V19.105a3.021,3.021,0,0,1,3.017-3.017H45.249a3.021,3.021,0,0,1,3.017,3.017ZM56.31,8.044H42.233V6.033H56.31Zm4.022,21.116a3.021,3.021,0,0,1-3.017,3.017H50.277V19.105a5.034,5.034,0,0,0-5.028-5.028H42.233V10.055H56.31V20.3a2.975,2.975,0,0,0-1.006-.185,3.017,3.017,0,1,0,3.017,3.017V4.022h-18.1V14.078H24.133V5.028A3.021,3.021,0,0,1,27.15,2.011H57.316a3.021,3.021,0,0,1,3.017,3.017ZM56.31,23.127A1.006,1.006,0,1,1,55.3,22.122,1.006,1.006,0,0,1,56.31,23.127Zm0,0" fill="#fd9827"/>
      <path id="Trazado_155408" data-name="Trazado 155408" d="M176,190.4l19.342-9.671L176,171.055Zm2.011-16.089,12.835,6.417-12.835,6.417Zm0,0" transform="translate(-153.878 -149.554)" fill="#fd9827"/>
      <path id="Trazado_155409" data-name="Trazado 155409" d="M43.061,416H37.028v2.011H32v2.011h5.028v2.011h6.033v-2.011H64.177v-2.011H43.061Zm-2.011,4.022H39.039v-2.011H41.05Zm0,0" transform="translate(-27.978 -363.712)" fill="#fd9827"/>
      <path id="Trazado_155410" data-name="Trazado 155410" d="M208,32h12.067v2.011H208Zm0,0" transform="translate(-181.856 -27.978)" fill="#fd9827"/>
      <path id="Trazado_155411" data-name="Trazado 155411" d="M208,64h12.067v2.011H208Zm0,0" transform="translate(-181.856 -55.956)" fill="#fd9827"/>
    </g>
  </g>
</svg>
