<svg xmlns="http://www.w3.org/2000/svg" width="137.066" height="137.066" viewBox="0 0 137.066 137.066">
  <g id="FILLED_OUTLINE" transform="translate(-16 -16)">
    <path id="Trazado_155465" data-name="Trazado 155465" d="M55.982,171.386V159.964A34.267,34.267,0,0,1,90.249,125.7h0a34.267,34.267,0,0,1,34.267,34.267v11.422H156.5v-9.138A66.249,66.249,0,0,0,90.249,96h0A66.249,66.249,0,0,0,24,162.249v9.138Z" transform="translate(-5.716 -57.156)" fill="#fd9827"/>
    <path id="Trazado_155466" data-name="Trazado 155466" d="M58.628,196.526l25.737,17.158a34.236,34.236,0,0,1,2.326-3.94L61.164,192.726Q59.832,194.579,58.628,196.526Z" transform="translate(-30.455 -126.261)" fill="#008cb7"/>
    <path id="Trazado_155467" data-name="Trazado 155467" d="M380.624,192.726,355.1,209.743a34.239,34.239,0,0,1,2.326,3.94l25.736-17.158Q381.957,194.581,380.624,192.726Z" transform="translate(-242.268 -126.261)" fill="#008cb7"/>
    <rect id="Rect치ngulo_35606" data-name="Rect치ngulo 35606" width="9" height="24" transform="translate(41.066 123.067)" fill="#008cb7"/>
    <path id="Trazado_155468" data-name="Trazado 155468" d="M43.793,396.569l-3.231-3.231A4.569,4.569,0,0,0,37.332,392h-5.5a4.569,4.569,0,0,0-4.534,4L26.16,405.14a4.569,4.569,0,0,0,4.534,5.136h3.962L33.393,412.8a4.569,4.569,0,0,0,4.087,6.612h1.745l4.569-9.138h4.569V396.569Z" transform="translate(-7.233 -268.631)" fill="#ffcbb1"/>
    <rect id="Rect치ngulo_35607" data-name="Rect치ngulo 35607" width="10" height="23" transform="translate(141.066 128.067)" fill="#008cb7"/>
    <path id="Trazado_155469" data-name="Trazado 155469" d="M395.793,401.138,391.224,392h-1.745a4.569,4.569,0,0,0-4.087,6.612l1.263,2.526h-3.962a4.569,4.569,0,0,0-4.534,5.136l1.142,9.138a4.569,4.569,0,0,0,4.534,4h5.5a4.569,4.569,0,0,0,3.231-1.338l3.231-3.231h4.569V401.138Z" transform="translate(-258.718 -268.631)" fill="#ffcbb1"/>
    <path id="Trazado_155470" data-name="Trazado 155470" d="M183.733,246.85l-3.955-2.288A25.221,25.221,0,0,1,201.544,232a24.961,24.961,0,0,1,10.052,2.092l-1.829,4.187a20.416,20.416,0,0,0-8.223-1.71A20.639,20.639,0,0,0,183.733,246.85Z" transform="translate(-117.011 -154.32)" fill="#62b8d3"/>
    <path id="Trazado_155471" data-name="Trazado 155471" d="M172.569,301.141H168a25.13,25.13,0,0,1,1.151-7.538l4.359,1.369A20.565,20.565,0,0,0,172.569,301.141Z" transform="translate(-108.596 -198.333)" fill="#62b8d3"/>
    <path id="Trazado_155472" data-name="Trazado 155472" d="M213.689,55.982H199.982l-6.853,9.138-6.853-9.138H172.569A4.569,4.569,0,0,1,168,51.413V28.569A4.569,4.569,0,0,1,172.569,24h41.12a4.569,4.569,0,0,1,4.569,4.569V51.413A4.569,4.569,0,0,1,213.689,55.982Z" transform="translate(-108.596 -5.716)" fill="#c0c942"/>
    <path id="Trazado_155473" data-name="Trazado 155473" d="M226.812,70.234a2.278,2.278,0,0,1-1.615-.669l-6.853-6.853,3.231-3.231,5.238,5.238,14.376-14.376,3.231,3.231L228.427,69.565A2.278,2.278,0,0,1,226.812,70.234Z" transform="translate(-144.563 -24.536)" fill="#ccdcc2"/>
    <path id="Trazado_155474" data-name="Trazado 155474" d="M255.341,80.752A6.853,6.853,0,1,0,243.4,74.017l-36.9,65.407a9.09,9.09,0,0,1-7.818,4.645,22.844,22.844,0,1,0,19.814,11.171,9.073,9.073,0,0,1-.058-9.08Z" transform="translate(-114.318 -38.959)" fill="#c0c942"/>
    <path id="Trazado_155475" data-name="Trazado 155475" d="M249.138,366.314v-1.745a4.569,4.569,0,1,0-9.138,0v1.745a4.569,4.569,0,0,0,2.526,4.087l2.043,1.022,2.043-1.022A4.569,4.569,0,0,0,249.138,366.314Z" transform="translate(-160.036 -245.769)" fill="#ffcbb1"/>
    <path id="Trazado_155476" data-name="Trazado 155476" d="M239.75,403.306,233.138,400l-6.612,3.306A4.569,4.569,0,0,0,224,407.393v6.314h18.275v-6.314A4.569,4.569,0,0,0,239.75,403.306Z" transform="translate(-148.605 -274.347)" fill="#ffcbb1"/>
    <path id="Trazado_155477" data-name="Trazado 155477" d="M134.433,58.122l8.579-15.205h0A9.138,9.138,0,1,0,127.1,33.935l-7.068,12.527a68.539,68.539,0,0,0-8.081-4.2V22.853A6.861,6.861,0,0,0,105.093,16H63.973a6.861,6.861,0,0,0-6.853,6.853V42.265A68.548,68.548,0,0,0,16,105.093v9.138a2.285,2.285,0,0,0,2.284,2.284H50.267a2.285,2.285,0,0,0,2.284-2.284V102.809A32.018,32.018,0,0,1,84.533,70.827a31.69,31.69,0,0,1,18.443,5.856L90.191,99.342a6.816,6.816,0,0,1-5.847,3.483,25.129,25.129,0,1,0,21.8,12.289,6.8,6.8,0,0,1-.033-6.791l8.786-15.572a32.148,32.148,0,0,1,1.622,10.057v11.422a2.285,2.285,0,0,0,2.284,2.284h31.982a2.285,2.285,0,0,0,2.284-2.284v-9.138A68.223,68.223,0,0,0,134.433,58.122Zm2.025,9.61-11.937,7.958L132.074,62.3A64.392,64.392,0,0,1,136.457,67.731ZM61.689,22.853a2.287,2.287,0,0,1,2.284-2.284h41.12a2.287,2.287,0,0,1,2.284,2.284V45.7a2.287,2.287,0,0,1-2.284,2.284H91.386a2.285,2.285,0,0,0-1.828.914l-5.026,6.7-5.026-6.7a2.285,2.285,0,0,0-1.828-.914H63.973A2.287,2.287,0,0,1,61.689,45.7ZM47.982,102.809v9.138H20.569v-6.853a63.615,63.615,0,0,1,9.5-33.561L52,86.152A36.327,36.327,0,0,0,47.982,102.809ZM84.533,66.258A36.54,36.54,0,0,0,54.346,82.223L32.61,67.732A63.914,63.914,0,0,1,57.289,47.2a6.864,6.864,0,0,0,6.684,5.346H76.538l6.168,8.224a2.285,2.285,0,0,0,3.655,0l6.168-8.224h12.564a6.864,6.864,0,0,0,6.684-5.345,64.023,64.023,0,0,1,6,3.238L105.234,72.681A36.221,36.221,0,0,0,84.533,66.258Zm17.595,39.82a11.377,11.377,0,0,0,.084,11.368,20.56,20.56,0,1,1-17.829-10.052,11.4,11.4,0,0,0,9.788-5.807l36.9-65.407a4.569,4.569,0,0,1,7.958,4.491h0Zm46.369,5.868H121.084v-9.138a36.69,36.69,0,0,0-3.3-15.185l1.768-3.133L139,71.529a63.681,63.681,0,0,1,9.5,33.564Z" transform="translate(0)"/>
    <path id="Trazado_155478" data-name="Trazado 155478" d="M51.784,384H42.646a2.285,2.285,0,0,0-2.284,2.284v2.285H39.024l-2.561-2.562A6.809,6.809,0,0,0,31.616,384h-5.5a6.865,6.865,0,0,0-6.8,6l-1.142,9.138a6.853,6.853,0,0,0,6.8,7.7H25.3a6.855,6.855,0,0,0,6.463,9.138h1.745a2.285,2.285,0,0,0,2.043-1.263l3.938-7.875h.873v2.284a2.285,2.285,0,0,0,2.284,2.284h9.138a2.285,2.285,0,0,0,2.284-2.284V386.284A2.285,2.285,0,0,0,51.784,384ZM40.362,402.275H38.078a2.284,2.284,0,0,0-2.043,1.263L32.1,411.413h-.333a2.285,2.285,0,0,1-2.043-3.306l1.263-2.526a2.284,2.284,0,0,0-2.043-3.306H24.978a2.284,2.284,0,0,1-2.267-2.568l1.142-9.138a2.288,2.288,0,0,1,2.267-2h5.5a2.268,2.268,0,0,1,1.615.669l3.231,3.231a2.285,2.285,0,0,0,1.615.669h2.284Zm9.138,4.569H44.931V388.569H49.5Z" transform="translate(-1.518 -262.916)"/>
    <path id="Trazado_155479" data-name="Trazado 155479" d="M235.056,366.97l-2.872-1.436a6.814,6.814,0,0,0,2.092-4.935v-1.745a6.853,6.853,0,0,0-13.707,0V360.6a6.814,6.814,0,0,0,2.092,4.935l-2.872,1.436A6.816,6.816,0,0,0,216,373.1v6.314h4.569V373.1a2.272,2.272,0,0,1,1.263-2.043l5.59-2.8,5.591,2.8a2.272,2.272,0,0,1,1.263,2.043v6.314h4.569V373.1A6.816,6.816,0,0,0,235.056,366.97Zm-5.349-6.371a2.272,2.272,0,0,1-1.263,2.043l-1.021.511-1.022-.511a2.272,2.272,0,0,1-1.263-2.043v-1.745a2.284,2.284,0,0,1,4.569,0Z" transform="translate(-142.889 -240.054)"/>
    <path id="Trazado_155480" data-name="Trazado 155480" d="M403.784,388.569h-9.138a2.284,2.284,0,0,0-2.284,2.284v2.285h-.873l-3.938-7.875A2.284,2.284,0,0,0,385.509,384h-1.745a6.855,6.855,0,0,0-6.463,9.138h-.324a6.853,6.853,0,0,0-6.8,7.7l1.142,9.138a6.864,6.864,0,0,0,6.8,6h5.5a6.809,6.809,0,0,0,4.846-2.007l2.561-2.562h1.338V413.7a2.285,2.285,0,0,0,2.284,2.284h9.138a2.285,2.285,0,0,0,2.284-2.284V390.853a2.284,2.284,0,0,0-2.284-2.284Zm-11.422,18.275h-2.284a2.285,2.285,0,0,0-1.615.669l-3.231,3.231a2.268,2.268,0,0,1-1.615.669h-5.5a2.288,2.288,0,0,1-2.267-2l-1.142-9.138a2.284,2.284,0,0,1,2.267-2.568h3.962a2.284,2.284,0,0,0,2.043-3.306l-1.263-2.526a2.284,2.284,0,0,1,2.043-3.306h.333l3.938,7.875a2.284,2.284,0,0,0,2.043,1.263h2.284Zm9.138,4.569h-4.569V393.138H401.5Z" transform="translate(-253.002 -262.916)"/>
    <path id="Trazado_155481" data-name="Trazado 155481" d="M201.544,236.569a20.416,20.416,0,0,1,8.223,1.71l1.829-4.187A24.961,24.961,0,0,0,201.544,232a25.221,25.221,0,0,0-21.765,12.563l3.955,2.288a20.639,20.639,0,0,1,17.811-10.282Z" transform="translate(-117.011 -154.32)"/>
    <path id="Trazado_155482" data-name="Trazado 155482" d="M168,301.141h4.569a20.566,20.566,0,0,1,.941-6.169l-4.359-1.369A25.13,25.13,0,0,0,168,301.141Z" transform="translate(-108.596 -198.332)"/>
    <path id="Trazado_155483" data-name="Trazado 155483" d="M226.812,70.234a2.278,2.278,0,0,0,1.615-.669l15.991-15.991-3.231-3.231L226.812,64.719l-5.238-5.238-3.231,3.231,6.853,6.853a2.278,2.278,0,0,0,1.615.669Z" transform="translate(-144.563 -24.536)"/>
  </g>
</svg>
