<svg xmlns="http://www.w3.org/2000/svg" width="610" height="372" viewBox="0 0 610 372">
  <g id="Grupo_163216" data-name="Grupo 163216" transform="translate(-810 -2281)">
    <rect id="Rectángulo_35617" data-name="Rectángulo 35617" width="610" height="372" transform="translate(810 2281)" fill="#f3f9ff"/>
    <g id="Grupo_163215" data-name="Grupo 163215" transform="translate(854.395 2295.486)">
      <g id="Background_Complete" data-name="Background Complete" transform="translate(47.233 86.563)">
        <g id="Grupo_163172" data-name="Grupo 163172" transform="translate(0 0)">
          <g id="Grupo_163163" data-name="Grupo 163163" transform="translate(286.908)">
            <g id="Grupo_163162" data-name="Grupo 163162">
              <g id="Grupo_163160" data-name="Grupo 163160">
                <g id="Grupo_163159" data-name="Grupo 163159">
                  <path id="Trazado_155494" data-name="Trazado 155494" d="M404.611,134.823a35.851,35.851,0,1,1-35.457-41.1v35.846Z" transform="translate(-333.295 -86.42)" fill="#ebc9b1"/>
                  <path id="Trazado_155495" data-name="Trazado 155495" d="M412.176,122.287a35.747,35.747,0,0,1-.389,5.256l-35.457-5.256V86.441a35.815,35.815,0,0,1,35.846,35.846Z" transform="translate(-333.171 -86.441)" fill="#c0c942"/>
                </g>
              </g>
              <g id="Grupo_163161" data-name="Grupo 163161" transform="translate(39.741 53.703)">
                <line id="Línea_160" data-name="Línea 160" x2="38.124" transform="translate(0 2.672)" fill="none" stroke="#c7c7c7" stroke-miterlimit="10" stroke-width="1"/>
                <circle id="Elipse_4869" data-name="Elipse 4869" cx="2.672" cy="2.672" r="2.672" transform="translate(38.124)" fill="none" stroke="#c7c7c7" stroke-miterlimit="10" stroke-width="1"/>
                <rect id="Rectángulo_35618" data-name="Rectángulo 35618" width="29.611" height="1.336" transform="translate(50.484 0.668)" fill="#c7c7c7"/>
                <rect id="Rectángulo_35619" data-name="Rectángulo 35619" width="16.763" height="1.336" transform="translate(50.484 3.34)" fill="#c7c7c7"/>
              </g>
            </g>
          </g>
          <g id="Grupo_163171" data-name="Grupo 163171" transform="translate(0 116.124)">
            <g id="Grupo_163164" data-name="Grupo 163164" transform="translate(7.569 8.558)">
              <rect id="Rectángulo_35620" data-name="Rectángulo 35620" width="9.457" height="67.294" fill="#ebebeb"/>
            </g>
            <g id="Grupo_163165" data-name="Grupo 163165" transform="translate(23.823 24.847)">
              <rect id="Rectángulo_35621" data-name="Rectángulo 35621" width="9.457" height="51.005" fill="#ebebeb"/>
            </g>
            <g id="Grupo_163166" data-name="Grupo 163166" transform="translate(40.077 50.35)">
              <rect id="Rectángulo_35622" data-name="Rectángulo 35622" width="9.457" height="25.502" fill="#ebebeb"/>
            </g>
            <g id="Grupo_163167" data-name="Grupo 163167" transform="translate(56.331 35.783)">
              <rect id="Rectángulo_35623" data-name="Rectángulo 35623" width="9.457" height="40.069" fill="#ebebeb"/>
            </g>
            <g id="Grupo_163168" data-name="Grupo 163168" transform="translate(72.585 20.486)">
              <rect id="Rectángulo_35624" data-name="Rectángulo 35624" width="9.457" height="55.366" transform="translate(0)" fill="#ebebeb"/>
            </g>
            <g id="Grupo_163169" data-name="Grupo 163169" transform="translate(88.839 11.491)">
              <rect id="Rectángulo_35625" data-name="Rectángulo 35625" width="9.457" height="64.362" fill="#ebebeb"/>
            </g>
            <g id="Grupo_163170" data-name="Grupo 163170">
              <path id="Trazado_155496" data-name="Trazado 155496" d="M49.295,202.23l.11,18.964.053,18.963.076,37.925-.24-.239q13.037-.036,26.073-.006l26.073.053,26.073.052,26.072.139-26.072.14-26.073.053-26.073.052q-13.037.045-26.073-.006h-.24v-.239l.075-37.925.054-18.963Z" transform="translate(-47.209 -202.23)" fill="#ebebeb"/>
              <path id="Trazado_155497" data-name="Trazado 155497" d="M47.214,206.024a7.411,7.411,0,0,1,2.086-.268,7.335,7.335,0,0,1,2.086.268,7.263,7.263,0,0,1-2.086.268A7.374,7.374,0,0,1,47.214,206.024Z" transform="translate(-47.214 -202.22)" fill="#ebebeb"/>
              <path id="Trazado_155498" data-name="Trazado 155498" d="M47.214,211.772A7.411,7.411,0,0,1,49.3,211.5a7.3,7.3,0,0,1,2.086.268,7.263,7.263,0,0,1-2.086.268A7.374,7.374,0,0,1,47.214,211.772Z" transform="translate(-47.214 -202.203)" fill="#ebebeb"/>
              <path id="Trazado_155499" data-name="Trazado 155499" d="M47.214,217.52a7.411,7.411,0,0,1,2.086-.268,7.334,7.334,0,0,1,2.086.268,7.263,7.263,0,0,1-2.086.268A7.374,7.374,0,0,1,47.214,217.52Z" transform="translate(-47.214 -202.187)" fill="#ebebeb"/>
              <path id="Trazado_155500" data-name="Trazado 155500" d="M47.214,223.268A7.411,7.411,0,0,1,49.3,223a7.334,7.334,0,0,1,2.086.268,7.264,7.264,0,0,1-2.086.268A7.374,7.374,0,0,1,47.214,223.268Z" transform="translate(-47.214 -202.17)" fill="#ebebeb"/>
              <path id="Trazado_155501" data-name="Trazado 155501" d="M47.214,229.016a7.41,7.41,0,0,1,2.086-.268,7.334,7.334,0,0,1,2.086.268,7.3,7.3,0,0,1-2.086.269A7.376,7.376,0,0,1,47.214,229.016Z" transform="translate(-47.214 -202.153)" fill="#ebebeb"/>
              <path id="Trazado_155502" data-name="Trazado 155502" d="M47.214,234.764A7.41,7.41,0,0,1,49.3,234.5a7.334,7.334,0,0,1,2.086.268,7.263,7.263,0,0,1-2.086.268A7.339,7.339,0,0,1,47.214,234.764Z" transform="translate(-47.214 -202.137)" fill="#ebebeb"/>
              <path id="Trazado_155503" data-name="Trazado 155503" d="M47.214,240.512a7.411,7.411,0,0,1,2.086-.268,7.334,7.334,0,0,1,2.086.268,7.3,7.3,0,0,1-2.086.269A7.376,7.376,0,0,1,47.214,240.512Z" transform="translate(-47.214 -202.12)" fill="#ebebeb"/>
              <path id="Trazado_155504" data-name="Trazado 155504" d="M47.214,246.261a7.376,7.376,0,0,1,2.086-.269,7.3,7.3,0,0,1,2.086.269,7.334,7.334,0,0,1-2.086.268A7.411,7.411,0,0,1,47.214,246.261Z" transform="translate(-47.214 -202.103)" fill="#ebebeb"/>
              <path id="Trazado_155505" data-name="Trazado 155505" d="M47.214,252.008a7.411,7.411,0,0,1,2.086-.268,7.334,7.334,0,0,1,2.086.268,7.3,7.3,0,0,1-2.086.269A7.375,7.375,0,0,1,47.214,252.008Z" transform="translate(-47.214 -202.087)" fill="#ebebeb"/>
              <path id="Trazado_155506" data-name="Trazado 155506" d="M47.214,257.757a7.374,7.374,0,0,1,2.086-.268,7.263,7.263,0,0,1,2.086.268,7.334,7.334,0,0,1-2.086.268A7.411,7.411,0,0,1,47.214,257.757Z" transform="translate(-47.214 -202.07)" fill="#ebebeb"/>
              <path id="Trazado_155507" data-name="Trazado 155507" d="M47.214,263.5a7.374,7.374,0,0,1,2.086-.268,7.262,7.262,0,0,1,2.086.268,7.334,7.334,0,0,1-2.086.268A7.411,7.411,0,0,1,47.214,263.5Z" transform="translate(-47.214 -202.054)" fill="#ebebeb"/>
              <path id="Trazado_155508" data-name="Trazado 155508" d="M47.214,269.253a7.376,7.376,0,0,1,2.086-.268,7.264,7.264,0,0,1,2.086.268,7.335,7.335,0,0,1-2.086.268A7.411,7.411,0,0,1,47.214,269.253Z" transform="translate(-47.214 -202.037)" fill="#ebebeb"/>
            </g>
          </g>
        </g>
      </g>
      <g id="Arrow" transform="translate(40.698 67.363)">
        <g id="Grupo_163188" data-name="Grupo 163188">
          <g id="Grupo_163186" data-name="Grupo 163186" transform="translate(78.505 126.077)">
            <path id="Trazado_155509" data-name="Trazado 155509" d="M118.977,193.01h28.377l59.768,94.335H178.745Z" transform="translate(-118.977 -193.01)" fill="#ffc727"/>
            <path id="Trazado_155510" data-name="Trazado 155510" d="M118.977,193.01h28.377l59.768,94.335H178.745Z" transform="translate(-118.977 -193.01)" fill="#fdc98f"/>
          </g>
          <g id="Grupo_163187" data-name="Grupo 163187" transform="translate(231.734 72.897)">
            <path id="Trazado_155511" data-name="Trazado 155511" d="M271.764,139.983h28.377l59.768,94.335H331.532Z" transform="translate(-271.764 -139.983)" fill="#ffc727"/>
            <path id="Trazado_155512" data-name="Trazado 155512" d="M271.764,139.983h28.377l59.768,94.335H331.532Z" transform="translate(-271.764 -139.983)" fill="#ffd3a2"/>
          </g>
          <path id="Trazado_155513" data-name="Trazado 155513" d="M147.545,193.01H119.168L40.7,316.864H69.075Z" transform="translate(-40.698 -66.933)" fill="#fd9827"/>
          <path id="Trazado_155514" data-name="Trazado 155514" d="M300.457,139.983H272.08L178.619,287.5H207Z" transform="translate(-40.299 -67.086)" fill="#fd9827"/>
          <path id="Trazado_155515" data-name="Trazado 155515" d="M453.055,86.955H424.678L331.216,234.471h28.377Z" transform="translate(-39.858 -67.239)" fill="#fd9827"/>
          <path id="Trazado_155516" data-name="Trazado 155516" d="M417.84,87.012h41.674L448.815,67.3Z" transform="translate(-39.608 -67.296)" fill="#fd9827"/>
        </g>
      </g>
      <g id="Chart_1" data-name="Chart 1" transform="translate(40.698 44.12)">
        <g id="Grupo_163212" data-name="Grupo 163212">
          <g id="Grupo_163194" data-name="Grupo 163194" transform="translate(0 48.299)">
            <g id="Grupo_163193" data-name="Grupo 163193">
              <g id="Grupo_163192" data-name="Grupo 163192" style="isolation: isolate">
                <g id="Grupo_163189" data-name="Grupo 163189" transform="translate(0 0.429)">
                  <path id="Trazado_155518" data-name="Trazado 155518" d="M43.5,124.611l.153-.051.14-.05,2.8-.979.167-.053,1.6-.559.188-.062,2.533-.882.207-.077,1.55-.541.228-.073v-.007l2.92-1.013.247-.089,1.751-.611.275-.091,2.178-.761.295-.1,1.918-.67.308-.1,2.647-.922.274-.1,2.012-.7.268-.091,1.932-.672.227-.079,2.205-.77.221-.079,1.912-.663.187-.068,2.694-.934.194-.069,2.827-.983.153-.057,2.172-.753.14-.05,2.807-.98.12-.041,2.366-.821.107-.039,2.479-.862-2.362-.759-.1-.03-2.722-.881-.122-.035-2.334-.755-.136-.041-2.98-.956-.165-.059-2-.639-.18-.056-4.388-1.416-.215-.067-1.1-.353-.23-.073-4.279-1.378-.266-.082v-.007l-.941-.3-.28-.087-4.4-1.414v-.007l-.336-.1-.984-.318-.324-.1L55.432,96.7l-.338-.109-.539-.171-.316-.1-5.1-1.638-.295-.093v-.007l-.466-.144-.273-.088-5.07-1.634c-.04.143-.087.287-.127.43v.006c-.036.122-.072.237-.107.358v.007l-.03.107v.007c-.047.143-.087.287-.127.429a53.112,53.112,0,0,0-1.861,11.029v.007c-.012.146-.017.293-.028.446v.007a46.907,46.907,0,0,0,.016,5.122c.014.331.035.655.063.985l0,.013A53.943,53.943,0,0,0,43.5,124.611Z" transform="translate(-40.698 -92.707)" fill="#c7c7c7"/>
                  <path id="Trazado_155519" data-name="Trazado 155519" d="M88.534,107.345l-.117,1.622-.107.039.124-1.691Zm-2.944-.946.234,3.469.12-.041-.232-3.393Zm-2.714,4.5.14-.05.24-5.2-.136-.041Zm-2.9-6.31.576,7.121.153-.057-.564-7Zm-2.445,8.173.194-.069.256-8.742-.18-.056Zm-4.118-10.284-.215-.067.736,5.773.716,5.58.187-.068-.705-5.54ZM72.517,114.5l.221-.079-.64-12.369-.23-.073Zm-4.928-13.9-.266-.082,2.762,14.831.227-.079Zm-1.486-.478,1.783,15.99.268-.091-1.771-15.812Zm-4.4-1.421-.336-.1L65.6,116.917l.274-.1L61.7,98.713Zm-1.644-.524,2.589,19.758.308-.1L60.38,98.286Zm-4.961-1.6,5.338,22.125.295-.1L55.432,96.7Zm-.854-.276,3.74,23.253.275-.091-3.7-23.057Zm-5.393-1.731,7.135,25.684.247-.089-7.086-25.5Zm-.739-.24,4.726,27.017.228-.073v-.007l-4.68-26.848Zm-5.3-.832,8.271,28.467.207-.077L42.912,93.142c-.036.122-.072.237-.107.358Zm-.157.544,5.707,28.867.188-.062L42.776,93.621C42.729,93.765,42.689,93.908,42.648,94.051ZM40.76,105.54l5.832,17.99.167-.053-5.971-18.39c-.012.146-.017.293-.028.446Zm.079,6.107,0,.013,2.81,12.9.14-.05-3.016-13.847C40.79,110.992,40.811,111.316,40.839,111.646Z" transform="translate(-40.698 -92.706)" fill="#dbdbdb"/>
                </g>
                <g id="Grupo_163190" data-name="Grupo 163190" transform="translate(2.801 15.396)">
                  <path id="Trazado_155520" data-name="Trazado 155520" d="M43.491,124.566l4.017-.431,47.4-16.5-4.017.431Z" transform="translate(-43.491 -107.632)" fill="#a6a6a6"/>
                </g>
                <g id="Grupo_163191" data-name="Grupo 163191" transform="translate(2.339)">
                  <path id="Trazado_155521" data-name="Trazado 155521" d="M90.887,108.107l4.017-.431L47.048,92.28l-4.017.431Z" transform="translate(-43.031 -92.28)" fill="#a6a6a6"/>
                </g>
              </g>
            </g>
          </g>
          <g id="Grupo_163205" data-name="Grupo 163205" transform="translate(28.575 12.502)" style="isolation: isolate">
            <g id="Grupo_163195" data-name="Grupo 163195" transform="translate(0 0.027)">
              <path id="Trazado_155522" data-name="Trazado 155522" d="M117.314,56.613l.336,51.623L69.191,92.6C75.992,70.858,94.848,56.759,117.314,56.613Z" transform="translate(-69.191 -56.613)" fill="#37474f"/>
              <path id="Trazado_155523" data-name="Trazado 155523" d="M115.988,56.634l1.331,2.245,0,.3-1.5-2.534A1.306,1.306,0,0,0,115.988,56.634Zm-1.874.1,3.238,7.2,0-.4-3.063-6.819C114.231,56.721,114.168,56.722,114.113,56.729Zm-5.627.678,8.918,14.6,0-.372-8.7-14.268C108.631,57.385,108.554,57.392,108.486,57.407Zm-1.205.228,10.171,21.732,0-.517L107.487,57.6C107.418,57.607,107.35,57.621,107.281,57.635ZM110.7,75.426l6.794,10.04,0-.434L110.9,75.293l-7.955-11.77-2.667-3.946a2.541,2.541,0,0,0-.241.091l2.7,3.995ZM99.444,59.885,117.531,91.56l0-.558L99.685,59.794C99.6,59.822,99.526,59.857,99.444,59.885Zm-6.1,2.79,24.2,31.731,0-.475-23.931-31.4Zm-.557.307,24.8,37.966,0-.6-24.53-37.52C92.969,62.885,92.88,62.933,92.791,62.982Zm-5.251,3.4L117.6,102.444l0-.538L87.835,66.164C87.738,66.235,87.636,66.3,87.54,66.38Zm-.618.466,27.492,40.347.594.19L87.218,66.624C87.122,66.693,87.018,66.77,86.922,66.846ZM82.4,70.764l30.551,35.958.691.223L82.659,70.514C82.569,70.6,82.487,70.68,82.4,70.764Zm-.5.5,24.073,33.208.533.168L82.151,71.006C82.07,71.09,81.988,71.18,81.9,71.263Zm-3.935,4.465,25.377,27.891.622.2L78.155,75.485C78.093,75.562,78.025,75.645,77.963,75.728Zm-.622.817,18.338,24.6.463.148-18.617-25ZM74.2,81.26,91.466,99.787l.51.169L74.331,81.039C74.284,81.109,74.242,81.185,74.2,81.26Zm-.477.81L86.243,98.106l.387.121L73.853,81.849C73.813,81.918,73.772,81.994,73.724,82.07ZM71.1,87.395l8.473,8.555.428.142L71.18,87.2C71.152,87.263,71.125,87.332,71.1,87.395ZM70.643,88.5l5.032,6.192L76,94.8l-5.274-6.5A1.2,1.2,0,0,0,70.643,88.5Z" transform="translate(-69.187 -56.613)" fill="#263238"/>
            </g>
            <g id="Grupo_163201" data-name="Grupo 163201" transform="translate(0.208 51.65)">
              <g id="Grupo_163196" data-name="Grupo 163196">
                <path id="Trazado_155524" data-name="Trazado 155524" d="M117.649,108.087,166.1,123.729a50.948,50.948,0,0,1-48.112,36,50.074,50.074,0,0,1-15.738-2.439c-16.053-5.181-27.545-16.7-32.856-32.932Z" transform="translate(-69.398 -108.087)" fill="#c0c942"/>
              </g>
              <g id="Grupo_163199" data-name="Grupo 163199" transform="translate(48.594 15.616)">
                <g id="Grupo_163197" data-name="Grupo 163197">
                  <path id="Trazado_155525" data-name="Trazado 155525" d="M165.964,123.684l4.041-.026a50.948,50.948,0,0,1-48.112,36l-4.041.026A50.948,50.948,0,0,0,165.964,123.684Z" transform="translate(-117.852 -123.658)" fill="#ffc727"/>
                </g>
                <g id="Grupo_163198" data-name="Grupo 163198" opacity="0.1">
                  <path id="Trazado_155526" data-name="Trazado 155526" d="M165.964,123.684l4.041-.026a50.948,50.948,0,0,1-48.112,36l-4.041.026A50.948,50.948,0,0,0,165.964,123.684Z" transform="translate(-117.852 -123.658)"/>
                </g>
              </g>
              <g id="Grupo_163200" data-name="Grupo 163200" transform="translate(0.085 0.634)">
                <path id="Trazado_155527" data-name="Trazado 155527" d="M163.919,123.024l.558,5.173a.24.24,0,0,1-.027.056l-.559-5.242Zm-5.554-1.8,4.072,11.307a.142.142,0,0,1,.027-.042l-4.051-11.244Zm-1.955-.629,2.465,17.721c.021-.028.034-.049.055-.076l-2.465-17.625Zm-3.5-1.135,5.176,19.943c.014-.021.027-.041.048-.069l-5.141-19.84Zm-1.36-.432,2.712,24.889a.585.585,0,0,0,.089-.09l-2.712-24.771Zm-4.132-1.338,6.035,27.059a1.085,1.085,0,0,0,.089-.09l-6-26.929Zm-1-.325,2.438,31.481c.048-.035.089-.07.13-.1l-2.444-31.342Zm-3.786-1.216-.165-.061,5.648,33.327a.831.831,0,0,0,.13-.1Zm-1.492-.487.426,37.98a1.509,1.509,0,0,0,.179-.1l-.438-37.829Zm-4.324-1.391-.214-.075,4.408,39.74c.062-.028.117-.056.179-.09Zm-1.537,42.246c.075-.035.157-.063.234-.091l.337-42.465-.208-.075Zm-3.712-43.943-.256-.087,3.527,44.191.227-.084Zm-2.439,45.809c.1-.014.193-.042.282-.064l1.4-45.995-.256-.081Zm-3.461-47.715-.311-.1,3.255,47.936a2.034,2.034,0,0,0,.282-.063Zm-4.891-1.581-.366-.115,1.708,50.553c.11-.008.221-.023.331-.03h.006c.11-.015.221-.022.331-.03l2.149-49.032-.311-.1-2.169,49.074Zm-6.031-.023-.33.105,1.2,50.508c.1.006.207.012.311.011a.03.03,0,0,0,.034,0,2.577,2.577,0,0,0,.317.012l3.709-50.87-.359-.115-3.676,50.656ZM109.2,159c.1.02.194.033.29.047l4.605-49.759-.33.105Zm.658-48.285-.948,48.232c.1.02.194.04.29.053l.934-48.376Zm-7.686,46.546c.027.006.055.02.082.027.049.013.1.033.152.047l7.129-46.515-.289.1Zm-.1-2.178-.158,2.09c.076.027.152.054.235.081l.165-2.158.522-6.781,1.035-13.566,1.721-22.593-.227.077-1.729,22.5-1.035,13.559Zm-7.4-.876c.062.027.117.061.18.089l9.945-41.874-.242.077Zm4.291-39.817L94.069,153.9c.055.027.117.061.18.088l4.892-39.662Zm-9.993,36.49a.946.946,0,0,0,.131.089l9.242-36.375-.186.063Zm-2.945-32.132-3.333,27.1a1.11,1.11,0,0,1,.1.089l3.332-27.216Zm-8.054,21.9c.021.028.042.048.062.075l7.022-21.642-.1.035ZM92.73,116.49l-4.64,33.78a.719.719,0,0,0,.131.088l4.639-33.918Zm-9.366,29.978a.988.988,0,0,0,.089.075l4.987-17.486,3.134-11.03.357-1.271-.137.049-.337,1.188-3.134,11.029ZM81.628,120.23l-4.187,19.721a.715.715,0,0,0,.056.076l4.2-19.818Zm-6.853,15.8c0,.021.014.034.035.055l5.944-15.563-.075.028ZM77.5,121.621l-3.353,13.368c0,.021.014.035.028.055l3.366-13.437Zm-5.95,8.311a.053.053,0,0,0,.014.028l4.285-7.783-.041.014Zm1.094-6.673-1.822,4.975a.053.053,0,0,0,.014.028l1.828-5.01ZM69.483,124.6a.021.021,0,0,0,.007.013,4.623,4.623,0,0,1,.266-.38l-.02.007C69.646,124.361,69.565,124.485,69.483,124.6Z" transform="translate(-69.483 -108.719)" opacity="0.1"/>
              </g>
            </g>
            <g id="Grupo_163204" data-name="Grupo 163204" transform="translate(48.123)">
              <g id="Grupo_163202" data-name="Grupo 163202" transform="translate(0 0.026)">
                <path id="Trazado_155528" data-name="Trazado 155528" d="M117.175,56.613c28.076-.183,50.989,22.784,51.174,51.292a49.761,49.761,0,0,1-2.383,15.973l-48.455-15.642Z" transform="translate(-117.175 -56.612)" fill="#455a64"/>
                <path id="Trazado_155529" data-name="Trazado 155529" d="M162.033,83.294l.167.33L117.445,97.909l0-.393Zm.3.571L117.479,103.12l0,.365,45.013-19.3C162.444,84.07,162.389,83.968,162.333,83.864Zm-44.928,8.006,0,.351,41.15-14.434a3.077,3.077,0,0,0-.216-.3Zm41.339-13.829-41.311,18.2,0,.414,41.517-18.311C158.891,78.241,158.815,78.138,158.745,78.042ZM117.325,79.49v.235L148.674,67.45c-.069-.054-.138-.116-.215-.17Zm32.02-11.5L117.353,83.88l0,.3,32.206-16.009C149.491,68.107,149.422,68.045,149.346,67.991ZM117.363,85.239l0,.3,36.517-13.363c-.069-.075-.146-.157-.23-.233ZM154.43,72.755,117.4,90.595l0,.359,37.245-17.973C154.576,72.906,154.507,72.831,154.43,72.755Zm-37.186-5.77v.144l16.112-7.963c-.062-.02-.124-.04-.186-.054Zm18.007-7.142L117.269,70.853v.194l18.167-11.134C135.375,59.892,135.313,59.864,135.251,59.844ZM117.284,73.259l0,.193,24.942-10.337a2.3,2.3,0,0,0-.215-.115Zm26.134-9.441-26.1,13.976v.235l26.3-14.1A1.71,1.71,0,0,0,143.419,63.818Zm-26.214-2.794v.1l7.495-4-.152-.02Zm10.58-3.351L117.23,64.9v.144l10.706-7.342A.566.566,0,0,0,127.786,57.673Zm-10.6.738v.1l2.5-1.849a.735.735,0,0,0-.124,0Zm50.986,54.416-20.516,5.138.256.088,20.247-5.068C168.168,112.937,168.167,112.882,168.174,112.827Zm-27.783,2.793.38.121,27.46-3.674c0-.054.006-.11.006-.165Zm26.758,3.872-8.106,2.149.187.06,7.893-2.092A.684.684,0,0,0,167.149,119.492Zm-12.265.811.284.087,12.062-1.264a.671.671,0,0,0,.027-.117Zm13.411-14.474L136.308,114.3l.325.1,31.669-8.374C168.3,105.96,168.3,105.891,168.294,105.83Zm-41.215,5.493.483.155,40.707-6.1a2.036,2.036,0,0,0-.015-.214Zm18.648-7.277-20.838,6.567.38.129,20.528-6.469,13.552-4.266,6.777-2.125,1.121-.352c-.014-.083-.029-.165-.05-.248l-1.148.359-6.777,2.132ZM118.016,108.4l.5.162,48.655-11.387c-.014-.083-.035-.165-.057-.248ZM165.152,90.2l-47.605,18.046.428.135,47.282-17.9A2.3,2.3,0,0,0,165.152,90.2Zm-47.668,13.7,0,.345L165.1,90.057a2.485,2.485,0,0,0-.105-.3Z" transform="translate(-117.175 -56.612)" fill="#37474f"/>
              </g>
              <g id="Grupo_163203" data-name="Grupo 163203">
                <path id="Trazado_155530" data-name="Trazado 155530" d="M117.175,56.613l4.041-.026c28.075-.183,50.988,22.784,51.174,51.292a49.765,49.765,0,0,1-2.383,15.973l-4.041.026a49.761,49.761,0,0,0,2.383-15.973C168.164,79.4,145.251,56.431,117.175,56.613Z" transform="translate(-117.175 -56.586)" fill="#37474f"/>
              </g>
            </g>
          </g>
          <g id="Grupo_163206" data-name="Grupo 163206" transform="translate(12.375)">
            <line id="Línea_161" data-name="Línea 161" y1="46.361" transform="translate(3.25 6.499)" fill="none" stroke="#263238" stroke-miterlimit="10" stroke-width="1"/>
            <path id="Trazado_155531" data-name="Trazado 155531" d="M59.536,47.369a3.249,3.249,0,1,1-3.249-3.249A3.249,3.249,0,0,1,59.536,47.369Z" transform="translate(-53.037 -44.12)" fill="none" stroke="#263238" stroke-miterlimit="10" stroke-width="1"/>
            <rect id="Rectángulo_35644" data-name="Rectángulo 35644" width="36.009" height="1.625" transform="translate(13.096)" fill="#263238"/>
            <rect id="Rectángulo_35645" data-name="Rectángulo 35645" width="20.385" height="1.625" transform="translate(13.096 3.249)" fill="#263238"/>
          </g>
          <g id="Grupo_163211" data-name="Grupo 163211" transform="translate(146.279 12.502)">
            <g id="Grupo_163207" data-name="Grupo 163207">
              <rect id="Rectángulo_35646" data-name="Rectángulo 35646" width="7.748" height="7.748" fill="#ffc727"/>
              <rect id="Rectángulo_35647" data-name="Rectángulo 35647" width="36.009" height="1.625" transform="translate(12.704)" fill="#263238"/>
              <rect id="Rectángulo_35648" data-name="Rectángulo 35648" width="20.385" height="1.625" transform="translate(12.704 3.249)" fill="#263238"/>
            </g>
            <g id="Grupo_163208" data-name="Grupo 163208" transform="translate(0 15.811)">
              <rect id="Rectángulo_35649" data-name="Rectángulo 35649" width="7.748" height="7.748" fill="#37474f"/>
              <rect id="Rectángulo_35650" data-name="Rectángulo 35650" width="36.009" height="1.625" transform="translate(12.704)" fill="#263238"/>
              <rect id="Rectángulo_35651" data-name="Rectángulo 35651" width="20.385" height="1.625" transform="translate(12.704 3.249)" fill="#263238"/>
            </g>
            <g id="Grupo_163209" data-name="Grupo 163209" transform="translate(0 31.622)">
              <rect id="Rectángulo_35652" data-name="Rectángulo 35652" width="7.748" height="7.748" fill="#c7c7c7"/>
              <rect id="Rectángulo_35653" data-name="Rectángulo 35653" width="36.009" height="1.625" transform="translate(12.704)" fill="#263238"/>
              <rect id="Rectángulo_35654" data-name="Rectángulo 35654" width="20.385" height="1.625" transform="translate(12.704 3.249)" fill="#263238"/>
            </g>
            <g id="Grupo_163210" data-name="Grupo 163210" transform="translate(0 47.433)">
              <rect id="Rectángulo_35655" data-name="Rectángulo 35655" width="7.748" height="7.748" fill="#455a64"/>
              <rect id="Rectángulo_35656" data-name="Rectángulo 35656" width="36.009" height="1.625" transform="translate(12.704)" fill="#263238"/>
              <rect id="Rectángulo_35657" data-name="Rectángulo 35657" width="20.385" height="1.625" transform="translate(12.704 3.249)" fill="#263238"/>
            </g>
          </g>
        </g>
      </g>
      <g id="Speech_Bubble" data-name="Speech Bubble" transform="translate(290.625 89.729)">
        <g id="Grupo_163214" data-name="Grupo 163214" transform="translate(0 0)">
          <g id="Grupo_163213" data-name="Grupo 163213">
            <path id="Trazado_155532" data-name="Trazado 155532" d="M357.966,122.232a32.621,32.621,0,0,1-52.075,26.2L289.9,152.512l6.655-14.886a32.633,32.633,0,1,1,61.407-15.394Z" transform="translate(-289.904 -89.598)" fill="#fff" stroke="#263238" stroke-miterlimit="10" stroke-width="1"/>
          </g>
          <path id="Trazado_155533" data-name="Trazado 155533" d="M320,141.612l-14.624-14.8,4.913-4.854,8.543,8.647,17.749-27.825,5.824,3.714Z" transform="translate(-289.859 -89.56)" fill="#c0c942"/>
        </g>
      </g>
    </g>
  </g>
</svg>
